<?xml version="1.0" encoding="utf-8" standalone="no"?>
<!DOCTYPE svg PUBLIC "-//W3C//DTD SVG 1.1//EN"
  "http://www.w3.org/Graphics/SVG/1.1/DTD/svg11.dtd">
<svg xmlns:xlink="http://www.w3.org/1999/xlink" width="1152pt" height="648pt" viewBox="0 0 1152 648" xmlns="http://www.w3.org/2000/svg" version="1.1">
 <metadata>
  <rdf:RDF xmlns:dc="http://purl.org/dc/elements/1.1/" xmlns:cc="http://creativecommons.org/ns#" xmlns:rdf="http://www.w3.org/1999/02/22-rdf-syntax-ns#">
   <cc:Work>
    <dc:type rdf:resource="http://purl.org/dc/dcmitype/StillImage"/>
    <dc:date>2024-03-26T11:21:55.933737</dc:date>
    <dc:format>image/svg+xml</dc:format>
    <dc:creator>
     <cc:Agent>
      <dc:title>Matplotlib v3.8.3, https://matplotlib.org/</dc:title>
     </cc:Agent>
    </dc:creator>
   </cc:Work>
  </rdf:RDF>
 </metadata>
 <defs>
  <style type="text/css">*{stroke-linejoin: round; stroke-linecap: butt}</style>
 </defs>
 <g id="figure_1">
  <g id="patch_1">
   <path d="M 0 648 
L 1152 648 
L 1152 0 
L 0 0 
z
" style="fill: #ffffff"/>
  </g>
  <g id="axes_1">
   <g id="patch_2">
    <path d="M 144 576.72 
L 1036.8 576.72 
L 1036.8 77.76 
L 144 77.76 
z
" style="fill: #ffffff"/>
   </g>
   <g id="PolyCollection_1">
    <defs>
     <path id="m09b7dd6338" d="M 621.22361 -93.96 
L 559.57639 -93.96 
L 549.683623 -98.541818 
L 537.510563 -103.123636 
L 522.841083 -107.705455 
L 505.538634 -112.287273 
L 485.578436 -116.869091 
L 463.077791 -121.450909 
L 438.320663 -126.032727 
L 411.772487 -130.614545 
L 384.081511 -135.196364 
L 356.06394 -139.778182 
L 328.671642 -144.36 
L 302.943193 -148.941818 
L 279.941161 -153.523636 
L 260.680597 -158.105455 
L 246.055276 -162.687273 
L 236.769105 -167.269091 
L 233.28 -171.850909 
L 235.762467 -176.432727 
L 244.093136 -181.014545 
L 257.860922 -185.596364 
L 276.400646 -190.178182 
L 298.846288 -194.76 
L 324.197943 -199.341818 
L 351.395271 -203.923636 
L 379.389984 -208.505455 
L 407.210597 -213.087273 
L 434.014121 -217.669091 
L 459.121434 -222.250909 
L 482.035159 -226.832727 
L 502.44097 -231.414545 
L 520.194831 -235.996364 
L 535.299755 -240.578182 
L 547.876119 -245.16 
L 558.129453 -249.741818 
L 566.319085 -254.323636 
L 572.730187 -258.905455 
L 577.650815 -263.487273 
L 581.354689 -268.069091 
L 584.089638 -272.650909 
L 586.071136 -277.232727 
L 587.480007 -281.814545 
L 588.463233 -286.396364 
L 589.136831 -290.978182 
L 589.589903 -295.56 
L 589.889123 -300.141818 
L 590.083159 -304.723636 
L 590.206698 -309.305455 
L 590.283883 -313.887273 
L 590.331131 -318.469091 
L 590.359333 -323.050909 
L 590.375506 -327.632727 
L 590.383998 -332.214545 
L 590.387316 -336.796364 
L 590.386668 -341.378182 
L 590.382285 -345.96 
L 590.373582 -350.541818 
L 590.359182 -355.123636 
L 590.336853 -359.705455 
L 590.303371 -364.287273 
L 590.254344 -368.869091 
L 590.184006 -373.450909 
L 590.085042 -378.032727 
L 589.948453 -382.614545 
L 589.763538 -387.196364 
L 589.518031 -391.778182 
L 589.198445 -396.36 
L 588.790676 -400.941818 
L 588.280895 -405.523636 
L 587.65672 -410.105455 
L 586.908624 -414.687273 
L 586.031504 -419.269091 
L 585.026266 -423.850909 
L 583.901259 -428.432727 
L 582.673352 -433.014545 
L 581.368459 -437.596364 
L 580.021336 -442.178182 
L 578.674541 -446.76 
L 577.376518 -451.341818 
L 576.178899 -455.923636 
L 575.133195 -460.505455 
L 574.287166 -465.087273 
L 573.681221 -469.669091 
L 573.345224 -474.250909 
L 573.296053 -478.832727 
L 573.536198 -483.414545 
L 574.053549 -487.996364 
L 574.822409 -492.578182 
L 575.805609 -497.16 
L 576.957486 -501.741818 
L 578.227386 -506.323636 
L 579.563325 -510.905455 
L 580.915443 -515.487273 
L 582.238933 -520.069091 
L 583.49624 -524.650909 
L 584.658396 -529.232727 
L 585.705497 -533.814545 
L 586.626409 -538.396364 
L 587.417854 -542.978182 
L 588.083076 -547.56 
L 592.716924 -547.56 
L 592.716924 -547.56 
L 593.382146 -542.978182 
L 594.173591 -538.396364 
L 595.094503 -533.814545 
L 596.141604 -529.232727 
L 597.30376 -524.650909 
L 598.561067 -520.069091 
L 599.884557 -515.487273 
L 601.236675 -510.905455 
L 602.572614 -506.323636 
L 603.842514 -501.741818 
L 604.994391 -497.16 
L 605.977591 -492.578182 
L 606.746451 -487.996364 
L 607.263802 -483.414545 
L 607.503947 -478.832727 
L 607.454776 -474.250909 
L 607.118779 -469.669091 
L 606.512834 -465.087273 
L 605.666805 -460.505455 
L 604.621101 -455.923636 
L 603.423482 -451.341818 
L 602.125459 -446.76 
L 600.778664 -442.178182 
L 599.431541 -437.596364 
L 598.126648 -433.014545 
L 596.898741 -428.432727 
L 595.773734 -423.850909 
L 594.768496 -419.269091 
L 593.891376 -414.687273 
L 593.14328 -410.105455 
L 592.519105 -405.523636 
L 592.009324 -400.941818 
L 591.601555 -396.36 
L 591.281969 -391.778182 
L 591.036462 -387.196364 
L 590.851547 -382.614545 
L 590.714958 -378.032727 
L 590.615994 -373.450909 
L 590.545656 -368.869091 
L 590.496629 -364.287273 
L 590.463147 -359.705455 
L 590.440818 -355.123636 
L 590.426418 -350.541818 
L 590.417715 -345.96 
L 590.413332 -341.378182 
L 590.412684 -336.796364 
L 590.416002 -332.214545 
L 590.424494 -327.632727 
L 590.440667 -323.050909 
L 590.468869 -318.469091 
L 590.516117 -313.887273 
L 590.593302 -309.305455 
L 590.716841 -304.723636 
L 590.910877 -300.141818 
L 591.210097 -295.56 
L 591.663169 -290.978182 
L 592.336767 -286.396364 
L 593.319993 -281.814545 
L 594.728864 -277.232727 
L 596.710362 -272.650909 
L 599.445311 -268.069091 
L 603.149185 -263.487273 
L 608.069813 -258.905455 
L 614.480915 -254.323636 
L 622.670547 -249.741818 
L 632.923881 -245.16 
L 645.500245 -240.578182 
L 660.605169 -235.996364 
L 678.35903 -231.414545 
L 698.764841 -226.832727 
L 721.678566 -222.250909 
L 746.785879 -217.669091 
L 773.589403 -213.087273 
L 801.410016 -208.505455 
L 829.404729 -203.923636 
L 856.602057 -199.341818 
L 881.953712 -194.76 
L 904.399354 -190.178182 
L 922.939078 -185.596364 
L 936.706864 -181.014545 
L 945.037533 -176.432727 
L 947.52 -171.850909 
L 944.030895 -167.269091 
L 934.744724 -162.687273 
L 920.119403 -158.105455 
L 900.858839 -153.523636 
L 877.856807 -148.941818 
L 852.128358 -144.36 
L 824.73606 -139.778182 
L 796.718489 -135.196364 
L 769.027513 -130.614545 
L 742.479337 -126.032727 
L 717.722209 -121.450909 
L 695.221564 -116.869091 
L 675.261366 -112.287273 
L 657.958917 -107.705455 
L 643.289437 -103.123636 
L 631.116377 -98.541818 
L 621.22361 -93.96 
z
" style="stroke: #4d4d4d; stroke-opacity: 0.5; stroke-width: 1.25"/>
    </defs>
    <g clip-path="url(#pa239fe2bae)">
     <use xlink:href="#m09b7dd6338" x="0" y="648" style="fill: #224fdf; fill-opacity: 0.5; stroke: #4d4d4d; stroke-opacity: 0.5; stroke-width: 1.25"/>
    </g>
   </g>
   <g id="matplotlib.axis_1">
    <g id="xtick_1">
     <g id="line2d_1">
      <defs>
       <path id="mc96fbd1803" d="M 0 0 
L 0 3.5 
" style="stroke: #000000; stroke-width: 0.8"/>
      </defs>
      <g>
       <use xlink:href="#mc96fbd1803" x="590.4" y="576.72" style="stroke: #000000; stroke-width: 0.8"/>
      </g>
     </g>
     <g id="text_1">
      <!-- atst -->
      <g transform="translate(580.810938 591.318438) scale(0.1 -0.1)">
       <defs>
        <path id="DejaVuSans-61" d="M 2194 1759 
Q 1497 1759 1228 1600 
Q 959 1441 959 1056 
Q 959 750 1161 570 
Q 1363 391 1709 391 
Q 2188 391 2477 730 
Q 2766 1069 2766 1631 
L 2766 1759 
L 2194 1759 
z
M 3341 1997 
L 3341 0 
L 2766 0 
L 2766 531 
Q 2569 213 2275 61 
Q 1981 -91 1556 -91 
Q 1019 -91 701 211 
Q 384 513 384 1019 
Q 384 1609 779 1909 
Q 1175 2209 1959 2209 
L 2766 2209 
L 2766 2266 
Q 2766 2663 2505 2880 
Q 2244 3097 1772 3097 
Q 1472 3097 1187 3025 
Q 903 2953 641 2809 
L 641 3341 
Q 956 3463 1253 3523 
Q 1550 3584 1831 3584 
Q 2591 3584 2966 3190 
Q 3341 2797 3341 1997 
z
" transform="scale(0.015625)"/>
        <path id="DejaVuSans-74" d="M 1172 4494 
L 1172 3500 
L 2356 3500 
L 2356 3053 
L 1172 3053 
L 1172 1153 
Q 1172 725 1289 603 
Q 1406 481 1766 481 
L 2356 481 
L 2356 0 
L 1766 0 
Q 1100 0 847 248 
Q 594 497 594 1153 
L 594 3053 
L 172 3053 
L 172 3500 
L 594 3500 
L 594 4494 
L 1172 4494 
z
" transform="scale(0.015625)"/>
        <path id="DejaVuSans-73" d="M 2834 3397 
L 2834 2853 
Q 2591 2978 2328 3040 
Q 2066 3103 1784 3103 
Q 1356 3103 1142 2972 
Q 928 2841 928 2578 
Q 928 2378 1081 2264 
Q 1234 2150 1697 2047 
L 1894 2003 
Q 2506 1872 2764 1633 
Q 3022 1394 3022 966 
Q 3022 478 2636 193 
Q 2250 -91 1575 -91 
Q 1294 -91 989 -36 
Q 684 19 347 128 
L 347 722 
Q 666 556 975 473 
Q 1284 391 1588 391 
Q 1994 391 2212 530 
Q 2431 669 2431 922 
Q 2431 1156 2273 1281 
Q 2116 1406 1581 1522 
L 1381 1569 
Q 847 1681 609 1914 
Q 372 2147 372 2553 
Q 372 3047 722 3315 
Q 1072 3584 1716 3584 
Q 2034 3584 2315 3537 
Q 2597 3491 2834 3397 
z
" transform="scale(0.015625)"/>
       </defs>
       <use xlink:href="#DejaVuSans-61"/>
       <use xlink:href="#DejaVuSans-74" x="61.279297"/>
       <use xlink:href="#DejaVuSans-73" x="100.488281"/>
       <use xlink:href="#DejaVuSans-74" x="152.587891"/>
      </g>
     </g>
    </g>
    <g id="text_2">
     <!-- directory -->
     <g transform="translate(568.033594 604.996562) scale(0.1 -0.1)">
      <defs>
       <path id="DejaVuSans-64" d="M 2906 2969 
L 2906 4863 
L 3481 4863 
L 3481 0 
L 2906 0 
L 2906 525 
Q 2725 213 2448 61 
Q 2172 -91 1784 -91 
Q 1150 -91 751 415 
Q 353 922 353 1747 
Q 353 2572 751 3078 
Q 1150 3584 1784 3584 
Q 2172 3584 2448 3432 
Q 2725 3281 2906 2969 
z
M 947 1747 
Q 947 1113 1208 752 
Q 1469 391 1925 391 
Q 2381 391 2643 752 
Q 2906 1113 2906 1747 
Q 2906 2381 2643 2742 
Q 2381 3103 1925 3103 
Q 1469 3103 1208 2742 
Q 947 2381 947 1747 
z
" transform="scale(0.015625)"/>
       <path id="DejaVuSans-69" d="M 603 3500 
L 1178 3500 
L 1178 0 
L 603 0 
L 603 3500 
z
M 603 4863 
L 1178 4863 
L 1178 4134 
L 603 4134 
L 603 4863 
z
" transform="scale(0.015625)"/>
       <path id="DejaVuSans-72" d="M 2631 2963 
Q 2534 3019 2420 3045 
Q 2306 3072 2169 3072 
Q 1681 3072 1420 2755 
Q 1159 2438 1159 1844 
L 1159 0 
L 581 0 
L 581 3500 
L 1159 3500 
L 1159 2956 
Q 1341 3275 1631 3429 
Q 1922 3584 2338 3584 
Q 2397 3584 2469 3576 
Q 2541 3569 2628 3553 
L 2631 2963 
z
" transform="scale(0.015625)"/>
       <path id="DejaVuSans-65" d="M 3597 1894 
L 3597 1613 
L 953 1613 
Q 991 1019 1311 708 
Q 1631 397 2203 397 
Q 2534 397 2845 478 
Q 3156 559 3463 722 
L 3463 178 
Q 3153 47 2828 -22 
Q 2503 -91 2169 -91 
Q 1331 -91 842 396 
Q 353 884 353 1716 
Q 353 2575 817 3079 
Q 1281 3584 2069 3584 
Q 2775 3584 3186 3129 
Q 3597 2675 3597 1894 
z
M 3022 2063 
Q 3016 2534 2758 2815 
Q 2500 3097 2075 3097 
Q 1594 3097 1305 2825 
Q 1016 2553 972 2059 
L 3022 2063 
z
" transform="scale(0.015625)"/>
       <path id="DejaVuSans-63" d="M 3122 3366 
L 3122 2828 
Q 2878 2963 2633 3030 
Q 2388 3097 2138 3097 
Q 1578 3097 1268 2742 
Q 959 2388 959 1747 
Q 959 1106 1268 751 
Q 1578 397 2138 397 
Q 2388 397 2633 464 
Q 2878 531 3122 666 
L 3122 134 
Q 2881 22 2623 -34 
Q 2366 -91 2075 -91 
Q 1284 -91 818 406 
Q 353 903 353 1747 
Q 353 2603 823 3093 
Q 1294 3584 2113 3584 
Q 2378 3584 2631 3529 
Q 2884 3475 3122 3366 
z
" transform="scale(0.015625)"/>
       <path id="DejaVuSans-6f" d="M 1959 3097 
Q 1497 3097 1228 2736 
Q 959 2375 959 1747 
Q 959 1119 1226 758 
Q 1494 397 1959 397 
Q 2419 397 2687 759 
Q 2956 1122 2956 1747 
Q 2956 2369 2687 2733 
Q 2419 3097 1959 3097 
z
M 1959 3584 
Q 2709 3584 3137 3096 
Q 3566 2609 3566 1747 
Q 3566 888 3137 398 
Q 2709 -91 1959 -91 
Q 1206 -91 779 398 
Q 353 888 353 1747 
Q 353 2609 779 3096 
Q 1206 3584 1959 3584 
z
" transform="scale(0.015625)"/>
       <path id="DejaVuSans-79" d="M 2059 -325 
Q 1816 -950 1584 -1140 
Q 1353 -1331 966 -1331 
L 506 -1331 
L 506 -850 
L 844 -850 
Q 1081 -850 1212 -737 
Q 1344 -625 1503 -206 
L 1606 56 
L 191 3500 
L 800 3500 
L 1894 763 
L 2988 3500 
L 3597 3500 
L 2059 -325 
z
" transform="scale(0.015625)"/>
      </defs>
      <use xlink:href="#DejaVuSans-64"/>
      <use xlink:href="#DejaVuSans-69" x="63.476562"/>
      <use xlink:href="#DejaVuSans-72" x="91.259766"/>
      <use xlink:href="#DejaVuSans-65" x="130.123047"/>
      <use xlink:href="#DejaVuSans-63" x="191.646484"/>
      <use xlink:href="#DejaVuSans-74" x="246.626953"/>
      <use xlink:href="#DejaVuSans-6f" x="285.835938"/>
      <use xlink:href="#DejaVuSans-72" x="347.017578"/>
      <use xlink:href="#DejaVuSans-79" x="388.130859"/>
     </g>
    </g>
   </g>
   <g id="matplotlib.axis_2">
    <g id="ytick_1">
     <g id="line2d_2">
      <defs>
       <path id="mc02c52d372" d="M 0 0 
L -3.5 0 
" style="stroke: #000000; stroke-width: 0.8"/>
      </defs>
      <g>
       <use xlink:href="#mc02c52d372" x="144" y="564.547172" style="stroke: #000000; stroke-width: 0.8"/>
      </g>
     </g>
     <g id="text_3">
      <!-- −0.25 -->
      <g transform="translate(106.354687 568.34639) scale(0.1 -0.1)">
       <defs>
        <path id="DejaVuSans-2212" d="M 678 2272 
L 4684 2272 
L 4684 1741 
L 678 1741 
L 678 2272 
z
" transform="scale(0.015625)"/>
        <path id="DejaVuSans-30" d="M 2034 4250 
Q 1547 4250 1301 3770 
Q 1056 3291 1056 2328 
Q 1056 1369 1301 889 
Q 1547 409 2034 409 
Q 2525 409 2770 889 
Q 3016 1369 3016 2328 
Q 3016 3291 2770 3770 
Q 2525 4250 2034 4250 
z
M 2034 4750 
Q 2819 4750 3233 4129 
Q 3647 3509 3647 2328 
Q 3647 1150 3233 529 
Q 2819 -91 2034 -91 
Q 1250 -91 836 529 
Q 422 1150 422 2328 
Q 422 3509 836 4129 
Q 1250 4750 2034 4750 
z
" transform="scale(0.015625)"/>
        <path id="DejaVuSans-2e" d="M 684 794 
L 1344 794 
L 1344 0 
L 684 0 
L 684 794 
z
" transform="scale(0.015625)"/>
        <path id="DejaVuSans-32" d="M 1228 531 
L 3431 531 
L 3431 0 
L 469 0 
L 469 531 
Q 828 903 1448 1529 
Q 2069 2156 2228 2338 
Q 2531 2678 2651 2914 
Q 2772 3150 2772 3378 
Q 2772 3750 2511 3984 
Q 2250 4219 1831 4219 
Q 1534 4219 1204 4116 
Q 875 4013 500 3803 
L 500 4441 
Q 881 4594 1212 4672 
Q 1544 4750 1819 4750 
Q 2544 4750 2975 4387 
Q 3406 4025 3406 3419 
Q 3406 3131 3298 2873 
Q 3191 2616 2906 2266 
Q 2828 2175 2409 1742 
Q 1991 1309 1228 531 
z
" transform="scale(0.015625)"/>
        <path id="DejaVuSans-35" d="M 691 4666 
L 3169 4666 
L 3169 4134 
L 1269 4134 
L 1269 2991 
Q 1406 3038 1543 3061 
Q 1681 3084 1819 3084 
Q 2600 3084 3056 2656 
Q 3513 2228 3513 1497 
Q 3513 744 3044 326 
Q 2575 -91 1722 -91 
Q 1428 -91 1123 -41 
Q 819 9 494 109 
L 494 744 
Q 775 591 1075 516 
Q 1375 441 1709 441 
Q 2250 441 2565 725 
Q 2881 1009 2881 1497 
Q 2881 1984 2565 2268 
Q 2250 2553 1709 2553 
Q 1456 2553 1204 2497 
Q 953 2441 691 2322 
L 691 4666 
z
" transform="scale(0.015625)"/>
       </defs>
       <use xlink:href="#DejaVuSans-2212"/>
       <use xlink:href="#DejaVuSans-30" x="83.789062"/>
       <use xlink:href="#DejaVuSans-2e" x="147.412109"/>
       <use xlink:href="#DejaVuSans-32" x="179.199219"/>
       <use xlink:href="#DejaVuSans-35" x="242.822266"/>
      </g>
     </g>
    </g>
    <g id="ytick_2">
     <g id="line2d_3">
      <g>
       <use xlink:href="#mc02c52d372" x="144" y="509.048166" style="stroke: #000000; stroke-width: 0.8"/>
      </g>
     </g>
     <g id="text_4">
      <!-- 0.00 -->
      <g transform="translate(114.734375 512.847385) scale(0.1 -0.1)">
       <use xlink:href="#DejaVuSans-30"/>
       <use xlink:href="#DejaVuSans-2e" x="63.623047"/>
       <use xlink:href="#DejaVuSans-30" x="95.410156"/>
       <use xlink:href="#DejaVuSans-30" x="159.033203"/>
      </g>
     </g>
    </g>
    <g id="ytick_3">
     <g id="line2d_4">
      <g>
       <use xlink:href="#mc02c52d372" x="144" y="453.549161" style="stroke: #000000; stroke-width: 0.8"/>
      </g>
     </g>
     <g id="text_5">
      <!-- 0.25 -->
      <g transform="translate(114.734375 457.34838) scale(0.1 -0.1)">
       <use xlink:href="#DejaVuSans-30"/>
       <use xlink:href="#DejaVuSans-2e" x="63.623047"/>
       <use xlink:href="#DejaVuSans-32" x="95.410156"/>
       <use xlink:href="#DejaVuSans-35" x="159.033203"/>
      </g>
     </g>
    </g>
    <g id="ytick_4">
     <g id="line2d_5">
      <g>
       <use xlink:href="#mc02c52d372" x="144" y="398.050156" style="stroke: #000000; stroke-width: 0.8"/>
      </g>
     </g>
     <g id="text_6">
      <!-- 0.50 -->
      <g transform="translate(114.734375 401.849375) scale(0.1 -0.1)">
       <use xlink:href="#DejaVuSans-30"/>
       <use xlink:href="#DejaVuSans-2e" x="63.623047"/>
       <use xlink:href="#DejaVuSans-35" x="95.410156"/>
       <use xlink:href="#DejaVuSans-30" x="159.033203"/>
      </g>
     </g>
    </g>
    <g id="ytick_5">
     <g id="line2d_6">
      <g>
       <use xlink:href="#mc02c52d372" x="144" y="342.551151" style="stroke: #000000; stroke-width: 0.8"/>
      </g>
     </g>
     <g id="text_7">
      <!-- 0.75 -->
      <g transform="translate(114.734375 346.350369) scale(0.1 -0.1)">
       <defs>
        <path id="DejaVuSans-37" d="M 525 4666 
L 3525 4666 
L 3525 4397 
L 1831 0 
L 1172 0 
L 2766 4134 
L 525 4134 
L 525 4666 
z
" transform="scale(0.015625)"/>
       </defs>
       <use xlink:href="#DejaVuSans-30"/>
       <use xlink:href="#DejaVuSans-2e" x="63.623047"/>
       <use xlink:href="#DejaVuSans-37" x="95.410156"/>
       <use xlink:href="#DejaVuSans-35" x="159.033203"/>
      </g>
     </g>
    </g>
    <g id="ytick_6">
     <g id="line2d_7">
      <g>
       <use xlink:href="#mc02c52d372" x="144" y="287.052145" style="stroke: #000000; stroke-width: 0.8"/>
      </g>
     </g>
     <g id="text_8">
      <!-- 1.00 -->
      <g transform="translate(114.734375 290.851364) scale(0.1 -0.1)">
       <defs>
        <path id="DejaVuSans-31" d="M 794 531 
L 1825 531 
L 1825 4091 
L 703 3866 
L 703 4441 
L 1819 4666 
L 2450 4666 
L 2450 531 
L 3481 531 
L 3481 0 
L 794 0 
L 794 531 
z
" transform="scale(0.015625)"/>
       </defs>
       <use xlink:href="#DejaVuSans-31"/>
       <use xlink:href="#DejaVuSans-2e" x="63.623047"/>
       <use xlink:href="#DejaVuSans-30" x="95.410156"/>
       <use xlink:href="#DejaVuSans-30" x="159.033203"/>
      </g>
     </g>
    </g>
    <g id="ytick_7">
     <g id="line2d_8">
      <g>
       <use xlink:href="#mc02c52d372" x="144" y="231.55314" style="stroke: #000000; stroke-width: 0.8"/>
      </g>
     </g>
     <g id="text_9">
      <!-- 1.25 -->
      <g transform="translate(114.734375 235.352359) scale(0.1 -0.1)">
       <use xlink:href="#DejaVuSans-31"/>
       <use xlink:href="#DejaVuSans-2e" x="63.623047"/>
       <use xlink:href="#DejaVuSans-32" x="95.410156"/>
       <use xlink:href="#DejaVuSans-35" x="159.033203"/>
      </g>
     </g>
    </g>
    <g id="ytick_8">
     <g id="line2d_9">
      <g>
       <use xlink:href="#mc02c52d372" x="144" y="176.054135" style="stroke: #000000; stroke-width: 0.8"/>
      </g>
     </g>
     <g id="text_10">
      <!-- 1.50 -->
      <g transform="translate(114.734375 179.853354) scale(0.1 -0.1)">
       <use xlink:href="#DejaVuSans-31"/>
       <use xlink:href="#DejaVuSans-2e" x="63.623047"/>
       <use xlink:href="#DejaVuSans-35" x="95.410156"/>
       <use xlink:href="#DejaVuSans-30" x="159.033203"/>
      </g>
     </g>
    </g>
    <g id="ytick_9">
     <g id="line2d_10">
      <g>
       <use xlink:href="#mc02c52d372" x="144" y="120.55513" style="stroke: #000000; stroke-width: 0.8"/>
      </g>
     </g>
     <g id="text_11">
      <!-- 1.75 -->
      <g transform="translate(114.734375 124.354348) scale(0.1 -0.1)">
       <use xlink:href="#DejaVuSans-31"/>
       <use xlink:href="#DejaVuSans-2e" x="63.623047"/>
       <use xlink:href="#DejaVuSans-37" x="95.410156"/>
       <use xlink:href="#DejaVuSans-35" x="159.033203"/>
      </g>
     </g>
    </g>
    <g id="text_12">
     <!-- Cartesian Bounding Box Area / $\mathregular{nm^2}$ -->
     <g transform="translate(100.254687 416.04) rotate(-90) scale(0.1 -0.1)">
      <defs>
       <path id="DejaVuSans-43" d="M 4122 4306 
L 4122 3641 
Q 3803 3938 3442 4084 
Q 3081 4231 2675 4231 
Q 1875 4231 1450 3742 
Q 1025 3253 1025 2328 
Q 1025 1406 1450 917 
Q 1875 428 2675 428 
Q 3081 428 3442 575 
Q 3803 722 4122 1019 
L 4122 359 
Q 3791 134 3420 21 
Q 3050 -91 2638 -91 
Q 1578 -91 968 557 
Q 359 1206 359 2328 
Q 359 3453 968 4101 
Q 1578 4750 2638 4750 
Q 3056 4750 3426 4639 
Q 3797 4528 4122 4306 
z
" transform="scale(0.015625)"/>
       <path id="DejaVuSans-6e" d="M 3513 2113 
L 3513 0 
L 2938 0 
L 2938 2094 
Q 2938 2591 2744 2837 
Q 2550 3084 2163 3084 
Q 1697 3084 1428 2787 
Q 1159 2491 1159 1978 
L 1159 0 
L 581 0 
L 581 3500 
L 1159 3500 
L 1159 2956 
Q 1366 3272 1645 3428 
Q 1925 3584 2291 3584 
Q 2894 3584 3203 3211 
Q 3513 2838 3513 2113 
z
" transform="scale(0.015625)"/>
       <path id="DejaVuSans-20" transform="scale(0.015625)"/>
       <path id="DejaVuSans-42" d="M 1259 2228 
L 1259 519 
L 2272 519 
Q 2781 519 3026 730 
Q 3272 941 3272 1375 
Q 3272 1813 3026 2020 
Q 2781 2228 2272 2228 
L 1259 2228 
z
M 1259 4147 
L 1259 2741 
L 2194 2741 
Q 2656 2741 2882 2914 
Q 3109 3088 3109 3444 
Q 3109 3797 2882 3972 
Q 2656 4147 2194 4147 
L 1259 4147 
z
M 628 4666 
L 2241 4666 
Q 2963 4666 3353 4366 
Q 3744 4066 3744 3513 
Q 3744 3084 3544 2831 
Q 3344 2578 2956 2516 
Q 3422 2416 3680 2098 
Q 3938 1781 3938 1306 
Q 3938 681 3513 340 
Q 3088 0 2303 0 
L 628 0 
L 628 4666 
z
" transform="scale(0.015625)"/>
       <path id="DejaVuSans-75" d="M 544 1381 
L 544 3500 
L 1119 3500 
L 1119 1403 
Q 1119 906 1312 657 
Q 1506 409 1894 409 
Q 2359 409 2629 706 
Q 2900 1003 2900 1516 
L 2900 3500 
L 3475 3500 
L 3475 0 
L 2900 0 
L 2900 538 
Q 2691 219 2414 64 
Q 2138 -91 1772 -91 
Q 1169 -91 856 284 
Q 544 659 544 1381 
z
M 1991 3584 
L 1991 3584 
z
" transform="scale(0.015625)"/>
       <path id="DejaVuSans-67" d="M 2906 1791 
Q 2906 2416 2648 2759 
Q 2391 3103 1925 3103 
Q 1463 3103 1205 2759 
Q 947 2416 947 1791 
Q 947 1169 1205 825 
Q 1463 481 1925 481 
Q 2391 481 2648 825 
Q 2906 1169 2906 1791 
z
M 3481 434 
Q 3481 -459 3084 -895 
Q 2688 -1331 1869 -1331 
Q 1566 -1331 1297 -1286 
Q 1028 -1241 775 -1147 
L 775 -588 
Q 1028 -725 1275 -790 
Q 1522 -856 1778 -856 
Q 2344 -856 2625 -561 
Q 2906 -266 2906 331 
L 2906 616 
Q 2728 306 2450 153 
Q 2172 0 1784 0 
Q 1141 0 747 490 
Q 353 981 353 1791 
Q 353 2603 747 3093 
Q 1141 3584 1784 3584 
Q 2172 3584 2450 3431 
Q 2728 3278 2906 2969 
L 2906 3500 
L 3481 3500 
L 3481 434 
z
" transform="scale(0.015625)"/>
       <path id="DejaVuSans-78" d="M 3513 3500 
L 2247 1797 
L 3578 0 
L 2900 0 
L 1881 1375 
L 863 0 
L 184 0 
L 1544 1831 
L 300 3500 
L 978 3500 
L 1906 2253 
L 2834 3500 
L 3513 3500 
z
" transform="scale(0.015625)"/>
       <path id="DejaVuSans-41" d="M 2188 4044 
L 1331 1722 
L 3047 1722 
L 2188 4044 
z
M 1831 4666 
L 2547 4666 
L 4325 0 
L 3669 0 
L 3244 1197 
L 1141 1197 
L 716 0 
L 50 0 
L 1831 4666 
z
" transform="scale(0.015625)"/>
       <path id="DejaVuSans-2f" d="M 1625 4666 
L 2156 4666 
L 531 -594 
L 0 -594 
L 1625 4666 
z
" transform="scale(0.015625)"/>
       <path id="DejaVuSans-6d" d="M 3328 2828 
Q 3544 3216 3844 3400 
Q 4144 3584 4550 3584 
Q 5097 3584 5394 3201 
Q 5691 2819 5691 2113 
L 5691 0 
L 5113 0 
L 5113 2094 
Q 5113 2597 4934 2840 
Q 4756 3084 4391 3084 
Q 3944 3084 3684 2787 
Q 3425 2491 3425 1978 
L 3425 0 
L 2847 0 
L 2847 2094 
Q 2847 2600 2669 2842 
Q 2491 3084 2119 3084 
Q 1678 3084 1418 2786 
Q 1159 2488 1159 1978 
L 1159 0 
L 581 0 
L 581 3500 
L 1159 3500 
L 1159 2956 
Q 1356 3278 1631 3431 
Q 1906 3584 2284 3584 
Q 2666 3584 2933 3390 
Q 3200 3197 3328 2828 
z
" transform="scale(0.015625)"/>
      </defs>
      <use xlink:href="#DejaVuSans-43" transform="translate(0 0.765625)"/>
      <use xlink:href="#DejaVuSans-61" transform="translate(69.824219 0.765625)"/>
      <use xlink:href="#DejaVuSans-72" transform="translate(131.103516 0.765625)"/>
      <use xlink:href="#DejaVuSans-74" transform="translate(172.216797 0.765625)"/>
      <use xlink:href="#DejaVuSans-65" transform="translate(211.425781 0.765625)"/>
      <use xlink:href="#DejaVuSans-73" transform="translate(272.949219 0.765625)"/>
      <use xlink:href="#DejaVuSans-69" transform="translate(325.048828 0.765625)"/>
      <use xlink:href="#DejaVuSans-61" transform="translate(352.832031 0.765625)"/>
      <use xlink:href="#DejaVuSans-6e" transform="translate(414.111328 0.765625)"/>
      <use xlink:href="#DejaVuSans-20" transform="translate(477.490234 0.765625)"/>
      <use xlink:href="#DejaVuSans-42" transform="translate(509.277344 0.765625)"/>
      <use xlink:href="#DejaVuSans-6f" transform="translate(577.880859 0.765625)"/>
      <use xlink:href="#DejaVuSans-75" transform="translate(639.0625 0.765625)"/>
      <use xlink:href="#DejaVuSans-6e" transform="translate(702.441406 0.765625)"/>
      <use xlink:href="#DejaVuSans-64" transform="translate(765.820312 0.765625)"/>
      <use xlink:href="#DejaVuSans-69" transform="translate(829.296875 0.765625)"/>
      <use xlink:href="#DejaVuSans-6e" transform="translate(857.080078 0.765625)"/>
      <use xlink:href="#DejaVuSans-67" transform="translate(920.458984 0.765625)"/>
      <use xlink:href="#DejaVuSans-20" transform="translate(983.935547 0.765625)"/>
      <use xlink:href="#DejaVuSans-42" transform="translate(1015.722656 0.765625)"/>
      <use xlink:href="#DejaVuSans-6f" transform="translate(1084.326172 0.765625)"/>
      <use xlink:href="#DejaVuSans-78" transform="translate(1145.507812 0.765625)"/>
      <use xlink:href="#DejaVuSans-20" transform="translate(1204.6875 0.765625)"/>
      <use xlink:href="#DejaVuSans-41" transform="translate(1236.474609 0.765625)"/>
      <use xlink:href="#DejaVuSans-72" transform="translate(1304.882812 0.765625)"/>
      <use xlink:href="#DejaVuSans-65" transform="translate(1345.996094 0.765625)"/>
      <use xlink:href="#DejaVuSans-61" transform="translate(1407.519531 0.765625)"/>
      <use xlink:href="#DejaVuSans-20" transform="translate(1468.798828 0.765625)"/>
      <use xlink:href="#DejaVuSans-2f" transform="translate(1500.585938 0.765625)"/>
      <use xlink:href="#DejaVuSans-20" transform="translate(1534.277344 0.765625)"/>
      <use xlink:href="#DejaVuSans-6e" transform="translate(1566.064453 0.765625)"/>
      <use xlink:href="#DejaVuSans-6d" transform="translate(1629.443359 0.765625)"/>
      <use xlink:href="#DejaVuSans-32" transform="translate(1727.8125 39.046875) scale(0.7)"/>
     </g>
    </g>
    <g id="text_13">
     <!-- 1e−14 -->
     <g transform="translate(144 74.76) scale(0.1 -0.1)">
      <defs>
       <path id="DejaVuSans-34" d="M 2419 4116 
L 825 1625 
L 2419 1625 
L 2419 4116 
z
M 2253 4666 
L 3047 4666 
L 3047 1625 
L 3713 1625 
L 3713 1100 
L 3047 1100 
L 3047 0 
L 2419 0 
L 2419 1100 
L 313 1100 
L 313 1709 
L 2253 4666 
z
" transform="scale(0.015625)"/>
      </defs>
      <use xlink:href="#DejaVuSans-31"/>
      <use xlink:href="#DejaVuSans-65" x="63.623047"/>
      <use xlink:href="#DejaVuSans-2212" x="125.146484"/>
      <use xlink:href="#DejaVuSans-31" x="208.935547"/>
      <use xlink:href="#DejaVuSans-34" x="272.558594"/>
     </g>
    </g>
   </g>
   <g id="line2d_11">
    <path d="M 590.4 483.79689 
L 590.4 469.74914 
" clip-path="url(#pa239fe2bae)" style="fill: none; stroke: #4d4d4d; stroke-width: 1.875; stroke-linecap: square"/>
   </g>
   <g id="line2d_12">
    <path d="M 590.4 478.002802 
L 590.4 472.345509 
" clip-path="url(#pa239fe2bae)" style="fill: none; stroke: #4d4d4d; stroke-width: 5.625; stroke-linecap: square"/>
   </g>
   <g id="line2d_13">
    <path d="M 590.4 474.754971 
" clip-path="url(#pa239fe2bae)" style="fill: none; stroke: #4d4d4d; stroke-width: 1.5; stroke-linecap: square"/>
    <defs>
     <path id="m90d3853cbc" d="M 2.34375 0 
L -2.34375 -0 
" style="stroke: #ffffff; stroke-width: 1.125"/>
    </defs>
    <g clip-path="url(#pa239fe2bae)">
     <use xlink:href="#m90d3853cbc" x="590.4" y="474.754971" style="fill: #ffffff; stroke: #ffffff; stroke-width: 1.125"/>
    </g>
   </g>
   <g id="patch_3">
    <path d="M 144 576.72 
L 144 77.76 
" style="fill: none; stroke: #000000; stroke-width: 0.8; stroke-linejoin: miter; stroke-linecap: square"/>
   </g>
   <g id="patch_4">
    <path d="M 1036.8 576.72 
L 1036.8 77.76 
" style="fill: none; stroke: #000000; stroke-width: 0.8; stroke-linejoin: miter; stroke-linecap: square"/>
   </g>
   <g id="patch_5">
    <path d="M 144 576.72 
L 1036.8 576.72 
" style="fill: none; stroke: #000000; stroke-width: 0.8; stroke-linejoin: miter; stroke-linecap: square"/>
   </g>
   <g id="patch_6">
    <path d="M 144 77.76 
L 1036.8 77.76 
" style="fill: none; stroke: #000000; stroke-width: 0.8; stroke-linejoin: miter; stroke-linecap: square"/>
   </g>
   <g id="text_14">
    <!-- Cartesian Bounding Box Area / $\mathregular{nm^2}$ -->
    <g transform="translate(483.84 71.76) scale(0.12 -0.12)">
     <use xlink:href="#DejaVuSans-43" transform="translate(0 0.765625)"/>
     <use xlink:href="#DejaVuSans-61" transform="translate(69.824219 0.765625)"/>
     <use xlink:href="#DejaVuSans-72" transform="translate(131.103516 0.765625)"/>
     <use xlink:href="#DejaVuSans-74" transform="translate(172.216797 0.765625)"/>
     <use xlink:href="#DejaVuSans-65" transform="translate(211.425781 0.765625)"/>
     <use xlink:href="#DejaVuSans-73" transform="translate(272.949219 0.765625)"/>
     <use xlink:href="#DejaVuSans-69" transform="translate(325.048828 0.765625)"/>
     <use xlink:href="#DejaVuSans-61" transform="translate(352.832031 0.765625)"/>
     <use xlink:href="#DejaVuSans-6e" transform="translate(414.111328 0.765625)"/>
     <use xlink:href="#DejaVuSans-20" transform="translate(477.490234 0.765625)"/>
     <use xlink:href="#DejaVuSans-42" transform="translate(509.277344 0.765625)"/>
     <use xlink:href="#DejaVuSans-6f" transform="translate(577.880859 0.765625)"/>
     <use xlink:href="#DejaVuSans-75" transform="translate(639.0625 0.765625)"/>
     <use xlink:href="#DejaVuSans-6e" transform="translate(702.441406 0.765625)"/>
     <use xlink:href="#DejaVuSans-64" transform="translate(765.820312 0.765625)"/>
     <use xlink:href="#DejaVuSans-69" transform="translate(829.296875 0.765625)"/>
     <use xlink:href="#DejaVuSans-6e" transform="translate(857.080078 0.765625)"/>
     <use xlink:href="#DejaVuSans-67" transform="translate(920.458984 0.765625)"/>
     <use xlink:href="#DejaVuSans-20" transform="translate(983.935547 0.765625)"/>
     <use xlink:href="#DejaVuSans-42" transform="translate(1015.722656 0.765625)"/>
     <use xlink:href="#DejaVuSans-6f" transform="translate(1084.326172 0.765625)"/>
     <use xlink:href="#DejaVuSans-78" transform="translate(1145.507812 0.765625)"/>
     <use xlink:href="#DejaVuSans-20" transform="translate(1204.6875 0.765625)"/>
     <use xlink:href="#DejaVuSans-41" transform="translate(1236.474609 0.765625)"/>
     <use xlink:href="#DejaVuSans-72" transform="translate(1304.882812 0.765625)"/>
     <use xlink:href="#DejaVuSans-65" transform="translate(1345.996094 0.765625)"/>
     <use xlink:href="#DejaVuSans-61" transform="translate(1407.519531 0.765625)"/>
     <use xlink:href="#DejaVuSans-20" transform="translate(1468.798828 0.765625)"/>
     <use xlink:href="#DejaVuSans-2f" transform="translate(1500.585938 0.765625)"/>
     <use xlink:href="#DejaVuSans-20" transform="translate(1534.277344 0.765625)"/>
     <use xlink:href="#DejaVuSans-6e" transform="translate(1566.064453 0.765625)"/>
     <use xlink:href="#DejaVuSans-6d" transform="translate(1629.443359 0.765625)"/>
     <use xlink:href="#DejaVuSans-32" transform="translate(1727.8125 39.046875) scale(0.7)"/>
    </g>
   </g>
  </g>
 </g>
 <defs>
  <clipPath id="pa239fe2bae">
   <rect x="144" y="77.76" width="892.8" height="498.96"/>
  </clipPath>
 </defs>
</svg>
