<?xml version="1.0" encoding="utf-8" standalone="no"?>
<!DOCTYPE svg PUBLIC "-//W3C//DTD SVG 1.1//EN"
  "http://www.w3.org/Graphics/SVG/1.1/DTD/svg11.dtd">
<svg xmlns:xlink="http://www.w3.org/1999/xlink" width="1152pt" height="648pt" viewBox="0 0 1152 648" xmlns="http://www.w3.org/2000/svg" version="1.1">
 <metadata>
  <rdf:RDF xmlns:dc="http://purl.org/dc/elements/1.1/" xmlns:cc="http://creativecommons.org/ns#" xmlns:rdf="http://www.w3.org/1999/02/22-rdf-syntax-ns#">
   <cc:Work>
    <dc:type rdf:resource="http://purl.org/dc/dcmitype/StillImage"/>
    <dc:date>2024-03-26T11:21:55.759090</dc:date>
    <dc:format>image/svg+xml</dc:format>
    <dc:creator>
     <cc:Agent>
      <dc:title>Matplotlib v3.8.3, https://matplotlib.org/</dc:title>
     </cc:Agent>
    </dc:creator>
   </cc:Work>
  </rdf:RDF>
 </metadata>
 <defs>
  <style type="text/css">*{stroke-linejoin: round; stroke-linecap: butt}</style>
 </defs>
 <g id="figure_1">
  <g id="patch_1">
   <path d="M 0 648 
L 1152 648 
L 1152 0 
L 0 0 
z
" style="fill: #ffffff"/>
  </g>
  <g id="axes_1">
   <g id="patch_2">
    <path d="M 144 576.72 
L 1036.8 576.72 
L 1036.8 77.76 
L 144 77.76 
z
" style="fill: #ffffff"/>
   </g>
   <g id="PolyCollection_1">
    <defs>
     <path id="mb0ae70974b" d="M 621.359088 -93.96 
L 559.440912 -93.96 
L 549.564604 -98.541818 
L 537.426487 -103.123636 
L 522.814221 -107.705455 
L 505.593822 -112.287273 
L 485.74107 -116.869091 
L 463.371058 -121.450909 
L 438.762177 -126.032727 
L 412.370621 -130.614545 
L 384.831847 -135.196364 
L 356.946344 -139.778182 
L 329.648506 -144.36 
L 303.959296 -148.941818 
L 280.925478 -153.523636 
L 261.550128 -158.105455 
L 246.720717 -162.687273 
L 237.141891 -167.269091 
L 233.28 -171.850909 
L 235.325479 -176.432727 
L 243.177283 -181.014545 
L 256.451159 -185.596364 
L 274.510809 -190.178182 
L 296.518424 -194.76 
L 321.499011 -199.341818 
L 348.411634 -203.923636 
L 376.220373 -208.505455 
L 403.95838 -213.087273 
L 430.779742 -217.669091 
L 455.99578 -222.250909 
L 479.094452 -226.832727 
L 499.743506 -231.414545 
L 517.779647 -235.996364 
L 533.187069 -240.578182 
L 546.069213 -245.16 
L 556.617557 -249.741818 
L 565.080803 -254.323636 
L 571.737023 -258.905455 
L 576.870467 -263.487273 
L 580.753842 -268.069091 
L 583.636144 -272.650909 
L 585.73554 -277.232727 
L 587.236453 -281.814545 
L 588.289856 -286.396364 
L 589.015749 -290.978182 
L 589.506932 -295.56 
L 589.833327 -300.141818 
L 590.046334 -304.723636 
L 590.18284 -309.305455 
L 590.268707 -313.887273 
L 590.321651 -318.469091 
L 590.353511 -323.050909 
L 590.371985 -327.632727 
L 590.38189 -332.214545 
L 590.386047 -336.796364 
L 590.38587 -341.378182 
L 590.381722 -345.96 
L 590.37309 -350.541818 
L 590.358635 -355.123636 
L 590.336137 -359.705455 
L 590.302366 -364.287273 
L 590.252906 -368.869091 
L 590.181957 -373.450909 
L 590.082157 -378.032727 
L 589.944452 -382.614545 
L 589.758081 -387.196364 
L 589.51071 -391.778182 
L 589.188785 -396.36 
L 588.778142 -400.941818 
L 588.264904 -405.523636 
L 587.636653 -410.105455 
L 586.883856 -414.687273 
L 586.001435 -419.269091 
L 584.990356 -423.850909 
L 583.85907 -428.432727 
L 582.624586 -433.014545 
L 581.312995 -437.596364 
L 579.959261 -442.178182 
L 578.60617 -446.76 
L 577.302399 -451.341818 
L 576.09981 -455.923636 
L 575.050116 -460.505455 
L 574.201247 -465.087273 
L 573.593733 -469.669091 
L 573.2575 -474.250909 
L 573.20943 -478.832727 
L 573.451956 -483.414545 
L 573.972854 -487.996364 
L 574.74627 -492.578182 
L 575.734841 -497.16 
L 576.892689 -501.741818 
L 578.168935 -506.323636 
L 579.511381 -510.905455 
L 580.869963 -515.487273 
L 582.199704 -520.069091 
L 583.462904 -524.650909 
L 584.630488 -529.232727 
L 585.682481 -533.814545 
L 586.60771 -538.396364 
L 587.402891 -542.978182 
L 588.071283 -547.56 
L 592.728717 -547.56 
L 592.728717 -547.56 
L 593.397109 -542.978182 
L 594.19229 -538.396364 
L 595.117519 -533.814545 
L 596.169512 -529.232727 
L 597.337096 -524.650909 
L 598.600296 -520.069091 
L 599.930037 -515.487273 
L 601.288619 -510.905455 
L 602.631065 -506.323636 
L 603.907311 -501.741818 
L 605.065159 -497.16 
L 606.05373 -492.578182 
L 606.827146 -487.996364 
L 607.348044 -483.414545 
L 607.59057 -478.832727 
L 607.5425 -474.250909 
L 607.206267 -469.669091 
L 606.598753 -465.087273 
L 605.749884 -460.505455 
L 604.70019 -455.923636 
L 603.497601 -451.341818 
L 602.19383 -446.76 
L 600.840739 -442.178182 
L 599.487005 -437.596364 
L 598.175414 -433.014545 
L 596.94093 -428.432727 
L 595.809644 -423.850909 
L 594.798565 -419.269091 
L 593.916144 -414.687273 
L 593.163347 -410.105455 
L 592.535096 -405.523636 
L 592.021858 -400.941818 
L 591.611215 -396.36 
L 591.28929 -391.778182 
L 591.041919 -387.196364 
L 590.855548 -382.614545 
L 590.717843 -378.032727 
L 590.618043 -373.450909 
L 590.547094 -368.869091 
L 590.497634 -364.287273 
L 590.463863 -359.705455 
L 590.441365 -355.123636 
L 590.42691 -350.541818 
L 590.418278 -345.96 
L 590.41413 -341.378182 
L 590.413953 -336.796364 
L 590.41811 -332.214545 
L 590.428015 -327.632727 
L 590.446489 -323.050909 
L 590.478349 -318.469091 
L 590.531293 -313.887273 
L 590.61716 -309.305455 
L 590.753666 -304.723636 
L 590.966673 -300.141818 
L 591.293068 -295.56 
L 591.784251 -290.978182 
L 592.510144 -286.396364 
L 593.563547 -281.814545 
L 595.06446 -277.232727 
L 597.163856 -272.650909 
L 600.046158 -268.069091 
L 603.929533 -263.487273 
L 609.062977 -258.905455 
L 615.719197 -254.323636 
L 624.182443 -249.741818 
L 634.730787 -245.16 
L 647.612931 -240.578182 
L 663.020353 -235.996364 
L 681.056494 -231.414545 
L 701.705548 -226.832727 
L 724.80422 -222.250909 
L 750.020258 -217.669091 
L 776.84162 -213.087273 
L 804.579627 -208.505455 
L 832.388366 -203.923636 
L 859.300989 -199.341818 
L 884.281576 -194.76 
L 906.289191 -190.178182 
L 924.348841 -185.596364 
L 937.622717 -181.014545 
L 945.474521 -176.432727 
L 947.52 -171.850909 
L 943.658109 -167.269091 
L 934.079283 -162.687273 
L 919.249872 -158.105455 
L 899.874522 -153.523636 
L 876.840704 -148.941818 
L 851.151494 -144.36 
L 823.853656 -139.778182 
L 795.968153 -135.196364 
L 768.429379 -130.614545 
L 742.037823 -126.032727 
L 717.428942 -121.450909 
L 695.05893 -116.869091 
L 675.206178 -112.287273 
L 657.985779 -107.705455 
L 643.373513 -103.123636 
L 631.235396 -98.541818 
L 621.359088 -93.96 
z
" style="stroke: #4d4d4d; stroke-opacity: 0.5; stroke-width: 1.25"/>
    </defs>
    <g clip-path="url(#p0dec8bb244)">
     <use xlink:href="#mb0ae70974b" x="0" y="648" style="fill: #224fdf; fill-opacity: 0.5; stroke: #4d4d4d; stroke-opacity: 0.5; stroke-width: 1.25"/>
    </g>
   </g>
   <g id="matplotlib.axis_1">
    <g id="xtick_1">
     <g id="line2d_1">
      <defs>
       <path id="m4deb1a6657" d="M 0 0 
L 0 3.5 
" style="stroke: #000000; stroke-width: 0.8"/>
      </defs>
      <g>
       <use xlink:href="#m4deb1a6657" x="590.4" y="576.72" style="stroke: #000000; stroke-width: 0.8"/>
      </g>
     </g>
     <g id="text_1">
      <!-- atst -->
      <g transform="translate(580.810938 591.318438) scale(0.1 -0.1)">
       <defs>
        <path id="DejaVuSans-61" d="M 2194 1759 
Q 1497 1759 1228 1600 
Q 959 1441 959 1056 
Q 959 750 1161 570 
Q 1363 391 1709 391 
Q 2188 391 2477 730 
Q 2766 1069 2766 1631 
L 2766 1759 
L 2194 1759 
z
M 3341 1997 
L 3341 0 
L 2766 0 
L 2766 531 
Q 2569 213 2275 61 
Q 1981 -91 1556 -91 
Q 1019 -91 701 211 
Q 384 513 384 1019 
Q 384 1609 779 1909 
Q 1175 2209 1959 2209 
L 2766 2209 
L 2766 2266 
Q 2766 2663 2505 2880 
Q 2244 3097 1772 3097 
Q 1472 3097 1187 3025 
Q 903 2953 641 2809 
L 641 3341 
Q 956 3463 1253 3523 
Q 1550 3584 1831 3584 
Q 2591 3584 2966 3190 
Q 3341 2797 3341 1997 
z
" transform="scale(0.015625)"/>
        <path id="DejaVuSans-74" d="M 1172 4494 
L 1172 3500 
L 2356 3500 
L 2356 3053 
L 1172 3053 
L 1172 1153 
Q 1172 725 1289 603 
Q 1406 481 1766 481 
L 2356 481 
L 2356 0 
L 1766 0 
Q 1100 0 847 248 
Q 594 497 594 1153 
L 594 3053 
L 172 3053 
L 172 3500 
L 594 3500 
L 594 4494 
L 1172 4494 
z
" transform="scale(0.015625)"/>
        <path id="DejaVuSans-73" d="M 2834 3397 
L 2834 2853 
Q 2591 2978 2328 3040 
Q 2066 3103 1784 3103 
Q 1356 3103 1142 2972 
Q 928 2841 928 2578 
Q 928 2378 1081 2264 
Q 1234 2150 1697 2047 
L 1894 2003 
Q 2506 1872 2764 1633 
Q 3022 1394 3022 966 
Q 3022 478 2636 193 
Q 2250 -91 1575 -91 
Q 1294 -91 989 -36 
Q 684 19 347 128 
L 347 722 
Q 666 556 975 473 
Q 1284 391 1588 391 
Q 1994 391 2212 530 
Q 2431 669 2431 922 
Q 2431 1156 2273 1281 
Q 2116 1406 1581 1522 
L 1381 1569 
Q 847 1681 609 1914 
Q 372 2147 372 2553 
Q 372 3047 722 3315 
Q 1072 3584 1716 3584 
Q 2034 3584 2315 3537 
Q 2597 3491 2834 3397 
z
" transform="scale(0.015625)"/>
       </defs>
       <use xlink:href="#DejaVuSans-61"/>
       <use xlink:href="#DejaVuSans-74" x="61.279297"/>
       <use xlink:href="#DejaVuSans-73" x="100.488281"/>
       <use xlink:href="#DejaVuSans-74" x="152.587891"/>
      </g>
     </g>
    </g>
    <g id="text_2">
     <!-- directory -->
     <g transform="translate(568.033594 604.996562) scale(0.1 -0.1)">
      <defs>
       <path id="DejaVuSans-64" d="M 2906 2969 
L 2906 4863 
L 3481 4863 
L 3481 0 
L 2906 0 
L 2906 525 
Q 2725 213 2448 61 
Q 2172 -91 1784 -91 
Q 1150 -91 751 415 
Q 353 922 353 1747 
Q 353 2572 751 3078 
Q 1150 3584 1784 3584 
Q 2172 3584 2448 3432 
Q 2725 3281 2906 2969 
z
M 947 1747 
Q 947 1113 1208 752 
Q 1469 391 1925 391 
Q 2381 391 2643 752 
Q 2906 1113 2906 1747 
Q 2906 2381 2643 2742 
Q 2381 3103 1925 3103 
Q 1469 3103 1208 2742 
Q 947 2381 947 1747 
z
" transform="scale(0.015625)"/>
       <path id="DejaVuSans-69" d="M 603 3500 
L 1178 3500 
L 1178 0 
L 603 0 
L 603 3500 
z
M 603 4863 
L 1178 4863 
L 1178 4134 
L 603 4134 
L 603 4863 
z
" transform="scale(0.015625)"/>
       <path id="DejaVuSans-72" d="M 2631 2963 
Q 2534 3019 2420 3045 
Q 2306 3072 2169 3072 
Q 1681 3072 1420 2755 
Q 1159 2438 1159 1844 
L 1159 0 
L 581 0 
L 581 3500 
L 1159 3500 
L 1159 2956 
Q 1341 3275 1631 3429 
Q 1922 3584 2338 3584 
Q 2397 3584 2469 3576 
Q 2541 3569 2628 3553 
L 2631 2963 
z
" transform="scale(0.015625)"/>
       <path id="DejaVuSans-65" d="M 3597 1894 
L 3597 1613 
L 953 1613 
Q 991 1019 1311 708 
Q 1631 397 2203 397 
Q 2534 397 2845 478 
Q 3156 559 3463 722 
L 3463 178 
Q 3153 47 2828 -22 
Q 2503 -91 2169 -91 
Q 1331 -91 842 396 
Q 353 884 353 1716 
Q 353 2575 817 3079 
Q 1281 3584 2069 3584 
Q 2775 3584 3186 3129 
Q 3597 2675 3597 1894 
z
M 3022 2063 
Q 3016 2534 2758 2815 
Q 2500 3097 2075 3097 
Q 1594 3097 1305 2825 
Q 1016 2553 972 2059 
L 3022 2063 
z
" transform="scale(0.015625)"/>
       <path id="DejaVuSans-63" d="M 3122 3366 
L 3122 2828 
Q 2878 2963 2633 3030 
Q 2388 3097 2138 3097 
Q 1578 3097 1268 2742 
Q 959 2388 959 1747 
Q 959 1106 1268 751 
Q 1578 397 2138 397 
Q 2388 397 2633 464 
Q 2878 531 3122 666 
L 3122 134 
Q 2881 22 2623 -34 
Q 2366 -91 2075 -91 
Q 1284 -91 818 406 
Q 353 903 353 1747 
Q 353 2603 823 3093 
Q 1294 3584 2113 3584 
Q 2378 3584 2631 3529 
Q 2884 3475 3122 3366 
z
" transform="scale(0.015625)"/>
       <path id="DejaVuSans-6f" d="M 1959 3097 
Q 1497 3097 1228 2736 
Q 959 2375 959 1747 
Q 959 1119 1226 758 
Q 1494 397 1959 397 
Q 2419 397 2687 759 
Q 2956 1122 2956 1747 
Q 2956 2369 2687 2733 
Q 2419 3097 1959 3097 
z
M 1959 3584 
Q 2709 3584 3137 3096 
Q 3566 2609 3566 1747 
Q 3566 888 3137 398 
Q 2709 -91 1959 -91 
Q 1206 -91 779 398 
Q 353 888 353 1747 
Q 353 2609 779 3096 
Q 1206 3584 1959 3584 
z
" transform="scale(0.015625)"/>
       <path id="DejaVuSans-79" d="M 2059 -325 
Q 1816 -950 1584 -1140 
Q 1353 -1331 966 -1331 
L 506 -1331 
L 506 -850 
L 844 -850 
Q 1081 -850 1212 -737 
Q 1344 -625 1503 -206 
L 1606 56 
L 191 3500 
L 800 3500 
L 1894 763 
L 2988 3500 
L 3597 3500 
L 2059 -325 
z
" transform="scale(0.015625)"/>
      </defs>
      <use xlink:href="#DejaVuSans-64"/>
      <use xlink:href="#DejaVuSans-69" x="63.476562"/>
      <use xlink:href="#DejaVuSans-72" x="91.259766"/>
      <use xlink:href="#DejaVuSans-65" x="130.123047"/>
      <use xlink:href="#DejaVuSans-63" x="191.646484"/>
      <use xlink:href="#DejaVuSans-74" x="246.626953"/>
      <use xlink:href="#DejaVuSans-6f" x="285.835938"/>
      <use xlink:href="#DejaVuSans-72" x="347.017578"/>
      <use xlink:href="#DejaVuSans-79" x="388.130859"/>
     </g>
    </g>
   </g>
   <g id="matplotlib.axis_2">
    <g id="ytick_1">
     <g id="line2d_2">
      <defs>
       <path id="mab1698ab62" d="M 0 0 
L -3.5 0 
" style="stroke: #000000; stroke-width: 0.8"/>
      </defs>
      <g>
       <use xlink:href="#mab1698ab62" x="144" y="503.32054" style="stroke: #000000; stroke-width: 0.8"/>
      </g>
     </g>
     <g id="text_3">
      <!-- 0.5 -->
      <g transform="translate(121.096875 507.119759) scale(0.1 -0.1)">
       <defs>
        <path id="DejaVuSans-30" d="M 2034 4250 
Q 1547 4250 1301 3770 
Q 1056 3291 1056 2328 
Q 1056 1369 1301 889 
Q 1547 409 2034 409 
Q 2525 409 2770 889 
Q 3016 1369 3016 2328 
Q 3016 3291 2770 3770 
Q 2525 4250 2034 4250 
z
M 2034 4750 
Q 2819 4750 3233 4129 
Q 3647 3509 3647 2328 
Q 3647 1150 3233 529 
Q 2819 -91 2034 -91 
Q 1250 -91 836 529 
Q 422 1150 422 2328 
Q 422 3509 836 4129 
Q 1250 4750 2034 4750 
z
" transform="scale(0.015625)"/>
        <path id="DejaVuSans-2e" d="M 684 794 
L 1344 794 
L 1344 0 
L 684 0 
L 684 794 
z
" transform="scale(0.015625)"/>
        <path id="DejaVuSans-35" d="M 691 4666 
L 3169 4666 
L 3169 4134 
L 1269 4134 
L 1269 2991 
Q 1406 3038 1543 3061 
Q 1681 3084 1819 3084 
Q 2600 3084 3056 2656 
Q 3513 2228 3513 1497 
Q 3513 744 3044 326 
Q 2575 -91 1722 -91 
Q 1428 -91 1123 -41 
Q 819 9 494 109 
L 494 744 
Q 775 591 1075 516 
Q 1375 441 1709 441 
Q 2250 441 2565 725 
Q 2881 1009 2881 1497 
Q 2881 1984 2565 2268 
Q 2250 2553 1709 2553 
Q 1456 2553 1204 2497 
Q 953 2441 691 2322 
L 691 4666 
z
" transform="scale(0.015625)"/>
       </defs>
       <use xlink:href="#DejaVuSans-30"/>
       <use xlink:href="#DejaVuSans-2e" x="63.623047"/>
       <use xlink:href="#DejaVuSans-35" x="95.410156"/>
      </g>
     </g>
    </g>
    <g id="ytick_2">
     <g id="line2d_3">
      <g>
       <use xlink:href="#mab1698ab62" x="144" y="418.866373" style="stroke: #000000; stroke-width: 0.8"/>
      </g>
     </g>
     <g id="text_4">
      <!-- 1.0 -->
      <g transform="translate(121.096875 422.665592) scale(0.1 -0.1)">
       <defs>
        <path id="DejaVuSans-31" d="M 794 531 
L 1825 531 
L 1825 4091 
L 703 3866 
L 703 4441 
L 1819 4666 
L 2450 4666 
L 2450 531 
L 3481 531 
L 3481 0 
L 794 0 
L 794 531 
z
" transform="scale(0.015625)"/>
       </defs>
       <use xlink:href="#DejaVuSans-31"/>
       <use xlink:href="#DejaVuSans-2e" x="63.623047"/>
       <use xlink:href="#DejaVuSans-30" x="95.410156"/>
      </g>
     </g>
    </g>
    <g id="ytick_3">
     <g id="line2d_4">
      <g>
       <use xlink:href="#mab1698ab62" x="144" y="334.412206" style="stroke: #000000; stroke-width: 0.8"/>
      </g>
     </g>
     <g id="text_5">
      <!-- 1.5 -->
      <g transform="translate(121.096875 338.211425) scale(0.1 -0.1)">
       <use xlink:href="#DejaVuSans-31"/>
       <use xlink:href="#DejaVuSans-2e" x="63.623047"/>
       <use xlink:href="#DejaVuSans-35" x="95.410156"/>
      </g>
     </g>
    </g>
    <g id="ytick_4">
     <g id="line2d_5">
      <g>
       <use xlink:href="#mab1698ab62" x="144" y="249.958039" style="stroke: #000000; stroke-width: 0.8"/>
      </g>
     </g>
     <g id="text_6">
      <!-- 2.0 -->
      <g transform="translate(121.096875 253.757258) scale(0.1 -0.1)">
       <defs>
        <path id="DejaVuSans-32" d="M 1228 531 
L 3431 531 
L 3431 0 
L 469 0 
L 469 531 
Q 828 903 1448 1529 
Q 2069 2156 2228 2338 
Q 2531 2678 2651 2914 
Q 2772 3150 2772 3378 
Q 2772 3750 2511 3984 
Q 2250 4219 1831 4219 
Q 1534 4219 1204 4116 
Q 875 4013 500 3803 
L 500 4441 
Q 881 4594 1212 4672 
Q 1544 4750 1819 4750 
Q 2544 4750 2975 4387 
Q 3406 4025 3406 3419 
Q 3406 3131 3298 2873 
Q 3191 2616 2906 2266 
Q 2828 2175 2409 1742 
Q 1991 1309 1228 531 
z
" transform="scale(0.015625)"/>
       </defs>
       <use xlink:href="#DejaVuSans-32"/>
       <use xlink:href="#DejaVuSans-2e" x="63.623047"/>
       <use xlink:href="#DejaVuSans-30" x="95.410156"/>
      </g>
     </g>
    </g>
    <g id="ytick_5">
     <g id="line2d_6">
      <g>
       <use xlink:href="#mab1698ab62" x="144" y="165.503873" style="stroke: #000000; stroke-width: 0.8"/>
      </g>
     </g>
     <g id="text_7">
      <!-- 2.5 -->
      <g transform="translate(121.096875 169.303091) scale(0.1 -0.1)">
       <use xlink:href="#DejaVuSans-32"/>
       <use xlink:href="#DejaVuSans-2e" x="63.623047"/>
       <use xlink:href="#DejaVuSans-35" x="95.410156"/>
      </g>
     </g>
    </g>
    <g id="ytick_6">
     <g id="line2d_7">
      <g>
       <use xlink:href="#mab1698ab62" x="144" y="81.049706" style="stroke: #000000; stroke-width: 0.8"/>
      </g>
     </g>
     <g id="text_8">
      <!-- 3.0 -->
      <g transform="translate(121.096875 84.848924) scale(0.1 -0.1)">
       <defs>
        <path id="DejaVuSans-33" d="M 2597 2516 
Q 3050 2419 3304 2112 
Q 3559 1806 3559 1356 
Q 3559 666 3084 287 
Q 2609 -91 1734 -91 
Q 1441 -91 1130 -33 
Q 819 25 488 141 
L 488 750 
Q 750 597 1062 519 
Q 1375 441 1716 441 
Q 2309 441 2620 675 
Q 2931 909 2931 1356 
Q 2931 1769 2642 2001 
Q 2353 2234 1838 2234 
L 1294 2234 
L 1294 2753 
L 1863 2753 
Q 2328 2753 2575 2939 
Q 2822 3125 2822 3475 
Q 2822 3834 2567 4026 
Q 2313 4219 1838 4219 
Q 1578 4219 1281 4162 
Q 984 4106 628 3988 
L 628 4550 
Q 988 4650 1302 4700 
Q 1616 4750 1894 4750 
Q 2613 4750 3031 4423 
Q 3450 4097 3450 3541 
Q 3450 3153 3228 2886 
Q 3006 2619 2597 2516 
z
" transform="scale(0.015625)"/>
       </defs>
       <use xlink:href="#DejaVuSans-33"/>
       <use xlink:href="#DejaVuSans-2e" x="63.623047"/>
       <use xlink:href="#DejaVuSans-30" x="95.410156"/>
      </g>
     </g>
    </g>
    <g id="text_9">
     <!-- Area / $\mathregular{nm^2}$ -->
     <g transform="translate(115.017187 354.19) rotate(-90) scale(0.1 -0.1)">
      <defs>
       <path id="DejaVuSans-41" d="M 2188 4044 
L 1331 1722 
L 3047 1722 
L 2188 4044 
z
M 1831 4666 
L 2547 4666 
L 4325 0 
L 3669 0 
L 3244 1197 
L 1141 1197 
L 716 0 
L 50 0 
L 1831 4666 
z
" transform="scale(0.015625)"/>
       <path id="DejaVuSans-20" transform="scale(0.015625)"/>
       <path id="DejaVuSans-2f" d="M 1625 4666 
L 2156 4666 
L 531 -594 
L 0 -594 
L 1625 4666 
z
" transform="scale(0.015625)"/>
       <path id="DejaVuSans-6e" d="M 3513 2113 
L 3513 0 
L 2938 0 
L 2938 2094 
Q 2938 2591 2744 2837 
Q 2550 3084 2163 3084 
Q 1697 3084 1428 2787 
Q 1159 2491 1159 1978 
L 1159 0 
L 581 0 
L 581 3500 
L 1159 3500 
L 1159 2956 
Q 1366 3272 1645 3428 
Q 1925 3584 2291 3584 
Q 2894 3584 3203 3211 
Q 3513 2838 3513 2113 
z
" transform="scale(0.015625)"/>
       <path id="DejaVuSans-6d" d="M 3328 2828 
Q 3544 3216 3844 3400 
Q 4144 3584 4550 3584 
Q 5097 3584 5394 3201 
Q 5691 2819 5691 2113 
L 5691 0 
L 5113 0 
L 5113 2094 
Q 5113 2597 4934 2840 
Q 4756 3084 4391 3084 
Q 3944 3084 3684 2787 
Q 3425 2491 3425 1978 
L 3425 0 
L 2847 0 
L 2847 2094 
Q 2847 2600 2669 2842 
Q 2491 3084 2119 3084 
Q 1678 3084 1418 2786 
Q 1159 2488 1159 1978 
L 1159 0 
L 581 0 
L 581 3500 
L 1159 3500 
L 1159 2956 
Q 1356 3278 1631 3431 
Q 1906 3584 2284 3584 
Q 2666 3584 2933 3390 
Q 3200 3197 3328 2828 
z
" transform="scale(0.015625)"/>
      </defs>
      <use xlink:href="#DejaVuSans-41" transform="translate(0 0.765625)"/>
      <use xlink:href="#DejaVuSans-72" transform="translate(68.408203 0.765625)"/>
      <use xlink:href="#DejaVuSans-65" transform="translate(109.521484 0.765625)"/>
      <use xlink:href="#DejaVuSans-61" transform="translate(171.044922 0.765625)"/>
      <use xlink:href="#DejaVuSans-20" transform="translate(232.324219 0.765625)"/>
      <use xlink:href="#DejaVuSans-2f" transform="translate(264.111328 0.765625)"/>
      <use xlink:href="#DejaVuSans-20" transform="translate(297.802734 0.765625)"/>
      <use xlink:href="#DejaVuSans-6e" transform="translate(329.589844 0.765625)"/>
      <use xlink:href="#DejaVuSans-6d" transform="translate(392.96875 0.765625)"/>
      <use xlink:href="#DejaVuSans-32" transform="translate(491.337891 39.046875) scale(0.7)"/>
     </g>
    </g>
    <g id="text_10">
     <!-- 1e−15 -->
     <g transform="translate(144 74.76) scale(0.1 -0.1)">
      <defs>
       <path id="DejaVuSans-2212" d="M 678 2272 
L 4684 2272 
L 4684 1741 
L 678 1741 
L 678 2272 
z
" transform="scale(0.015625)"/>
      </defs>
      <use xlink:href="#DejaVuSans-31"/>
      <use xlink:href="#DejaVuSans-65" x="63.623047"/>
      <use xlink:href="#DejaVuSans-2212" x="125.146484"/>
      <use xlink:href="#DejaVuSans-31" x="208.935547"/>
      <use xlink:href="#DejaVuSans-35" x="272.558594"/>
     </g>
    </g>
   </g>
   <g id="line2d_8">
    <path d="M 590.4 483.776134 
L 590.4 465.845346 
" clip-path="url(#p0dec8bb244)" style="fill: none; stroke: #4d4d4d; stroke-width: 1.875; stroke-linecap: square"/>
   </g>
   <g id="line2d_9">
    <path d="M 590.4 480.313637 
L 590.4 470.874211 
" clip-path="url(#p0dec8bb244)" style="fill: none; stroke: #4d4d4d; stroke-width: 5.625; stroke-linecap: square"/>
   </g>
   <g id="line2d_10">
    <path d="M 590.4 475.099282 
" clip-path="url(#p0dec8bb244)" style="fill: none; stroke: #4d4d4d; stroke-width: 1.5; stroke-linecap: square"/>
    <defs>
     <path id="m3678cd6709" d="M 2.34375 0 
L -2.34375 -0 
" style="stroke: #ffffff; stroke-width: 1.125"/>
    </defs>
    <g clip-path="url(#p0dec8bb244)">
     <use xlink:href="#m3678cd6709" x="590.4" y="475.099282" style="fill: #ffffff; stroke: #ffffff; stroke-width: 1.125"/>
    </g>
   </g>
   <g id="patch_3">
    <path d="M 144 576.72 
L 144 77.76 
" style="fill: none; stroke: #000000; stroke-width: 0.8; stroke-linejoin: miter; stroke-linecap: square"/>
   </g>
   <g id="patch_4">
    <path d="M 1036.8 576.72 
L 1036.8 77.76 
" style="fill: none; stroke: #000000; stroke-width: 0.8; stroke-linejoin: miter; stroke-linecap: square"/>
   </g>
   <g id="patch_5">
    <path d="M 144 576.72 
L 1036.8 576.72 
" style="fill: none; stroke: #000000; stroke-width: 0.8; stroke-linejoin: miter; stroke-linecap: square"/>
   </g>
   <g id="patch_6">
    <path d="M 144 77.76 
L 1036.8 77.76 
" style="fill: none; stroke: #000000; stroke-width: 0.8; stroke-linejoin: miter; stroke-linecap: square"/>
   </g>
   <g id="text_11">
    <!-- Area / $\mathregular{nm^2}$ -->
    <g transform="translate(558.06 71.76) scale(0.12 -0.12)">
     <use xlink:href="#DejaVuSans-41" transform="translate(0 0.765625)"/>
     <use xlink:href="#DejaVuSans-72" transform="translate(68.408203 0.765625)"/>
     <use xlink:href="#DejaVuSans-65" transform="translate(109.521484 0.765625)"/>
     <use xlink:href="#DejaVuSans-61" transform="translate(171.044922 0.765625)"/>
     <use xlink:href="#DejaVuSans-20" transform="translate(232.324219 0.765625)"/>
     <use xlink:href="#DejaVuSans-2f" transform="translate(264.111328 0.765625)"/>
     <use xlink:href="#DejaVuSans-20" transform="translate(297.802734 0.765625)"/>
     <use xlink:href="#DejaVuSans-6e" transform="translate(329.589844 0.765625)"/>
     <use xlink:href="#DejaVuSans-6d" transform="translate(392.96875 0.765625)"/>
     <use xlink:href="#DejaVuSans-32" transform="translate(491.337891 39.046875) scale(0.7)"/>
    </g>
   </g>
  </g>
 </g>
 <defs>
  <clipPath id="p0dec8bb244">
   <rect x="144" y="77.76" width="892.8" height="498.96"/>
  </clipPath>
 </defs>
</svg>
