<?xml version="1.0" encoding="utf-8" standalone="no"?>
<!DOCTYPE svg PUBLIC "-//W3C//DTD SVG 1.1//EN"
  "http://www.w3.org/Graphics/SVG/1.1/DTD/svg11.dtd">
<svg xmlns:xlink="http://www.w3.org/1999/xlink" width="595.785pt" height="577.167187pt" viewBox="0 0 595.785 577.167187" xmlns="http://www.w3.org/2000/svg" version="1.1">
 <metadata>
  <rdf:RDF xmlns:dc="http://purl.org/dc/elements/1.1/" xmlns:cc="http://creativecommons.org/ns#" xmlns:rdf="http://www.w3.org/1999/02/22-rdf-syntax-ns#">
   <cc:Work>
    <dc:type rdf:resource="http://purl.org/dc/dcmitype/StillImage"/>
    <dc:date>2024-03-26T11:21:03.770877</dc:date>
    <dc:format>image/svg+xml</dc:format>
    <dc:creator>
     <cc:Agent>
      <dc:title>Matplotlib v3.8.3, https://matplotlib.org/</dc:title>
     </cc:Agent>
    </dc:creator>
   </cc:Work>
  </rdf:RDF>
 </metadata>
 <defs>
  <style type="text/css">*{stroke-linejoin: round; stroke-linecap: butt}</style>
 </defs>
 <g id="figure_1">
  <g id="patch_1">
   <path d="M 0 577.167187 
L 595.785 577.167187 
L 595.785 0 
L 0 0 
z
" style="fill: #ffffff"/>
  </g>
  <g id="axes_1">
   <g id="patch_2">
    <path d="M 113.385 499.197187 
L 559.785 499.197187 
L 559.785 55.677187 
L 113.385 55.677187 
z
" style="fill: #ffffff"/>
   </g>
   <g id="patch_3">
    <path d="M 133.675909 499.197187 
L 135.705 499.197187 
L 135.705 499.124812 
L 133.675909 499.124812 
z
" clip-path="url(#pb8e6e27f5a)" style="fill: #1f77b4"/>
   </g>
   <g id="patch_4">
    <path d="M 135.705 499.197187 
L 137.734091 499.197187 
L 137.734091 498.853405 
L 135.705 498.853405 
z
" clip-path="url(#pb8e6e27f5a)" style="fill: #1f77b4"/>
   </g>
   <g id="patch_5">
    <path d="M 137.734091 499.197187 
L 139.763182 499.197187 
L 139.763182 498.581998 
L 137.734091 498.581998 
z
" clip-path="url(#pb8e6e27f5a)" style="fill: #1f77b4"/>
   </g>
   <g id="patch_6">
    <path d="M 139.763182 499.197187 
L 141.792273 499.197187 
L 141.792273 497.677307 
L 139.763182 497.677307 
z
" clip-path="url(#pb8e6e27f5a)" style="fill: #1f77b4"/>
   </g>
   <g id="patch_7">
    <path d="M 141.792273 499.197187 
L 143.821364 499.197187 
L 143.821364 495.795551 
L 141.792273 495.795551 
z
" clip-path="url(#pb8e6e27f5a)" style="fill: #1f77b4"/>
   </g>
   <g id="patch_8">
    <path d="M 143.821364 499.197187 
L 145.850455 499.197187 
L 145.850455 494.076639 
L 143.821364 494.076639 
z
" clip-path="url(#pb8e6e27f5a)" style="fill: #1f77b4"/>
   </g>
   <g id="patch_9">
    <path d="M 145.850455 499.197187 
L 147.879545 499.197187 
L 147.879545 488.829434 
L 145.850455 488.829434 
z
" clip-path="url(#pb8e6e27f5a)" style="fill: #1f77b4"/>
   </g>
   <g id="patch_10">
    <path d="M 147.879545 499.197187 
L 149.908636 499.197187 
L 149.908636 486.15155 
L 147.879545 486.15155 
z
" clip-path="url(#pb8e6e27f5a)" style="fill: #1f77b4"/>
   </g>
   <g id="patch_11">
    <path d="M 149.908636 499.197187 
L 151.937727 499.197187 
L 151.937727 479.185433 
L 149.908636 479.185433 
z
" clip-path="url(#pb8e6e27f5a)" style="fill: #1f77b4"/>
   </g>
   <g id="patch_12">
    <path d="M 151.937727 499.197187 
L 153.966818 499.197187 
L 153.966818 476.181861 
L 151.937727 476.181861 
z
" clip-path="url(#pb8e6e27f5a)" style="fill: #1f77b4"/>
   </g>
   <g id="patch_13">
    <path d="M 153.966818 499.197187 
L 155.995909 499.197187 
L 155.995909 469.179556 
L 153.966818 469.179556 
z
" clip-path="url(#pb8e6e27f5a)" style="fill: #1f77b4"/>
   </g>
   <g id="patch_14">
    <path d="M 155.995909 499.197187 
L 158.025 499.197187 
L 158.025 469.95759 
L 155.995909 469.95759 
z
" clip-path="url(#pb8e6e27f5a)" style="fill: #1f77b4"/>
   </g>
   <g id="patch_15">
    <path d="M 158.025 499.197187 
L 160.054091 499.197187 
L 160.054091 463.063848 
L 158.025 463.063848 
z
" clip-path="url(#pb8e6e27f5a)" style="fill: #1f77b4"/>
   </g>
   <g id="patch_16">
    <path d="M 160.054091 499.197187 
L 162.083182 499.197187 
L 162.083182 465.452231 
L 160.054091 465.452231 
z
" clip-path="url(#pb8e6e27f5a)" style="fill: #1f77b4"/>
   </g>
   <g id="patch_17">
    <path d="M 162.083182 499.197187 
L 164.112273 499.197187 
L 164.112273 459.933619 
L 162.083182 459.933619 
z
" clip-path="url(#pb8e6e27f5a)" style="fill: #1f77b4"/>
   </g>
   <g id="patch_18">
    <path d="M 164.112273 499.197187 
L 166.141364 499.197187 
L 166.141364 458.685146 
L 164.112273 458.685146 
z
" clip-path="url(#pb8e6e27f5a)" style="fill: #1f77b4"/>
   </g>
   <g id="patch_19">
    <path d="M 166.141364 499.197187 
L 168.170455 499.197187 
L 168.170455 448.299299 
L 166.141364 448.299299 
z
" clip-path="url(#pb8e6e27f5a)" style="fill: #1f77b4"/>
   </g>
   <g id="patch_20">
    <path d="M 168.170455 499.197187 
L 170.199545 499.197187 
L 170.199545 440.392304 
L 168.170455 440.392304 
z
" clip-path="url(#pb8e6e27f5a)" style="fill: #1f77b4"/>
   </g>
   <g id="patch_21">
    <path d="M 170.199545 499.197187 
L 172.228636 499.197187 
L 172.228636 422.696558 
L 170.199545 422.696558 
z
" clip-path="url(#pb8e6e27f5a)" style="fill: #1f77b4"/>
   </g>
   <g id="patch_22">
    <path d="M 172.228636 499.197187 
L 174.257727 499.197187 
L 174.257727 410.50133 
L 172.228636 410.50133 
z
" clip-path="url(#pb8e6e27f5a)" style="fill: #1f77b4"/>
   </g>
   <g id="patch_23">
    <path d="M 174.257727 499.197187 
L 176.286818 499.197187 
L 176.286818 379.289507 
L 174.257727 379.289507 
z
" clip-path="url(#pb8e6e27f5a)" style="fill: #1f77b4"/>
   </g>
   <g id="patch_24">
    <path d="M 176.286818 499.197187 
L 178.315909 499.197187 
L 178.315909 372.540516 
L 176.286818 372.540516 
z
" clip-path="url(#pb8e6e27f5a)" style="fill: #1f77b4"/>
   </g>
   <g id="patch_25">
    <path d="M 178.315909 499.197187 
L 180.345 499.197187 
L 180.345 345.01983 
L 178.315909 345.01983 
z
" clip-path="url(#pb8e6e27f5a)" style="fill: #1f77b4"/>
   </g>
   <g id="patch_26">
    <path d="M 180.345 499.197187 
L 182.374091 499.197187 
L 182.374091 350.04991 
L 180.345 350.04991 
z
" clip-path="url(#pb8e6e27f5a)" style="fill: #1f77b4"/>
   </g>
   <g id="patch_27">
    <path d="M 182.374091 499.197187 
L 184.403182 499.197187 
L 184.403182 349.217594 
L 182.374091 349.217594 
z
" clip-path="url(#pb8e6e27f5a)" style="fill: #1f77b4"/>
   </g>
   <g id="patch_28">
    <path d="M 184.403182 499.197187 
L 186.432273 499.197187 
L 186.432273 339.826907 
L 184.403182 339.826907 
z
" clip-path="url(#pb8e6e27f5a)" style="fill: #1f77b4"/>
   </g>
   <g id="patch_29">
    <path d="M 186.432273 499.197187 
L 188.461364 499.197187 
L 188.461364 365.194429 
L 186.432273 365.194429 
z
" clip-path="url(#pb8e6e27f5a)" style="fill: #1f77b4"/>
   </g>
   <g id="patch_30">
    <path d="M 188.461364 499.197187 
L 190.490455 499.197187 
L 190.490455 365.538211 
L 188.461364 365.538211 
z
" clip-path="url(#pb8e6e27f5a)" style="fill: #1f77b4"/>
   </g>
   <g id="patch_31">
    <path d="M 190.490455 499.197187 
L 192.519545 499.197187 
L 192.519545 388.101193 
L 190.490455 388.101193 
z
" clip-path="url(#pb8e6e27f5a)" style="fill: #1f77b4"/>
   </g>
   <g id="patch_32">
    <path d="M 192.519545 499.197187 
L 194.548636 499.197187 
L 194.548636 393.674086 
L 192.519545 393.674086 
z
" clip-path="url(#pb8e6e27f5a)" style="fill: #1f77b4"/>
   </g>
   <g id="patch_33">
    <path d="M 194.548636 499.197187 
L 196.577727 499.197187 
L 196.577727 406.900661 
L 194.548636 406.900661 
z
" clip-path="url(#pb8e6e27f5a)" style="fill: #1f77b4"/>
   </g>
   <g id="patch_34">
    <path d="M 196.577727 499.197187 
L 198.606818 499.197187 
L 198.606818 405.073187 
L 196.577727 405.073187 
z
" clip-path="url(#pb8e6e27f5a)" style="fill: #1f77b4"/>
   </g>
   <g id="patch_35">
    <path d="M 198.606818 499.197187 
L 200.635909 499.197187 
L 200.635909 421.013833 
L 198.606818 421.013833 
z
" clip-path="url(#pb8e6e27f5a)" style="fill: #1f77b4"/>
   </g>
   <g id="patch_36">
    <path d="M 200.635909 499.197187 
L 202.665 499.197187 
L 202.665 415.422846 
L 200.635909 415.422846 
z
" clip-path="url(#pb8e6e27f5a)" style="fill: #1f77b4"/>
   </g>
   <g id="patch_37">
    <path d="M 202.665 499.197187 
L 204.694091 499.197187 
L 204.694091 425.591567 
L 202.665 425.591567 
z
" clip-path="url(#pb8e6e27f5a)" style="fill: #1f77b4"/>
   </g>
   <g id="patch_38">
    <path d="M 204.694091 499.197187 
L 206.723182 499.197187 
L 206.723182 422.497526 
L 204.694091 422.497526 
z
" clip-path="url(#pb8e6e27f5a)" style="fill: #1f77b4"/>
   </g>
   <g id="patch_39">
    <path d="M 206.723182 499.197187 
L 208.752273 499.197187 
L 208.752273 427.97995 
L 206.723182 427.97995 
z
" clip-path="url(#pb8e6e27f5a)" style="fill: #1f77b4"/>
   </g>
   <g id="patch_40">
    <path d="M 208.752273 499.197187 
L 210.781364 499.197187 
L 210.781364 418.878764 
L 208.752273 418.878764 
z
" clip-path="url(#pb8e6e27f5a)" style="fill: #1f77b4"/>
   </g>
   <g id="patch_41">
    <path d="M 210.781364 499.197187 
L 212.810455 499.197187 
L 212.810455 423.221278 
L 210.781364 423.221278 
z
" clip-path="url(#pb8e6e27f5a)" style="fill: #1f77b4"/>
   </g>
   <g id="patch_42">
    <path d="M 212.810455 499.197187 
L 214.839545 499.197187 
L 214.839545 411.170801 
L 212.810455 411.170801 
z
" clip-path="url(#pb8e6e27f5a)" style="fill: #1f77b4"/>
   </g>
   <g id="patch_43">
    <path d="M 214.839545 499.197187 
L 216.868636 499.197187 
L 216.868636 413.54109 
L 214.839545 413.54109 
z
" clip-path="url(#pb8e6e27f5a)" style="fill: #1f77b4"/>
   </g>
   <g id="patch_44">
    <path d="M 216.868636 499.197187 
L 218.897727 499.197187 
L 218.897727 401.237299 
L 216.868636 401.237299 
z
" clip-path="url(#pb8e6e27f5a)" style="fill: #1f77b4"/>
   </g>
   <g id="patch_45">
    <path d="M 218.897727 499.197187 
L 220.926818 499.197187 
L 220.926818 406.629254 
L 218.897727 406.629254 
z
" clip-path="url(#pb8e6e27f5a)" style="fill: #1f77b4"/>
   </g>
   <g id="patch_46">
    <path d="M 220.926818 499.197187 
L 222.955909 499.197187 
L 222.955909 399.066042 
L 220.926818 399.066042 
z
" clip-path="url(#pb8e6e27f5a)" style="fill: #1f77b4"/>
   </g>
   <g id="patch_47">
    <path d="M 222.955909 499.197187 
L 224.985 499.197187 
L 224.985 407.425382 
L 222.955909 407.425382 
z
" clip-path="url(#pb8e6e27f5a)" style="fill: #1f77b4"/>
   </g>
   <g id="patch_48">
    <path d="M 224.985 499.197187 
L 227.014091 499.197187 
L 227.014091 399.7717 
L 224.985 399.7717 
z
" clip-path="url(#pb8e6e27f5a)" style="fill: #1f77b4"/>
   </g>
   <g id="patch_49">
    <path d="M 227.014091 499.197187 
L 229.043182 499.197187 
L 229.043182 410.754643 
L 227.014091 410.754643 
z
" clip-path="url(#pb8e6e27f5a)" style="fill: #1f77b4"/>
   </g>
   <g id="patch_50">
    <path d="M 229.043182 499.197187 
L 231.072273 499.197187 
L 231.072273 403.082868 
L 229.043182 403.082868 
z
" clip-path="url(#pb8e6e27f5a)" style="fill: #1f77b4"/>
   </g>
   <g id="patch_51">
    <path d="M 231.072273 499.197187 
L 233.101364 499.197187 
L 233.101364 410.50133 
L 231.072273 410.50133 
z
" clip-path="url(#pb8e6e27f5a)" style="fill: #1f77b4"/>
   </g>
   <g id="patch_52">
    <path d="M 233.101364 499.197187 
L 235.130455 499.197187 
L 235.130455 402.250552 
L 233.101364 402.250552 
z
" clip-path="url(#pb8e6e27f5a)" style="fill: #1f77b4"/>
   </g>
   <g id="patch_53">
    <path d="M 235.130455 499.197187 
L 237.159545 499.197187 
L 237.159545 387.341253 
L 235.130455 387.341253 
z
" clip-path="url(#pb8e6e27f5a)" style="fill: #1f77b4"/>
   </g>
   <g id="patch_54">
    <path d="M 237.159545 499.197187 
L 239.188636 499.197187 
L 239.188636 388.083099 
L 237.159545 388.083099 
z
" clip-path="url(#pb8e6e27f5a)" style="fill: #1f77b4"/>
   </g>
   <g id="patch_55">
    <path d="M 239.188636 499.197187 
L 241.217727 499.197187 
L 241.217727 365.48393 
L 239.188636 365.48393 
z
" clip-path="url(#pb8e6e27f5a)" style="fill: #1f77b4"/>
   </g>
   <g id="patch_56">
    <path d="M 241.217727 499.197187 
L 243.246818 499.197187 
L 243.246818 364.34402 
L 241.217727 364.34402 
z
" clip-path="url(#pb8e6e27f5a)" style="fill: #1f77b4"/>
   </g>
   <g id="patch_57">
    <path d="M 243.246818 499.197187 
L 245.275909 499.197187 
L 245.275909 334.344482 
L 243.246818 334.344482 
z
" clip-path="url(#pb8e6e27f5a)" style="fill: #1f77b4"/>
   </g>
   <g id="patch_58">
    <path d="M 245.275909 499.197187 
L 247.305 499.197187 
L 247.305 330.201 
L 245.275909 330.201 
z
" clip-path="url(#pb8e6e27f5a)" style="fill: #1f77b4"/>
   </g>
   <g id="patch_59">
    <path d="M 247.305 499.197187 
L 249.334091 499.197187 
L 249.334091 285.744508 
L 247.305 285.744508 
z
" clip-path="url(#pb8e6e27f5a)" style="fill: #1f77b4"/>
   </g>
   <g id="patch_60">
    <path d="M 249.334091 499.197187 
L 251.363182 499.197187 
L 251.363182 275.811006 
L 249.334091 275.811006 
z
" clip-path="url(#pb8e6e27f5a)" style="fill: #1f77b4"/>
   </g>
   <g id="patch_61">
    <path d="M 251.363182 499.197187 
L 253.392273 499.197187 
L 253.392273 213.152141 
L 251.363182 213.152141 
z
" clip-path="url(#pb8e6e27f5a)" style="fill: #1f77b4"/>
   </g>
   <g id="patch_62">
    <path d="M 253.392273 499.197187 
L 255.421364 499.197187 
L 255.421364 199.997941 
L 253.392273 199.997941 
z
" clip-path="url(#pb8e6e27f5a)" style="fill: #1f77b4"/>
   </g>
   <g id="patch_63">
    <path d="M 255.421364 499.197187 
L 257.450455 499.197187 
L 257.450455 133.702221 
L 255.421364 133.702221 
z
" clip-path="url(#pb8e6e27f5a)" style="fill: #1f77b4"/>
   </g>
   <g id="patch_64">
    <path d="M 257.450455 499.197187 
L 259.479545 499.197187 
L 259.479545 140.63215 
L 257.450455 140.63215 
z
" clip-path="url(#pb8e6e27f5a)" style="fill: #1f77b4"/>
   </g>
   <g id="patch_65">
    <path d="M 259.479545 499.197187 
L 261.508636 499.197187 
L 261.508636 85.319372 
L 259.479545 85.319372 
z
" clip-path="url(#pb8e6e27f5a)" style="fill: #1f77b4"/>
   </g>
   <g id="patch_66">
    <path d="M 261.508636 499.197187 
L 263.537727 499.197187 
L 263.537727 109.601265 
L 261.508636 109.601265 
z
" clip-path="url(#pb8e6e27f5a)" style="fill: #1f77b4"/>
   </g>
   <g id="patch_67">
    <path d="M 263.537727 499.197187 
L 265.566818 499.197187 
L 265.566818 76.797187 
L 263.537727 76.797187 
z
" clip-path="url(#pb8e6e27f5a)" style="fill: #1f77b4"/>
   </g>
   <g id="patch_68">
    <path d="M 265.566818 499.197187 
L 267.595909 499.197187 
L 267.595909 122.357402 
L 265.566818 122.357402 
z
" clip-path="url(#pb8e6e27f5a)" style="fill: #1f77b4"/>
   </g>
   <g id="patch_69">
    <path d="M 267.595909 499.197187 
L 269.625 499.197187 
L 269.625 101.495238 
L 267.595909 101.495238 
z
" clip-path="url(#pb8e6e27f5a)" style="fill: #1f77b4"/>
   </g>
   <g id="patch_70">
    <path d="M 269.625 499.197187 
L 271.654091 499.197187 
L 271.654091 148.84674 
L 269.625 148.84674 
z
" clip-path="url(#pb8e6e27f5a)" style="fill: #1f77b4"/>
   </g>
   <g id="patch_71">
    <path d="M 271.654091 499.197187 
L 273.683182 499.197187 
L 273.683182 139.63699 
L 271.654091 139.63699 
z
" clip-path="url(#pb8e6e27f5a)" style="fill: #1f77b4"/>
   </g>
   <g id="patch_72">
    <path d="M 273.683182 499.197187 
L 275.712273 499.197187 
L 275.712273 182.935478 
L 273.683182 182.935478 
z
" clip-path="url(#pb8e6e27f5a)" style="fill: #1f77b4"/>
   </g>
   <g id="patch_73">
    <path d="M 275.712273 499.197187 
L 277.741364 499.197187 
L 277.741364 165.782546 
L 275.712273 165.782546 
z
" clip-path="url(#pb8e6e27f5a)" style="fill: #1f77b4"/>
   </g>
   <g id="patch_74">
    <path d="M 277.741364 499.197187 
L 279.770455 499.197187 
L 279.770455 201.771135 
L 277.741364 201.771135 
z
" clip-path="url(#pb8e6e27f5a)" style="fill: #1f77b4"/>
   </g>
   <g id="patch_75">
    <path d="M 279.770455 499.197187 
L 281.799545 499.197187 
L 281.799545 182.356476 
L 279.770455 182.356476 
z
" clip-path="url(#pb8e6e27f5a)" style="fill: #1f77b4"/>
   </g>
   <g id="patch_76">
    <path d="M 281.799545 499.197187 
L 283.828636 499.197187 
L 283.828636 224.768368 
L 281.799545 224.768368 
z
" clip-path="url(#pb8e6e27f5a)" style="fill: #1f77b4"/>
   </g>
   <g id="patch_77">
    <path d="M 283.828636 499.197187 
L 285.857727 499.197187 
L 285.857727 217.241343 
L 283.828636 217.241343 
z
" clip-path="url(#pb8e6e27f5a)" style="fill: #1f77b4"/>
   </g>
   <g id="patch_78">
    <path d="M 285.857727 499.197187 
L 287.886818 499.197187 
L 287.886818 255.021218 
L 285.857727 255.021218 
z
" clip-path="url(#pb8e6e27f5a)" style="fill: #1f77b4"/>
   </g>
   <g id="patch_79">
    <path d="M 287.886818 499.197187 
L 289.915909 499.197187 
L 289.915909 271.396117 
L 287.886818 271.396117 
z
" clip-path="url(#pb8e6e27f5a)" style="fill: #1f77b4"/>
   </g>
   <g id="patch_80">
    <path d="M 289.915909 499.197187 
L 291.945 499.197187 
L 291.945 265.388972 
L 289.915909 265.388972 
z
" clip-path="url(#pb8e6e27f5a)" style="fill: #1f77b4"/>
   </g>
   <g id="patch_81">
    <path d="M 291.945 499.197187 
L 293.974091 499.197187 
L 293.974091 299.115834 
L 291.945 299.115834 
z
" clip-path="url(#pb8e6e27f5a)" style="fill: #1f77b4"/>
   </g>
   <g id="patch_82">
    <path d="M 293.974091 499.197187 
L 296.003182 499.197187 
L 296.003182 291.172651 
L 293.974091 291.172651 
z
" clip-path="url(#pb8e6e27f5a)" style="fill: #1f77b4"/>
   </g>
   <g id="patch_83">
    <path d="M 296.003182 499.197187 
L 298.032273 499.197187 
L 298.032273 312.577629 
L 296.003182 312.577629 
z
" clip-path="url(#pb8e6e27f5a)" style="fill: #1f77b4"/>
   </g>
   <g id="patch_84">
    <path d="M 298.032273 499.197187 
L 300.061364 499.197187 
L 300.061364 296.329387 
L 298.032273 296.329387 
z
" clip-path="url(#pb8e6e27f5a)" style="fill: #1f77b4"/>
   </g>
   <g id="patch_85">
    <path d="M 300.061364 499.197187 
L 302.090455 499.197187 
L 302.090455 313.138537 
L 300.061364 313.138537 
z
" clip-path="url(#pb8e6e27f5a)" style="fill: #1f77b4"/>
   </g>
   <g id="patch_86">
    <path d="M 302.090455 499.197187 
L 304.119545 499.197187 
L 304.119545 297.215984 
L 302.090455 297.215984 
z
" clip-path="url(#pb8e6e27f5a)" style="fill: #1f77b4"/>
   </g>
   <g id="patch_87">
    <path d="M 304.119545 499.197187 
L 306.148636 499.197187 
L 306.148636 315.092668 
L 304.119545 315.092668 
z
" clip-path="url(#pb8e6e27f5a)" style="fill: #1f77b4"/>
   </g>
   <g id="patch_88">
    <path d="M 306.148636 499.197187 
L 308.177727 499.197187 
L 308.177727 293.886723 
L 306.148636 293.886723 
z
" clip-path="url(#pb8e6e27f5a)" style="fill: #1f77b4"/>
   </g>
   <g id="patch_89">
    <path d="M 308.177727 499.197187 
L 310.206818 499.197187 
L 310.206818 313.283287 
L 308.177727 313.283287 
z
" clip-path="url(#pb8e6e27f5a)" style="fill: #1f77b4"/>
   </g>
   <g id="patch_90">
    <path d="M 310.206818 499.197187 
L 312.235909 499.197187 
L 312.235909 305.991482 
L 310.206818 305.991482 
z
" clip-path="url(#pb8e6e27f5a)" style="fill: #1f77b4"/>
   </g>
   <g id="patch_91">
    <path d="M 312.235909 499.197187 
L 314.265 499.197187 
L 314.265 326.853645 
L 312.235909 326.853645 
z
" clip-path="url(#pb8e6e27f5a)" style="fill: #1f77b4"/>
   </g>
   <g id="patch_92">
    <path d="M 314.265 499.197187 
L 316.294091 499.197187 
L 316.294091 325.207108 
L 314.265 325.207108 
z
" clip-path="url(#pb8e6e27f5a)" style="fill: #1f77b4"/>
   </g>
   <g id="patch_93">
    <path d="M 316.294091 499.197187 
L 318.323182 499.197187 
L 318.323182 346.123553 
L 316.294091 346.123553 
z
" clip-path="url(#pb8e6e27f5a)" style="fill: #1f77b4"/>
   </g>
   <g id="patch_94">
    <path d="M 318.323182 499.197187 
L 320.352273 499.197187 
L 320.352273 352.546856 
L 318.323182 352.546856 
z
" clip-path="url(#pb8e6e27f5a)" style="fill: #1f77b4"/>
   </g>
   <g id="patch_95">
    <path d="M 320.352273 499.197187 
L 322.381364 499.197187 
L 322.381364 372.486234 
L 320.352273 372.486234 
z
" clip-path="url(#pb8e6e27f5a)" style="fill: #1f77b4"/>
   </g>
   <g id="patch_96">
    <path d="M 322.381364 499.197187 
L 324.410455 499.197187 
L 324.410455 373.933739 
L 322.381364 373.933739 
z
" clip-path="url(#pb8e6e27f5a)" style="fill: #1f77b4"/>
   </g>
   <g id="patch_97">
    <path d="M 324.410455 499.197187 
L 326.439545 499.197187 
L 326.439545 396.080563 
L 324.410455 396.080563 
z
" clip-path="url(#pb8e6e27f5a)" style="fill: #1f77b4"/>
   </g>
   <g id="patch_98">
    <path d="M 326.439545 499.197187 
L 328.468636 499.197187 
L 328.468636 395.139685 
L 326.439545 395.139685 
z
" clip-path="url(#pb8e6e27f5a)" style="fill: #1f77b4"/>
   </g>
   <g id="patch_99">
    <path d="M 328.468636 499.197187 
L 330.497727 499.197187 
L 330.497727 409.307138 
L 328.468636 409.307138 
z
" clip-path="url(#pb8e6e27f5a)" style="fill: #1f77b4"/>
   </g>
   <g id="patch_100">
    <path d="M 330.497727 499.197187 
L 332.526818 499.197187 
L 332.526818 408.330072 
L 330.497727 408.330072 
z
" clip-path="url(#pb8e6e27f5a)" style="fill: #1f77b4"/>
   </g>
   <g id="patch_101">
    <path d="M 332.526818 499.197187 
L 334.555909 499.197187 
L 334.555909 419.258734 
L 332.526818 419.258734 
z
" clip-path="url(#pb8e6e27f5a)" style="fill: #1f77b4"/>
   </g>
   <g id="patch_102">
    <path d="M 334.555909 499.197187 
L 336.585 499.197187 
L 336.585 414.337217 
L 334.555909 414.337217 
z
" clip-path="url(#pb8e6e27f5a)" style="fill: #1f77b4"/>
   </g>
   <g id="patch_103">
    <path d="M 336.585 499.197187 
L 338.614091 499.197187 
L 338.614091 422.334682 
L 336.585 422.334682 
z
" clip-path="url(#pb8e6e27f5a)" style="fill: #1f77b4"/>
   </g>
   <g id="patch_104">
    <path d="M 338.614091 499.197187 
L 340.643182 499.197187 
L 340.643182 425.663943 
L 338.614091 425.663943 
z
" clip-path="url(#pb8e6e27f5a)" style="fill: #1f77b4"/>
   </g>
   <g id="patch_105">
    <path d="M 340.643182 499.197187 
L 342.672273 499.197187 
L 342.672273 415.947567 
L 340.643182 415.947567 
z
" clip-path="url(#pb8e6e27f5a)" style="fill: #1f77b4"/>
   </g>
   <g id="patch_106">
    <path d="M 342.672273 499.197187 
L 344.701364 499.197187 
L 344.701364 421.303334 
L 342.672273 421.303334 
z
" clip-path="url(#pb8e6e27f5a)" style="fill: #1f77b4"/>
   </g>
   <g id="patch_107">
    <path d="M 344.701364 499.197187 
L 346.730455 499.197187 
L 346.730455 415.567597 
L 344.701364 415.567597 
z
" clip-path="url(#pb8e6e27f5a)" style="fill: #1f77b4"/>
   </g>
   <g id="patch_108">
    <path d="M 346.730455 499.197187 
L 348.759545 499.197187 
L 348.759545 422.714652 
L 346.730455 422.714652 
z
" clip-path="url(#pb8e6e27f5a)" style="fill: #1f77b4"/>
   </g>
   <g id="patch_109">
    <path d="M 348.759545 499.197187 
L 350.788636 499.197187 
L 350.788636 416.454193 
L 348.759545 416.454193 
z
" clip-path="url(#pb8e6e27f5a)" style="fill: #1f77b4"/>
   </g>
   <g id="patch_110">
    <path d="M 350.788636 499.197187 
L 352.817727 499.197187 
L 352.817727 419.62061 
L 350.788636 419.62061 
z
" clip-path="url(#pb8e6e27f5a)" style="fill: #1f77b4"/>
   </g>
   <g id="patch_111">
    <path d="M 352.817727 499.197187 
L 354.846818 499.197187 
L 354.846818 409.270951 
L 352.817727 409.270951 
z
" clip-path="url(#pb8e6e27f5a)" style="fill: #1f77b4"/>
   </g>
   <g id="patch_112">
    <path d="M 354.846818 499.197187 
L 356.875909 499.197187 
L 356.875909 411.840272 
L 354.846818 411.840272 
z
" clip-path="url(#pb8e6e27f5a)" style="fill: #1f77b4"/>
   </g>
   <g id="patch_113">
    <path d="M 356.875909 499.197187 
L 358.905 499.197187 
L 358.905 396.58719 
L 356.875909 396.58719 
z
" clip-path="url(#pb8e6e27f5a)" style="fill: #1f77b4"/>
   </g>
   <g id="patch_114">
    <path d="M 358.905 499.197187 
L 360.934091 499.197187 
L 360.934091 397.636631 
L 358.905 397.636631 
z
" clip-path="url(#pb8e6e27f5a)" style="fill: #1f77b4"/>
   </g>
   <g id="patch_115">
    <path d="M 360.934091 499.197187 
L 362.963182 499.197187 
L 362.963182 379.524727 
L 360.934091 379.524727 
z
" clip-path="url(#pb8e6e27f5a)" style="fill: #1f77b4"/>
   </g>
   <g id="patch_116">
    <path d="M 362.963182 499.197187 
L 364.992273 499.197187 
L 364.992273 380.139916 
L 362.963182 380.139916 
z
" clip-path="url(#pb8e6e27f5a)" style="fill: #1f77b4"/>
   </g>
   <g id="patch_117">
    <path d="M 364.992273 499.197187 
L 367.021364 499.197187 
L 367.021364 358.02928 
L 364.992273 358.02928 
z
" clip-path="url(#pb8e6e27f5a)" style="fill: #1f77b4"/>
   </g>
   <g id="patch_118">
    <path d="M 367.021364 499.197187 
L 369.050455 499.197187 
L 369.050455 359.368222 
L 367.021364 359.368222 
z
" clip-path="url(#pb8e6e27f5a)" style="fill: #1f77b4"/>
   </g>
   <g id="patch_119">
    <path d="M 369.050455 499.197187 
L 371.079545 499.197187 
L 371.079545 332.010381 
L 369.050455 332.010381 
z
" clip-path="url(#pb8e6e27f5a)" style="fill: #1f77b4"/>
   </g>
   <g id="patch_120">
    <path d="M 371.079545 499.197187 
L 373.108636 499.197187 
L 373.108636 332.317976 
L 371.079545 332.317976 
z
" clip-path="url(#pb8e6e27f5a)" style="fill: #1f77b4"/>
   </g>
   <g id="patch_121">
    <path d="M 373.108636 499.197187 
L 375.137727 499.197187 
L 375.137727 303.367879 
L 373.108636 303.367879 
z
" clip-path="url(#pb8e6e27f5a)" style="fill: #1f77b4"/>
   </g>
   <g id="patch_122">
    <path d="M 375.137727 499.197187 
L 377.166818 499.197187 
L 377.166818 303.494536 
L 375.137727 303.494536 
z
" clip-path="url(#pb8e6e27f5a)" style="fill: #1f77b4"/>
   </g>
   <g id="patch_123">
    <path d="M 377.166818 499.197187 
L 379.195909 499.197187 
L 379.195909 276.878541 
L 377.166818 276.878541 
z
" clip-path="url(#pb8e6e27f5a)" style="fill: #1f77b4"/>
   </g>
   <g id="patch_124">
    <path d="M 379.195909 499.197187 
L 381.225 499.197187 
L 381.225 294.863788 
L 379.195909 294.863788 
z
" clip-path="url(#pb8e6e27f5a)" style="fill: #1f77b4"/>
   </g>
   <g id="patch_125">
    <path d="M 381.225 499.197187 
L 383.254091 499.197187 
L 383.254091 280.76871 
L 381.225 280.76871 
z
" clip-path="url(#pb8e6e27f5a)" style="fill: #1f77b4"/>
   </g>
   <g id="patch_126">
    <path d="M 383.254091 499.197187 
L 385.283182 499.197187 
L 385.283182 312.776661 
L 383.254091 312.776661 
z
" clip-path="url(#pb8e6e27f5a)" style="fill: #1f77b4"/>
   </g>
   <g id="patch_127">
    <path d="M 385.283182 499.197187 
L 387.312273 499.197187 
L 387.312273 316.739205 
L 385.283182 316.739205 
z
" clip-path="url(#pb8e6e27f5a)" style="fill: #1f77b4"/>
   </g>
   <g id="patch_128">
    <path d="M 387.312273 499.197187 
L 389.341364 499.197187 
L 389.341364 356.853182 
L 387.312273 356.853182 
z
" clip-path="url(#pb8e6e27f5a)" style="fill: #1f77b4"/>
   </g>
   <g id="patch_129">
    <path d="M 389.341364 499.197187 
L 391.370455 499.197187 
L 391.370455 379.687571 
L 389.341364 379.687571 
z
" clip-path="url(#pb8e6e27f5a)" style="fill: #1f77b4"/>
   </g>
   <g id="patch_130">
    <path d="M 391.370455 499.197187 
L 393.399545 499.197187 
L 393.399545 395.175872 
L 391.370455 395.175872 
z
" clip-path="url(#pb8e6e27f5a)" style="fill: #1f77b4"/>
   </g>
   <g id="patch_131">
    <path d="M 393.399545 499.197187 
L 395.428636 499.197187 
L 395.428636 424.306907 
L 393.399545 424.306907 
z
" clip-path="url(#pb8e6e27f5a)" style="fill: #1f77b4"/>
   </g>
   <g id="patch_132">
    <path d="M 395.428636 499.197187 
L 397.457727 499.197187 
L 397.457727 435.036536 
L 395.428636 435.036536 
z
" clip-path="url(#pb8e6e27f5a)" style="fill: #1f77b4"/>
   </g>
   <g id="patch_133">
    <path d="M 397.457727 499.197187 
L 399.486818 499.197187 
L 399.486818 451.013371 
L 397.457727 451.013371 
z
" clip-path="url(#pb8e6e27f5a)" style="fill: #1f77b4"/>
   </g>
   <g id="patch_134">
    <path d="M 399.486818 499.197187 
L 401.515909 499.197187 
L 401.515909 456.332951 
L 399.486818 456.332951 
z
" clip-path="url(#pb8e6e27f5a)" style="fill: #1f77b4"/>
   </g>
   <g id="patch_135">
    <path d="M 401.515909 499.197187 
L 403.545 499.197187 
L 403.545 467.514926 
L 401.515909 467.514926 
z
" clip-path="url(#pb8e6e27f5a)" style="fill: #1f77b4"/>
   </g>
   <g id="patch_136">
    <path d="M 403.545 499.197187 
L 405.574091 499.197187 
L 405.574091 469.270025 
L 403.545 469.270025 
z
" clip-path="url(#pb8e6e27f5a)" style="fill: #1f77b4"/>
   </g>
   <g id="patch_137">
    <path d="M 405.574091 499.197187 
L 407.603182 499.197187 
L 407.603182 475.838078 
L 405.574091 475.838078 
z
" clip-path="url(#pb8e6e27f5a)" style="fill: #1f77b4"/>
   </g>
   <g id="patch_138">
    <path d="M 407.603182 499.197187 
L 409.632273 499.197187 
L 409.632273 476.398987 
L 407.603182 476.398987 
z
" clip-path="url(#pb8e6e27f5a)" style="fill: #1f77b4"/>
   </g>
   <g id="patch_139">
    <path d="M 409.632273 499.197187 
L 411.661364 499.197187 
L 411.661364 481.012908 
L 409.632273 481.012908 
z
" clip-path="url(#pb8e6e27f5a)" style="fill: #1f77b4"/>
   </g>
   <g id="patch_140">
    <path d="M 411.661364 499.197187 
L 413.690455 499.197187 
L 413.690455 481.754754 
L 411.661364 481.754754 
z
" clip-path="url(#pb8e6e27f5a)" style="fill: #1f77b4"/>
   </g>
   <g id="patch_141">
    <path d="M 413.690455 499.197187 
L 415.719545 499.197187 
L 415.719545 484.269794 
L 413.690455 484.269794 
z
" clip-path="url(#pb8e6e27f5a)" style="fill: #1f77b4"/>
   </g>
   <g id="patch_142">
    <path d="M 415.719545 499.197187 
L 417.748636 499.197187 
L 417.748636 485.445892 
L 415.719545 485.445892 
z
" clip-path="url(#pb8e6e27f5a)" style="fill: #1f77b4"/>
   </g>
   <g id="patch_143">
    <path d="M 417.748636 499.197187 
L 419.777727 499.197187 
L 419.777727 487.779993 
L 417.748636 487.779993 
z
" clip-path="url(#pb8e6e27f5a)" style="fill: #1f77b4"/>
   </g>
   <g id="patch_144">
    <path d="M 419.777727 499.197187 
L 421.806818 499.197187 
L 421.806818 488.594215 
L 419.777727 488.594215 
z
" clip-path="url(#pb8e6e27f5a)" style="fill: #1f77b4"/>
   </g>
   <g id="patch_145">
    <path d="M 421.806818 499.197187 
L 423.835909 499.197187 
L 423.835909 490.222658 
L 421.806818 490.222658 
z
" clip-path="url(#pb8e6e27f5a)" style="fill: #1f77b4"/>
   </g>
   <g id="patch_146">
    <path d="M 423.835909 499.197187 
L 425.865 499.197187 
L 425.865 491.109254 
L 423.835909 491.109254 
z
" clip-path="url(#pb8e6e27f5a)" style="fill: #1f77b4"/>
   </g>
   <g id="patch_147">
    <path d="M 425.865 499.197187 
L 427.894091 499.197187 
L 427.894091 493.588106 
L 425.865 493.588106 
z
" clip-path="url(#pb8e6e27f5a)" style="fill: #1f77b4"/>
   </g>
   <g id="patch_148">
    <path d="M 427.894091 499.197187 
L 429.923182 499.197187 
L 429.923182 494.293765 
L 427.894091 494.293765 
z
" clip-path="url(#pb8e6e27f5a)" style="fill: #1f77b4"/>
   </g>
   <g id="patch_149">
    <path d="M 429.923182 499.197187 
L 431.952273 499.197187 
L 431.952273 495.922208 
L 429.923182 495.922208 
z
" clip-path="url(#pb8e6e27f5a)" style="fill: #1f77b4"/>
   </g>
   <g id="patch_150">
    <path d="M 431.952273 499.197187 
L 433.981364 499.197187 
L 433.981364 496.718335 
L 431.952273 496.718335 
z
" clip-path="url(#pb8e6e27f5a)" style="fill: #1f77b4"/>
   </g>
   <g id="patch_151">
    <path d="M 433.981364 499.197187 
L 436.010455 499.197187 
L 436.010455 497.803964 
L 433.981364 497.803964 
z
" clip-path="url(#pb8e6e27f5a)" style="fill: #1f77b4"/>
   </g>
   <g id="patch_152">
    <path d="M 436.010455 499.197187 
L 438.039545 499.197187 
L 438.039545 497.984902 
L 436.010455 497.984902 
z
" clip-path="url(#pb8e6e27f5a)" style="fill: #1f77b4"/>
   </g>
   <g id="patch_153">
    <path d="M 438.039545 499.197187 
L 440.068636 499.197187 
L 440.068636 498.491529 
L 438.039545 498.491529 
z
" clip-path="url(#pb8e6e27f5a)" style="fill: #1f77b4"/>
   </g>
   <g id="patch_154">
    <path d="M 440.068636 499.197187 
L 442.097727 499.197187 
L 442.097727 498.636279 
L 440.068636 498.636279 
z
" clip-path="url(#pb8e6e27f5a)" style="fill: #1f77b4"/>
   </g>
   <g id="patch_155">
    <path d="M 442.097727 499.197187 
L 444.126818 499.197187 
L 444.126818 498.907687 
L 442.097727 498.907687 
z
" clip-path="url(#pb8e6e27f5a)" style="fill: #1f77b4"/>
   </g>
   <g id="patch_156">
    <path d="M 444.126818 499.197187 
L 446.155909 499.197187 
L 446.155909 499.106718 
L 444.126818 499.106718 
z
" clip-path="url(#pb8e6e27f5a)" style="fill: #1f77b4"/>
   </g>
   <g id="patch_157">
    <path d="M 446.155909 499.197187 
L 448.185 499.197187 
L 448.185 499.142906 
L 446.155909 499.142906 
z
" clip-path="url(#pb8e6e27f5a)" style="fill: #1f77b4"/>
   </g>
   <g id="patch_158">
    <path d="M 448.185 499.197187 
L 450.214091 499.197187 
L 450.214091 499.142906 
L 448.185 499.142906 
z
" clip-path="url(#pb8e6e27f5a)" style="fill: #1f77b4"/>
   </g>
   <g id="patch_159">
    <path d="M 450.214091 499.197187 
L 452.243182 499.197187 
L 452.243182 499.161 
L 450.214091 499.161 
z
" clip-path="url(#pb8e6e27f5a)" style="fill: #1f77b4"/>
   </g>
   <g id="patch_160">
    <path d="M 452.243182 499.197187 
L 454.272273 499.197187 
L 454.272273 499.179094 
L 452.243182 499.179094 
z
" clip-path="url(#pb8e6e27f5a)" style="fill: #1f77b4"/>
   </g>
   <g id="patch_161">
    <path d="M 454.272273 499.197187 
L 456.301364 499.197187 
L 456.301364 499.197187 
L 454.272273 499.197187 
z
" clip-path="url(#pb8e6e27f5a)" style="fill: #1f77b4"/>
   </g>
   <g id="patch_162">
    <path d="M 456.301364 499.197187 
L 458.330455 499.197187 
L 458.330455 499.179094 
L 456.301364 499.179094 
z
" clip-path="url(#pb8e6e27f5a)" style="fill: #1f77b4"/>
   </g>
   <g id="patch_163">
    <path d="M 458.330455 499.197187 
L 460.359545 499.197187 
L 460.359545 499.142906 
L 458.330455 499.142906 
z
" clip-path="url(#pb8e6e27f5a)" style="fill: #1f77b4"/>
   </g>
   <g id="patch_164">
    <path d="M 460.359545 499.197187 
L 462.388636 499.197187 
L 462.388636 499.161 
L 460.359545 499.161 
z
" clip-path="url(#pb8e6e27f5a)" style="fill: #1f77b4"/>
   </g>
   <g id="patch_165">
    <path d="M 462.388636 499.197187 
L 464.417727 499.197187 
L 464.417727 499.161 
L 462.388636 499.161 
z
" clip-path="url(#pb8e6e27f5a)" style="fill: #1f77b4"/>
   </g>
   <g id="patch_166">
    <path d="M 464.417727 499.197187 
L 466.446818 499.197187 
L 466.446818 499.197187 
L 464.417727 499.197187 
z
" clip-path="url(#pb8e6e27f5a)" style="fill: #1f77b4"/>
   </g>
   <g id="patch_167">
    <path d="M 466.446818 499.197187 
L 468.475909 499.197187 
L 468.475909 499.179094 
L 466.446818 499.179094 
z
" clip-path="url(#pb8e6e27f5a)" style="fill: #1f77b4"/>
   </g>
   <g id="patch_168">
    <path d="M 468.475909 499.197187 
L 470.505 499.197187 
L 470.505 499.124812 
L 468.475909 499.124812 
z
" clip-path="url(#pb8e6e27f5a)" style="fill: #1f77b4"/>
   </g>
   <g id="patch_169">
    <path d="M 470.505 499.197187 
L 472.534091 499.197187 
L 472.534091 499.179094 
L 470.505 499.179094 
z
" clip-path="url(#pb8e6e27f5a)" style="fill: #1f77b4"/>
   </g>
   <g id="patch_170">
    <path d="M 472.534091 499.197187 
L 474.563182 499.197187 
L 474.563182 499.142906 
L 472.534091 499.142906 
z
" clip-path="url(#pb8e6e27f5a)" style="fill: #1f77b4"/>
   </g>
   <g id="patch_171">
    <path d="M 474.563182 499.197187 
L 476.592273 499.197187 
L 476.592273 499.197187 
L 474.563182 499.197187 
z
" clip-path="url(#pb8e6e27f5a)" style="fill: #1f77b4"/>
   </g>
   <g id="patch_172">
    <path d="M 476.592273 499.197187 
L 478.621364 499.197187 
L 478.621364 499.197187 
L 476.592273 499.197187 
z
" clip-path="url(#pb8e6e27f5a)" style="fill: #1f77b4"/>
   </g>
   <g id="patch_173">
    <path d="M 478.621364 499.197187 
L 480.650455 499.197187 
L 480.650455 499.179094 
L 478.621364 499.179094 
z
" clip-path="url(#pb8e6e27f5a)" style="fill: #1f77b4"/>
   </g>
   <g id="patch_174">
    <path d="M 480.650455 499.197187 
L 482.679545 499.197187 
L 482.679545 499.142906 
L 480.650455 499.142906 
z
" clip-path="url(#pb8e6e27f5a)" style="fill: #1f77b4"/>
   </g>
   <g id="patch_175">
    <path d="M 482.679545 499.197187 
L 484.708636 499.197187 
L 484.708636 499.161 
L 482.679545 499.161 
z
" clip-path="url(#pb8e6e27f5a)" style="fill: #1f77b4"/>
   </g>
   <g id="patch_176">
    <path d="M 484.708636 499.197187 
L 486.737727 499.197187 
L 486.737727 499.179094 
L 484.708636 499.179094 
z
" clip-path="url(#pb8e6e27f5a)" style="fill: #1f77b4"/>
   </g>
   <g id="patch_177">
    <path d="M 486.737727 499.197187 
L 488.766818 499.197187 
L 488.766818 499.179094 
L 486.737727 499.179094 
z
" clip-path="url(#pb8e6e27f5a)" style="fill: #1f77b4"/>
   </g>
   <g id="patch_178">
    <path d="M 488.766818 499.197187 
L 490.795909 499.197187 
L 490.795909 499.179094 
L 488.766818 499.179094 
z
" clip-path="url(#pb8e6e27f5a)" style="fill: #1f77b4"/>
   </g>
   <g id="patch_179">
    <path d="M 490.795909 499.197187 
L 492.825 499.197187 
L 492.825 499.179094 
L 490.795909 499.179094 
z
" clip-path="url(#pb8e6e27f5a)" style="fill: #1f77b4"/>
   </g>
   <g id="patch_180">
    <path d="M 492.825 499.197187 
L 494.854091 499.197187 
L 494.854091 499.197187 
L 492.825 499.197187 
z
" clip-path="url(#pb8e6e27f5a)" style="fill: #1f77b4"/>
   </g>
   <g id="patch_181">
    <path d="M 494.854091 499.197187 
L 496.883182 499.197187 
L 496.883182 499.197187 
L 494.854091 499.197187 
z
" clip-path="url(#pb8e6e27f5a)" style="fill: #1f77b4"/>
   </g>
   <g id="patch_182">
    <path d="M 496.883182 499.197187 
L 498.912273 499.197187 
L 498.912273 499.197187 
L 496.883182 499.197187 
z
" clip-path="url(#pb8e6e27f5a)" style="fill: #1f77b4"/>
   </g>
   <g id="patch_183">
    <path d="M 498.912273 499.197187 
L 500.941364 499.197187 
L 500.941364 499.197187 
L 498.912273 499.197187 
z
" clip-path="url(#pb8e6e27f5a)" style="fill: #1f77b4"/>
   </g>
   <g id="patch_184">
    <path d="M 500.941364 499.197187 
L 502.970455 499.197187 
L 502.970455 499.197187 
L 500.941364 499.197187 
z
" clip-path="url(#pb8e6e27f5a)" style="fill: #1f77b4"/>
   </g>
   <g id="patch_185">
    <path d="M 502.970455 499.197187 
L 504.999545 499.197187 
L 504.999545 499.197187 
L 502.970455 499.197187 
z
" clip-path="url(#pb8e6e27f5a)" style="fill: #1f77b4"/>
   </g>
   <g id="patch_186">
    <path d="M 504.999545 499.197187 
L 507.028636 499.197187 
L 507.028636 499.197187 
L 504.999545 499.197187 
z
" clip-path="url(#pb8e6e27f5a)" style="fill: #1f77b4"/>
   </g>
   <g id="patch_187">
    <path d="M 507.028636 499.197187 
L 509.057727 499.197187 
L 509.057727 499.197187 
L 507.028636 499.197187 
z
" clip-path="url(#pb8e6e27f5a)" style="fill: #1f77b4"/>
   </g>
   <g id="patch_188">
    <path d="M 509.057727 499.197187 
L 511.086818 499.197187 
L 511.086818 499.197187 
L 509.057727 499.197187 
z
" clip-path="url(#pb8e6e27f5a)" style="fill: #1f77b4"/>
   </g>
   <g id="patch_189">
    <path d="M 511.086818 499.197187 
L 513.115909 499.197187 
L 513.115909 499.179094 
L 511.086818 499.179094 
z
" clip-path="url(#pb8e6e27f5a)" style="fill: #1f77b4"/>
   </g>
   <g id="patch_190">
    <path d="M 513.115909 499.197187 
L 515.145 499.197187 
L 515.145 499.197187 
L 513.115909 499.197187 
z
" clip-path="url(#pb8e6e27f5a)" style="fill: #1f77b4"/>
   </g>
   <g id="patch_191">
    <path d="M 515.145 499.197187 
L 517.174091 499.197187 
L 517.174091 499.197187 
L 515.145 499.197187 
z
" clip-path="url(#pb8e6e27f5a)" style="fill: #1f77b4"/>
   </g>
   <g id="patch_192">
    <path d="M 517.174091 499.197187 
L 519.203182 499.197187 
L 519.203182 499.197187 
L 517.174091 499.197187 
z
" clip-path="url(#pb8e6e27f5a)" style="fill: #1f77b4"/>
   </g>
   <g id="patch_193">
    <path d="M 519.203182 499.197187 
L 521.232273 499.197187 
L 521.232273 499.197187 
L 519.203182 499.197187 
z
" clip-path="url(#pb8e6e27f5a)" style="fill: #1f77b4"/>
   </g>
   <g id="patch_194">
    <path d="M 521.232273 499.197187 
L 523.261364 499.197187 
L 523.261364 499.197187 
L 521.232273 499.197187 
z
" clip-path="url(#pb8e6e27f5a)" style="fill: #1f77b4"/>
   </g>
   <g id="patch_195">
    <path d="M 523.261364 499.197187 
L 525.290455 499.197187 
L 525.290455 499.197187 
L 523.261364 499.197187 
z
" clip-path="url(#pb8e6e27f5a)" style="fill: #1f77b4"/>
   </g>
   <g id="patch_196">
    <path d="M 525.290455 499.197187 
L 527.319545 499.197187 
L 527.319545 499.179094 
L 525.290455 499.179094 
z
" clip-path="url(#pb8e6e27f5a)" style="fill: #1f77b4"/>
   </g>
   <g id="patch_197">
    <path d="M 527.319545 499.197187 
L 529.348636 499.197187 
L 529.348636 499.197187 
L 527.319545 499.197187 
z
" clip-path="url(#pb8e6e27f5a)" style="fill: #1f77b4"/>
   </g>
   <g id="patch_198">
    <path d="M 529.348636 499.197187 
L 531.377727 499.197187 
L 531.377727 499.197187 
L 529.348636 499.197187 
z
" clip-path="url(#pb8e6e27f5a)" style="fill: #1f77b4"/>
   </g>
   <g id="patch_199">
    <path d="M 531.377727 499.197187 
L 533.406818 499.197187 
L 533.406818 499.197187 
L 531.377727 499.197187 
z
" clip-path="url(#pb8e6e27f5a)" style="fill: #1f77b4"/>
   </g>
   <g id="patch_200">
    <path d="M 533.406818 499.197187 
L 535.435909 499.197187 
L 535.435909 499.197187 
L 533.406818 499.197187 
z
" clip-path="url(#pb8e6e27f5a)" style="fill: #1f77b4"/>
   </g>
   <g id="patch_201">
    <path d="M 535.435909 499.197187 
L 537.465 499.197187 
L 537.465 499.197187 
L 535.435909 499.197187 
z
" clip-path="url(#pb8e6e27f5a)" style="fill: #1f77b4"/>
   </g>
   <g id="patch_202">
    <path d="M 537.465 499.197187 
L 539.494091 499.197187 
L 539.494091 499.179094 
L 537.465 499.179094 
z
" clip-path="url(#pb8e6e27f5a)" style="fill: #1f77b4"/>
   </g>
   <g id="matplotlib.axis_1">
    <g id="xtick_1">
     <g id="line2d_1">
      <defs>
       <path id="m813c9ce841" d="M 0 0 
L 0 3.5 
" style="stroke: #000000; stroke-width: 0.8"/>
      </defs>
      <g>
       <use xlink:href="#m813c9ce841" x="190.813422" y="499.197187" style="stroke: #000000; stroke-width: 0.8"/>
      </g>
     </g>
     <g id="text_1">
      <!-- 100 -->
      <g transform="translate(175.543422 518.354687) scale(0.16 -0.16)">
       <defs>
        <path id="DejaVuSans-31" d="M 794 531 
L 1825 531 
L 1825 4091 
L 703 3866 
L 703 4441 
L 1819 4666 
L 2450 4666 
L 2450 531 
L 3481 531 
L 3481 0 
L 794 0 
L 794 531 
z
" transform="scale(0.015625)"/>
        <path id="DejaVuSans-30" d="M 2034 4250 
Q 1547 4250 1301 3770 
Q 1056 3291 1056 2328 
Q 1056 1369 1301 889 
Q 1547 409 2034 409 
Q 2525 409 2770 889 
Q 3016 1369 3016 2328 
Q 3016 3291 2770 3770 
Q 2525 4250 2034 4250 
z
M 2034 4750 
Q 2819 4750 3233 4129 
Q 3647 3509 3647 2328 
Q 3647 1150 3233 529 
Q 2819 -91 2034 -91 
Q 1250 -91 836 529 
Q 422 1150 422 2328 
Q 422 3509 836 4129 
Q 1250 4750 2034 4750 
z
" transform="scale(0.015625)"/>
       </defs>
       <use xlink:href="#DejaVuSans-31"/>
       <use xlink:href="#DejaVuSans-30" x="63.623047"/>
       <use xlink:href="#DejaVuSans-30" x="127.246094"/>
      </g>
     </g>
    </g>
    <g id="xtick_2">
     <g id="line2d_2">
      <g>
       <use xlink:href="#m813c9ce841" x="283.34445" y="499.197187" style="stroke: #000000; stroke-width: 0.8"/>
      </g>
     </g>
     <g id="text_2">
      <!-- 105 -->
      <g transform="translate(268.07445 518.354687) scale(0.16 -0.16)">
       <defs>
        <path id="DejaVuSans-35" d="M 691 4666 
L 3169 4666 
L 3169 4134 
L 1269 4134 
L 1269 2991 
Q 1406 3038 1543 3061 
Q 1681 3084 1819 3084 
Q 2600 3084 3056 2656 
Q 3513 2228 3513 1497 
Q 3513 744 3044 326 
Q 2575 -91 1722 -91 
Q 1428 -91 1123 -41 
Q 819 9 494 109 
L 494 744 
Q 775 591 1075 516 
Q 1375 441 1709 441 
Q 2250 441 2565 725 
Q 2881 1009 2881 1497 
Q 2881 1984 2565 2268 
Q 2250 2553 1709 2553 
Q 1456 2553 1204 2497 
Q 953 2441 691 2322 
L 691 4666 
z
" transform="scale(0.015625)"/>
       </defs>
       <use xlink:href="#DejaVuSans-31"/>
       <use xlink:href="#DejaVuSans-30" x="63.623047"/>
       <use xlink:href="#DejaVuSans-35" x="127.246094"/>
      </g>
     </g>
    </g>
    <g id="xtick_3">
     <g id="line2d_3">
      <g>
       <use xlink:href="#m813c9ce841" x="375.875478" y="499.197187" style="stroke: #000000; stroke-width: 0.8"/>
      </g>
     </g>
     <g id="text_3">
      <!-- 110 -->
      <g transform="translate(360.605478 518.354687) scale(0.16 -0.16)">
       <use xlink:href="#DejaVuSans-31"/>
       <use xlink:href="#DejaVuSans-31" x="63.623047"/>
       <use xlink:href="#DejaVuSans-30" x="127.246094"/>
      </g>
     </g>
    </g>
    <g id="xtick_4">
     <g id="line2d_4">
      <g>
       <use xlink:href="#m813c9ce841" x="468.406507" y="499.197187" style="stroke: #000000; stroke-width: 0.8"/>
      </g>
     </g>
     <g id="text_4">
      <!-- 115 -->
      <g transform="translate(453.136507 518.354687) scale(0.16 -0.16)">
       <use xlink:href="#DejaVuSans-31"/>
       <use xlink:href="#DejaVuSans-31" x="63.623047"/>
       <use xlink:href="#DejaVuSans-35" x="127.246094"/>
      </g>
     </g>
    </g>
    <g id="text_5">
     <!-- pixel height -->
     <g transform="translate(289.61125 537.839687) scale(0.16 -0.16)">
      <defs>
       <path id="DejaVuSans-70" d="M 1159 525 
L 1159 -1331 
L 581 -1331 
L 581 3500 
L 1159 3500 
L 1159 2969 
Q 1341 3281 1617 3432 
Q 1894 3584 2278 3584 
Q 2916 3584 3314 3078 
Q 3713 2572 3713 1747 
Q 3713 922 3314 415 
Q 2916 -91 2278 -91 
Q 1894 -91 1617 61 
Q 1341 213 1159 525 
z
M 3116 1747 
Q 3116 2381 2855 2742 
Q 2594 3103 2138 3103 
Q 1681 3103 1420 2742 
Q 1159 2381 1159 1747 
Q 1159 1113 1420 752 
Q 1681 391 2138 391 
Q 2594 391 2855 752 
Q 3116 1113 3116 1747 
z
" transform="scale(0.015625)"/>
       <path id="DejaVuSans-69" d="M 603 3500 
L 1178 3500 
L 1178 0 
L 603 0 
L 603 3500 
z
M 603 4863 
L 1178 4863 
L 1178 4134 
L 603 4134 
L 603 4863 
z
" transform="scale(0.015625)"/>
       <path id="DejaVuSans-78" d="M 3513 3500 
L 2247 1797 
L 3578 0 
L 2900 0 
L 1881 1375 
L 863 0 
L 184 0 
L 1544 1831 
L 300 3500 
L 978 3500 
L 1906 2253 
L 2834 3500 
L 3513 3500 
z
" transform="scale(0.015625)"/>
       <path id="DejaVuSans-65" d="M 3597 1894 
L 3597 1613 
L 953 1613 
Q 991 1019 1311 708 
Q 1631 397 2203 397 
Q 2534 397 2845 478 
Q 3156 559 3463 722 
L 3463 178 
Q 3153 47 2828 -22 
Q 2503 -91 2169 -91 
Q 1331 -91 842 396 
Q 353 884 353 1716 
Q 353 2575 817 3079 
Q 1281 3584 2069 3584 
Q 2775 3584 3186 3129 
Q 3597 2675 3597 1894 
z
M 3022 2063 
Q 3016 2534 2758 2815 
Q 2500 3097 2075 3097 
Q 1594 3097 1305 2825 
Q 1016 2553 972 2059 
L 3022 2063 
z
" transform="scale(0.015625)"/>
       <path id="DejaVuSans-6c" d="M 603 4863 
L 1178 4863 
L 1178 0 
L 603 0 
L 603 4863 
z
" transform="scale(0.015625)"/>
       <path id="DejaVuSans-20" transform="scale(0.015625)"/>
       <path id="DejaVuSans-68" d="M 3513 2113 
L 3513 0 
L 2938 0 
L 2938 2094 
Q 2938 2591 2744 2837 
Q 2550 3084 2163 3084 
Q 1697 3084 1428 2787 
Q 1159 2491 1159 1978 
L 1159 0 
L 581 0 
L 581 4863 
L 1159 4863 
L 1159 2956 
Q 1366 3272 1645 3428 
Q 1925 3584 2291 3584 
Q 2894 3584 3203 3211 
Q 3513 2838 3513 2113 
z
" transform="scale(0.015625)"/>
       <path id="DejaVuSans-67" d="M 2906 1791 
Q 2906 2416 2648 2759 
Q 2391 3103 1925 3103 
Q 1463 3103 1205 2759 
Q 947 2416 947 1791 
Q 947 1169 1205 825 
Q 1463 481 1925 481 
Q 2391 481 2648 825 
Q 2906 1169 2906 1791 
z
M 3481 434 
Q 3481 -459 3084 -895 
Q 2688 -1331 1869 -1331 
Q 1566 -1331 1297 -1286 
Q 1028 -1241 775 -1147 
L 775 -588 
Q 1028 -725 1275 -790 
Q 1522 -856 1778 -856 
Q 2344 -856 2625 -561 
Q 2906 -266 2906 331 
L 2906 616 
Q 2728 306 2450 153 
Q 2172 0 1784 0 
Q 1141 0 747 490 
Q 353 981 353 1791 
Q 353 2603 747 3093 
Q 1141 3584 1784 3584 
Q 2172 3584 2450 3431 
Q 2728 3278 2906 2969 
L 2906 3500 
L 3481 3500 
L 3481 434 
z
" transform="scale(0.015625)"/>
       <path id="DejaVuSans-74" d="M 1172 4494 
L 1172 3500 
L 2356 3500 
L 2356 3053 
L 1172 3053 
L 1172 1153 
Q 1172 725 1289 603 
Q 1406 481 1766 481 
L 2356 481 
L 2356 0 
L 1766 0 
Q 1100 0 847 248 
Q 594 497 594 1153 
L 594 3053 
L 172 3053 
L 172 3500 
L 594 3500 
L 594 4494 
L 1172 4494 
z
" transform="scale(0.015625)"/>
      </defs>
      <use xlink:href="#DejaVuSans-70"/>
      <use xlink:href="#DejaVuSans-69" x="63.476562"/>
      <use xlink:href="#DejaVuSans-78" x="91.259766"/>
      <use xlink:href="#DejaVuSans-65" x="147.314453"/>
      <use xlink:href="#DejaVuSans-6c" x="208.837891"/>
      <use xlink:href="#DejaVuSans-20" x="236.621094"/>
      <use xlink:href="#DejaVuSans-68" x="268.408203"/>
      <use xlink:href="#DejaVuSans-65" x="331.787109"/>
      <use xlink:href="#DejaVuSans-69" x="393.310547"/>
      <use xlink:href="#DejaVuSans-67" x="421.09375"/>
      <use xlink:href="#DejaVuSans-68" x="484.570312"/>
      <use xlink:href="#DejaVuSans-74" x="547.949219"/>
     </g>
    </g>
   </g>
   <g id="matplotlib.axis_2">
    <g id="ytick_1">
     <g id="line2d_5">
      <defs>
       <path id="m2f12184476" d="M 0 0 
L -3.5 0 
" style="stroke: #000000; stroke-width: 0.8"/>
      </defs>
      <g>
       <use xlink:href="#m2f12184476" x="113.385" y="499.197187" style="stroke: #000000; stroke-width: 0.8"/>
      </g>
     </g>
     <g id="text_6">
      <!-- 0 -->
      <g transform="translate(96.205 505.275937) scale(0.16 -0.16)">
       <use xlink:href="#DejaVuSans-30"/>
      </g>
     </g>
    </g>
    <g id="ytick_2">
     <g id="line2d_6">
      <g>
       <use xlink:href="#m2f12184476" x="113.385" y="408.728136" style="stroke: #000000; stroke-width: 0.8"/>
      </g>
     </g>
     <g id="text_7">
      <!-- 5000 -->
      <g transform="translate(65.665 414.806886) scale(0.16 -0.16)">
       <use xlink:href="#DejaVuSans-35"/>
       <use xlink:href="#DejaVuSans-30" x="63.623047"/>
       <use xlink:href="#DejaVuSans-30" x="127.246094"/>
       <use xlink:href="#DejaVuSans-30" x="190.869141"/>
      </g>
     </g>
    </g>
    <g id="ytick_3">
     <g id="line2d_7">
      <g>
       <use xlink:href="#m2f12184476" x="113.385" y="318.259085" style="stroke: #000000; stroke-width: 0.8"/>
      </g>
     </g>
     <g id="text_8">
      <!-- 10000 -->
      <g transform="translate(55.485 324.337835) scale(0.16 -0.16)">
       <use xlink:href="#DejaVuSans-31"/>
       <use xlink:href="#DejaVuSans-30" x="63.623047"/>
       <use xlink:href="#DejaVuSans-30" x="127.246094"/>
       <use xlink:href="#DejaVuSans-30" x="190.869141"/>
       <use xlink:href="#DejaVuSans-30" x="254.492188"/>
      </g>
     </g>
    </g>
    <g id="ytick_4">
     <g id="line2d_8">
      <g>
       <use xlink:href="#m2f12184476" x="113.385" y="227.790034" style="stroke: #000000; stroke-width: 0.8"/>
      </g>
     </g>
     <g id="text_9">
      <!-- 15000 -->
      <g transform="translate(55.485 233.868784) scale(0.16 -0.16)">
       <use xlink:href="#DejaVuSans-31"/>
       <use xlink:href="#DejaVuSans-35" x="63.623047"/>
       <use xlink:href="#DejaVuSans-30" x="127.246094"/>
       <use xlink:href="#DejaVuSans-30" x="190.869141"/>
       <use xlink:href="#DejaVuSans-30" x="254.492188"/>
      </g>
     </g>
    </g>
    <g id="ytick_5">
     <g id="line2d_9">
      <g>
       <use xlink:href="#m2f12184476" x="113.385" y="137.320983" style="stroke: #000000; stroke-width: 0.8"/>
      </g>
     </g>
     <g id="text_10">
      <!-- 20000 -->
      <g transform="translate(55.485 143.399733) scale(0.16 -0.16)">
       <defs>
        <path id="DejaVuSans-32" d="M 1228 531 
L 3431 531 
L 3431 0 
L 469 0 
L 469 531 
Q 828 903 1448 1529 
Q 2069 2156 2228 2338 
Q 2531 2678 2651 2914 
Q 2772 3150 2772 3378 
Q 2772 3750 2511 3984 
Q 2250 4219 1831 4219 
Q 1534 4219 1204 4116 
Q 875 4013 500 3803 
L 500 4441 
Q 881 4594 1212 4672 
Q 1544 4750 1819 4750 
Q 2544 4750 2975 4387 
Q 3406 4025 3406 3419 
Q 3406 3131 3298 2873 
Q 3191 2616 2906 2266 
Q 2828 2175 2409 1742 
Q 1991 1309 1228 531 
z
" transform="scale(0.015625)"/>
       </defs>
       <use xlink:href="#DejaVuSans-32"/>
       <use xlink:href="#DejaVuSans-30" x="63.623047"/>
       <use xlink:href="#DejaVuSans-30" x="127.246094"/>
       <use xlink:href="#DejaVuSans-30" x="190.869141"/>
       <use xlink:href="#DejaVuSans-30" x="254.492188"/>
      </g>
     </g>
    </g>
    <g id="text_11">
     <!-- frequency in image -->
     <g transform="translate(48.1575 354.855937) rotate(-90) scale(0.16 -0.16)">
      <defs>
       <path id="DejaVuSans-66" d="M 2375 4863 
L 2375 4384 
L 1825 4384 
Q 1516 4384 1395 4259 
Q 1275 4134 1275 3809 
L 1275 3500 
L 2222 3500 
L 2222 3053 
L 1275 3053 
L 1275 0 
L 697 0 
L 697 3053 
L 147 3053 
L 147 3500 
L 697 3500 
L 697 3744 
Q 697 4328 969 4595 
Q 1241 4863 1831 4863 
L 2375 4863 
z
" transform="scale(0.015625)"/>
       <path id="DejaVuSans-72" d="M 2631 2963 
Q 2534 3019 2420 3045 
Q 2306 3072 2169 3072 
Q 1681 3072 1420 2755 
Q 1159 2438 1159 1844 
L 1159 0 
L 581 0 
L 581 3500 
L 1159 3500 
L 1159 2956 
Q 1341 3275 1631 3429 
Q 1922 3584 2338 3584 
Q 2397 3584 2469 3576 
Q 2541 3569 2628 3553 
L 2631 2963 
z
" transform="scale(0.015625)"/>
       <path id="DejaVuSans-71" d="M 947 1747 
Q 947 1113 1208 752 
Q 1469 391 1925 391 
Q 2381 391 2643 752 
Q 2906 1113 2906 1747 
Q 2906 2381 2643 2742 
Q 2381 3103 1925 3103 
Q 1469 3103 1208 2742 
Q 947 2381 947 1747 
z
M 2906 525 
Q 2725 213 2448 61 
Q 2172 -91 1784 -91 
Q 1150 -91 751 415 
Q 353 922 353 1747 
Q 353 2572 751 3078 
Q 1150 3584 1784 3584 
Q 2172 3584 2448 3432 
Q 2725 3281 2906 2969 
L 2906 3500 
L 3481 3500 
L 3481 -1331 
L 2906 -1331 
L 2906 525 
z
" transform="scale(0.015625)"/>
       <path id="DejaVuSans-75" d="M 544 1381 
L 544 3500 
L 1119 3500 
L 1119 1403 
Q 1119 906 1312 657 
Q 1506 409 1894 409 
Q 2359 409 2629 706 
Q 2900 1003 2900 1516 
L 2900 3500 
L 3475 3500 
L 3475 0 
L 2900 0 
L 2900 538 
Q 2691 219 2414 64 
Q 2138 -91 1772 -91 
Q 1169 -91 856 284 
Q 544 659 544 1381 
z
M 1991 3584 
L 1991 3584 
z
" transform="scale(0.015625)"/>
       <path id="DejaVuSans-6e" d="M 3513 2113 
L 3513 0 
L 2938 0 
L 2938 2094 
Q 2938 2591 2744 2837 
Q 2550 3084 2163 3084 
Q 1697 3084 1428 2787 
Q 1159 2491 1159 1978 
L 1159 0 
L 581 0 
L 581 3500 
L 1159 3500 
L 1159 2956 
Q 1366 3272 1645 3428 
Q 1925 3584 2291 3584 
Q 2894 3584 3203 3211 
Q 3513 2838 3513 2113 
z
" transform="scale(0.015625)"/>
       <path id="DejaVuSans-63" d="M 3122 3366 
L 3122 2828 
Q 2878 2963 2633 3030 
Q 2388 3097 2138 3097 
Q 1578 3097 1268 2742 
Q 959 2388 959 1747 
Q 959 1106 1268 751 
Q 1578 397 2138 397 
Q 2388 397 2633 464 
Q 2878 531 3122 666 
L 3122 134 
Q 2881 22 2623 -34 
Q 2366 -91 2075 -91 
Q 1284 -91 818 406 
Q 353 903 353 1747 
Q 353 2603 823 3093 
Q 1294 3584 2113 3584 
Q 2378 3584 2631 3529 
Q 2884 3475 3122 3366 
z
" transform="scale(0.015625)"/>
       <path id="DejaVuSans-79" d="M 2059 -325 
Q 1816 -950 1584 -1140 
Q 1353 -1331 966 -1331 
L 506 -1331 
L 506 -850 
L 844 -850 
Q 1081 -850 1212 -737 
Q 1344 -625 1503 -206 
L 1606 56 
L 191 3500 
L 800 3500 
L 1894 763 
L 2988 3500 
L 3597 3500 
L 2059 -325 
z
" transform="scale(0.015625)"/>
       <path id="DejaVuSans-6d" d="M 3328 2828 
Q 3544 3216 3844 3400 
Q 4144 3584 4550 3584 
Q 5097 3584 5394 3201 
Q 5691 2819 5691 2113 
L 5691 0 
L 5113 0 
L 5113 2094 
Q 5113 2597 4934 2840 
Q 4756 3084 4391 3084 
Q 3944 3084 3684 2787 
Q 3425 2491 3425 1978 
L 3425 0 
L 2847 0 
L 2847 2094 
Q 2847 2600 2669 2842 
Q 2491 3084 2119 3084 
Q 1678 3084 1418 2786 
Q 1159 2488 1159 1978 
L 1159 0 
L 581 0 
L 581 3500 
L 1159 3500 
L 1159 2956 
Q 1356 3278 1631 3431 
Q 1906 3584 2284 3584 
Q 2666 3584 2933 3390 
Q 3200 3197 3328 2828 
z
" transform="scale(0.015625)"/>
       <path id="DejaVuSans-61" d="M 2194 1759 
Q 1497 1759 1228 1600 
Q 959 1441 959 1056 
Q 959 750 1161 570 
Q 1363 391 1709 391 
Q 2188 391 2477 730 
Q 2766 1069 2766 1631 
L 2766 1759 
L 2194 1759 
z
M 3341 1997 
L 3341 0 
L 2766 0 
L 2766 531 
Q 2569 213 2275 61 
Q 1981 -91 1556 -91 
Q 1019 -91 701 211 
Q 384 513 384 1019 
Q 384 1609 779 1909 
Q 1175 2209 1959 2209 
L 2766 2209 
L 2766 2266 
Q 2766 2663 2505 2880 
Q 2244 3097 1772 3097 
Q 1472 3097 1187 3025 
Q 903 2953 641 2809 
L 641 3341 
Q 956 3463 1253 3523 
Q 1550 3584 1831 3584 
Q 2591 3584 2966 3190 
Q 3341 2797 3341 1997 
z
" transform="scale(0.015625)"/>
      </defs>
      <use xlink:href="#DejaVuSans-66"/>
      <use xlink:href="#DejaVuSans-72" x="35.205078"/>
      <use xlink:href="#DejaVuSans-65" x="74.068359"/>
      <use xlink:href="#DejaVuSans-71" x="135.591797"/>
      <use xlink:href="#DejaVuSans-75" x="199.068359"/>
      <use xlink:href="#DejaVuSans-65" x="262.447266"/>
      <use xlink:href="#DejaVuSans-6e" x="323.970703"/>
      <use xlink:href="#DejaVuSans-63" x="387.349609"/>
      <use xlink:href="#DejaVuSans-79" x="442.330078"/>
      <use xlink:href="#DejaVuSans-20" x="501.509766"/>
      <use xlink:href="#DejaVuSans-69" x="533.296875"/>
      <use xlink:href="#DejaVuSans-6e" x="561.080078"/>
      <use xlink:href="#DejaVuSans-20" x="624.458984"/>
      <use xlink:href="#DejaVuSans-69" x="656.246094"/>
      <use xlink:href="#DejaVuSans-6d" x="684.029297"/>
      <use xlink:href="#DejaVuSans-61" x="781.441406"/>
      <use xlink:href="#DejaVuSans-67" x="842.720703"/>
      <use xlink:href="#DejaVuSans-65" x="906.197266"/>
     </g>
    </g>
   </g>
   <g id="patch_203">
    <path d="M 113.385 499.197187 
L 113.385 55.677187 
" style="fill: none; stroke: #000000; stroke-width: 0.8; stroke-linejoin: miter; stroke-linecap: square"/>
   </g>
   <g id="patch_204">
    <path d="M 559.785 499.197187 
L 559.785 55.677187 
" style="fill: none; stroke: #000000; stroke-width: 0.8; stroke-linejoin: miter; stroke-linecap: square"/>
   </g>
   <g id="patch_205">
    <path d="M 113.385 499.197187 
L 559.785 499.197187 
" style="fill: none; stroke: #000000; stroke-width: 0.8; stroke-linejoin: miter; stroke-linecap: square"/>
   </g>
   <g id="patch_206">
    <path d="M 113.385 55.677187 
L 559.785 55.677187 
" style="fill: none; stroke: #000000; stroke-width: 0.8; stroke-linejoin: miter; stroke-linecap: square"/>
   </g>
   <g id="text_12">
    <!-- Pixels -->
    <g transform="translate(311.088281 49.677187) scale(0.18 -0.18)">
     <defs>
      <path id="DejaVuSans-50" d="M 1259 4147 
L 1259 2394 
L 2053 2394 
Q 2494 2394 2734 2622 
Q 2975 2850 2975 3272 
Q 2975 3691 2734 3919 
Q 2494 4147 2053 4147 
L 1259 4147 
z
M 628 4666 
L 2053 4666 
Q 2838 4666 3239 4311 
Q 3641 3956 3641 3272 
Q 3641 2581 3239 2228 
Q 2838 1875 2053 1875 
L 1259 1875 
L 1259 0 
L 628 0 
L 628 4666 
z
" transform="scale(0.015625)"/>
      <path id="DejaVuSans-73" d="M 2834 3397 
L 2834 2853 
Q 2591 2978 2328 3040 
Q 2066 3103 1784 3103 
Q 1356 3103 1142 2972 
Q 928 2841 928 2578 
Q 928 2378 1081 2264 
Q 1234 2150 1697 2047 
L 1894 2003 
Q 2506 1872 2764 1633 
Q 3022 1394 3022 966 
Q 3022 478 2636 193 
Q 2250 -91 1575 -91 
Q 1294 -91 989 -36 
Q 684 19 347 128 
L 347 722 
Q 666 556 975 473 
Q 1284 391 1588 391 
Q 1994 391 2212 530 
Q 2431 669 2431 922 
Q 2431 1156 2273 1281 
Q 2116 1406 1581 1522 
L 1381 1569 
Q 847 1681 609 1914 
Q 372 2147 372 2553 
Q 372 3047 722 3315 
Q 1072 3584 1716 3584 
Q 2034 3584 2315 3537 
Q 2597 3491 2834 3397 
z
" transform="scale(0.015625)"/>
     </defs>
     <use xlink:href="#DejaVuSans-50"/>
     <use xlink:href="#DejaVuSans-69" x="58.052734"/>
     <use xlink:href="#DejaVuSans-78" x="85.835938"/>
     <use xlink:href="#DejaVuSans-65" x="141.890625"/>
     <use xlink:href="#DejaVuSans-6c" x="203.414062"/>
     <use xlink:href="#DejaVuSans-73" x="231.197266"/>
    </g>
   </g>
  </g>
 </g>
 <defs>
  <clipPath id="pb8e6e27f5a">
   <rect x="113.385" y="55.677187" width="446.4" height="443.52"/>
  </clipPath>
 </defs>
</svg>
