<?xml version="1.0" encoding="utf-8" standalone="no"?>
<!DOCTYPE svg PUBLIC "-//W3C//DTD SVG 1.1//EN"
  "http://www.w3.org/Graphics/SVG/1.1/DTD/svg11.dtd">
<svg xmlns:xlink="http://www.w3.org/1999/xlink" width="605.965pt" height="577.167187pt" viewBox="0 0 605.965 577.167187" xmlns="http://www.w3.org/2000/svg" version="1.1">
 <metadata>
  <rdf:RDF xmlns:dc="http://purl.org/dc/elements/1.1/" xmlns:cc="http://creativecommons.org/ns#" xmlns:rdf="http://www.w3.org/1999/02/22-rdf-syntax-ns#">
   <cc:Work>
    <dc:type rdf:resource="http://purl.org/dc/dcmitype/StillImage"/>
    <dc:date>2024-03-26T11:21:24.552535</dc:date>
    <dc:format>image/svg+xml</dc:format>
    <dc:creator>
     <cc:Agent>
      <dc:title>Matplotlib v3.8.3, https://matplotlib.org/</dc:title>
     </cc:Agent>
    </dc:creator>
   </cc:Work>
  </rdf:RDF>
 </metadata>
 <defs>
  <style type="text/css">*{stroke-linejoin: round; stroke-linecap: butt}</style>
 </defs>
 <g id="figure_1">
  <g id="patch_1">
   <path d="M 0 577.167187 
L 605.965 577.167187 
L 605.965 0 
L 0 0 
z
" style="fill: #ffffff"/>
  </g>
  <g id="axes_1">
   <g id="patch_2">
    <path d="M 123.565 499.197187 
L 569.965 499.197187 
L 569.965 55.677187 
L 123.565 55.677187 
z
" style="fill: #ffffff"/>
   </g>
   <g id="patch_3">
    <path d="M 143.855909 499.197187 
L 145.885 499.197187 
L 145.885 76.797187 
L 143.855909 76.797187 
z
" clip-path="url(#p4a84e29e72)" style="fill: #1f77b4"/>
   </g>
   <g id="patch_4">
    <path d="M 145.885 499.197187 
L 147.914091 499.197187 
L 147.914091 499.197187 
L 145.885 499.197187 
z
" clip-path="url(#p4a84e29e72)" style="fill: #1f77b4"/>
   </g>
   <g id="patch_5">
    <path d="M 147.914091 499.197187 
L 149.943182 499.197187 
L 149.943182 499.197187 
L 147.914091 499.197187 
z
" clip-path="url(#p4a84e29e72)" style="fill: #1f77b4"/>
   </g>
   <g id="patch_6">
    <path d="M 149.943182 499.197187 
L 151.972273 499.197187 
L 151.972273 499.197187 
L 149.943182 499.197187 
z
" clip-path="url(#p4a84e29e72)" style="fill: #1f77b4"/>
   </g>
   <g id="patch_7">
    <path d="M 151.972273 499.197187 
L 154.001364 499.197187 
L 154.001364 499.197187 
L 151.972273 499.197187 
z
" clip-path="url(#p4a84e29e72)" style="fill: #1f77b4"/>
   </g>
   <g id="patch_8">
    <path d="M 154.001364 499.197187 
L 156.030455 499.197187 
L 156.030455 499.197187 
L 154.001364 499.197187 
z
" clip-path="url(#p4a84e29e72)" style="fill: #1f77b4"/>
   </g>
   <g id="patch_9">
    <path d="M 156.030455 499.197187 
L 158.059545 499.197187 
L 158.059545 499.197187 
L 156.030455 499.197187 
z
" clip-path="url(#p4a84e29e72)" style="fill: #1f77b4"/>
   </g>
   <g id="patch_10">
    <path d="M 158.059545 499.197187 
L 160.088636 499.197187 
L 160.088636 499.197187 
L 158.059545 499.197187 
z
" clip-path="url(#p4a84e29e72)" style="fill: #1f77b4"/>
   </g>
   <g id="patch_11">
    <path d="M 160.088636 499.197187 
L 162.117727 499.197187 
L 162.117727 499.197187 
L 160.088636 499.197187 
z
" clip-path="url(#p4a84e29e72)" style="fill: #1f77b4"/>
   </g>
   <g id="patch_12">
    <path d="M 162.117727 499.197187 
L 164.146818 499.197187 
L 164.146818 499.197187 
L 162.117727 499.197187 
z
" clip-path="url(#p4a84e29e72)" style="fill: #1f77b4"/>
   </g>
   <g id="patch_13">
    <path d="M 164.146818 499.197187 
L 166.175909 499.197187 
L 166.175909 499.197187 
L 164.146818 499.197187 
z
" clip-path="url(#p4a84e29e72)" style="fill: #1f77b4"/>
   </g>
   <g id="patch_14">
    <path d="M 166.175909 499.197187 
L 168.205 499.197187 
L 168.205 499.197187 
L 166.175909 499.197187 
z
" clip-path="url(#p4a84e29e72)" style="fill: #1f77b4"/>
   </g>
   <g id="patch_15">
    <path d="M 168.205 499.197187 
L 170.234091 499.197187 
L 170.234091 499.197187 
L 168.205 499.197187 
z
" clip-path="url(#p4a84e29e72)" style="fill: #1f77b4"/>
   </g>
   <g id="patch_16">
    <path d="M 170.234091 499.197187 
L 172.263182 499.197187 
L 172.263182 499.197187 
L 170.234091 499.197187 
z
" clip-path="url(#p4a84e29e72)" style="fill: #1f77b4"/>
   </g>
   <g id="patch_17">
    <path d="M 172.263182 499.197187 
L 174.292273 499.197187 
L 174.292273 499.197187 
L 172.263182 499.197187 
z
" clip-path="url(#p4a84e29e72)" style="fill: #1f77b4"/>
   </g>
   <g id="patch_18">
    <path d="M 174.292273 499.197187 
L 176.321364 499.197187 
L 176.321364 499.197187 
L 174.292273 499.197187 
z
" clip-path="url(#p4a84e29e72)" style="fill: #1f77b4"/>
   </g>
   <g id="patch_19">
    <path d="M 176.321364 499.197187 
L 178.350455 499.197187 
L 178.350455 499.197187 
L 176.321364 499.197187 
z
" clip-path="url(#p4a84e29e72)" style="fill: #1f77b4"/>
   </g>
   <g id="patch_20">
    <path d="M 178.350455 499.197187 
L 180.379545 499.197187 
L 180.379545 499.197187 
L 178.350455 499.197187 
z
" clip-path="url(#p4a84e29e72)" style="fill: #1f77b4"/>
   </g>
   <g id="patch_21">
    <path d="M 180.379545 499.197187 
L 182.408636 499.197187 
L 182.408636 499.197187 
L 180.379545 499.197187 
z
" clip-path="url(#p4a84e29e72)" style="fill: #1f77b4"/>
   </g>
   <g id="patch_22">
    <path d="M 182.408636 499.197187 
L 184.437727 499.197187 
L 184.437727 499.197187 
L 182.408636 499.197187 
z
" clip-path="url(#p4a84e29e72)" style="fill: #1f77b4"/>
   </g>
   <g id="patch_23">
    <path d="M 184.437727 499.197187 
L 186.466818 499.197187 
L 186.466818 499.197187 
L 184.437727 499.197187 
z
" clip-path="url(#p4a84e29e72)" style="fill: #1f77b4"/>
   </g>
   <g id="patch_24">
    <path d="M 186.466818 499.197187 
L 188.495909 499.197187 
L 188.495909 499.197187 
L 186.466818 499.197187 
z
" clip-path="url(#p4a84e29e72)" style="fill: #1f77b4"/>
   </g>
   <g id="patch_25">
    <path d="M 188.495909 499.197187 
L 190.525 499.197187 
L 190.525 499.197187 
L 188.495909 499.197187 
z
" clip-path="url(#p4a84e29e72)" style="fill: #1f77b4"/>
   </g>
   <g id="patch_26">
    <path d="M 190.525 499.197187 
L 192.554091 499.197187 
L 192.554091 499.197187 
L 190.525 499.197187 
z
" clip-path="url(#p4a84e29e72)" style="fill: #1f77b4"/>
   </g>
   <g id="patch_27">
    <path d="M 192.554091 499.197187 
L 194.583182 499.197187 
L 194.583182 499.197187 
L 192.554091 499.197187 
z
" clip-path="url(#p4a84e29e72)" style="fill: #1f77b4"/>
   </g>
   <g id="patch_28">
    <path d="M 194.583182 499.197187 
L 196.612273 499.197187 
L 196.612273 499.197187 
L 194.583182 499.197187 
z
" clip-path="url(#p4a84e29e72)" style="fill: #1f77b4"/>
   </g>
   <g id="patch_29">
    <path d="M 196.612273 499.197187 
L 198.641364 499.197187 
L 198.641364 499.197187 
L 196.612273 499.197187 
z
" clip-path="url(#p4a84e29e72)" style="fill: #1f77b4"/>
   </g>
   <g id="patch_30">
    <path d="M 198.641364 499.197187 
L 200.670455 499.197187 
L 200.670455 499.197187 
L 198.641364 499.197187 
z
" clip-path="url(#p4a84e29e72)" style="fill: #1f77b4"/>
   </g>
   <g id="patch_31">
    <path d="M 200.670455 499.197187 
L 202.699545 499.197187 
L 202.699545 499.197187 
L 200.670455 499.197187 
z
" clip-path="url(#p4a84e29e72)" style="fill: #1f77b4"/>
   </g>
   <g id="patch_32">
    <path d="M 202.699545 499.197187 
L 204.728636 499.197187 
L 204.728636 499.197187 
L 202.699545 499.197187 
z
" clip-path="url(#p4a84e29e72)" style="fill: #1f77b4"/>
   </g>
   <g id="patch_33">
    <path d="M 204.728636 499.197187 
L 206.757727 499.197187 
L 206.757727 499.197187 
L 204.728636 499.197187 
z
" clip-path="url(#p4a84e29e72)" style="fill: #1f77b4"/>
   </g>
   <g id="patch_34">
    <path d="M 206.757727 499.197187 
L 208.786818 499.197187 
L 208.786818 499.197187 
L 206.757727 499.197187 
z
" clip-path="url(#p4a84e29e72)" style="fill: #1f77b4"/>
   </g>
   <g id="patch_35">
    <path d="M 208.786818 499.197187 
L 210.815909 499.197187 
L 210.815909 499.197187 
L 208.786818 499.197187 
z
" clip-path="url(#p4a84e29e72)" style="fill: #1f77b4"/>
   </g>
   <g id="patch_36">
    <path d="M 210.815909 499.197187 
L 212.845 499.197187 
L 212.845 499.197187 
L 210.815909 499.197187 
z
" clip-path="url(#p4a84e29e72)" style="fill: #1f77b4"/>
   </g>
   <g id="patch_37">
    <path d="M 212.845 499.197187 
L 214.874091 499.197187 
L 214.874091 499.197187 
L 212.845 499.197187 
z
" clip-path="url(#p4a84e29e72)" style="fill: #1f77b4"/>
   </g>
   <g id="patch_38">
    <path d="M 214.874091 499.197187 
L 216.903182 499.197187 
L 216.903182 499.197187 
L 214.874091 499.197187 
z
" clip-path="url(#p4a84e29e72)" style="fill: #1f77b4"/>
   </g>
   <g id="patch_39">
    <path d="M 216.903182 499.197187 
L 218.932273 499.197187 
L 218.932273 499.197187 
L 216.903182 499.197187 
z
" clip-path="url(#p4a84e29e72)" style="fill: #1f77b4"/>
   </g>
   <g id="patch_40">
    <path d="M 218.932273 499.197187 
L 220.961364 499.197187 
L 220.961364 499.197187 
L 218.932273 499.197187 
z
" clip-path="url(#p4a84e29e72)" style="fill: #1f77b4"/>
   </g>
   <g id="patch_41">
    <path d="M 220.961364 499.197187 
L 222.990455 499.197187 
L 222.990455 499.197187 
L 220.961364 499.197187 
z
" clip-path="url(#p4a84e29e72)" style="fill: #1f77b4"/>
   </g>
   <g id="patch_42">
    <path d="M 222.990455 499.197187 
L 225.019545 499.197187 
L 225.019545 499.197187 
L 222.990455 499.197187 
z
" clip-path="url(#p4a84e29e72)" style="fill: #1f77b4"/>
   </g>
   <g id="patch_43">
    <path d="M 225.019545 499.197187 
L 227.048636 499.197187 
L 227.048636 499.197187 
L 225.019545 499.197187 
z
" clip-path="url(#p4a84e29e72)" style="fill: #1f77b4"/>
   </g>
   <g id="patch_44">
    <path d="M 227.048636 499.197187 
L 229.077727 499.197187 
L 229.077727 499.197187 
L 227.048636 499.197187 
z
" clip-path="url(#p4a84e29e72)" style="fill: #1f77b4"/>
   </g>
   <g id="patch_45">
    <path d="M 229.077727 499.197187 
L 231.106818 499.197187 
L 231.106818 499.197187 
L 229.077727 499.197187 
z
" clip-path="url(#p4a84e29e72)" style="fill: #1f77b4"/>
   </g>
   <g id="patch_46">
    <path d="M 231.106818 499.197187 
L 233.135909 499.197187 
L 233.135909 499.197187 
L 231.106818 499.197187 
z
" clip-path="url(#p4a84e29e72)" style="fill: #1f77b4"/>
   </g>
   <g id="patch_47">
    <path d="M 233.135909 499.197187 
L 235.165 499.197187 
L 235.165 499.197187 
L 233.135909 499.197187 
z
" clip-path="url(#p4a84e29e72)" style="fill: #1f77b4"/>
   </g>
   <g id="patch_48">
    <path d="M 235.165 499.197187 
L 237.194091 499.197187 
L 237.194091 499.197187 
L 235.165 499.197187 
z
" clip-path="url(#p4a84e29e72)" style="fill: #1f77b4"/>
   </g>
   <g id="patch_49">
    <path d="M 237.194091 499.197187 
L 239.223182 499.197187 
L 239.223182 499.197187 
L 237.194091 499.197187 
z
" clip-path="url(#p4a84e29e72)" style="fill: #1f77b4"/>
   </g>
   <g id="patch_50">
    <path d="M 239.223182 499.197187 
L 241.252273 499.197187 
L 241.252273 499.197187 
L 239.223182 499.197187 
z
" clip-path="url(#p4a84e29e72)" style="fill: #1f77b4"/>
   </g>
   <g id="patch_51">
    <path d="M 241.252273 499.197187 
L 243.281364 499.197187 
L 243.281364 499.197187 
L 241.252273 499.197187 
z
" clip-path="url(#p4a84e29e72)" style="fill: #1f77b4"/>
   </g>
   <g id="patch_52">
    <path d="M 243.281364 499.197187 
L 245.310455 499.197187 
L 245.310455 499.197187 
L 243.281364 499.197187 
z
" clip-path="url(#p4a84e29e72)" style="fill: #1f77b4"/>
   </g>
   <g id="patch_53">
    <path d="M 245.310455 499.197187 
L 247.339545 499.197187 
L 247.339545 499.197187 
L 245.310455 499.197187 
z
" clip-path="url(#p4a84e29e72)" style="fill: #1f77b4"/>
   </g>
   <g id="patch_54">
    <path d="M 247.339545 499.197187 
L 249.368636 499.197187 
L 249.368636 499.197187 
L 247.339545 499.197187 
z
" clip-path="url(#p4a84e29e72)" style="fill: #1f77b4"/>
   </g>
   <g id="patch_55">
    <path d="M 249.368636 499.197187 
L 251.397727 499.197187 
L 251.397727 499.197187 
L 249.368636 499.197187 
z
" clip-path="url(#p4a84e29e72)" style="fill: #1f77b4"/>
   </g>
   <g id="patch_56">
    <path d="M 251.397727 499.197187 
L 253.426818 499.197187 
L 253.426818 499.197187 
L 251.397727 499.197187 
z
" clip-path="url(#p4a84e29e72)" style="fill: #1f77b4"/>
   </g>
   <g id="patch_57">
    <path d="M 253.426818 499.197187 
L 255.455909 499.197187 
L 255.455909 499.197187 
L 253.426818 499.197187 
z
" clip-path="url(#p4a84e29e72)" style="fill: #1f77b4"/>
   </g>
   <g id="patch_58">
    <path d="M 255.455909 499.197187 
L 257.485 499.197187 
L 257.485 499.197187 
L 255.455909 499.197187 
z
" clip-path="url(#p4a84e29e72)" style="fill: #1f77b4"/>
   </g>
   <g id="patch_59">
    <path d="M 257.485 499.197187 
L 259.514091 499.197187 
L 259.514091 499.197187 
L 257.485 499.197187 
z
" clip-path="url(#p4a84e29e72)" style="fill: #1f77b4"/>
   </g>
   <g id="patch_60">
    <path d="M 259.514091 499.197187 
L 261.543182 499.197187 
L 261.543182 499.197187 
L 259.514091 499.197187 
z
" clip-path="url(#p4a84e29e72)" style="fill: #1f77b4"/>
   </g>
   <g id="patch_61">
    <path d="M 261.543182 499.197187 
L 263.572273 499.197187 
L 263.572273 499.197187 
L 261.543182 499.197187 
z
" clip-path="url(#p4a84e29e72)" style="fill: #1f77b4"/>
   </g>
   <g id="patch_62">
    <path d="M 263.572273 499.197187 
L 265.601364 499.197187 
L 265.601364 499.197187 
L 263.572273 499.197187 
z
" clip-path="url(#p4a84e29e72)" style="fill: #1f77b4"/>
   </g>
   <g id="patch_63">
    <path d="M 265.601364 499.197187 
L 267.630455 499.197187 
L 267.630455 499.197187 
L 265.601364 499.197187 
z
" clip-path="url(#p4a84e29e72)" style="fill: #1f77b4"/>
   </g>
   <g id="patch_64">
    <path d="M 267.630455 499.197187 
L 269.659545 499.197187 
L 269.659545 499.197187 
L 267.630455 499.197187 
z
" clip-path="url(#p4a84e29e72)" style="fill: #1f77b4"/>
   </g>
   <g id="patch_65">
    <path d="M 269.659545 499.197187 
L 271.688636 499.197187 
L 271.688636 499.197187 
L 269.659545 499.197187 
z
" clip-path="url(#p4a84e29e72)" style="fill: #1f77b4"/>
   </g>
   <g id="patch_66">
    <path d="M 271.688636 499.197187 
L 273.717727 499.197187 
L 273.717727 499.197187 
L 271.688636 499.197187 
z
" clip-path="url(#p4a84e29e72)" style="fill: #1f77b4"/>
   </g>
   <g id="patch_67">
    <path d="M 273.717727 499.197187 
L 275.746818 499.197187 
L 275.746818 499.197187 
L 273.717727 499.197187 
z
" clip-path="url(#p4a84e29e72)" style="fill: #1f77b4"/>
   </g>
   <g id="patch_68">
    <path d="M 275.746818 499.197187 
L 277.775909 499.197187 
L 277.775909 499.197187 
L 275.746818 499.197187 
z
" clip-path="url(#p4a84e29e72)" style="fill: #1f77b4"/>
   </g>
   <g id="patch_69">
    <path d="M 277.775909 499.197187 
L 279.805 499.197187 
L 279.805 499.197187 
L 277.775909 499.197187 
z
" clip-path="url(#p4a84e29e72)" style="fill: #1f77b4"/>
   </g>
   <g id="patch_70">
    <path d="M 279.805 499.197187 
L 281.834091 499.197187 
L 281.834091 499.197187 
L 279.805 499.197187 
z
" clip-path="url(#p4a84e29e72)" style="fill: #1f77b4"/>
   </g>
   <g id="patch_71">
    <path d="M 281.834091 499.197187 
L 283.863182 499.197187 
L 283.863182 499.197187 
L 281.834091 499.197187 
z
" clip-path="url(#p4a84e29e72)" style="fill: #1f77b4"/>
   </g>
   <g id="patch_72">
    <path d="M 283.863182 499.197187 
L 285.892273 499.197187 
L 285.892273 499.197187 
L 283.863182 499.197187 
z
" clip-path="url(#p4a84e29e72)" style="fill: #1f77b4"/>
   </g>
   <g id="patch_73">
    <path d="M 285.892273 499.197187 
L 287.921364 499.197187 
L 287.921364 499.197187 
L 285.892273 499.197187 
z
" clip-path="url(#p4a84e29e72)" style="fill: #1f77b4"/>
   </g>
   <g id="patch_74">
    <path d="M 287.921364 499.197187 
L 289.950455 499.197187 
L 289.950455 499.197187 
L 287.921364 499.197187 
z
" clip-path="url(#p4a84e29e72)" style="fill: #1f77b4"/>
   </g>
   <g id="patch_75">
    <path d="M 289.950455 499.197187 
L 291.979545 499.197187 
L 291.979545 499.197187 
L 289.950455 499.197187 
z
" clip-path="url(#p4a84e29e72)" style="fill: #1f77b4"/>
   </g>
   <g id="patch_76">
    <path d="M 291.979545 499.197187 
L 294.008636 499.197187 
L 294.008636 499.197187 
L 291.979545 499.197187 
z
" clip-path="url(#p4a84e29e72)" style="fill: #1f77b4"/>
   </g>
   <g id="patch_77">
    <path d="M 294.008636 499.197187 
L 296.037727 499.197187 
L 296.037727 499.197187 
L 294.008636 499.197187 
z
" clip-path="url(#p4a84e29e72)" style="fill: #1f77b4"/>
   </g>
   <g id="patch_78">
    <path d="M 296.037727 499.197187 
L 298.066818 499.197187 
L 298.066818 499.197187 
L 296.037727 499.197187 
z
" clip-path="url(#p4a84e29e72)" style="fill: #1f77b4"/>
   </g>
   <g id="patch_79">
    <path d="M 298.066818 499.197187 
L 300.095909 499.197187 
L 300.095909 499.197187 
L 298.066818 499.197187 
z
" clip-path="url(#p4a84e29e72)" style="fill: #1f77b4"/>
   </g>
   <g id="patch_80">
    <path d="M 300.095909 499.197187 
L 302.125 499.197187 
L 302.125 499.197187 
L 300.095909 499.197187 
z
" clip-path="url(#p4a84e29e72)" style="fill: #1f77b4"/>
   </g>
   <g id="patch_81">
    <path d="M 302.125 499.197187 
L 304.154091 499.197187 
L 304.154091 499.197187 
L 302.125 499.197187 
z
" clip-path="url(#p4a84e29e72)" style="fill: #1f77b4"/>
   </g>
   <g id="patch_82">
    <path d="M 304.154091 499.197187 
L 306.183182 499.197187 
L 306.183182 499.197187 
L 304.154091 499.197187 
z
" clip-path="url(#p4a84e29e72)" style="fill: #1f77b4"/>
   </g>
   <g id="patch_83">
    <path d="M 306.183182 499.197187 
L 308.212273 499.197187 
L 308.212273 499.197187 
L 306.183182 499.197187 
z
" clip-path="url(#p4a84e29e72)" style="fill: #1f77b4"/>
   </g>
   <g id="patch_84">
    <path d="M 308.212273 499.197187 
L 310.241364 499.197187 
L 310.241364 499.197187 
L 308.212273 499.197187 
z
" clip-path="url(#p4a84e29e72)" style="fill: #1f77b4"/>
   </g>
   <g id="patch_85">
    <path d="M 310.241364 499.197187 
L 312.270455 499.197187 
L 312.270455 499.197187 
L 310.241364 499.197187 
z
" clip-path="url(#p4a84e29e72)" style="fill: #1f77b4"/>
   </g>
   <g id="patch_86">
    <path d="M 312.270455 499.197187 
L 314.299545 499.197187 
L 314.299545 499.197187 
L 312.270455 499.197187 
z
" clip-path="url(#p4a84e29e72)" style="fill: #1f77b4"/>
   </g>
   <g id="patch_87">
    <path d="M 314.299545 499.197187 
L 316.328636 499.197187 
L 316.328636 499.197187 
L 314.299545 499.197187 
z
" clip-path="url(#p4a84e29e72)" style="fill: #1f77b4"/>
   </g>
   <g id="patch_88">
    <path d="M 316.328636 499.197187 
L 318.357727 499.197187 
L 318.357727 499.197187 
L 316.328636 499.197187 
z
" clip-path="url(#p4a84e29e72)" style="fill: #1f77b4"/>
   </g>
   <g id="patch_89">
    <path d="M 318.357727 499.197187 
L 320.386818 499.197187 
L 320.386818 499.197187 
L 318.357727 499.197187 
z
" clip-path="url(#p4a84e29e72)" style="fill: #1f77b4"/>
   </g>
   <g id="patch_90">
    <path d="M 320.386818 499.197187 
L 322.415909 499.197187 
L 322.415909 499.197187 
L 320.386818 499.197187 
z
" clip-path="url(#p4a84e29e72)" style="fill: #1f77b4"/>
   </g>
   <g id="patch_91">
    <path d="M 322.415909 499.197187 
L 324.445 499.197187 
L 324.445 499.197187 
L 322.415909 499.197187 
z
" clip-path="url(#p4a84e29e72)" style="fill: #1f77b4"/>
   </g>
   <g id="patch_92">
    <path d="M 324.445 499.197187 
L 326.474091 499.197187 
L 326.474091 499.197187 
L 324.445 499.197187 
z
" clip-path="url(#p4a84e29e72)" style="fill: #1f77b4"/>
   </g>
   <g id="patch_93">
    <path d="M 326.474091 499.197187 
L 328.503182 499.197187 
L 328.503182 499.197187 
L 326.474091 499.197187 
z
" clip-path="url(#p4a84e29e72)" style="fill: #1f77b4"/>
   </g>
   <g id="patch_94">
    <path d="M 328.503182 499.197187 
L 330.532273 499.197187 
L 330.532273 499.197187 
L 328.503182 499.197187 
z
" clip-path="url(#p4a84e29e72)" style="fill: #1f77b4"/>
   </g>
   <g id="patch_95">
    <path d="M 330.532273 499.197187 
L 332.561364 499.197187 
L 332.561364 499.197187 
L 330.532273 499.197187 
z
" clip-path="url(#p4a84e29e72)" style="fill: #1f77b4"/>
   </g>
   <g id="patch_96">
    <path d="M 332.561364 499.197187 
L 334.590455 499.197187 
L 334.590455 499.197187 
L 332.561364 499.197187 
z
" clip-path="url(#p4a84e29e72)" style="fill: #1f77b4"/>
   </g>
   <g id="patch_97">
    <path d="M 334.590455 499.197187 
L 336.619545 499.197187 
L 336.619545 499.197187 
L 334.590455 499.197187 
z
" clip-path="url(#p4a84e29e72)" style="fill: #1f77b4"/>
   </g>
   <g id="patch_98">
    <path d="M 336.619545 499.197187 
L 338.648636 499.197187 
L 338.648636 499.197187 
L 336.619545 499.197187 
z
" clip-path="url(#p4a84e29e72)" style="fill: #1f77b4"/>
   </g>
   <g id="patch_99">
    <path d="M 338.648636 499.197187 
L 340.677727 499.197187 
L 340.677727 499.197187 
L 338.648636 499.197187 
z
" clip-path="url(#p4a84e29e72)" style="fill: #1f77b4"/>
   </g>
   <g id="patch_100">
    <path d="M 340.677727 499.197187 
L 342.706818 499.197187 
L 342.706818 499.197187 
L 340.677727 499.197187 
z
" clip-path="url(#p4a84e29e72)" style="fill: #1f77b4"/>
   </g>
   <g id="patch_101">
    <path d="M 342.706818 499.197187 
L 344.735909 499.197187 
L 344.735909 499.197187 
L 342.706818 499.197187 
z
" clip-path="url(#p4a84e29e72)" style="fill: #1f77b4"/>
   </g>
   <g id="patch_102">
    <path d="M 344.735909 499.197187 
L 346.765 499.197187 
L 346.765 499.197187 
L 344.735909 499.197187 
z
" clip-path="url(#p4a84e29e72)" style="fill: #1f77b4"/>
   </g>
   <g id="patch_103">
    <path d="M 346.765 499.197187 
L 348.794091 499.197187 
L 348.794091 499.197187 
L 346.765 499.197187 
z
" clip-path="url(#p4a84e29e72)" style="fill: #1f77b4"/>
   </g>
   <g id="patch_104">
    <path d="M 348.794091 499.197187 
L 350.823182 499.197187 
L 350.823182 499.197187 
L 348.794091 499.197187 
z
" clip-path="url(#p4a84e29e72)" style="fill: #1f77b4"/>
   </g>
   <g id="patch_105">
    <path d="M 350.823182 499.197187 
L 352.852273 499.197187 
L 352.852273 499.197187 
L 350.823182 499.197187 
z
" clip-path="url(#p4a84e29e72)" style="fill: #1f77b4"/>
   </g>
   <g id="patch_106">
    <path d="M 352.852273 499.197187 
L 354.881364 499.197187 
L 354.881364 499.197187 
L 352.852273 499.197187 
z
" clip-path="url(#p4a84e29e72)" style="fill: #1f77b4"/>
   </g>
   <g id="patch_107">
    <path d="M 354.881364 499.197187 
L 356.910455 499.197187 
L 356.910455 499.197187 
L 354.881364 499.197187 
z
" clip-path="url(#p4a84e29e72)" style="fill: #1f77b4"/>
   </g>
   <g id="patch_108">
    <path d="M 356.910455 499.197187 
L 358.939545 499.197187 
L 358.939545 499.197187 
L 356.910455 499.197187 
z
" clip-path="url(#p4a84e29e72)" style="fill: #1f77b4"/>
   </g>
   <g id="patch_109">
    <path d="M 358.939545 499.197187 
L 360.968636 499.197187 
L 360.968636 499.197187 
L 358.939545 499.197187 
z
" clip-path="url(#p4a84e29e72)" style="fill: #1f77b4"/>
   </g>
   <g id="patch_110">
    <path d="M 360.968636 499.197187 
L 362.997727 499.197187 
L 362.997727 499.197187 
L 360.968636 499.197187 
z
" clip-path="url(#p4a84e29e72)" style="fill: #1f77b4"/>
   </g>
   <g id="patch_111">
    <path d="M 362.997727 499.197187 
L 365.026818 499.197187 
L 365.026818 499.197187 
L 362.997727 499.197187 
z
" clip-path="url(#p4a84e29e72)" style="fill: #1f77b4"/>
   </g>
   <g id="patch_112">
    <path d="M 365.026818 499.197187 
L 367.055909 499.197187 
L 367.055909 499.197187 
L 365.026818 499.197187 
z
" clip-path="url(#p4a84e29e72)" style="fill: #1f77b4"/>
   </g>
   <g id="patch_113">
    <path d="M 367.055909 499.197187 
L 369.085 499.197187 
L 369.085 499.197187 
L 367.055909 499.197187 
z
" clip-path="url(#p4a84e29e72)" style="fill: #1f77b4"/>
   </g>
   <g id="patch_114">
    <path d="M 369.085 499.197187 
L 371.114091 499.197187 
L 371.114091 499.197187 
L 369.085 499.197187 
z
" clip-path="url(#p4a84e29e72)" style="fill: #1f77b4"/>
   </g>
   <g id="patch_115">
    <path d="M 371.114091 499.197187 
L 373.143182 499.197187 
L 373.143182 499.197187 
L 371.114091 499.197187 
z
" clip-path="url(#p4a84e29e72)" style="fill: #1f77b4"/>
   </g>
   <g id="patch_116">
    <path d="M 373.143182 499.197187 
L 375.172273 499.197187 
L 375.172273 499.197187 
L 373.143182 499.197187 
z
" clip-path="url(#p4a84e29e72)" style="fill: #1f77b4"/>
   </g>
   <g id="patch_117">
    <path d="M 375.172273 499.197187 
L 377.201364 499.197187 
L 377.201364 499.197187 
L 375.172273 499.197187 
z
" clip-path="url(#p4a84e29e72)" style="fill: #1f77b4"/>
   </g>
   <g id="patch_118">
    <path d="M 377.201364 499.197187 
L 379.230455 499.197187 
L 379.230455 499.197187 
L 377.201364 499.197187 
z
" clip-path="url(#p4a84e29e72)" style="fill: #1f77b4"/>
   </g>
   <g id="patch_119">
    <path d="M 379.230455 499.197187 
L 381.259545 499.197187 
L 381.259545 499.197187 
L 379.230455 499.197187 
z
" clip-path="url(#p4a84e29e72)" style="fill: #1f77b4"/>
   </g>
   <g id="patch_120">
    <path d="M 381.259545 499.197187 
L 383.288636 499.197187 
L 383.288636 499.197187 
L 381.259545 499.197187 
z
" clip-path="url(#p4a84e29e72)" style="fill: #1f77b4"/>
   </g>
   <g id="patch_121">
    <path d="M 383.288636 499.197187 
L 385.317727 499.197187 
L 385.317727 499.197187 
L 383.288636 499.197187 
z
" clip-path="url(#p4a84e29e72)" style="fill: #1f77b4"/>
   </g>
   <g id="patch_122">
    <path d="M 385.317727 499.197187 
L 387.346818 499.197187 
L 387.346818 499.197187 
L 385.317727 499.197187 
z
" clip-path="url(#p4a84e29e72)" style="fill: #1f77b4"/>
   </g>
   <g id="patch_123">
    <path d="M 387.346818 499.197187 
L 389.375909 499.197187 
L 389.375909 499.197187 
L 387.346818 499.197187 
z
" clip-path="url(#p4a84e29e72)" style="fill: #1f77b4"/>
   </g>
   <g id="patch_124">
    <path d="M 389.375909 499.197187 
L 391.405 499.197187 
L 391.405 499.197187 
L 389.375909 499.197187 
z
" clip-path="url(#p4a84e29e72)" style="fill: #1f77b4"/>
   </g>
   <g id="patch_125">
    <path d="M 391.405 499.197187 
L 393.434091 499.197187 
L 393.434091 499.197187 
L 391.405 499.197187 
z
" clip-path="url(#p4a84e29e72)" style="fill: #1f77b4"/>
   </g>
   <g id="patch_126">
    <path d="M 393.434091 499.197187 
L 395.463182 499.197187 
L 395.463182 499.197187 
L 393.434091 499.197187 
z
" clip-path="url(#p4a84e29e72)" style="fill: #1f77b4"/>
   </g>
   <g id="patch_127">
    <path d="M 395.463182 499.197187 
L 397.492273 499.197187 
L 397.492273 499.197187 
L 395.463182 499.197187 
z
" clip-path="url(#p4a84e29e72)" style="fill: #1f77b4"/>
   </g>
   <g id="patch_128">
    <path d="M 397.492273 499.197187 
L 399.521364 499.197187 
L 399.521364 499.197187 
L 397.492273 499.197187 
z
" clip-path="url(#p4a84e29e72)" style="fill: #1f77b4"/>
   </g>
   <g id="patch_129">
    <path d="M 399.521364 499.197187 
L 401.550455 499.197187 
L 401.550455 499.197187 
L 399.521364 499.197187 
z
" clip-path="url(#p4a84e29e72)" style="fill: #1f77b4"/>
   </g>
   <g id="patch_130">
    <path d="M 401.550455 499.197187 
L 403.579545 499.197187 
L 403.579545 499.197187 
L 401.550455 499.197187 
z
" clip-path="url(#p4a84e29e72)" style="fill: #1f77b4"/>
   </g>
   <g id="patch_131">
    <path d="M 403.579545 499.197187 
L 405.608636 499.197187 
L 405.608636 499.197187 
L 403.579545 499.197187 
z
" clip-path="url(#p4a84e29e72)" style="fill: #1f77b4"/>
   </g>
   <g id="patch_132">
    <path d="M 405.608636 499.197187 
L 407.637727 499.197187 
L 407.637727 499.197187 
L 405.608636 499.197187 
z
" clip-path="url(#p4a84e29e72)" style="fill: #1f77b4"/>
   </g>
   <g id="patch_133">
    <path d="M 407.637727 499.197187 
L 409.666818 499.197187 
L 409.666818 499.197187 
L 407.637727 499.197187 
z
" clip-path="url(#p4a84e29e72)" style="fill: #1f77b4"/>
   </g>
   <g id="patch_134">
    <path d="M 409.666818 499.197187 
L 411.695909 499.197187 
L 411.695909 499.197187 
L 409.666818 499.197187 
z
" clip-path="url(#p4a84e29e72)" style="fill: #1f77b4"/>
   </g>
   <g id="patch_135">
    <path d="M 411.695909 499.197187 
L 413.725 499.197187 
L 413.725 499.197187 
L 411.695909 499.197187 
z
" clip-path="url(#p4a84e29e72)" style="fill: #1f77b4"/>
   </g>
   <g id="patch_136">
    <path d="M 413.725 499.197187 
L 415.754091 499.197187 
L 415.754091 499.197187 
L 413.725 499.197187 
z
" clip-path="url(#p4a84e29e72)" style="fill: #1f77b4"/>
   </g>
   <g id="patch_137">
    <path d="M 415.754091 499.197187 
L 417.783182 499.197187 
L 417.783182 499.197187 
L 415.754091 499.197187 
z
" clip-path="url(#p4a84e29e72)" style="fill: #1f77b4"/>
   </g>
   <g id="patch_138">
    <path d="M 417.783182 499.197187 
L 419.812273 499.197187 
L 419.812273 499.197187 
L 417.783182 499.197187 
z
" clip-path="url(#p4a84e29e72)" style="fill: #1f77b4"/>
   </g>
   <g id="patch_139">
    <path d="M 419.812273 499.197187 
L 421.841364 499.197187 
L 421.841364 499.197187 
L 419.812273 499.197187 
z
" clip-path="url(#p4a84e29e72)" style="fill: #1f77b4"/>
   </g>
   <g id="patch_140">
    <path d="M 421.841364 499.197187 
L 423.870455 499.197187 
L 423.870455 499.197187 
L 421.841364 499.197187 
z
" clip-path="url(#p4a84e29e72)" style="fill: #1f77b4"/>
   </g>
   <g id="patch_141">
    <path d="M 423.870455 499.197187 
L 425.899545 499.197187 
L 425.899545 499.197187 
L 423.870455 499.197187 
z
" clip-path="url(#p4a84e29e72)" style="fill: #1f77b4"/>
   </g>
   <g id="patch_142">
    <path d="M 425.899545 499.197187 
L 427.928636 499.197187 
L 427.928636 499.197187 
L 425.899545 499.197187 
z
" clip-path="url(#p4a84e29e72)" style="fill: #1f77b4"/>
   </g>
   <g id="patch_143">
    <path d="M 427.928636 499.197187 
L 429.957727 499.197187 
L 429.957727 499.197187 
L 427.928636 499.197187 
z
" clip-path="url(#p4a84e29e72)" style="fill: #1f77b4"/>
   </g>
   <g id="patch_144">
    <path d="M 429.957727 499.197187 
L 431.986818 499.197187 
L 431.986818 499.197187 
L 429.957727 499.197187 
z
" clip-path="url(#p4a84e29e72)" style="fill: #1f77b4"/>
   </g>
   <g id="patch_145">
    <path d="M 431.986818 499.197187 
L 434.015909 499.197187 
L 434.015909 499.197187 
L 431.986818 499.197187 
z
" clip-path="url(#p4a84e29e72)" style="fill: #1f77b4"/>
   </g>
   <g id="patch_146">
    <path d="M 434.015909 499.197187 
L 436.045 499.197187 
L 436.045 499.197187 
L 434.015909 499.197187 
z
" clip-path="url(#p4a84e29e72)" style="fill: #1f77b4"/>
   </g>
   <g id="patch_147">
    <path d="M 436.045 499.197187 
L 438.074091 499.197187 
L 438.074091 499.197187 
L 436.045 499.197187 
z
" clip-path="url(#p4a84e29e72)" style="fill: #1f77b4"/>
   </g>
   <g id="patch_148">
    <path d="M 438.074091 499.197187 
L 440.103182 499.197187 
L 440.103182 499.197187 
L 438.074091 499.197187 
z
" clip-path="url(#p4a84e29e72)" style="fill: #1f77b4"/>
   </g>
   <g id="patch_149">
    <path d="M 440.103182 499.197187 
L 442.132273 499.197187 
L 442.132273 499.197187 
L 440.103182 499.197187 
z
" clip-path="url(#p4a84e29e72)" style="fill: #1f77b4"/>
   </g>
   <g id="patch_150">
    <path d="M 442.132273 499.197187 
L 444.161364 499.197187 
L 444.161364 499.197187 
L 442.132273 499.197187 
z
" clip-path="url(#p4a84e29e72)" style="fill: #1f77b4"/>
   </g>
   <g id="patch_151">
    <path d="M 444.161364 499.197187 
L 446.190455 499.197187 
L 446.190455 499.197187 
L 444.161364 499.197187 
z
" clip-path="url(#p4a84e29e72)" style="fill: #1f77b4"/>
   </g>
   <g id="patch_152">
    <path d="M 446.190455 499.197187 
L 448.219545 499.197187 
L 448.219545 499.197187 
L 446.190455 499.197187 
z
" clip-path="url(#p4a84e29e72)" style="fill: #1f77b4"/>
   </g>
   <g id="patch_153">
    <path d="M 448.219545 499.197187 
L 450.248636 499.197187 
L 450.248636 499.197187 
L 448.219545 499.197187 
z
" clip-path="url(#p4a84e29e72)" style="fill: #1f77b4"/>
   </g>
   <g id="patch_154">
    <path d="M 450.248636 499.197187 
L 452.277727 499.197187 
L 452.277727 499.197187 
L 450.248636 499.197187 
z
" clip-path="url(#p4a84e29e72)" style="fill: #1f77b4"/>
   </g>
   <g id="patch_155">
    <path d="M 452.277727 499.197187 
L 454.306818 499.197187 
L 454.306818 499.197187 
L 452.277727 499.197187 
z
" clip-path="url(#p4a84e29e72)" style="fill: #1f77b4"/>
   </g>
   <g id="patch_156">
    <path d="M 454.306818 499.197187 
L 456.335909 499.197187 
L 456.335909 499.197187 
L 454.306818 499.197187 
z
" clip-path="url(#p4a84e29e72)" style="fill: #1f77b4"/>
   </g>
   <g id="patch_157">
    <path d="M 456.335909 499.197187 
L 458.365 499.197187 
L 458.365 499.197187 
L 456.335909 499.197187 
z
" clip-path="url(#p4a84e29e72)" style="fill: #1f77b4"/>
   </g>
   <g id="patch_158">
    <path d="M 458.365 499.197187 
L 460.394091 499.197187 
L 460.394091 499.197187 
L 458.365 499.197187 
z
" clip-path="url(#p4a84e29e72)" style="fill: #1f77b4"/>
   </g>
   <g id="patch_159">
    <path d="M 460.394091 499.197187 
L 462.423182 499.197187 
L 462.423182 499.197187 
L 460.394091 499.197187 
z
" clip-path="url(#p4a84e29e72)" style="fill: #1f77b4"/>
   </g>
   <g id="patch_160">
    <path d="M 462.423182 499.197187 
L 464.452273 499.197187 
L 464.452273 499.197187 
L 462.423182 499.197187 
z
" clip-path="url(#p4a84e29e72)" style="fill: #1f77b4"/>
   </g>
   <g id="patch_161">
    <path d="M 464.452273 499.197187 
L 466.481364 499.197187 
L 466.481364 499.197187 
L 464.452273 499.197187 
z
" clip-path="url(#p4a84e29e72)" style="fill: #1f77b4"/>
   </g>
   <g id="patch_162">
    <path d="M 466.481364 499.197187 
L 468.510455 499.197187 
L 468.510455 499.197187 
L 466.481364 499.197187 
z
" clip-path="url(#p4a84e29e72)" style="fill: #1f77b4"/>
   </g>
   <g id="patch_163">
    <path d="M 468.510455 499.197187 
L 470.539545 499.197187 
L 470.539545 499.197187 
L 468.510455 499.197187 
z
" clip-path="url(#p4a84e29e72)" style="fill: #1f77b4"/>
   </g>
   <g id="patch_164">
    <path d="M 470.539545 499.197187 
L 472.568636 499.197187 
L 472.568636 499.197187 
L 470.539545 499.197187 
z
" clip-path="url(#p4a84e29e72)" style="fill: #1f77b4"/>
   </g>
   <g id="patch_165">
    <path d="M 472.568636 499.197187 
L 474.597727 499.197187 
L 474.597727 499.197187 
L 472.568636 499.197187 
z
" clip-path="url(#p4a84e29e72)" style="fill: #1f77b4"/>
   </g>
   <g id="patch_166">
    <path d="M 474.597727 499.197187 
L 476.626818 499.197187 
L 476.626818 499.197187 
L 474.597727 499.197187 
z
" clip-path="url(#p4a84e29e72)" style="fill: #1f77b4"/>
   </g>
   <g id="patch_167">
    <path d="M 476.626818 499.197187 
L 478.655909 499.197187 
L 478.655909 499.197187 
L 476.626818 499.197187 
z
" clip-path="url(#p4a84e29e72)" style="fill: #1f77b4"/>
   </g>
   <g id="patch_168">
    <path d="M 478.655909 499.197187 
L 480.685 499.197187 
L 480.685 499.197187 
L 478.655909 499.197187 
z
" clip-path="url(#p4a84e29e72)" style="fill: #1f77b4"/>
   </g>
   <g id="patch_169">
    <path d="M 480.685 499.197187 
L 482.714091 499.197187 
L 482.714091 499.197187 
L 480.685 499.197187 
z
" clip-path="url(#p4a84e29e72)" style="fill: #1f77b4"/>
   </g>
   <g id="patch_170">
    <path d="M 482.714091 499.197187 
L 484.743182 499.197187 
L 484.743182 499.197187 
L 482.714091 499.197187 
z
" clip-path="url(#p4a84e29e72)" style="fill: #1f77b4"/>
   </g>
   <g id="patch_171">
    <path d="M 484.743182 499.197187 
L 486.772273 499.197187 
L 486.772273 499.197187 
L 484.743182 499.197187 
z
" clip-path="url(#p4a84e29e72)" style="fill: #1f77b4"/>
   </g>
   <g id="patch_172">
    <path d="M 486.772273 499.197187 
L 488.801364 499.197187 
L 488.801364 499.197187 
L 486.772273 499.197187 
z
" clip-path="url(#p4a84e29e72)" style="fill: #1f77b4"/>
   </g>
   <g id="patch_173">
    <path d="M 488.801364 499.197187 
L 490.830455 499.197187 
L 490.830455 499.197187 
L 488.801364 499.197187 
z
" clip-path="url(#p4a84e29e72)" style="fill: #1f77b4"/>
   </g>
   <g id="patch_174">
    <path d="M 490.830455 499.197187 
L 492.859545 499.197187 
L 492.859545 499.197187 
L 490.830455 499.197187 
z
" clip-path="url(#p4a84e29e72)" style="fill: #1f77b4"/>
   </g>
   <g id="patch_175">
    <path d="M 492.859545 499.197187 
L 494.888636 499.197187 
L 494.888636 499.197187 
L 492.859545 499.197187 
z
" clip-path="url(#p4a84e29e72)" style="fill: #1f77b4"/>
   </g>
   <g id="patch_176">
    <path d="M 494.888636 499.197187 
L 496.917727 499.197187 
L 496.917727 499.197187 
L 494.888636 499.197187 
z
" clip-path="url(#p4a84e29e72)" style="fill: #1f77b4"/>
   </g>
   <g id="patch_177">
    <path d="M 496.917727 499.197187 
L 498.946818 499.197187 
L 498.946818 499.197187 
L 496.917727 499.197187 
z
" clip-path="url(#p4a84e29e72)" style="fill: #1f77b4"/>
   </g>
   <g id="patch_178">
    <path d="M 498.946818 499.197187 
L 500.975909 499.197187 
L 500.975909 499.197187 
L 498.946818 499.197187 
z
" clip-path="url(#p4a84e29e72)" style="fill: #1f77b4"/>
   </g>
   <g id="patch_179">
    <path d="M 500.975909 499.197187 
L 503.005 499.197187 
L 503.005 499.197187 
L 500.975909 499.197187 
z
" clip-path="url(#p4a84e29e72)" style="fill: #1f77b4"/>
   </g>
   <g id="patch_180">
    <path d="M 503.005 499.197187 
L 505.034091 499.197187 
L 505.034091 499.197187 
L 503.005 499.197187 
z
" clip-path="url(#p4a84e29e72)" style="fill: #1f77b4"/>
   </g>
   <g id="patch_181">
    <path d="M 505.034091 499.197187 
L 507.063182 499.197187 
L 507.063182 499.197187 
L 505.034091 499.197187 
z
" clip-path="url(#p4a84e29e72)" style="fill: #1f77b4"/>
   </g>
   <g id="patch_182">
    <path d="M 507.063182 499.197187 
L 509.092273 499.197187 
L 509.092273 499.197187 
L 507.063182 499.197187 
z
" clip-path="url(#p4a84e29e72)" style="fill: #1f77b4"/>
   </g>
   <g id="patch_183">
    <path d="M 509.092273 499.197187 
L 511.121364 499.197187 
L 511.121364 499.197187 
L 509.092273 499.197187 
z
" clip-path="url(#p4a84e29e72)" style="fill: #1f77b4"/>
   </g>
   <g id="patch_184">
    <path d="M 511.121364 499.197187 
L 513.150455 499.197187 
L 513.150455 499.197187 
L 511.121364 499.197187 
z
" clip-path="url(#p4a84e29e72)" style="fill: #1f77b4"/>
   </g>
   <g id="patch_185">
    <path d="M 513.150455 499.197187 
L 515.179545 499.197187 
L 515.179545 499.197187 
L 513.150455 499.197187 
z
" clip-path="url(#p4a84e29e72)" style="fill: #1f77b4"/>
   </g>
   <g id="patch_186">
    <path d="M 515.179545 499.197187 
L 517.208636 499.197187 
L 517.208636 499.197187 
L 515.179545 499.197187 
z
" clip-path="url(#p4a84e29e72)" style="fill: #1f77b4"/>
   </g>
   <g id="patch_187">
    <path d="M 517.208636 499.197187 
L 519.237727 499.197187 
L 519.237727 499.197187 
L 517.208636 499.197187 
z
" clip-path="url(#p4a84e29e72)" style="fill: #1f77b4"/>
   </g>
   <g id="patch_188">
    <path d="M 519.237727 499.197187 
L 521.266818 499.197187 
L 521.266818 499.197187 
L 519.237727 499.197187 
z
" clip-path="url(#p4a84e29e72)" style="fill: #1f77b4"/>
   </g>
   <g id="patch_189">
    <path d="M 521.266818 499.197187 
L 523.295909 499.197187 
L 523.295909 499.197187 
L 521.266818 499.197187 
z
" clip-path="url(#p4a84e29e72)" style="fill: #1f77b4"/>
   </g>
   <g id="patch_190">
    <path d="M 523.295909 499.197187 
L 525.325 499.197187 
L 525.325 499.197187 
L 523.295909 499.197187 
z
" clip-path="url(#p4a84e29e72)" style="fill: #1f77b4"/>
   </g>
   <g id="patch_191">
    <path d="M 525.325 499.197187 
L 527.354091 499.197187 
L 527.354091 499.197187 
L 525.325 499.197187 
z
" clip-path="url(#p4a84e29e72)" style="fill: #1f77b4"/>
   </g>
   <g id="patch_192">
    <path d="M 527.354091 499.197187 
L 529.383182 499.197187 
L 529.383182 499.197187 
L 527.354091 499.197187 
z
" clip-path="url(#p4a84e29e72)" style="fill: #1f77b4"/>
   </g>
   <g id="patch_193">
    <path d="M 529.383182 499.197187 
L 531.412273 499.197187 
L 531.412273 499.197187 
L 529.383182 499.197187 
z
" clip-path="url(#p4a84e29e72)" style="fill: #1f77b4"/>
   </g>
   <g id="patch_194">
    <path d="M 531.412273 499.197187 
L 533.441364 499.197187 
L 533.441364 499.197187 
L 531.412273 499.197187 
z
" clip-path="url(#p4a84e29e72)" style="fill: #1f77b4"/>
   </g>
   <g id="patch_195">
    <path d="M 533.441364 499.197187 
L 535.470455 499.197187 
L 535.470455 499.197187 
L 533.441364 499.197187 
z
" clip-path="url(#p4a84e29e72)" style="fill: #1f77b4"/>
   </g>
   <g id="patch_196">
    <path d="M 535.470455 499.197187 
L 537.499545 499.197187 
L 537.499545 499.197187 
L 535.470455 499.197187 
z
" clip-path="url(#p4a84e29e72)" style="fill: #1f77b4"/>
   </g>
   <g id="patch_197">
    <path d="M 537.499545 499.197187 
L 539.528636 499.197187 
L 539.528636 499.197187 
L 537.499545 499.197187 
z
" clip-path="url(#p4a84e29e72)" style="fill: #1f77b4"/>
   </g>
   <g id="patch_198">
    <path d="M 539.528636 499.197187 
L 541.557727 499.197187 
L 541.557727 499.197187 
L 539.528636 499.197187 
z
" clip-path="url(#p4a84e29e72)" style="fill: #1f77b4"/>
   </g>
   <g id="patch_199">
    <path d="M 541.557727 499.197187 
L 543.586818 499.197187 
L 543.586818 499.197187 
L 541.557727 499.197187 
z
" clip-path="url(#p4a84e29e72)" style="fill: #1f77b4"/>
   </g>
   <g id="patch_200">
    <path d="M 543.586818 499.197187 
L 545.615909 499.197187 
L 545.615909 499.197187 
L 543.586818 499.197187 
z
" clip-path="url(#p4a84e29e72)" style="fill: #1f77b4"/>
   </g>
   <g id="patch_201">
    <path d="M 545.615909 499.197187 
L 547.645 499.197187 
L 547.645 499.197187 
L 545.615909 499.197187 
z
" clip-path="url(#p4a84e29e72)" style="fill: #1f77b4"/>
   </g>
   <g id="patch_202">
    <path d="M 547.645 499.197187 
L 549.674091 499.197187 
L 549.674091 427.528219 
L 547.645 427.528219 
z
" clip-path="url(#p4a84e29e72)" style="fill: #1f77b4"/>
   </g>
   <g id="matplotlib.axis_1">
    <g id="xtick_1">
     <g id="line2d_1">
      <defs>
       <path id="ma99223606d" d="M 0 0 
L 0 3.5 
" style="stroke: #000000; stroke-width: 0.8"/>
      </defs>
      <g>
       <use xlink:href="#ma99223606d" x="143.855909" y="499.197187" style="stroke: #000000; stroke-width: 0.8"/>
      </g>
     </g>
     <g id="text_1">
      <!-- 0.0 -->
      <g transform="translate(131.133409 518.354687) scale(0.16 -0.16)">
       <defs>
        <path id="DejaVuSans-30" d="M 2034 4250 
Q 1547 4250 1301 3770 
Q 1056 3291 1056 2328 
Q 1056 1369 1301 889 
Q 1547 409 2034 409 
Q 2525 409 2770 889 
Q 3016 1369 3016 2328 
Q 3016 3291 2770 3770 
Q 2525 4250 2034 4250 
z
M 2034 4750 
Q 2819 4750 3233 4129 
Q 3647 3509 3647 2328 
Q 3647 1150 3233 529 
Q 2819 -91 2034 -91 
Q 1250 -91 836 529 
Q 422 1150 422 2328 
Q 422 3509 836 4129 
Q 1250 4750 2034 4750 
z
" transform="scale(0.015625)"/>
        <path id="DejaVuSans-2e" d="M 684 794 
L 1344 794 
L 1344 0 
L 684 0 
L 684 794 
z
" transform="scale(0.015625)"/>
       </defs>
       <use xlink:href="#DejaVuSans-30"/>
       <use xlink:href="#DejaVuSans-2e" x="63.623047"/>
       <use xlink:href="#DejaVuSans-30" x="95.410156"/>
      </g>
     </g>
    </g>
    <g id="xtick_2">
     <g id="line2d_2">
      <g>
       <use xlink:href="#ma99223606d" x="225.019545" y="499.197187" style="stroke: #000000; stroke-width: 0.8"/>
      </g>
     </g>
     <g id="text_2">
      <!-- 0.2 -->
      <g transform="translate(212.297045 518.354687) scale(0.16 -0.16)">
       <defs>
        <path id="DejaVuSans-32" d="M 1228 531 
L 3431 531 
L 3431 0 
L 469 0 
L 469 531 
Q 828 903 1448 1529 
Q 2069 2156 2228 2338 
Q 2531 2678 2651 2914 
Q 2772 3150 2772 3378 
Q 2772 3750 2511 3984 
Q 2250 4219 1831 4219 
Q 1534 4219 1204 4116 
Q 875 4013 500 3803 
L 500 4441 
Q 881 4594 1212 4672 
Q 1544 4750 1819 4750 
Q 2544 4750 2975 4387 
Q 3406 4025 3406 3419 
Q 3406 3131 3298 2873 
Q 3191 2616 2906 2266 
Q 2828 2175 2409 1742 
Q 1991 1309 1228 531 
z
" transform="scale(0.015625)"/>
       </defs>
       <use xlink:href="#DejaVuSans-30"/>
       <use xlink:href="#DejaVuSans-2e" x="63.623047"/>
       <use xlink:href="#DejaVuSans-32" x="95.410156"/>
      </g>
     </g>
    </g>
    <g id="xtick_3">
     <g id="line2d_3">
      <g>
       <use xlink:href="#ma99223606d" x="306.183182" y="499.197187" style="stroke: #000000; stroke-width: 0.8"/>
      </g>
     </g>
     <g id="text_3">
      <!-- 0.4 -->
      <g transform="translate(293.460682 518.354687) scale(0.16 -0.16)">
       <defs>
        <path id="DejaVuSans-34" d="M 2419 4116 
L 825 1625 
L 2419 1625 
L 2419 4116 
z
M 2253 4666 
L 3047 4666 
L 3047 1625 
L 3713 1625 
L 3713 1100 
L 3047 1100 
L 3047 0 
L 2419 0 
L 2419 1100 
L 313 1100 
L 313 1709 
L 2253 4666 
z
" transform="scale(0.015625)"/>
       </defs>
       <use xlink:href="#DejaVuSans-30"/>
       <use xlink:href="#DejaVuSans-2e" x="63.623047"/>
       <use xlink:href="#DejaVuSans-34" x="95.410156"/>
      </g>
     </g>
    </g>
    <g id="xtick_4">
     <g id="line2d_4">
      <g>
       <use xlink:href="#ma99223606d" x="387.346818" y="499.197187" style="stroke: #000000; stroke-width: 0.8"/>
      </g>
     </g>
     <g id="text_4">
      <!-- 0.6 -->
      <g transform="translate(374.624318 518.354687) scale(0.16 -0.16)">
       <defs>
        <path id="DejaVuSans-36" d="M 2113 2584 
Q 1688 2584 1439 2293 
Q 1191 2003 1191 1497 
Q 1191 994 1439 701 
Q 1688 409 2113 409 
Q 2538 409 2786 701 
Q 3034 994 3034 1497 
Q 3034 2003 2786 2293 
Q 2538 2584 2113 2584 
z
M 3366 4563 
L 3366 3988 
Q 3128 4100 2886 4159 
Q 2644 4219 2406 4219 
Q 1781 4219 1451 3797 
Q 1122 3375 1075 2522 
Q 1259 2794 1537 2939 
Q 1816 3084 2150 3084 
Q 2853 3084 3261 2657 
Q 3669 2231 3669 1497 
Q 3669 778 3244 343 
Q 2819 -91 2113 -91 
Q 1303 -91 875 529 
Q 447 1150 447 2328 
Q 447 3434 972 4092 
Q 1497 4750 2381 4750 
Q 2619 4750 2861 4703 
Q 3103 4656 3366 4563 
z
" transform="scale(0.015625)"/>
       </defs>
       <use xlink:href="#DejaVuSans-30"/>
       <use xlink:href="#DejaVuSans-2e" x="63.623047"/>
       <use xlink:href="#DejaVuSans-36" x="95.410156"/>
      </g>
     </g>
    </g>
    <g id="xtick_5">
     <g id="line2d_5">
      <g>
       <use xlink:href="#ma99223606d" x="468.510455" y="499.197187" style="stroke: #000000; stroke-width: 0.8"/>
      </g>
     </g>
     <g id="text_5">
      <!-- 0.8 -->
      <g transform="translate(455.787955 518.354687) scale(0.16 -0.16)">
       <defs>
        <path id="DejaVuSans-38" d="M 2034 2216 
Q 1584 2216 1326 1975 
Q 1069 1734 1069 1313 
Q 1069 891 1326 650 
Q 1584 409 2034 409 
Q 2484 409 2743 651 
Q 3003 894 3003 1313 
Q 3003 1734 2745 1975 
Q 2488 2216 2034 2216 
z
M 1403 2484 
Q 997 2584 770 2862 
Q 544 3141 544 3541 
Q 544 4100 942 4425 
Q 1341 4750 2034 4750 
Q 2731 4750 3128 4425 
Q 3525 4100 3525 3541 
Q 3525 3141 3298 2862 
Q 3072 2584 2669 2484 
Q 3125 2378 3379 2068 
Q 3634 1759 3634 1313 
Q 3634 634 3220 271 
Q 2806 -91 2034 -91 
Q 1263 -91 848 271 
Q 434 634 434 1313 
Q 434 1759 690 2068 
Q 947 2378 1403 2484 
z
M 1172 3481 
Q 1172 3119 1398 2916 
Q 1625 2713 2034 2713 
Q 2441 2713 2670 2916 
Q 2900 3119 2900 3481 
Q 2900 3844 2670 4047 
Q 2441 4250 2034 4250 
Q 1625 4250 1398 4047 
Q 1172 3844 1172 3481 
z
" transform="scale(0.015625)"/>
       </defs>
       <use xlink:href="#DejaVuSans-30"/>
       <use xlink:href="#DejaVuSans-2e" x="63.623047"/>
       <use xlink:href="#DejaVuSans-38" x="95.410156"/>
      </g>
     </g>
    </g>
    <g id="xtick_6">
     <g id="line2d_6">
      <g>
       <use xlink:href="#ma99223606d" x="549.674091" y="499.197187" style="stroke: #000000; stroke-width: 0.8"/>
      </g>
     </g>
     <g id="text_6">
      <!-- 1.0 -->
      <g transform="translate(536.951591 518.354687) scale(0.16 -0.16)">
       <defs>
        <path id="DejaVuSans-31" d="M 794 531 
L 1825 531 
L 1825 4091 
L 703 3866 
L 703 4441 
L 1819 4666 
L 2450 4666 
L 2450 531 
L 3481 531 
L 3481 0 
L 794 0 
L 794 531 
z
" transform="scale(0.015625)"/>
       </defs>
       <use xlink:href="#DejaVuSans-31"/>
       <use xlink:href="#DejaVuSans-2e" x="63.623047"/>
       <use xlink:href="#DejaVuSans-30" x="95.410156"/>
      </g>
     </g>
    </g>
    <g id="text_7">
     <!-- pixel height -->
     <g transform="translate(299.79125 537.839687) scale(0.16 -0.16)">
      <defs>
       <path id="DejaVuSans-70" d="M 1159 525 
L 1159 -1331 
L 581 -1331 
L 581 3500 
L 1159 3500 
L 1159 2969 
Q 1341 3281 1617 3432 
Q 1894 3584 2278 3584 
Q 2916 3584 3314 3078 
Q 3713 2572 3713 1747 
Q 3713 922 3314 415 
Q 2916 -91 2278 -91 
Q 1894 -91 1617 61 
Q 1341 213 1159 525 
z
M 3116 1747 
Q 3116 2381 2855 2742 
Q 2594 3103 2138 3103 
Q 1681 3103 1420 2742 
Q 1159 2381 1159 1747 
Q 1159 1113 1420 752 
Q 1681 391 2138 391 
Q 2594 391 2855 752 
Q 3116 1113 3116 1747 
z
" transform="scale(0.015625)"/>
       <path id="DejaVuSans-69" d="M 603 3500 
L 1178 3500 
L 1178 0 
L 603 0 
L 603 3500 
z
M 603 4863 
L 1178 4863 
L 1178 4134 
L 603 4134 
L 603 4863 
z
" transform="scale(0.015625)"/>
       <path id="DejaVuSans-78" d="M 3513 3500 
L 2247 1797 
L 3578 0 
L 2900 0 
L 1881 1375 
L 863 0 
L 184 0 
L 1544 1831 
L 300 3500 
L 978 3500 
L 1906 2253 
L 2834 3500 
L 3513 3500 
z
" transform="scale(0.015625)"/>
       <path id="DejaVuSans-65" d="M 3597 1894 
L 3597 1613 
L 953 1613 
Q 991 1019 1311 708 
Q 1631 397 2203 397 
Q 2534 397 2845 478 
Q 3156 559 3463 722 
L 3463 178 
Q 3153 47 2828 -22 
Q 2503 -91 2169 -91 
Q 1331 -91 842 396 
Q 353 884 353 1716 
Q 353 2575 817 3079 
Q 1281 3584 2069 3584 
Q 2775 3584 3186 3129 
Q 3597 2675 3597 1894 
z
M 3022 2063 
Q 3016 2534 2758 2815 
Q 2500 3097 2075 3097 
Q 1594 3097 1305 2825 
Q 1016 2553 972 2059 
L 3022 2063 
z
" transform="scale(0.015625)"/>
       <path id="DejaVuSans-6c" d="M 603 4863 
L 1178 4863 
L 1178 0 
L 603 0 
L 603 4863 
z
" transform="scale(0.015625)"/>
       <path id="DejaVuSans-20" transform="scale(0.015625)"/>
       <path id="DejaVuSans-68" d="M 3513 2113 
L 3513 0 
L 2938 0 
L 2938 2094 
Q 2938 2591 2744 2837 
Q 2550 3084 2163 3084 
Q 1697 3084 1428 2787 
Q 1159 2491 1159 1978 
L 1159 0 
L 581 0 
L 581 4863 
L 1159 4863 
L 1159 2956 
Q 1366 3272 1645 3428 
Q 1925 3584 2291 3584 
Q 2894 3584 3203 3211 
Q 3513 2838 3513 2113 
z
" transform="scale(0.015625)"/>
       <path id="DejaVuSans-67" d="M 2906 1791 
Q 2906 2416 2648 2759 
Q 2391 3103 1925 3103 
Q 1463 3103 1205 2759 
Q 947 2416 947 1791 
Q 947 1169 1205 825 
Q 1463 481 1925 481 
Q 2391 481 2648 825 
Q 2906 1169 2906 1791 
z
M 3481 434 
Q 3481 -459 3084 -895 
Q 2688 -1331 1869 -1331 
Q 1566 -1331 1297 -1286 
Q 1028 -1241 775 -1147 
L 775 -588 
Q 1028 -725 1275 -790 
Q 1522 -856 1778 -856 
Q 2344 -856 2625 -561 
Q 2906 -266 2906 331 
L 2906 616 
Q 2728 306 2450 153 
Q 2172 0 1784 0 
Q 1141 0 747 490 
Q 353 981 353 1791 
Q 353 2603 747 3093 
Q 1141 3584 1784 3584 
Q 2172 3584 2450 3431 
Q 2728 3278 2906 2969 
L 2906 3500 
L 3481 3500 
L 3481 434 
z
" transform="scale(0.015625)"/>
       <path id="DejaVuSans-74" d="M 1172 4494 
L 1172 3500 
L 2356 3500 
L 2356 3053 
L 1172 3053 
L 1172 1153 
Q 1172 725 1289 603 
Q 1406 481 1766 481 
L 2356 481 
L 2356 0 
L 1766 0 
Q 1100 0 847 248 
Q 594 497 594 1153 
L 594 3053 
L 172 3053 
L 172 3500 
L 594 3500 
L 594 4494 
L 1172 4494 
z
" transform="scale(0.015625)"/>
      </defs>
      <use xlink:href="#DejaVuSans-70"/>
      <use xlink:href="#DejaVuSans-69" x="63.476562"/>
      <use xlink:href="#DejaVuSans-78" x="91.259766"/>
      <use xlink:href="#DejaVuSans-65" x="147.314453"/>
      <use xlink:href="#DejaVuSans-6c" x="208.837891"/>
      <use xlink:href="#DejaVuSans-20" x="236.621094"/>
      <use xlink:href="#DejaVuSans-68" x="268.408203"/>
      <use xlink:href="#DejaVuSans-65" x="331.787109"/>
      <use xlink:href="#DejaVuSans-69" x="393.310547"/>
      <use xlink:href="#DejaVuSans-67" x="421.09375"/>
      <use xlink:href="#DejaVuSans-68" x="484.570312"/>
      <use xlink:href="#DejaVuSans-74" x="547.949219"/>
     </g>
    </g>
   </g>
   <g id="matplotlib.axis_2">
    <g id="ytick_1">
     <g id="line2d_7">
      <defs>
       <path id="m2e2f0c56f6" d="M 0 0 
L -3.5 0 
" style="stroke: #000000; stroke-width: 0.8"/>
      </defs>
      <g>
       <use xlink:href="#m2e2f0c56f6" x="123.565" y="499.197187" style="stroke: #000000; stroke-width: 0.8"/>
      </g>
     </g>
     <g id="text_8">
      <!-- 0 -->
      <g transform="translate(106.385 505.275937) scale(0.16 -0.16)">
       <use xlink:href="#DejaVuSans-30"/>
      </g>
     </g>
    </g>
    <g id="ytick_2">
     <g id="line2d_8">
      <g>
       <use xlink:href="#m2e2f0c56f6" x="123.565" y="404.96101" style="stroke: #000000; stroke-width: 0.8"/>
      </g>
     </g>
     <g id="text_9">
      <!-- 200000 -->
      <g transform="translate(55.485 411.03976) scale(0.16 -0.16)">
       <use xlink:href="#DejaVuSans-32"/>
       <use xlink:href="#DejaVuSans-30" x="63.623047"/>
       <use xlink:href="#DejaVuSans-30" x="127.246094"/>
       <use xlink:href="#DejaVuSans-30" x="190.869141"/>
       <use xlink:href="#DejaVuSans-30" x="254.492188"/>
       <use xlink:href="#DejaVuSans-30" x="318.115234"/>
      </g>
     </g>
    </g>
    <g id="ytick_3">
     <g id="line2d_9">
      <g>
       <use xlink:href="#m2e2f0c56f6" x="123.565" y="310.724833" style="stroke: #000000; stroke-width: 0.8"/>
      </g>
     </g>
     <g id="text_10">
      <!-- 400000 -->
      <g transform="translate(55.485 316.803583) scale(0.16 -0.16)">
       <use xlink:href="#DejaVuSans-34"/>
       <use xlink:href="#DejaVuSans-30" x="63.623047"/>
       <use xlink:href="#DejaVuSans-30" x="127.246094"/>
       <use xlink:href="#DejaVuSans-30" x="190.869141"/>
       <use xlink:href="#DejaVuSans-30" x="254.492188"/>
       <use xlink:href="#DejaVuSans-30" x="318.115234"/>
      </g>
     </g>
    </g>
    <g id="ytick_4">
     <g id="line2d_10">
      <g>
       <use xlink:href="#m2e2f0c56f6" x="123.565" y="216.488656" style="stroke: #000000; stroke-width: 0.8"/>
      </g>
     </g>
     <g id="text_11">
      <!-- 600000 -->
      <g transform="translate(55.485 222.567406) scale(0.16 -0.16)">
       <use xlink:href="#DejaVuSans-36"/>
       <use xlink:href="#DejaVuSans-30" x="63.623047"/>
       <use xlink:href="#DejaVuSans-30" x="127.246094"/>
       <use xlink:href="#DejaVuSans-30" x="190.869141"/>
       <use xlink:href="#DejaVuSans-30" x="254.492188"/>
       <use xlink:href="#DejaVuSans-30" x="318.115234"/>
      </g>
     </g>
    </g>
    <g id="ytick_5">
     <g id="line2d_11">
      <g>
       <use xlink:href="#m2e2f0c56f6" x="123.565" y="122.252479" style="stroke: #000000; stroke-width: 0.8"/>
      </g>
     </g>
     <g id="text_12">
      <!-- 800000 -->
      <g transform="translate(55.485 128.331229) scale(0.16 -0.16)">
       <use xlink:href="#DejaVuSans-38"/>
       <use xlink:href="#DejaVuSans-30" x="63.623047"/>
       <use xlink:href="#DejaVuSans-30" x="127.246094"/>
       <use xlink:href="#DejaVuSans-30" x="190.869141"/>
       <use xlink:href="#DejaVuSans-30" x="254.492188"/>
       <use xlink:href="#DejaVuSans-30" x="318.115234"/>
      </g>
     </g>
    </g>
    <g id="text_13">
     <!-- frequency in image -->
     <g transform="translate(48.1575 354.855937) rotate(-90) scale(0.16 -0.16)">
      <defs>
       <path id="DejaVuSans-66" d="M 2375 4863 
L 2375 4384 
L 1825 4384 
Q 1516 4384 1395 4259 
Q 1275 4134 1275 3809 
L 1275 3500 
L 2222 3500 
L 2222 3053 
L 1275 3053 
L 1275 0 
L 697 0 
L 697 3053 
L 147 3053 
L 147 3500 
L 697 3500 
L 697 3744 
Q 697 4328 969 4595 
Q 1241 4863 1831 4863 
L 2375 4863 
z
" transform="scale(0.015625)"/>
       <path id="DejaVuSans-72" d="M 2631 2963 
Q 2534 3019 2420 3045 
Q 2306 3072 2169 3072 
Q 1681 3072 1420 2755 
Q 1159 2438 1159 1844 
L 1159 0 
L 581 0 
L 581 3500 
L 1159 3500 
L 1159 2956 
Q 1341 3275 1631 3429 
Q 1922 3584 2338 3584 
Q 2397 3584 2469 3576 
Q 2541 3569 2628 3553 
L 2631 2963 
z
" transform="scale(0.015625)"/>
       <path id="DejaVuSans-71" d="M 947 1747 
Q 947 1113 1208 752 
Q 1469 391 1925 391 
Q 2381 391 2643 752 
Q 2906 1113 2906 1747 
Q 2906 2381 2643 2742 
Q 2381 3103 1925 3103 
Q 1469 3103 1208 2742 
Q 947 2381 947 1747 
z
M 2906 525 
Q 2725 213 2448 61 
Q 2172 -91 1784 -91 
Q 1150 -91 751 415 
Q 353 922 353 1747 
Q 353 2572 751 3078 
Q 1150 3584 1784 3584 
Q 2172 3584 2448 3432 
Q 2725 3281 2906 2969 
L 2906 3500 
L 3481 3500 
L 3481 -1331 
L 2906 -1331 
L 2906 525 
z
" transform="scale(0.015625)"/>
       <path id="DejaVuSans-75" d="M 544 1381 
L 544 3500 
L 1119 3500 
L 1119 1403 
Q 1119 906 1312 657 
Q 1506 409 1894 409 
Q 2359 409 2629 706 
Q 2900 1003 2900 1516 
L 2900 3500 
L 3475 3500 
L 3475 0 
L 2900 0 
L 2900 538 
Q 2691 219 2414 64 
Q 2138 -91 1772 -91 
Q 1169 -91 856 284 
Q 544 659 544 1381 
z
M 1991 3584 
L 1991 3584 
z
" transform="scale(0.015625)"/>
       <path id="DejaVuSans-6e" d="M 3513 2113 
L 3513 0 
L 2938 0 
L 2938 2094 
Q 2938 2591 2744 2837 
Q 2550 3084 2163 3084 
Q 1697 3084 1428 2787 
Q 1159 2491 1159 1978 
L 1159 0 
L 581 0 
L 581 3500 
L 1159 3500 
L 1159 2956 
Q 1366 3272 1645 3428 
Q 1925 3584 2291 3584 
Q 2894 3584 3203 3211 
Q 3513 2838 3513 2113 
z
" transform="scale(0.015625)"/>
       <path id="DejaVuSans-63" d="M 3122 3366 
L 3122 2828 
Q 2878 2963 2633 3030 
Q 2388 3097 2138 3097 
Q 1578 3097 1268 2742 
Q 959 2388 959 1747 
Q 959 1106 1268 751 
Q 1578 397 2138 397 
Q 2388 397 2633 464 
Q 2878 531 3122 666 
L 3122 134 
Q 2881 22 2623 -34 
Q 2366 -91 2075 -91 
Q 1284 -91 818 406 
Q 353 903 353 1747 
Q 353 2603 823 3093 
Q 1294 3584 2113 3584 
Q 2378 3584 2631 3529 
Q 2884 3475 3122 3366 
z
" transform="scale(0.015625)"/>
       <path id="DejaVuSans-79" d="M 2059 -325 
Q 1816 -950 1584 -1140 
Q 1353 -1331 966 -1331 
L 506 -1331 
L 506 -850 
L 844 -850 
Q 1081 -850 1212 -737 
Q 1344 -625 1503 -206 
L 1606 56 
L 191 3500 
L 800 3500 
L 1894 763 
L 2988 3500 
L 3597 3500 
L 2059 -325 
z
" transform="scale(0.015625)"/>
       <path id="DejaVuSans-6d" d="M 3328 2828 
Q 3544 3216 3844 3400 
Q 4144 3584 4550 3584 
Q 5097 3584 5394 3201 
Q 5691 2819 5691 2113 
L 5691 0 
L 5113 0 
L 5113 2094 
Q 5113 2597 4934 2840 
Q 4756 3084 4391 3084 
Q 3944 3084 3684 2787 
Q 3425 2491 3425 1978 
L 3425 0 
L 2847 0 
L 2847 2094 
Q 2847 2600 2669 2842 
Q 2491 3084 2119 3084 
Q 1678 3084 1418 2786 
Q 1159 2488 1159 1978 
L 1159 0 
L 581 0 
L 581 3500 
L 1159 3500 
L 1159 2956 
Q 1356 3278 1631 3431 
Q 1906 3584 2284 3584 
Q 2666 3584 2933 3390 
Q 3200 3197 3328 2828 
z
" transform="scale(0.015625)"/>
       <path id="DejaVuSans-61" d="M 2194 1759 
Q 1497 1759 1228 1600 
Q 959 1441 959 1056 
Q 959 750 1161 570 
Q 1363 391 1709 391 
Q 2188 391 2477 730 
Q 2766 1069 2766 1631 
L 2766 1759 
L 2194 1759 
z
M 3341 1997 
L 3341 0 
L 2766 0 
L 2766 531 
Q 2569 213 2275 61 
Q 1981 -91 1556 -91 
Q 1019 -91 701 211 
Q 384 513 384 1019 
Q 384 1609 779 1909 
Q 1175 2209 1959 2209 
L 2766 2209 
L 2766 2266 
Q 2766 2663 2505 2880 
Q 2244 3097 1772 3097 
Q 1472 3097 1187 3025 
Q 903 2953 641 2809 
L 641 3341 
Q 956 3463 1253 3523 
Q 1550 3584 1831 3584 
Q 2591 3584 2966 3190 
Q 3341 2797 3341 1997 
z
" transform="scale(0.015625)"/>
      </defs>
      <use xlink:href="#DejaVuSans-66"/>
      <use xlink:href="#DejaVuSans-72" x="35.205078"/>
      <use xlink:href="#DejaVuSans-65" x="74.068359"/>
      <use xlink:href="#DejaVuSans-71" x="135.591797"/>
      <use xlink:href="#DejaVuSans-75" x="199.068359"/>
      <use xlink:href="#DejaVuSans-65" x="262.447266"/>
      <use xlink:href="#DejaVuSans-6e" x="323.970703"/>
      <use xlink:href="#DejaVuSans-63" x="387.349609"/>
      <use xlink:href="#DejaVuSans-79" x="442.330078"/>
      <use xlink:href="#DejaVuSans-20" x="501.509766"/>
      <use xlink:href="#DejaVuSans-69" x="533.296875"/>
      <use xlink:href="#DejaVuSans-6e" x="561.080078"/>
      <use xlink:href="#DejaVuSans-20" x="624.458984"/>
      <use xlink:href="#DejaVuSans-69" x="656.246094"/>
      <use xlink:href="#DejaVuSans-6d" x="684.029297"/>
      <use xlink:href="#DejaVuSans-61" x="781.441406"/>
      <use xlink:href="#DejaVuSans-67" x="842.720703"/>
      <use xlink:href="#DejaVuSans-65" x="906.197266"/>
     </g>
    </g>
   </g>
   <g id="patch_203">
    <path d="M 123.565 499.197187 
L 123.565 55.677187 
" style="fill: none; stroke: #000000; stroke-width: 0.8; stroke-linejoin: miter; stroke-linecap: square"/>
   </g>
   <g id="patch_204">
    <path d="M 569.965 499.197187 
L 569.965 55.677187 
" style="fill: none; stroke: #000000; stroke-width: 0.8; stroke-linejoin: miter; stroke-linecap: square"/>
   </g>
   <g id="patch_205">
    <path d="M 123.565 499.197187 
L 569.965 499.197187 
" style="fill: none; stroke: #000000; stroke-width: 0.8; stroke-linejoin: miter; stroke-linecap: square"/>
   </g>
   <g id="patch_206">
    <path d="M 123.565 55.677187 
L 569.965 55.677187 
" style="fill: none; stroke: #000000; stroke-width: 0.8; stroke-linejoin: miter; stroke-linecap: square"/>
   </g>
   <g id="text_14">
    <!-- Binary Mask -->
    <g transform="translate(291.803125 49.677187) scale(0.18 -0.18)">
     <defs>
      <path id="DejaVuSans-42" d="M 1259 2228 
L 1259 519 
L 2272 519 
Q 2781 519 3026 730 
Q 3272 941 3272 1375 
Q 3272 1813 3026 2020 
Q 2781 2228 2272 2228 
L 1259 2228 
z
M 1259 4147 
L 1259 2741 
L 2194 2741 
Q 2656 2741 2882 2914 
Q 3109 3088 3109 3444 
Q 3109 3797 2882 3972 
Q 2656 4147 2194 4147 
L 1259 4147 
z
M 628 4666 
L 2241 4666 
Q 2963 4666 3353 4366 
Q 3744 4066 3744 3513 
Q 3744 3084 3544 2831 
Q 3344 2578 2956 2516 
Q 3422 2416 3680 2098 
Q 3938 1781 3938 1306 
Q 3938 681 3513 340 
Q 3088 0 2303 0 
L 628 0 
L 628 4666 
z
" transform="scale(0.015625)"/>
      <path id="DejaVuSans-4d" d="M 628 4666 
L 1569 4666 
L 2759 1491 
L 3956 4666 
L 4897 4666 
L 4897 0 
L 4281 0 
L 4281 4097 
L 3078 897 
L 2444 897 
L 1241 4097 
L 1241 0 
L 628 0 
L 628 4666 
z
" transform="scale(0.015625)"/>
      <path id="DejaVuSans-73" d="M 2834 3397 
L 2834 2853 
Q 2591 2978 2328 3040 
Q 2066 3103 1784 3103 
Q 1356 3103 1142 2972 
Q 928 2841 928 2578 
Q 928 2378 1081 2264 
Q 1234 2150 1697 2047 
L 1894 2003 
Q 2506 1872 2764 1633 
Q 3022 1394 3022 966 
Q 3022 478 2636 193 
Q 2250 -91 1575 -91 
Q 1294 -91 989 -36 
Q 684 19 347 128 
L 347 722 
Q 666 556 975 473 
Q 1284 391 1588 391 
Q 1994 391 2212 530 
Q 2431 669 2431 922 
Q 2431 1156 2273 1281 
Q 2116 1406 1581 1522 
L 1381 1569 
Q 847 1681 609 1914 
Q 372 2147 372 2553 
Q 372 3047 722 3315 
Q 1072 3584 1716 3584 
Q 2034 3584 2315 3537 
Q 2597 3491 2834 3397 
z
" transform="scale(0.015625)"/>
      <path id="DejaVuSans-6b" d="M 581 4863 
L 1159 4863 
L 1159 1991 
L 2875 3500 
L 3609 3500 
L 1753 1863 
L 3688 0 
L 2938 0 
L 1159 1709 
L 1159 0 
L 581 0 
L 581 4863 
z
" transform="scale(0.015625)"/>
     </defs>
     <use xlink:href="#DejaVuSans-42"/>
     <use xlink:href="#DejaVuSans-69" x="68.603516"/>
     <use xlink:href="#DejaVuSans-6e" x="96.386719"/>
     <use xlink:href="#DejaVuSans-61" x="159.765625"/>
     <use xlink:href="#DejaVuSans-72" x="221.044922"/>
     <use xlink:href="#DejaVuSans-79" x="262.158203"/>
     <use xlink:href="#DejaVuSans-20" x="321.337891"/>
     <use xlink:href="#DejaVuSans-4d" x="353.125"/>
     <use xlink:href="#DejaVuSans-61" x="439.404297"/>
     <use xlink:href="#DejaVuSans-73" x="500.683594"/>
     <use xlink:href="#DejaVuSans-6b" x="552.783203"/>
    </g>
   </g>
  </g>
 </g>
 <defs>
  <clipPath id="p4a84e29e72">
   <rect x="123.565" y="55.677187" width="446.4" height="443.52"/>
  </clipPath>
 </defs>
</svg>
