<?xml version="1.0" encoding="utf-8" standalone="no"?>
<!DOCTYPE svg PUBLIC "-//W3C//DTD SVG 1.1//EN"
  "http://www.w3.org/Graphics/SVG/1.1/DTD/svg11.dtd">
<svg xmlns:xlink="http://www.w3.org/1999/xlink" width="595.785pt" height="577.167187pt" viewBox="0 0 595.785 577.167187" xmlns="http://www.w3.org/2000/svg" version="1.1">
 <metadata>
  <rdf:RDF xmlns:dc="http://purl.org/dc/elements/1.1/" xmlns:cc="http://creativecommons.org/ns#" xmlns:rdf="http://www.w3.org/1999/02/22-rdf-syntax-ns#">
   <cc:Work>
    <dc:type rdf:resource="http://purl.org/dc/dcmitype/StillImage"/>
    <dc:date>2024-03-26T11:20:05.831756</dc:date>
    <dc:format>image/svg+xml</dc:format>
    <dc:creator>
     <cc:Agent>
      <dc:title>Matplotlib v3.8.3, https://matplotlib.org/</dc:title>
     </cc:Agent>
    </dc:creator>
   </cc:Work>
  </rdf:RDF>
 </metadata>
 <defs>
  <style type="text/css">*{stroke-linejoin: round; stroke-linecap: butt}</style>
 </defs>
 <g id="figure_1">
  <g id="patch_1">
   <path d="M 0 577.167187 
L 595.785 577.167187 
L 595.785 0 
L 0 0 
z
" style="fill: #ffffff"/>
  </g>
  <g id="axes_1">
   <g id="patch_2">
    <path d="M 113.385 499.197187 
L 559.785 499.197187 
L 559.785 55.677187 
L 113.385 55.677187 
z
" style="fill: #ffffff"/>
   </g>
   <g id="patch_3">
    <path d="M 133.675909 499.197187 
L 135.705 499.197187 
L 135.705 499.179226 
L 133.675909 499.179226 
z
" clip-path="url(#p1433339bfa)" style="fill: #1f77b4"/>
   </g>
   <g id="patch_4">
    <path d="M 135.705 499.197187 
L 137.734091 499.197187 
L 137.734091 499.197187 
L 135.705 499.197187 
z
" clip-path="url(#p1433339bfa)" style="fill: #1f77b4"/>
   </g>
   <g id="patch_5">
    <path d="M 137.734091 499.197187 
L 139.763182 499.197187 
L 139.763182 499.197187 
L 137.734091 499.197187 
z
" clip-path="url(#p1433339bfa)" style="fill: #1f77b4"/>
   </g>
   <g id="patch_6">
    <path d="M 139.763182 499.197187 
L 141.792273 499.197187 
L 141.792273 499.179226 
L 139.763182 499.179226 
z
" clip-path="url(#p1433339bfa)" style="fill: #1f77b4"/>
   </g>
   <g id="patch_7">
    <path d="M 141.792273 499.197187 
L 143.821364 499.197187 
L 143.821364 499.170246 
L 141.792273 499.170246 
z
" clip-path="url(#p1433339bfa)" style="fill: #1f77b4"/>
   </g>
   <g id="patch_8">
    <path d="M 143.821364 499.197187 
L 145.850455 499.197187 
L 145.850455 499.161265 
L 143.821364 499.161265 
z
" clip-path="url(#p1433339bfa)" style="fill: #1f77b4"/>
   </g>
   <g id="patch_9">
    <path d="M 145.850455 499.197187 
L 147.879545 499.197187 
L 147.879545 499.089421 
L 145.850455 499.089421 
z
" clip-path="url(#p1433339bfa)" style="fill: #1f77b4"/>
   </g>
   <g id="patch_10">
    <path d="M 147.879545 499.197187 
L 149.908636 499.197187 
L 149.908636 499.017577 
L 147.879545 499.017577 
z
" clip-path="url(#p1433339bfa)" style="fill: #1f77b4"/>
   </g>
   <g id="patch_11">
    <path d="M 149.908636 499.197187 
L 151.937727 499.197187 
L 151.937727 498.981654 
L 149.908636 498.981654 
z
" clip-path="url(#p1433339bfa)" style="fill: #1f77b4"/>
   </g>
   <g id="patch_12">
    <path d="M 151.937727 499.197187 
L 153.966818 499.197187 
L 153.966818 498.802043 
L 151.937727 498.802043 
z
" clip-path="url(#p1433339bfa)" style="fill: #1f77b4"/>
   </g>
   <g id="patch_13">
    <path d="M 153.966818 499.197187 
L 155.995909 499.197187 
L 155.995909 498.658355 
L 153.966818 498.658355 
z
" clip-path="url(#p1433339bfa)" style="fill: #1f77b4"/>
   </g>
   <g id="patch_14">
    <path d="M 155.995909 499.197187 
L 158.025 499.197187 
L 158.025 498.299133 
L 155.995909 498.299133 
z
" clip-path="url(#p1433339bfa)" style="fill: #1f77b4"/>
   </g>
   <g id="patch_15">
    <path d="M 158.025 499.197187 
L 160.054091 499.197187 
L 160.054091 497.948892 
L 158.025 497.948892 
z
" clip-path="url(#p1433339bfa)" style="fill: #1f77b4"/>
   </g>
   <g id="patch_16">
    <path d="M 160.054091 499.197187 
L 162.083182 499.197187 
L 162.083182 497.769281 
L 160.054091 497.769281 
z
" clip-path="url(#p1433339bfa)" style="fill: #1f77b4"/>
   </g>
   <g id="patch_17">
    <path d="M 162.083182 499.197187 
L 164.112273 499.197187 
L 164.112273 496.871226 
L 162.083182 496.871226 
z
" clip-path="url(#p1433339bfa)" style="fill: #1f77b4"/>
   </g>
   <g id="patch_18">
    <path d="M 164.112273 499.197187 
L 166.141364 499.197187 
L 166.141364 496.009094 
L 164.112273 496.009094 
z
" clip-path="url(#p1433339bfa)" style="fill: #1f77b4"/>
   </g>
   <g id="patch_19">
    <path d="M 166.141364 499.197187 
L 168.170455 499.197187 
L 168.170455 494.617109 
L 166.141364 494.617109 
z
" clip-path="url(#p1433339bfa)" style="fill: #1f77b4"/>
   </g>
   <g id="patch_20">
    <path d="M 168.170455 499.197187 
L 170.199545 499.197187 
L 170.199545 492.785077 
L 168.170455 492.785077 
z
" clip-path="url(#p1433339bfa)" style="fill: #1f77b4"/>
   </g>
   <g id="patch_21">
    <path d="M 170.199545 499.197187 
L 172.228636 499.197187 
L 172.228636 491.204501 
L 170.199545 491.204501 
z
" clip-path="url(#p1433339bfa)" style="fill: #1f77b4"/>
   </g>
   <g id="patch_22">
    <path d="M 172.228636 499.197187 
L 174.257727 499.197187 
L 174.257727 488.932423 
L 172.228636 488.932423 
z
" clip-path="url(#p1433339bfa)" style="fill: #1f77b4"/>
   </g>
   <g id="patch_23">
    <path d="M 174.257727 499.197187 
L 176.286818 499.197187 
L 176.286818 485.852096 
L 174.257727 485.852096 
z
" clip-path="url(#p1433339bfa)" style="fill: #1f77b4"/>
   </g>
   <g id="patch_24">
    <path d="M 176.286818 499.197187 
L 178.315909 499.197187 
L 178.315909 480.571534 
L 176.286818 480.571534 
z
" clip-path="url(#p1433339bfa)" style="fill: #1f77b4"/>
   </g>
   <g id="patch_25">
    <path d="M 178.315909 499.197187 
L 180.345 499.197187 
L 180.345 475.443642 
L 178.315909 475.443642 
z
" clip-path="url(#p1433339bfa)" style="fill: #1f77b4"/>
   </g>
   <g id="patch_26">
    <path d="M 180.345 499.197187 
L 182.374091 499.197187 
L 182.374091 469.462598 
L 180.345 469.462598 
z
" clip-path="url(#p1433339bfa)" style="fill: #1f77b4"/>
   </g>
   <g id="patch_27">
    <path d="M 182.374091 499.197187 
L 184.403182 499.197187 
L 184.403182 460.823313 
L 182.374091 460.823313 
z
" clip-path="url(#p1433339bfa)" style="fill: #1f77b4"/>
   </g>
   <g id="patch_28">
    <path d="M 184.403182 499.197187 
L 186.432273 499.197187 
L 186.432273 452.058299 
L 184.403182 452.058299 
z
" clip-path="url(#p1433339bfa)" style="fill: #1f77b4"/>
   </g>
   <g id="patch_29">
    <path d="M 186.432273 499.197187 
L 188.461364 499.197187 
L 188.461364 440.805675 
L 186.432273 440.805675 
z
" clip-path="url(#p1433339bfa)" style="fill: #1f77b4"/>
   </g>
   <g id="patch_30">
    <path d="M 188.461364 499.197187 
L 190.490455 499.197187 
L 190.490455 428.223929 
L 188.461364 428.223929 
z
" clip-path="url(#p1433339bfa)" style="fill: #1f77b4"/>
   </g>
   <g id="patch_31">
    <path d="M 190.490455 499.197187 
L 192.519545 499.197187 
L 192.519545 412.813312 
L 190.490455 412.813312 
z
" clip-path="url(#p1433339bfa)" style="fill: #1f77b4"/>
   </g>
   <g id="patch_32">
    <path d="M 192.519545 499.197187 
L 194.548636 499.197187 
L 194.548636 396.378912 
L 192.519545 396.378912 
z
" clip-path="url(#p1433339bfa)" style="fill: #1f77b4"/>
   </g>
   <g id="patch_33">
    <path d="M 194.548636 499.197187 
L 196.577727 499.197187 
L 196.577727 376.217585 
L 194.548636 376.217585 
z
" clip-path="url(#p1433339bfa)" style="fill: #1f77b4"/>
   </g>
   <g id="patch_34">
    <path d="M 196.577727 499.197187 
L 198.606818 499.197187 
L 198.606818 355.867667 
L 196.577727 355.867667 
z
" clip-path="url(#p1433339bfa)" style="fill: #1f77b4"/>
   </g>
   <g id="patch_35">
    <path d="M 198.606818 499.197187 
L 200.635909 499.197187 
L 200.635909 330.668254 
L 198.606818 330.668254 
z
" clip-path="url(#p1433339bfa)" style="fill: #1f77b4"/>
   </g>
   <g id="patch_36">
    <path d="M 200.635909 499.197187 
L 202.665 499.197187 
L 202.665 304.615689 
L 200.635909 304.615689 
z
" clip-path="url(#p1433339bfa)" style="fill: #1f77b4"/>
   </g>
   <g id="patch_37">
    <path d="M 202.665 499.197187 
L 204.694091 499.197187 
L 204.694091 275.186438 
L 202.665 275.186438 
z
" clip-path="url(#p1433339bfa)" style="fill: #1f77b4"/>
   </g>
   <g id="patch_38">
    <path d="M 204.694091 499.197187 
L 206.723182 499.197187 
L 206.723182 245.999662 
L 204.694091 245.999662 
z
" clip-path="url(#p1433339bfa)" style="fill: #1f77b4"/>
   </g>
   <g id="patch_39">
    <path d="M 206.723182 499.197187 
L 208.752273 499.197187 
L 208.752273 214.926972 
L 206.723182 214.926972 
z
" clip-path="url(#p1433339bfa)" style="fill: #1f77b4"/>
   </g>
   <g id="patch_40">
    <path d="M 208.752273 499.197187 
L 210.781364 499.197187 
L 210.781364 188.919309 
L 208.752273 188.919309 
z
" clip-path="url(#p1433339bfa)" style="fill: #1f77b4"/>
   </g>
   <g id="patch_41">
    <path d="M 210.781364 499.197187 
L 212.810455 499.197187 
L 212.810455 161.780098 
L 210.781364 161.780098 
z
" clip-path="url(#p1433339bfa)" style="fill: #1f77b4"/>
   </g>
   <g id="patch_42">
    <path d="M 212.810455 499.197187 
L 214.839545 499.197187 
L 214.839545 134.937245 
L 212.810455 134.937245 
z
" clip-path="url(#p1433339bfa)" style="fill: #1f77b4"/>
   </g>
   <g id="patch_43">
    <path d="M 214.839545 499.197187 
L 216.868636 499.197187 
L 216.868636 114.587327 
L 214.839545 114.587327 
z
" clip-path="url(#p1433339bfa)" style="fill: #1f77b4"/>
   </g>
   <g id="patch_44">
    <path d="M 216.868636 499.197187 
L 218.897727 499.197187 
L 218.897727 97.533269 
L 216.868636 97.533269 
z
" clip-path="url(#p1433339bfa)" style="fill: #1f77b4"/>
   </g>
   <g id="patch_45">
    <path d="M 218.897727 499.197187 
L 220.926818 499.197187 
L 220.926818 84.286963 
L 218.897727 84.286963 
z
" clip-path="url(#p1433339bfa)" style="fill: #1f77b4"/>
   </g>
   <g id="patch_46">
    <path d="M 220.926818 499.197187 
L 222.955909 499.197187 
L 222.955909 78.916596 
L 220.926818 78.916596 
z
" clip-path="url(#p1433339bfa)" style="fill: #1f77b4"/>
   </g>
   <g id="patch_47">
    <path d="M 222.955909 499.197187 
L 224.985 499.197187 
L 224.985 76.797187 
L 222.955909 76.797187 
z
" clip-path="url(#p1433339bfa)" style="fill: #1f77b4"/>
   </g>
   <g id="patch_48">
    <path d="M 224.985 499.197187 
L 227.014091 499.197187 
L 227.014091 85.149096 
L 224.985 85.149096 
z
" clip-path="url(#p1433339bfa)" style="fill: #1f77b4"/>
   </g>
   <g id="patch_49">
    <path d="M 227.014091 499.197187 
L 229.043182 499.197187 
L 229.043182 98.458265 
L 227.014091 98.458265 
z
" clip-path="url(#p1433339bfa)" style="fill: #1f77b4"/>
   </g>
   <g id="patch_50">
    <path d="M 229.043182 499.197187 
L 231.072273 499.197187 
L 231.072273 119.778083 
L 229.043182 119.778083 
z
" clip-path="url(#p1433339bfa)" style="fill: #1f77b4"/>
   </g>
   <g id="patch_51">
    <path d="M 231.072273 499.197187 
L 233.101364 499.197187 
L 233.101364 143.774103 
L 231.072273 143.774103 
z
" clip-path="url(#p1433339bfa)" style="fill: #1f77b4"/>
   </g>
   <g id="patch_52">
    <path d="M 233.101364 499.197187 
L 235.130455 499.197187 
L 235.130455 171.784427 
L 233.101364 171.784427 
z
" clip-path="url(#p1433339bfa)" style="fill: #1f77b4"/>
   </g>
   <g id="patch_53">
    <path d="M 235.130455 499.197187 
L 237.159545 499.197187 
L 237.159545 208.344231 
L 235.130455 208.344231 
z
" clip-path="url(#p1433339bfa)" style="fill: #1f77b4"/>
   </g>
   <g id="patch_54">
    <path d="M 237.159545 499.197187 
L 239.188636 499.197187 
L 239.188636 239.300175 
L 237.159545 239.300175 
z
" clip-path="url(#p1433339bfa)" style="fill: #1f77b4"/>
   </g>
   <g id="patch_55">
    <path d="M 239.188636 499.197187 
L 241.217727 499.197187 
L 241.217727 274.360228 
L 239.188636 274.360228 
z
" clip-path="url(#p1433339bfa)" style="fill: #1f77b4"/>
   </g>
   <g id="patch_56">
    <path d="M 241.217727 499.197187 
L 243.246818 499.197187 
L 243.246818 306.708156 
L 241.217727 306.708156 
z
" clip-path="url(#p1433339bfa)" style="fill: #1f77b4"/>
   </g>
   <g id="patch_57">
    <path d="M 243.246818 499.197187 
L 245.275909 499.197187 
L 245.275909 340.097827 
L 243.246818 340.097827 
z
" clip-path="url(#p1433339bfa)" style="fill: #1f77b4"/>
   </g>
   <g id="patch_58">
    <path d="M 245.275909 499.197187 
L 247.305 499.197187 
L 247.305 368.997226 
L 245.275909 368.997226 
z
" clip-path="url(#p1433339bfa)" style="fill: #1f77b4"/>
   </g>
   <g id="patch_59">
    <path d="M 247.305 499.197187 
L 249.334091 499.197187 
L 249.334091 391.107331 
L 247.305 391.107331 
z
" clip-path="url(#p1433339bfa)" style="fill: #1f77b4"/>
   </g>
   <g id="patch_60">
    <path d="M 249.334091 499.197187 
L 251.363182 499.197187 
L 251.363182 410.792689 
L 249.334091 410.792689 
z
" clip-path="url(#p1433339bfa)" style="fill: #1f77b4"/>
   </g>
   <g id="patch_61">
    <path d="M 251.363182 499.197187 
L 253.392273 499.197187 
L 253.392273 427.469563 
L 251.363182 427.469563 
z
" clip-path="url(#p1433339bfa)" style="fill: #1f77b4"/>
   </g>
   <g id="patch_62">
    <path d="M 253.392273 499.197187 
L 255.421364 499.197187 
L 255.421364 441.54208 
L 253.392273 441.54208 
z
" clip-path="url(#p1433339bfa)" style="fill: #1f77b4"/>
   </g>
   <g id="patch_63">
    <path d="M 255.421364 499.197187 
L 257.450455 499.197187 
L 257.450455 452.767763 
L 255.421364 452.767763 
z
" clip-path="url(#p1433339bfa)" style="fill: #1f77b4"/>
   </g>
   <g id="patch_64">
    <path d="M 257.450455 499.197187 
L 259.479545 499.197187 
L 259.479545 459.583997 
L 257.450455 459.583997 
z
" clip-path="url(#p1433339bfa)" style="fill: #1f77b4"/>
   </g>
   <g id="patch_65">
    <path d="M 259.479545 499.197187 
L 261.508636 499.197187 
L 261.508636 467.441975 
L 259.479545 467.441975 
z
" clip-path="url(#p1433339bfa)" style="fill: #1f77b4"/>
   </g>
   <g id="patch_66">
    <path d="M 261.508636 499.197187 
L 263.537727 499.197187 
L 263.537727 471.222785 
L 261.508636 471.222785 
z
" clip-path="url(#p1433339bfa)" style="fill: #1f77b4"/>
   </g>
   <g id="patch_67">
    <path d="M 263.537727 499.197187 
L 265.566818 499.197187 
L 265.566818 475.479564 
L 263.537727 475.479564 
z
" clip-path="url(#p1433339bfa)" style="fill: #1f77b4"/>
   </g>
   <g id="patch_68">
    <path d="M 265.566818 499.197187 
L 267.595909 499.197187 
L 267.595909 476.961355 
L 265.566818 476.961355 
z
" clip-path="url(#p1433339bfa)" style="fill: #1f77b4"/>
   </g>
   <g id="patch_69">
    <path d="M 267.595909 499.197187 
L 269.625 499.197187 
L 269.625 480.302118 
L 267.595909 480.302118 
z
" clip-path="url(#p1433339bfa)" style="fill: #1f77b4"/>
   </g>
   <g id="patch_70">
    <path d="M 269.625 499.197187 
L 271.654091 499.197187 
L 271.654091 481.864733 
L 269.625 481.864733 
z
" clip-path="url(#p1433339bfa)" style="fill: #1f77b4"/>
   </g>
   <g id="patch_71">
    <path d="M 271.654091 499.197187 
L 273.683182 499.197187 
L 273.683182 483.229776 
L 271.654091 483.229776 
z
" clip-path="url(#p1433339bfa)" style="fill: #1f77b4"/>
   </g>
   <g id="patch_72">
    <path d="M 273.683182 499.197187 
L 275.712273 499.197187 
L 275.712273 483.580017 
L 273.683182 483.580017 
z
" clip-path="url(#p1433339bfa)" style="fill: #1f77b4"/>
   </g>
   <g id="patch_73">
    <path d="M 275.712273 499.197187 
L 277.741364 499.197187 
L 277.741364 484.460111 
L 275.712273 484.460111 
z
" clip-path="url(#p1433339bfa)" style="fill: #1f77b4"/>
   </g>
   <g id="patch_74">
    <path d="M 277.741364 499.197187 
L 279.770455 499.197187 
L 279.770455 485.09773 
L 277.741364 485.09773 
z
" clip-path="url(#p1433339bfa)" style="fill: #1f77b4"/>
   </g>
   <g id="patch_75">
    <path d="M 279.770455 499.197187 
L 281.799545 499.197187 
L 281.799545 485.483893 
L 279.770455 485.483893 
z
" clip-path="url(#p1433339bfa)" style="fill: #1f77b4"/>
   </g>
   <g id="patch_76">
    <path d="M 281.799545 499.197187 
L 283.828636 499.197187 
L 283.828636 485.582679 
L 281.799545 485.582679 
z
" clip-path="url(#p1433339bfa)" style="fill: #1f77b4"/>
   </g>
   <g id="patch_77">
    <path d="M 283.828636 499.197187 
L 285.857727 499.197187 
L 285.857727 486.337045 
L 283.828636 486.337045 
z
" clip-path="url(#p1433339bfa)" style="fill: #1f77b4"/>
   </g>
   <g id="patch_78">
    <path d="M 285.857727 499.197187 
L 287.886818 499.197187 
L 287.886818 486.09457 
L 285.857727 486.09457 
z
" clip-path="url(#p1433339bfa)" style="fill: #1f77b4"/>
   </g>
   <g id="patch_79">
    <path d="M 287.886818 499.197187 
L 289.915909 499.197187 
L 289.915909 486.651364 
L 287.886818 486.651364 
z
" clip-path="url(#p1433339bfa)" style="fill: #1f77b4"/>
   </g>
   <g id="patch_80">
    <path d="M 289.915909 499.197187 
L 291.945 499.197187 
L 291.945 485.843115 
L 289.915909 485.843115 
z
" clip-path="url(#p1433339bfa)" style="fill: #1f77b4"/>
   </g>
   <g id="patch_81">
    <path d="M 291.945 499.197187 
L 293.974091 499.197187 
L 293.974091 486.274181 
L 291.945 486.274181 
z
" clip-path="url(#p1433339bfa)" style="fill: #1f77b4"/>
   </g>
   <g id="patch_82">
    <path d="M 293.974091 499.197187 
L 296.003182 499.197187 
L 296.003182 487.046508 
L 293.974091 487.046508 
z
" clip-path="url(#p1433339bfa)" style="fill: #1f77b4"/>
   </g>
   <g id="patch_83">
    <path d="M 296.003182 499.197187 
L 298.032273 499.197187 
L 298.032273 486.983644 
L 296.003182 486.983644 
z
" clip-path="url(#p1433339bfa)" style="fill: #1f77b4"/>
   </g>
   <g id="patch_84">
    <path d="M 298.032273 499.197187 
L 300.061364 499.197187 
L 300.061364 486.534617 
L 298.032273 486.534617 
z
" clip-path="url(#p1433339bfa)" style="fill: #1f77b4"/>
   </g>
   <g id="patch_85">
    <path d="M 300.061364 499.197187 
L 302.090455 499.197187 
L 302.090455 486.157434 
L 300.061364 486.157434 
z
" clip-path="url(#p1433339bfa)" style="fill: #1f77b4"/>
   </g>
   <g id="patch_86">
    <path d="M 302.090455 499.197187 
L 304.119545 499.197187 
L 304.119545 486.121512 
L 302.090455 486.121512 
z
" clip-path="url(#p1433339bfa)" style="fill: #1f77b4"/>
   </g>
   <g id="patch_87">
    <path d="M 304.119545 499.197187 
L 306.148636 499.197187 
L 306.148636 486.462773 
L 304.119545 486.462773 
z
" clip-path="url(#p1433339bfa)" style="fill: #1f77b4"/>
   </g>
   <g id="patch_88">
    <path d="M 306.148636 499.197187 
L 308.177727 499.197187 
L 308.177727 486.175395 
L 306.148636 486.175395 
z
" clip-path="url(#p1433339bfa)" style="fill: #1f77b4"/>
   </g>
   <g id="patch_89">
    <path d="M 308.177727 499.197187 
L 310.206818 499.197187 
L 310.206818 485.789232 
L 308.177727 485.789232 
z
" clip-path="url(#p1433339bfa)" style="fill: #1f77b4"/>
   </g>
   <g id="patch_90">
    <path d="M 310.206818 499.197187 
L 312.235909 499.197187 
L 312.235909 485.250399 
L 310.206818 485.250399 
z
" clip-path="url(#p1433339bfa)" style="fill: #1f77b4"/>
   </g>
   <g id="patch_91">
    <path d="M 312.235909 499.197187 
L 314.265 499.197187 
L 314.265 485.394088 
L 312.235909 485.394088 
z
" clip-path="url(#p1433339bfa)" style="fill: #1f77b4"/>
   </g>
   <g id="patch_92">
    <path d="M 314.265 499.197187 
L 316.294091 499.197187 
L 316.294091 484.082928 
L 314.265 484.082928 
z
" clip-path="url(#p1433339bfa)" style="fill: #1f77b4"/>
   </g>
   <g id="patch_93">
    <path d="M 316.294091 499.197187 
L 318.323182 499.197187 
L 318.323182 483.94822 
L 316.294091 483.94822 
z
" clip-path="url(#p1433339bfa)" style="fill: #1f77b4"/>
   </g>
   <g id="patch_94">
    <path d="M 318.323182 499.197187 
L 320.352273 499.197187 
L 320.352273 483.355504 
L 318.323182 483.355504 
z
" clip-path="url(#p1433339bfa)" style="fill: #1f77b4"/>
   </g>
   <g id="patch_95">
    <path d="M 320.352273 499.197187 
L 322.381364 499.197187 
L 322.381364 483.400406 
L 320.352273 483.400406 
z
" clip-path="url(#p1433339bfa)" style="fill: #1f77b4"/>
   </g>
   <g id="patch_96">
    <path d="M 322.381364 499.197187 
L 324.410455 499.197187 
L 324.410455 481.765947 
L 322.381364 481.765947 
z
" clip-path="url(#p1433339bfa)" style="fill: #1f77b4"/>
   </g>
   <g id="patch_97">
    <path d="M 324.410455 499.197187 
L 326.439545 499.197187 
L 326.439545 481.568375 
L 324.410455 481.568375 
z
" clip-path="url(#p1433339bfa)" style="fill: #1f77b4"/>
   </g>
   <g id="patch_98">
    <path d="M 326.439545 499.197187 
L 328.468636 499.197187 
L 328.468636 481.128328 
L 326.439545 481.128328 
z
" clip-path="url(#p1433339bfa)" style="fill: #1f77b4"/>
   </g>
   <g id="patch_99">
    <path d="M 328.468636 499.197187 
L 330.497727 499.197187 
L 330.497727 480.643379 
L 328.468636 480.643379 
z
" clip-path="url(#p1433339bfa)" style="fill: #1f77b4"/>
   </g>
   <g id="patch_100">
    <path d="M 330.497727 499.197187 
L 332.526818 499.197187 
L 332.526818 480.059643 
L 330.497727 480.059643 
z
" clip-path="url(#p1433339bfa)" style="fill: #1f77b4"/>
   </g>
   <g id="patch_101">
    <path d="M 332.526818 499.197187 
L 334.555909 499.197187 
L 334.555909 479.799207 
L 332.526818 479.799207 
z
" clip-path="url(#p1433339bfa)" style="fill: #1f77b4"/>
   </g>
   <g id="patch_102">
    <path d="M 334.555909 499.197187 
L 336.585 499.197187 
L 336.585 479.35916 
L 334.555909 479.35916 
z
" clip-path="url(#p1433339bfa)" style="fill: #1f77b4"/>
   </g>
   <g id="patch_103">
    <path d="M 336.585 499.197187 
L 338.614091 499.197187 
L 338.614091 479.125666 
L 336.585 479.125666 
z
" clip-path="url(#p1433339bfa)" style="fill: #1f77b4"/>
   </g>
   <g id="patch_104">
    <path d="M 338.614091 499.197187 
L 340.643182 499.197187 
L 340.643182 479.0179 
L 338.614091 479.0179 
z
" clip-path="url(#p1433339bfa)" style="fill: #1f77b4"/>
   </g>
   <g id="patch_105">
    <path d="M 340.643182 499.197187 
L 342.672273 499.197187 
L 342.672273 479.422024 
L 340.643182 479.422024 
z
" clip-path="url(#p1433339bfa)" style="fill: #1f77b4"/>
   </g>
   <g id="patch_106">
    <path d="M 342.672273 499.197187 
L 344.701364 499.197187 
L 344.701364 478.838289 
L 342.672273 478.838289 
z
" clip-path="url(#p1433339bfa)" style="fill: #1f77b4"/>
   </g>
   <g id="patch_107">
    <path d="M 344.701364 499.197187 
L 346.730455 499.197187 
L 346.730455 480.00576 
L 344.701364 480.00576 
z
" clip-path="url(#p1433339bfa)" style="fill: #1f77b4"/>
   </g>
   <g id="patch_108">
    <path d="M 346.730455 499.197187 
L 348.759545 499.197187 
L 348.759545 480.095565 
L 346.730455 480.095565 
z
" clip-path="url(#p1433339bfa)" style="fill: #1f77b4"/>
   </g>
   <g id="patch_109">
    <path d="M 348.759545 499.197187 
L 350.788636 499.197187 
L 350.788636 481.065464 
L 348.759545 481.065464 
z
" clip-path="url(#p1433339bfa)" style="fill: #1f77b4"/>
   </g>
   <g id="patch_110">
    <path d="M 350.788636 499.197187 
L 352.817727 499.197187 
L 352.817727 482.241916 
L 350.788636 482.241916 
z
" clip-path="url(#p1433339bfa)" style="fill: #1f77b4"/>
   </g>
   <g id="patch_111">
    <path d="M 352.817727 499.197187 
L 354.846818 499.197187 
L 354.846818 483.46327 
L 352.817727 483.46327 
z
" clip-path="url(#p1433339bfa)" style="fill: #1f77b4"/>
   </g>
   <g id="patch_112">
    <path d="M 354.846818 499.197187 
L 356.875909 499.197187 
L 356.875909 484.720547 
L 354.846818 484.720547 
z
" clip-path="url(#p1433339bfa)" style="fill: #1f77b4"/>
   </g>
   <g id="patch_113">
    <path d="M 356.875909 499.197187 
L 358.905 499.197187 
L 358.905 485.510835 
L 356.875909 485.510835 
z
" clip-path="url(#p1433339bfa)" style="fill: #1f77b4"/>
   </g>
   <g id="patch_114">
    <path d="M 358.905 499.197187 
L 360.934091 499.197187 
L 360.934091 487.378788 
L 358.905 487.378788 
z
" clip-path="url(#p1433339bfa)" style="fill: #1f77b4"/>
   </g>
   <g id="patch_115">
    <path d="M 360.934091 499.197187 
L 362.963182 499.197187 
L 362.963182 489.085092 
L 360.934091 489.085092 
z
" clip-path="url(#p1433339bfa)" style="fill: #1f77b4"/>
   </g>
   <g id="patch_116">
    <path d="M 362.963182 499.197187 
L 364.992273 499.197187 
L 364.992273 490.575863 
L 362.963182 490.575863 
z
" clip-path="url(#p1433339bfa)" style="fill: #1f77b4"/>
   </g>
   <g id="patch_117">
    <path d="M 364.992273 499.197187 
L 367.021364 499.197187 
L 367.021364 491.446976 
L 364.992273 491.446976 
z
" clip-path="url(#p1433339bfa)" style="fill: #1f77b4"/>
   </g>
   <g id="patch_118">
    <path d="M 367.021364 499.197187 
L 369.050455 499.197187 
L 369.050455 492.937747 
L 367.021364 492.937747 
z
" clip-path="url(#p1433339bfa)" style="fill: #1f77b4"/>
   </g>
   <g id="patch_119">
    <path d="M 369.050455 499.197187 
L 371.079545 499.197187 
L 371.079545 493.737015 
L 369.050455 493.737015 
z
" clip-path="url(#p1433339bfa)" style="fill: #1f77b4"/>
   </g>
   <g id="patch_120">
    <path d="M 371.079545 499.197187 
L 373.108636 499.197187 
L 373.108636 494.985311 
L 371.079545 494.985311 
z
" clip-path="url(#p1433339bfa)" style="fill: #1f77b4"/>
   </g>
   <g id="patch_121">
    <path d="M 373.108636 499.197187 
L 375.137727 499.197187 
L 375.137727 495.389436 
L 373.108636 495.389436 
z
" clip-path="url(#p1433339bfa)" style="fill: #1f77b4"/>
   </g>
   <g id="patch_122">
    <path d="M 375.137727 499.197187 
L 377.166818 499.197187 
L 377.166818 496.485062 
L 375.137727 496.485062 
z
" clip-path="url(#p1433339bfa)" style="fill: #1f77b4"/>
   </g>
   <g id="patch_123">
    <path d="M 377.166818 499.197187 
L 379.195909 499.197187 
L 379.195909 497.113701 
L 377.166818 497.113701 
z
" clip-path="url(#p1433339bfa)" style="fill: #1f77b4"/>
   </g>
   <g id="patch_124">
    <path d="M 379.195909 499.197187 
L 381.225 499.197187 
L 381.225 497.535786 
L 379.195909 497.535786 
z
" clip-path="url(#p1433339bfa)" style="fill: #1f77b4"/>
   </g>
   <g id="patch_125">
    <path d="M 381.225 499.197187 
L 383.254091 499.197187 
L 383.254091 498.038697 
L 381.225 498.038697 
z
" clip-path="url(#p1433339bfa)" style="fill: #1f77b4"/>
   </g>
   <g id="patch_126">
    <path d="M 383.254091 499.197187 
L 385.283182 499.197187 
L 385.283182 498.047678 
L 383.254091 498.047678 
z
" clip-path="url(#p1433339bfa)" style="fill: #1f77b4"/>
   </g>
   <g id="patch_127">
    <path d="M 385.283182 499.197187 
L 387.312273 499.197187 
L 387.312273 498.272191 
L 385.283182 498.272191 
z
" clip-path="url(#p1433339bfa)" style="fill: #1f77b4"/>
   </g>
   <g id="patch_128">
    <path d="M 387.312273 499.197187 
L 389.341364 499.197187 
L 389.341364 498.568549 
L 387.312273 498.568549 
z
" clip-path="url(#p1433339bfa)" style="fill: #1f77b4"/>
   </g>
   <g id="patch_129">
    <path d="M 389.341364 499.197187 
L 391.370455 499.197187 
L 391.370455 498.622433 
L 389.341364 498.622433 
z
" clip-path="url(#p1433339bfa)" style="fill: #1f77b4"/>
   </g>
   <g id="patch_130">
    <path d="M 391.370455 499.197187 
L 393.399545 499.197187 
L 393.399545 498.784082 
L 391.370455 498.784082 
z
" clip-path="url(#p1433339bfa)" style="fill: #1f77b4"/>
   </g>
   <g id="patch_131">
    <path d="M 393.399545 499.197187 
L 395.428636 499.197187 
L 395.428636 498.685296 
L 393.399545 498.685296 
z
" clip-path="url(#p1433339bfa)" style="fill: #1f77b4"/>
   </g>
   <g id="patch_132">
    <path d="M 395.428636 499.197187 
L 397.457727 499.197187 
L 397.457727 498.775102 
L 395.428636 498.775102 
z
" clip-path="url(#p1433339bfa)" style="fill: #1f77b4"/>
   </g>
   <g id="patch_133">
    <path d="M 397.457727 499.197187 
L 399.486818 499.197187 
L 399.486818 498.802043 
L 397.457727 498.802043 
z
" clip-path="url(#p1433339bfa)" style="fill: #1f77b4"/>
   </g>
   <g id="patch_134">
    <path d="M 399.486818 499.197187 
L 401.515909 499.197187 
L 401.515909 498.784082 
L 399.486818 498.784082 
z
" clip-path="url(#p1433339bfa)" style="fill: #1f77b4"/>
   </g>
   <g id="patch_135">
    <path d="M 401.515909 499.197187 
L 403.545 499.197187 
L 403.545 498.873888 
L 401.515909 498.873888 
z
" clip-path="url(#p1433339bfa)" style="fill: #1f77b4"/>
   </g>
   <g id="patch_136">
    <path d="M 403.545 499.197187 
L 405.574091 499.197187 
L 405.574091 498.891849 
L 403.545 498.891849 
z
" clip-path="url(#p1433339bfa)" style="fill: #1f77b4"/>
   </g>
   <g id="patch_137">
    <path d="M 405.574091 499.197187 
L 407.603182 499.197187 
L 407.603182 498.90981 
L 405.574091 498.90981 
z
" clip-path="url(#p1433339bfa)" style="fill: #1f77b4"/>
   </g>
   <g id="patch_138">
    <path d="M 407.603182 499.197187 
L 409.632273 499.197187 
L 409.632273 498.945732 
L 407.603182 498.945732 
z
" clip-path="url(#p1433339bfa)" style="fill: #1f77b4"/>
   </g>
   <g id="patch_139">
    <path d="M 409.632273 499.197187 
L 411.661364 499.197187 
L 411.661364 499.026557 
L 409.632273 499.026557 
z
" clip-path="url(#p1433339bfa)" style="fill: #1f77b4"/>
   </g>
   <g id="patch_140">
    <path d="M 411.661364 499.197187 
L 413.690455 499.197187 
L 413.690455 498.873888 
L 411.661364 498.873888 
z
" clip-path="url(#p1433339bfa)" style="fill: #1f77b4"/>
   </g>
   <g id="patch_141">
    <path d="M 413.690455 499.197187 
L 415.719545 499.197187 
L 415.719545 498.90981 
L 413.690455 498.90981 
z
" clip-path="url(#p1433339bfa)" style="fill: #1f77b4"/>
   </g>
   <g id="patch_142">
    <path d="M 415.719545 499.197187 
L 417.748636 499.197187 
L 417.748636 498.936752 
L 415.719545 498.936752 
z
" clip-path="url(#p1433339bfa)" style="fill: #1f77b4"/>
   </g>
   <g id="patch_143">
    <path d="M 417.748636 499.197187 
L 419.777727 499.197187 
L 419.777727 498.927771 
L 417.748636 498.927771 
z
" clip-path="url(#p1433339bfa)" style="fill: #1f77b4"/>
   </g>
   <g id="patch_144">
    <path d="M 419.777727 499.197187 
L 421.806818 499.197187 
L 421.806818 498.918791 
L 419.777727 498.918791 
z
" clip-path="url(#p1433339bfa)" style="fill: #1f77b4"/>
   </g>
   <g id="patch_145">
    <path d="M 421.806818 499.197187 
L 423.835909 499.197187 
L 423.835909 498.972674 
L 421.806818 498.972674 
z
" clip-path="url(#p1433339bfa)" style="fill: #1f77b4"/>
   </g>
   <g id="patch_146">
    <path d="M 423.835909 499.197187 
L 425.865 499.197187 
L 425.865 498.972674 
L 423.835909 498.972674 
z
" clip-path="url(#p1433339bfa)" style="fill: #1f77b4"/>
   </g>
   <g id="patch_147">
    <path d="M 425.865 499.197187 
L 427.894091 499.197187 
L 427.894091 498.981654 
L 425.865 498.981654 
z
" clip-path="url(#p1433339bfa)" style="fill: #1f77b4"/>
   </g>
   <g id="patch_148">
    <path d="M 427.894091 499.197187 
L 429.923182 499.197187 
L 429.923182 499.017577 
L 427.894091 499.017577 
z
" clip-path="url(#p1433339bfa)" style="fill: #1f77b4"/>
   </g>
   <g id="patch_149">
    <path d="M 429.923182 499.197187 
L 431.952273 499.197187 
L 431.952273 498.972674 
L 429.923182 498.972674 
z
" clip-path="url(#p1433339bfa)" style="fill: #1f77b4"/>
   </g>
   <g id="patch_150">
    <path d="M 431.952273 499.197187 
L 433.981364 499.197187 
L 433.981364 498.927771 
L 431.952273 498.927771 
z
" clip-path="url(#p1433339bfa)" style="fill: #1f77b4"/>
   </g>
   <g id="patch_151">
    <path d="M 433.981364 499.197187 
L 436.010455 499.197187 
L 436.010455 499.044518 
L 433.981364 499.044518 
z
" clip-path="url(#p1433339bfa)" style="fill: #1f77b4"/>
   </g>
   <g id="patch_152">
    <path d="M 436.010455 499.197187 
L 438.039545 499.197187 
L 438.039545 498.954713 
L 436.010455 498.954713 
z
" clip-path="url(#p1433339bfa)" style="fill: #1f77b4"/>
   </g>
   <g id="patch_153">
    <path d="M 438.039545 499.197187 
L 440.068636 499.197187 
L 440.068636 499.008596 
L 438.039545 499.008596 
z
" clip-path="url(#p1433339bfa)" style="fill: #1f77b4"/>
   </g>
   <g id="patch_154">
    <path d="M 440.068636 499.197187 
L 442.097727 499.197187 
L 442.097727 498.999615 
L 440.068636 498.999615 
z
" clip-path="url(#p1433339bfa)" style="fill: #1f77b4"/>
   </g>
   <g id="patch_155">
    <path d="M 442.097727 499.197187 
L 444.126818 499.197187 
L 444.126818 498.945732 
L 442.097727 498.945732 
z
" clip-path="url(#p1433339bfa)" style="fill: #1f77b4"/>
   </g>
   <g id="patch_156">
    <path d="M 444.126818 499.197187 
L 446.155909 499.197187 
L 446.155909 499.053499 
L 444.126818 499.053499 
z
" clip-path="url(#p1433339bfa)" style="fill: #1f77b4"/>
   </g>
   <g id="patch_157">
    <path d="M 446.155909 499.197187 
L 448.185 499.197187 
L 448.185 498.963693 
L 446.155909 498.963693 
z
" clip-path="url(#p1433339bfa)" style="fill: #1f77b4"/>
   </g>
   <g id="patch_158">
    <path d="M 448.185 499.197187 
L 450.214091 499.197187 
L 450.214091 498.891849 
L 448.185 498.891849 
z
" clip-path="url(#p1433339bfa)" style="fill: #1f77b4"/>
   </g>
   <g id="patch_159">
    <path d="M 450.214091 499.197187 
L 452.243182 499.197187 
L 452.243182 499.026557 
L 450.214091 499.026557 
z
" clip-path="url(#p1433339bfa)" style="fill: #1f77b4"/>
   </g>
   <g id="patch_160">
    <path d="M 452.243182 499.197187 
L 454.272273 499.197187 
L 454.272273 498.972674 
L 452.243182 498.972674 
z
" clip-path="url(#p1433339bfa)" style="fill: #1f77b4"/>
   </g>
   <g id="patch_161">
    <path d="M 454.272273 499.197187 
L 456.301364 499.197187 
L 456.301364 498.972674 
L 454.272273 498.972674 
z
" clip-path="url(#p1433339bfa)" style="fill: #1f77b4"/>
   </g>
   <g id="patch_162">
    <path d="M 456.301364 499.197187 
L 458.330455 499.197187 
L 458.330455 499.008596 
L 456.301364 499.008596 
z
" clip-path="url(#p1433339bfa)" style="fill: #1f77b4"/>
   </g>
   <g id="patch_163">
    <path d="M 458.330455 499.197187 
L 460.359545 499.197187 
L 460.359545 499.062479 
L 458.330455 499.062479 
z
" clip-path="url(#p1433339bfa)" style="fill: #1f77b4"/>
   </g>
   <g id="patch_164">
    <path d="M 460.359545 499.197187 
L 462.388636 499.197187 
L 462.388636 499.089421 
L 460.359545 499.089421 
z
" clip-path="url(#p1433339bfa)" style="fill: #1f77b4"/>
   </g>
   <g id="patch_165">
    <path d="M 462.388636 499.197187 
L 464.417727 499.197187 
L 464.417727 499.026557 
L 462.388636 499.026557 
z
" clip-path="url(#p1433339bfa)" style="fill: #1f77b4"/>
   </g>
   <g id="patch_166">
    <path d="M 464.417727 499.197187 
L 466.446818 499.197187 
L 466.446818 499.116363 
L 464.417727 499.116363 
z
" clip-path="url(#p1433339bfa)" style="fill: #1f77b4"/>
   </g>
   <g id="patch_167">
    <path d="M 466.446818 499.197187 
L 468.475909 499.197187 
L 468.475909 499.035538 
L 466.446818 499.035538 
z
" clip-path="url(#p1433339bfa)" style="fill: #1f77b4"/>
   </g>
   <g id="patch_168">
    <path d="M 468.475909 499.197187 
L 470.505 499.197187 
L 470.505 499.035538 
L 468.475909 499.035538 
z
" clip-path="url(#p1433339bfa)" style="fill: #1f77b4"/>
   </g>
   <g id="patch_169">
    <path d="M 470.505 499.197187 
L 472.534091 499.197187 
L 472.534091 499.062479 
L 470.505 499.062479 
z
" clip-path="url(#p1433339bfa)" style="fill: #1f77b4"/>
   </g>
   <g id="patch_170">
    <path d="M 472.534091 499.197187 
L 474.563182 499.197187 
L 474.563182 499.134324 
L 472.534091 499.134324 
z
" clip-path="url(#p1433339bfa)" style="fill: #1f77b4"/>
   </g>
   <g id="patch_171">
    <path d="M 474.563182 499.197187 
L 476.592273 499.197187 
L 476.592273 499.098401 
L 474.563182 499.098401 
z
" clip-path="url(#p1433339bfa)" style="fill: #1f77b4"/>
   </g>
   <g id="patch_172">
    <path d="M 476.592273 499.197187 
L 478.621364 499.197187 
L 478.621364 499.089421 
L 476.592273 499.089421 
z
" clip-path="url(#p1433339bfa)" style="fill: #1f77b4"/>
   </g>
   <g id="patch_173">
    <path d="M 478.621364 499.197187 
L 480.650455 499.197187 
L 480.650455 499.125343 
L 478.621364 499.125343 
z
" clip-path="url(#p1433339bfa)" style="fill: #1f77b4"/>
   </g>
   <g id="patch_174">
    <path d="M 480.650455 499.197187 
L 482.679545 499.197187 
L 482.679545 499.08044 
L 480.650455 499.08044 
z
" clip-path="url(#p1433339bfa)" style="fill: #1f77b4"/>
   </g>
   <g id="patch_175">
    <path d="M 482.679545 499.197187 
L 484.708636 499.197187 
L 484.708636 499.107382 
L 482.679545 499.107382 
z
" clip-path="url(#p1433339bfa)" style="fill: #1f77b4"/>
   </g>
   <g id="patch_176">
    <path d="M 484.708636 499.197187 
L 486.737727 499.197187 
L 486.737727 499.125343 
L 484.708636 499.125343 
z
" clip-path="url(#p1433339bfa)" style="fill: #1f77b4"/>
   </g>
   <g id="patch_177">
    <path d="M 486.737727 499.197187 
L 488.766818 499.197187 
L 488.766818 499.107382 
L 486.737727 499.107382 
z
" clip-path="url(#p1433339bfa)" style="fill: #1f77b4"/>
   </g>
   <g id="patch_178">
    <path d="M 488.766818 499.197187 
L 490.795909 499.197187 
L 490.795909 499.143304 
L 488.766818 499.143304 
z
" clip-path="url(#p1433339bfa)" style="fill: #1f77b4"/>
   </g>
   <g id="patch_179">
    <path d="M 490.795909 499.197187 
L 492.825 499.197187 
L 492.825 499.089421 
L 490.795909 499.089421 
z
" clip-path="url(#p1433339bfa)" style="fill: #1f77b4"/>
   </g>
   <g id="patch_180">
    <path d="M 492.825 499.197187 
L 494.854091 499.197187 
L 494.854091 499.134324 
L 492.825 499.134324 
z
" clip-path="url(#p1433339bfa)" style="fill: #1f77b4"/>
   </g>
   <g id="patch_181">
    <path d="M 494.854091 499.197187 
L 496.883182 499.197187 
L 496.883182 499.116363 
L 494.854091 499.116363 
z
" clip-path="url(#p1433339bfa)" style="fill: #1f77b4"/>
   </g>
   <g id="patch_182">
    <path d="M 496.883182 499.197187 
L 498.912273 499.197187 
L 498.912273 499.143304 
L 496.883182 499.143304 
z
" clip-path="url(#p1433339bfa)" style="fill: #1f77b4"/>
   </g>
   <g id="patch_183">
    <path d="M 498.912273 499.197187 
L 500.941364 499.197187 
L 500.941364 499.161265 
L 498.912273 499.161265 
z
" clip-path="url(#p1433339bfa)" style="fill: #1f77b4"/>
   </g>
   <g id="patch_184">
    <path d="M 500.941364 499.197187 
L 502.970455 499.197187 
L 502.970455 499.179226 
L 500.941364 499.179226 
z
" clip-path="url(#p1433339bfa)" style="fill: #1f77b4"/>
   </g>
   <g id="patch_185">
    <path d="M 502.970455 499.197187 
L 504.999545 499.197187 
L 504.999545 499.170246 
L 502.970455 499.170246 
z
" clip-path="url(#p1433339bfa)" style="fill: #1f77b4"/>
   </g>
   <g id="patch_186">
    <path d="M 504.999545 499.197187 
L 507.028636 499.197187 
L 507.028636 499.179226 
L 504.999545 499.179226 
z
" clip-path="url(#p1433339bfa)" style="fill: #1f77b4"/>
   </g>
   <g id="patch_187">
    <path d="M 507.028636 499.197187 
L 509.057727 499.197187 
L 509.057727 499.134324 
L 507.028636 499.134324 
z
" clip-path="url(#p1433339bfa)" style="fill: #1f77b4"/>
   </g>
   <g id="patch_188">
    <path d="M 509.057727 499.197187 
L 511.086818 499.197187 
L 511.086818 499.161265 
L 509.057727 499.161265 
z
" clip-path="url(#p1433339bfa)" style="fill: #1f77b4"/>
   </g>
   <g id="patch_189">
    <path d="M 511.086818 499.197187 
L 513.115909 499.197187 
L 513.115909 499.170246 
L 511.086818 499.170246 
z
" clip-path="url(#p1433339bfa)" style="fill: #1f77b4"/>
   </g>
   <g id="patch_190">
    <path d="M 513.115909 499.197187 
L 515.145 499.197187 
L 515.145 499.179226 
L 513.115909 499.179226 
z
" clip-path="url(#p1433339bfa)" style="fill: #1f77b4"/>
   </g>
   <g id="patch_191">
    <path d="M 515.145 499.197187 
L 517.174091 499.197187 
L 517.174091 499.188207 
L 515.145 499.188207 
z
" clip-path="url(#p1433339bfa)" style="fill: #1f77b4"/>
   </g>
   <g id="patch_192">
    <path d="M 517.174091 499.197187 
L 519.203182 499.197187 
L 519.203182 499.179226 
L 517.174091 499.179226 
z
" clip-path="url(#p1433339bfa)" style="fill: #1f77b4"/>
   </g>
   <g id="patch_193">
    <path d="M 519.203182 499.197187 
L 521.232273 499.197187 
L 521.232273 499.188207 
L 519.203182 499.188207 
z
" clip-path="url(#p1433339bfa)" style="fill: #1f77b4"/>
   </g>
   <g id="patch_194">
    <path d="M 521.232273 499.197187 
L 523.261364 499.197187 
L 523.261364 499.161265 
L 521.232273 499.161265 
z
" clip-path="url(#p1433339bfa)" style="fill: #1f77b4"/>
   </g>
   <g id="patch_195">
    <path d="M 523.261364 499.197187 
L 525.290455 499.197187 
L 525.290455 499.188207 
L 523.261364 499.188207 
z
" clip-path="url(#p1433339bfa)" style="fill: #1f77b4"/>
   </g>
   <g id="patch_196">
    <path d="M 525.290455 499.197187 
L 527.319545 499.197187 
L 527.319545 499.188207 
L 525.290455 499.188207 
z
" clip-path="url(#p1433339bfa)" style="fill: #1f77b4"/>
   </g>
   <g id="patch_197">
    <path d="M 527.319545 499.197187 
L 529.348636 499.197187 
L 529.348636 499.197187 
L 527.319545 499.197187 
z
" clip-path="url(#p1433339bfa)" style="fill: #1f77b4"/>
   </g>
   <g id="patch_198">
    <path d="M 529.348636 499.197187 
L 531.377727 499.197187 
L 531.377727 499.197187 
L 529.348636 499.197187 
z
" clip-path="url(#p1433339bfa)" style="fill: #1f77b4"/>
   </g>
   <g id="patch_199">
    <path d="M 531.377727 499.197187 
L 533.406818 499.197187 
L 533.406818 499.188207 
L 531.377727 499.188207 
z
" clip-path="url(#p1433339bfa)" style="fill: #1f77b4"/>
   </g>
   <g id="patch_200">
    <path d="M 533.406818 499.197187 
L 535.435909 499.197187 
L 535.435909 499.197187 
L 533.406818 499.197187 
z
" clip-path="url(#p1433339bfa)" style="fill: #1f77b4"/>
   </g>
   <g id="patch_201">
    <path d="M 535.435909 499.197187 
L 537.465 499.197187 
L 537.465 499.188207 
L 535.435909 499.188207 
z
" clip-path="url(#p1433339bfa)" style="fill: #1f77b4"/>
   </g>
   <g id="patch_202">
    <path d="M 537.465 499.197187 
L 539.494091 499.197187 
L 539.494091 499.179226 
L 537.465 499.179226 
z
" clip-path="url(#p1433339bfa)" style="fill: #1f77b4"/>
   </g>
   <g id="matplotlib.axis_1">
    <g id="xtick_1">
     <g id="line2d_1">
      <defs>
       <path id="m0e75571da1" d="M 0 0 
L 0 3.5 
" style="stroke: #000000; stroke-width: 0.8"/>
      </defs>
      <g>
       <use xlink:href="#m0e75571da1" x="159.276764" y="499.197187" style="stroke: #000000; stroke-width: 0.8"/>
      </g>
     </g>
     <g id="text_1">
      <!-- −3 -->
      <g transform="translate(147.483014 518.354687) scale(0.16 -0.16)">
       <defs>
        <path id="DejaVuSans-2212" d="M 678 2272 
L 4684 2272 
L 4684 1741 
L 678 1741 
L 678 2272 
z
" transform="scale(0.015625)"/>
        <path id="DejaVuSans-33" d="M 2597 2516 
Q 3050 2419 3304 2112 
Q 3559 1806 3559 1356 
Q 3559 666 3084 287 
Q 2609 -91 1734 -91 
Q 1441 -91 1130 -33 
Q 819 25 488 141 
L 488 750 
Q 750 597 1062 519 
Q 1375 441 1716 441 
Q 2309 441 2620 675 
Q 2931 909 2931 1356 
Q 2931 1769 2642 2001 
Q 2353 2234 1838 2234 
L 1294 2234 
L 1294 2753 
L 1863 2753 
Q 2328 2753 2575 2939 
Q 2822 3125 2822 3475 
Q 2822 3834 2567 4026 
Q 2313 4219 1838 4219 
Q 1578 4219 1281 4162 
Q 984 4106 628 3988 
L 628 4550 
Q 988 4650 1302 4700 
Q 1616 4750 1894 4750 
Q 2613 4750 3031 4423 
Q 3450 4097 3450 3541 
Q 3450 3153 3228 2886 
Q 3006 2619 2597 2516 
z
" transform="scale(0.015625)"/>
       </defs>
       <use xlink:href="#DejaVuSans-2212"/>
       <use xlink:href="#DejaVuSans-33" x="83.789062"/>
      </g>
     </g>
    </g>
    <g id="xtick_2">
     <g id="line2d_2">
      <g>
       <use xlink:href="#m0e75571da1" x="209.482764" y="499.197187" style="stroke: #000000; stroke-width: 0.8"/>
      </g>
     </g>
     <g id="text_2">
      <!-- −2 -->
      <g transform="translate(197.689014 518.354687) scale(0.16 -0.16)">
       <defs>
        <path id="DejaVuSans-32" d="M 1228 531 
L 3431 531 
L 3431 0 
L 469 0 
L 469 531 
Q 828 903 1448 1529 
Q 2069 2156 2228 2338 
Q 2531 2678 2651 2914 
Q 2772 3150 2772 3378 
Q 2772 3750 2511 3984 
Q 2250 4219 1831 4219 
Q 1534 4219 1204 4116 
Q 875 4013 500 3803 
L 500 4441 
Q 881 4594 1212 4672 
Q 1544 4750 1819 4750 
Q 2544 4750 2975 4387 
Q 3406 4025 3406 3419 
Q 3406 3131 3298 2873 
Q 3191 2616 2906 2266 
Q 2828 2175 2409 1742 
Q 1991 1309 1228 531 
z
" transform="scale(0.015625)"/>
       </defs>
       <use xlink:href="#DejaVuSans-2212"/>
       <use xlink:href="#DejaVuSans-32" x="83.789062"/>
      </g>
     </g>
    </g>
    <g id="xtick_3">
     <g id="line2d_3">
      <g>
       <use xlink:href="#m0e75571da1" x="259.688764" y="499.197187" style="stroke: #000000; stroke-width: 0.8"/>
      </g>
     </g>
     <g id="text_3">
      <!-- −1 -->
      <g transform="translate(247.895014 518.354687) scale(0.16 -0.16)">
       <defs>
        <path id="DejaVuSans-31" d="M 794 531 
L 1825 531 
L 1825 4091 
L 703 3866 
L 703 4441 
L 1819 4666 
L 2450 4666 
L 2450 531 
L 3481 531 
L 3481 0 
L 794 0 
L 794 531 
z
" transform="scale(0.015625)"/>
       </defs>
       <use xlink:href="#DejaVuSans-2212"/>
       <use xlink:href="#DejaVuSans-31" x="83.789062"/>
      </g>
     </g>
    </g>
    <g id="xtick_4">
     <g id="line2d_4">
      <g>
       <use xlink:href="#m0e75571da1" x="309.894764" y="499.197187" style="stroke: #000000; stroke-width: 0.8"/>
      </g>
     </g>
     <g id="text_4">
      <!-- 0 -->
      <g transform="translate(304.804764 518.354687) scale(0.16 -0.16)">
       <defs>
        <path id="DejaVuSans-30" d="M 2034 4250 
Q 1547 4250 1301 3770 
Q 1056 3291 1056 2328 
Q 1056 1369 1301 889 
Q 1547 409 2034 409 
Q 2525 409 2770 889 
Q 3016 1369 3016 2328 
Q 3016 3291 2770 3770 
Q 2525 4250 2034 4250 
z
M 2034 4750 
Q 2819 4750 3233 4129 
Q 3647 3509 3647 2328 
Q 3647 1150 3233 529 
Q 2819 -91 2034 -91 
Q 1250 -91 836 529 
Q 422 1150 422 2328 
Q 422 3509 836 4129 
Q 1250 4750 2034 4750 
z
" transform="scale(0.015625)"/>
       </defs>
       <use xlink:href="#DejaVuSans-30"/>
      </g>
     </g>
    </g>
    <g id="xtick_5">
     <g id="line2d_5">
      <g>
       <use xlink:href="#m0e75571da1" x="360.100764" y="499.197187" style="stroke: #000000; stroke-width: 0.8"/>
      </g>
     </g>
     <g id="text_5">
      <!-- 1 -->
      <g transform="translate(355.010764 518.354687) scale(0.16 -0.16)">
       <use xlink:href="#DejaVuSans-31"/>
      </g>
     </g>
    </g>
    <g id="xtick_6">
     <g id="line2d_6">
      <g>
       <use xlink:href="#m0e75571da1" x="410.306764" y="499.197187" style="stroke: #000000; stroke-width: 0.8"/>
      </g>
     </g>
     <g id="text_6">
      <!-- 2 -->
      <g transform="translate(405.216764 518.354687) scale(0.16 -0.16)">
       <use xlink:href="#DejaVuSans-32"/>
      </g>
     </g>
    </g>
    <g id="xtick_7">
     <g id="line2d_7">
      <g>
       <use xlink:href="#m0e75571da1" x="460.512764" y="499.197187" style="stroke: #000000; stroke-width: 0.8"/>
      </g>
     </g>
     <g id="text_7">
      <!-- 3 -->
      <g transform="translate(455.422764 518.354687) scale(0.16 -0.16)">
       <use xlink:href="#DejaVuSans-33"/>
      </g>
     </g>
    </g>
    <g id="xtick_8">
     <g id="line2d_8">
      <g>
       <use xlink:href="#m0e75571da1" x="510.718764" y="499.197187" style="stroke: #000000; stroke-width: 0.8"/>
      </g>
     </g>
     <g id="text_8">
      <!-- 4 -->
      <g transform="translate(505.628764 518.354687) scale(0.16 -0.16)">
       <defs>
        <path id="DejaVuSans-34" d="M 2419 4116 
L 825 1625 
L 2419 1625 
L 2419 4116 
z
M 2253 4666 
L 3047 4666 
L 3047 1625 
L 3713 1625 
L 3713 1100 
L 3047 1100 
L 3047 0 
L 2419 0 
L 2419 1100 
L 313 1100 
L 313 1709 
L 2253 4666 
z
" transform="scale(0.015625)"/>
       </defs>
       <use xlink:href="#DejaVuSans-34"/>
      </g>
     </g>
    </g>
    <g id="text_9">
     <!-- pixel height -->
     <g transform="translate(289.61125 537.839687) scale(0.16 -0.16)">
      <defs>
       <path id="DejaVuSans-70" d="M 1159 525 
L 1159 -1331 
L 581 -1331 
L 581 3500 
L 1159 3500 
L 1159 2969 
Q 1341 3281 1617 3432 
Q 1894 3584 2278 3584 
Q 2916 3584 3314 3078 
Q 3713 2572 3713 1747 
Q 3713 922 3314 415 
Q 2916 -91 2278 -91 
Q 1894 -91 1617 61 
Q 1341 213 1159 525 
z
M 3116 1747 
Q 3116 2381 2855 2742 
Q 2594 3103 2138 3103 
Q 1681 3103 1420 2742 
Q 1159 2381 1159 1747 
Q 1159 1113 1420 752 
Q 1681 391 2138 391 
Q 2594 391 2855 752 
Q 3116 1113 3116 1747 
z
" transform="scale(0.015625)"/>
       <path id="DejaVuSans-69" d="M 603 3500 
L 1178 3500 
L 1178 0 
L 603 0 
L 603 3500 
z
M 603 4863 
L 1178 4863 
L 1178 4134 
L 603 4134 
L 603 4863 
z
" transform="scale(0.015625)"/>
       <path id="DejaVuSans-78" d="M 3513 3500 
L 2247 1797 
L 3578 0 
L 2900 0 
L 1881 1375 
L 863 0 
L 184 0 
L 1544 1831 
L 300 3500 
L 978 3500 
L 1906 2253 
L 2834 3500 
L 3513 3500 
z
" transform="scale(0.015625)"/>
       <path id="DejaVuSans-65" d="M 3597 1894 
L 3597 1613 
L 953 1613 
Q 991 1019 1311 708 
Q 1631 397 2203 397 
Q 2534 397 2845 478 
Q 3156 559 3463 722 
L 3463 178 
Q 3153 47 2828 -22 
Q 2503 -91 2169 -91 
Q 1331 -91 842 396 
Q 353 884 353 1716 
Q 353 2575 817 3079 
Q 1281 3584 2069 3584 
Q 2775 3584 3186 3129 
Q 3597 2675 3597 1894 
z
M 3022 2063 
Q 3016 2534 2758 2815 
Q 2500 3097 2075 3097 
Q 1594 3097 1305 2825 
Q 1016 2553 972 2059 
L 3022 2063 
z
" transform="scale(0.015625)"/>
       <path id="DejaVuSans-6c" d="M 603 4863 
L 1178 4863 
L 1178 0 
L 603 0 
L 603 4863 
z
" transform="scale(0.015625)"/>
       <path id="DejaVuSans-20" transform="scale(0.015625)"/>
       <path id="DejaVuSans-68" d="M 3513 2113 
L 3513 0 
L 2938 0 
L 2938 2094 
Q 2938 2591 2744 2837 
Q 2550 3084 2163 3084 
Q 1697 3084 1428 2787 
Q 1159 2491 1159 1978 
L 1159 0 
L 581 0 
L 581 4863 
L 1159 4863 
L 1159 2956 
Q 1366 3272 1645 3428 
Q 1925 3584 2291 3584 
Q 2894 3584 3203 3211 
Q 3513 2838 3513 2113 
z
" transform="scale(0.015625)"/>
       <path id="DejaVuSans-67" d="M 2906 1791 
Q 2906 2416 2648 2759 
Q 2391 3103 1925 3103 
Q 1463 3103 1205 2759 
Q 947 2416 947 1791 
Q 947 1169 1205 825 
Q 1463 481 1925 481 
Q 2391 481 2648 825 
Q 2906 1169 2906 1791 
z
M 3481 434 
Q 3481 -459 3084 -895 
Q 2688 -1331 1869 -1331 
Q 1566 -1331 1297 -1286 
Q 1028 -1241 775 -1147 
L 775 -588 
Q 1028 -725 1275 -790 
Q 1522 -856 1778 -856 
Q 2344 -856 2625 -561 
Q 2906 -266 2906 331 
L 2906 616 
Q 2728 306 2450 153 
Q 2172 0 1784 0 
Q 1141 0 747 490 
Q 353 981 353 1791 
Q 353 2603 747 3093 
Q 1141 3584 1784 3584 
Q 2172 3584 2450 3431 
Q 2728 3278 2906 2969 
L 2906 3500 
L 3481 3500 
L 3481 434 
z
" transform="scale(0.015625)"/>
       <path id="DejaVuSans-74" d="M 1172 4494 
L 1172 3500 
L 2356 3500 
L 2356 3053 
L 1172 3053 
L 1172 1153 
Q 1172 725 1289 603 
Q 1406 481 1766 481 
L 2356 481 
L 2356 0 
L 1766 0 
Q 1100 0 847 248 
Q 594 497 594 1153 
L 594 3053 
L 172 3053 
L 172 3500 
L 594 3500 
L 594 4494 
L 1172 4494 
z
" transform="scale(0.015625)"/>
      </defs>
      <use xlink:href="#DejaVuSans-70"/>
      <use xlink:href="#DejaVuSans-69" x="63.476562"/>
      <use xlink:href="#DejaVuSans-78" x="91.259766"/>
      <use xlink:href="#DejaVuSans-65" x="147.314453"/>
      <use xlink:href="#DejaVuSans-6c" x="208.837891"/>
      <use xlink:href="#DejaVuSans-20" x="236.621094"/>
      <use xlink:href="#DejaVuSans-68" x="268.408203"/>
      <use xlink:href="#DejaVuSans-65" x="331.787109"/>
      <use xlink:href="#DejaVuSans-69" x="393.310547"/>
      <use xlink:href="#DejaVuSans-67" x="421.09375"/>
      <use xlink:href="#DejaVuSans-68" x="484.570312"/>
      <use xlink:href="#DejaVuSans-74" x="547.949219"/>
     </g>
    </g>
   </g>
   <g id="matplotlib.axis_2">
    <g id="ytick_1">
     <g id="line2d_9">
      <defs>
       <path id="m5ba39edab1" d="M 0 0 
L -3.5 0 
" style="stroke: #000000; stroke-width: 0.8"/>
      </defs>
      <g>
       <use xlink:href="#m5ba39edab1" x="113.385" y="499.197187" style="stroke: #000000; stroke-width: 0.8"/>
      </g>
     </g>
     <g id="text_10">
      <!-- 0 -->
      <g transform="translate(96.205 505.275937) scale(0.16 -0.16)">
       <use xlink:href="#DejaVuSans-30"/>
      </g>
     </g>
    </g>
    <g id="ytick_2">
     <g id="line2d_10">
      <g>
       <use xlink:href="#m5ba39edab1" x="113.385" y="409.391723" style="stroke: #000000; stroke-width: 0.8"/>
      </g>
     </g>
     <g id="text_11">
      <!-- 10000 -->
      <g transform="translate(55.485 415.470473) scale(0.16 -0.16)">
       <use xlink:href="#DejaVuSans-31"/>
       <use xlink:href="#DejaVuSans-30" x="63.623047"/>
       <use xlink:href="#DejaVuSans-30" x="127.246094"/>
       <use xlink:href="#DejaVuSans-30" x="190.869141"/>
       <use xlink:href="#DejaVuSans-30" x="254.492188"/>
      </g>
     </g>
    </g>
    <g id="ytick_3">
     <g id="line2d_11">
      <g>
       <use xlink:href="#m5ba39edab1" x="113.385" y="319.586259" style="stroke: #000000; stroke-width: 0.8"/>
      </g>
     </g>
     <g id="text_12">
      <!-- 20000 -->
      <g transform="translate(55.485 325.665009) scale(0.16 -0.16)">
       <use xlink:href="#DejaVuSans-32"/>
       <use xlink:href="#DejaVuSans-30" x="63.623047"/>
       <use xlink:href="#DejaVuSans-30" x="127.246094"/>
       <use xlink:href="#DejaVuSans-30" x="190.869141"/>
       <use xlink:href="#DejaVuSans-30" x="254.492188"/>
      </g>
     </g>
    </g>
    <g id="ytick_4">
     <g id="line2d_12">
      <g>
       <use xlink:href="#m5ba39edab1" x="113.385" y="229.780795" style="stroke: #000000; stroke-width: 0.8"/>
      </g>
     </g>
     <g id="text_13">
      <!-- 30000 -->
      <g transform="translate(55.485 235.859545) scale(0.16 -0.16)">
       <use xlink:href="#DejaVuSans-33"/>
       <use xlink:href="#DejaVuSans-30" x="63.623047"/>
       <use xlink:href="#DejaVuSans-30" x="127.246094"/>
       <use xlink:href="#DejaVuSans-30" x="190.869141"/>
       <use xlink:href="#DejaVuSans-30" x="254.492188"/>
      </g>
     </g>
    </g>
    <g id="ytick_5">
     <g id="line2d_13">
      <g>
       <use xlink:href="#m5ba39edab1" x="113.385" y="139.975331" style="stroke: #000000; stroke-width: 0.8"/>
      </g>
     </g>
     <g id="text_14">
      <!-- 40000 -->
      <g transform="translate(55.485 146.054081) scale(0.16 -0.16)">
       <use xlink:href="#DejaVuSans-34"/>
       <use xlink:href="#DejaVuSans-30" x="63.623047"/>
       <use xlink:href="#DejaVuSans-30" x="127.246094"/>
       <use xlink:href="#DejaVuSans-30" x="190.869141"/>
       <use xlink:href="#DejaVuSans-30" x="254.492188"/>
      </g>
     </g>
    </g>
    <g id="text_15">
     <!-- frequency in image -->
     <g transform="translate(48.1575 354.855937) rotate(-90) scale(0.16 -0.16)">
      <defs>
       <path id="DejaVuSans-66" d="M 2375 4863 
L 2375 4384 
L 1825 4384 
Q 1516 4384 1395 4259 
Q 1275 4134 1275 3809 
L 1275 3500 
L 2222 3500 
L 2222 3053 
L 1275 3053 
L 1275 0 
L 697 0 
L 697 3053 
L 147 3053 
L 147 3500 
L 697 3500 
L 697 3744 
Q 697 4328 969 4595 
Q 1241 4863 1831 4863 
L 2375 4863 
z
" transform="scale(0.015625)"/>
       <path id="DejaVuSans-72" d="M 2631 2963 
Q 2534 3019 2420 3045 
Q 2306 3072 2169 3072 
Q 1681 3072 1420 2755 
Q 1159 2438 1159 1844 
L 1159 0 
L 581 0 
L 581 3500 
L 1159 3500 
L 1159 2956 
Q 1341 3275 1631 3429 
Q 1922 3584 2338 3584 
Q 2397 3584 2469 3576 
Q 2541 3569 2628 3553 
L 2631 2963 
z
" transform="scale(0.015625)"/>
       <path id="DejaVuSans-71" d="M 947 1747 
Q 947 1113 1208 752 
Q 1469 391 1925 391 
Q 2381 391 2643 752 
Q 2906 1113 2906 1747 
Q 2906 2381 2643 2742 
Q 2381 3103 1925 3103 
Q 1469 3103 1208 2742 
Q 947 2381 947 1747 
z
M 2906 525 
Q 2725 213 2448 61 
Q 2172 -91 1784 -91 
Q 1150 -91 751 415 
Q 353 922 353 1747 
Q 353 2572 751 3078 
Q 1150 3584 1784 3584 
Q 2172 3584 2448 3432 
Q 2725 3281 2906 2969 
L 2906 3500 
L 3481 3500 
L 3481 -1331 
L 2906 -1331 
L 2906 525 
z
" transform="scale(0.015625)"/>
       <path id="DejaVuSans-75" d="M 544 1381 
L 544 3500 
L 1119 3500 
L 1119 1403 
Q 1119 906 1312 657 
Q 1506 409 1894 409 
Q 2359 409 2629 706 
Q 2900 1003 2900 1516 
L 2900 3500 
L 3475 3500 
L 3475 0 
L 2900 0 
L 2900 538 
Q 2691 219 2414 64 
Q 2138 -91 1772 -91 
Q 1169 -91 856 284 
Q 544 659 544 1381 
z
M 1991 3584 
L 1991 3584 
z
" transform="scale(0.015625)"/>
       <path id="DejaVuSans-6e" d="M 3513 2113 
L 3513 0 
L 2938 0 
L 2938 2094 
Q 2938 2591 2744 2837 
Q 2550 3084 2163 3084 
Q 1697 3084 1428 2787 
Q 1159 2491 1159 1978 
L 1159 0 
L 581 0 
L 581 3500 
L 1159 3500 
L 1159 2956 
Q 1366 3272 1645 3428 
Q 1925 3584 2291 3584 
Q 2894 3584 3203 3211 
Q 3513 2838 3513 2113 
z
" transform="scale(0.015625)"/>
       <path id="DejaVuSans-63" d="M 3122 3366 
L 3122 2828 
Q 2878 2963 2633 3030 
Q 2388 3097 2138 3097 
Q 1578 3097 1268 2742 
Q 959 2388 959 1747 
Q 959 1106 1268 751 
Q 1578 397 2138 397 
Q 2388 397 2633 464 
Q 2878 531 3122 666 
L 3122 134 
Q 2881 22 2623 -34 
Q 2366 -91 2075 -91 
Q 1284 -91 818 406 
Q 353 903 353 1747 
Q 353 2603 823 3093 
Q 1294 3584 2113 3584 
Q 2378 3584 2631 3529 
Q 2884 3475 3122 3366 
z
" transform="scale(0.015625)"/>
       <path id="DejaVuSans-79" d="M 2059 -325 
Q 1816 -950 1584 -1140 
Q 1353 -1331 966 -1331 
L 506 -1331 
L 506 -850 
L 844 -850 
Q 1081 -850 1212 -737 
Q 1344 -625 1503 -206 
L 1606 56 
L 191 3500 
L 800 3500 
L 1894 763 
L 2988 3500 
L 3597 3500 
L 2059 -325 
z
" transform="scale(0.015625)"/>
       <path id="DejaVuSans-6d" d="M 3328 2828 
Q 3544 3216 3844 3400 
Q 4144 3584 4550 3584 
Q 5097 3584 5394 3201 
Q 5691 2819 5691 2113 
L 5691 0 
L 5113 0 
L 5113 2094 
Q 5113 2597 4934 2840 
Q 4756 3084 4391 3084 
Q 3944 3084 3684 2787 
Q 3425 2491 3425 1978 
L 3425 0 
L 2847 0 
L 2847 2094 
Q 2847 2600 2669 2842 
Q 2491 3084 2119 3084 
Q 1678 3084 1418 2786 
Q 1159 2488 1159 1978 
L 1159 0 
L 581 0 
L 581 3500 
L 1159 3500 
L 1159 2956 
Q 1356 3278 1631 3431 
Q 1906 3584 2284 3584 
Q 2666 3584 2933 3390 
Q 3200 3197 3328 2828 
z
" transform="scale(0.015625)"/>
       <path id="DejaVuSans-61" d="M 2194 1759 
Q 1497 1759 1228 1600 
Q 959 1441 959 1056 
Q 959 750 1161 570 
Q 1363 391 1709 391 
Q 2188 391 2477 730 
Q 2766 1069 2766 1631 
L 2766 1759 
L 2194 1759 
z
M 3341 1997 
L 3341 0 
L 2766 0 
L 2766 531 
Q 2569 213 2275 61 
Q 1981 -91 1556 -91 
Q 1019 -91 701 211 
Q 384 513 384 1019 
Q 384 1609 779 1909 
Q 1175 2209 1959 2209 
L 2766 2209 
L 2766 2266 
Q 2766 2663 2505 2880 
Q 2244 3097 1772 3097 
Q 1472 3097 1187 3025 
Q 903 2953 641 2809 
L 641 3341 
Q 956 3463 1253 3523 
Q 1550 3584 1831 3584 
Q 2591 3584 2966 3190 
Q 3341 2797 3341 1997 
z
" transform="scale(0.015625)"/>
      </defs>
      <use xlink:href="#DejaVuSans-66"/>
      <use xlink:href="#DejaVuSans-72" x="35.205078"/>
      <use xlink:href="#DejaVuSans-65" x="74.068359"/>
      <use xlink:href="#DejaVuSans-71" x="135.591797"/>
      <use xlink:href="#DejaVuSans-75" x="199.068359"/>
      <use xlink:href="#DejaVuSans-65" x="262.447266"/>
      <use xlink:href="#DejaVuSans-6e" x="323.970703"/>
      <use xlink:href="#DejaVuSans-63" x="387.349609"/>
      <use xlink:href="#DejaVuSans-79" x="442.330078"/>
      <use xlink:href="#DejaVuSans-20" x="501.509766"/>
      <use xlink:href="#DejaVuSans-69" x="533.296875"/>
      <use xlink:href="#DejaVuSans-6e" x="561.080078"/>
      <use xlink:href="#DejaVuSans-20" x="624.458984"/>
      <use xlink:href="#DejaVuSans-69" x="656.246094"/>
      <use xlink:href="#DejaVuSans-6d" x="684.029297"/>
      <use xlink:href="#DejaVuSans-61" x="781.441406"/>
      <use xlink:href="#DejaVuSans-67" x="842.720703"/>
      <use xlink:href="#DejaVuSans-65" x="906.197266"/>
     </g>
    </g>
   </g>
   <g id="patch_203">
    <path d="M 113.385 499.197187 
L 113.385 55.677187 
" style="fill: none; stroke: #000000; stroke-width: 0.8; stroke-linejoin: miter; stroke-linecap: square"/>
   </g>
   <g id="patch_204">
    <path d="M 559.785 499.197187 
L 559.785 55.677187 
" style="fill: none; stroke: #000000; stroke-width: 0.8; stroke-linejoin: miter; stroke-linecap: square"/>
   </g>
   <g id="patch_205">
    <path d="M 113.385 499.197187 
L 559.785 499.197187 
" style="fill: none; stroke: #000000; stroke-width: 0.8; stroke-linejoin: miter; stroke-linecap: square"/>
   </g>
   <g id="patch_206">
    <path d="M 113.385 55.677187 
L 559.785 55.677187 
" style="fill: none; stroke: #000000; stroke-width: 0.8; stroke-linejoin: miter; stroke-linecap: square"/>
   </g>
   <g id="text_16">
    <!-- Initial Tilt Removal (Unmasked) -->
    <g transform="translate(195.933281 49.677187) scale(0.18 -0.18)">
     <defs>
      <path id="DejaVuSans-49" d="M 628 4666 
L 1259 4666 
L 1259 0 
L 628 0 
L 628 4666 
z
" transform="scale(0.015625)"/>
      <path id="DejaVuSans-54" d="M -19 4666 
L 3928 4666 
L 3928 4134 
L 2272 4134 
L 2272 0 
L 1638 0 
L 1638 4134 
L -19 4134 
L -19 4666 
z
" transform="scale(0.015625)"/>
      <path id="DejaVuSans-52" d="M 2841 2188 
Q 3044 2119 3236 1894 
Q 3428 1669 3622 1275 
L 4263 0 
L 3584 0 
L 2988 1197 
Q 2756 1666 2539 1819 
Q 2322 1972 1947 1972 
L 1259 1972 
L 1259 0 
L 628 0 
L 628 4666 
L 2053 4666 
Q 2853 4666 3247 4331 
Q 3641 3997 3641 3322 
Q 3641 2881 3436 2590 
Q 3231 2300 2841 2188 
z
M 1259 4147 
L 1259 2491 
L 2053 2491 
Q 2509 2491 2742 2702 
Q 2975 2913 2975 3322 
Q 2975 3731 2742 3939 
Q 2509 4147 2053 4147 
L 1259 4147 
z
" transform="scale(0.015625)"/>
      <path id="DejaVuSans-6f" d="M 1959 3097 
Q 1497 3097 1228 2736 
Q 959 2375 959 1747 
Q 959 1119 1226 758 
Q 1494 397 1959 397 
Q 2419 397 2687 759 
Q 2956 1122 2956 1747 
Q 2956 2369 2687 2733 
Q 2419 3097 1959 3097 
z
M 1959 3584 
Q 2709 3584 3137 3096 
Q 3566 2609 3566 1747 
Q 3566 888 3137 398 
Q 2709 -91 1959 -91 
Q 1206 -91 779 398 
Q 353 888 353 1747 
Q 353 2609 779 3096 
Q 1206 3584 1959 3584 
z
" transform="scale(0.015625)"/>
      <path id="DejaVuSans-76" d="M 191 3500 
L 800 3500 
L 1894 563 
L 2988 3500 
L 3597 3500 
L 2284 0 
L 1503 0 
L 191 3500 
z
" transform="scale(0.015625)"/>
      <path id="DejaVuSans-28" d="M 1984 4856 
Q 1566 4138 1362 3434 
Q 1159 2731 1159 2009 
Q 1159 1288 1364 580 
Q 1569 -128 1984 -844 
L 1484 -844 
Q 1016 -109 783 600 
Q 550 1309 550 2009 
Q 550 2706 781 3412 
Q 1013 4119 1484 4856 
L 1984 4856 
z
" transform="scale(0.015625)"/>
      <path id="DejaVuSans-55" d="M 556 4666 
L 1191 4666 
L 1191 1831 
Q 1191 1081 1462 751 
Q 1734 422 2344 422 
Q 2950 422 3222 751 
Q 3494 1081 3494 1831 
L 3494 4666 
L 4128 4666 
L 4128 1753 
Q 4128 841 3676 375 
Q 3225 -91 2344 -91 
Q 1459 -91 1007 375 
Q 556 841 556 1753 
L 556 4666 
z
" transform="scale(0.015625)"/>
      <path id="DejaVuSans-73" d="M 2834 3397 
L 2834 2853 
Q 2591 2978 2328 3040 
Q 2066 3103 1784 3103 
Q 1356 3103 1142 2972 
Q 928 2841 928 2578 
Q 928 2378 1081 2264 
Q 1234 2150 1697 2047 
L 1894 2003 
Q 2506 1872 2764 1633 
Q 3022 1394 3022 966 
Q 3022 478 2636 193 
Q 2250 -91 1575 -91 
Q 1294 -91 989 -36 
Q 684 19 347 128 
L 347 722 
Q 666 556 975 473 
Q 1284 391 1588 391 
Q 1994 391 2212 530 
Q 2431 669 2431 922 
Q 2431 1156 2273 1281 
Q 2116 1406 1581 1522 
L 1381 1569 
Q 847 1681 609 1914 
Q 372 2147 372 2553 
Q 372 3047 722 3315 
Q 1072 3584 1716 3584 
Q 2034 3584 2315 3537 
Q 2597 3491 2834 3397 
z
" transform="scale(0.015625)"/>
      <path id="DejaVuSans-6b" d="M 581 4863 
L 1159 4863 
L 1159 1991 
L 2875 3500 
L 3609 3500 
L 1753 1863 
L 3688 0 
L 2938 0 
L 1159 1709 
L 1159 0 
L 581 0 
L 581 4863 
z
" transform="scale(0.015625)"/>
      <path id="DejaVuSans-64" d="M 2906 2969 
L 2906 4863 
L 3481 4863 
L 3481 0 
L 2906 0 
L 2906 525 
Q 2725 213 2448 61 
Q 2172 -91 1784 -91 
Q 1150 -91 751 415 
Q 353 922 353 1747 
Q 353 2572 751 3078 
Q 1150 3584 1784 3584 
Q 2172 3584 2448 3432 
Q 2725 3281 2906 2969 
z
M 947 1747 
Q 947 1113 1208 752 
Q 1469 391 1925 391 
Q 2381 391 2643 752 
Q 2906 1113 2906 1747 
Q 2906 2381 2643 2742 
Q 2381 3103 1925 3103 
Q 1469 3103 1208 2742 
Q 947 2381 947 1747 
z
" transform="scale(0.015625)"/>
      <path id="DejaVuSans-29" d="M 513 4856 
L 1013 4856 
Q 1481 4119 1714 3412 
Q 1947 2706 1947 2009 
Q 1947 1309 1714 600 
Q 1481 -109 1013 -844 
L 513 -844 
Q 928 -128 1133 580 
Q 1338 1288 1338 2009 
Q 1338 2731 1133 3434 
Q 928 4138 513 4856 
z
" transform="scale(0.015625)"/>
     </defs>
     <use xlink:href="#DejaVuSans-49"/>
     <use xlink:href="#DejaVuSans-6e" x="29.492188"/>
     <use xlink:href="#DejaVuSans-69" x="92.871094"/>
     <use xlink:href="#DejaVuSans-74" x="120.654297"/>
     <use xlink:href="#DejaVuSans-69" x="159.863281"/>
     <use xlink:href="#DejaVuSans-61" x="187.646484"/>
     <use xlink:href="#DejaVuSans-6c" x="248.925781"/>
     <use xlink:href="#DejaVuSans-20" x="276.708984"/>
     <use xlink:href="#DejaVuSans-54" x="308.496094"/>
     <use xlink:href="#DejaVuSans-69" x="366.455078"/>
     <use xlink:href="#DejaVuSans-6c" x="394.238281"/>
     <use xlink:href="#DejaVuSans-74" x="422.021484"/>
     <use xlink:href="#DejaVuSans-20" x="461.230469"/>
     <use xlink:href="#DejaVuSans-52" x="493.017578"/>
     <use xlink:href="#DejaVuSans-65" x="558"/>
     <use xlink:href="#DejaVuSans-6d" x="619.523438"/>
     <use xlink:href="#DejaVuSans-6f" x="716.935547"/>
     <use xlink:href="#DejaVuSans-76" x="778.117188"/>
     <use xlink:href="#DejaVuSans-61" x="837.296875"/>
     <use xlink:href="#DejaVuSans-6c" x="898.576172"/>
     <use xlink:href="#DejaVuSans-20" x="926.359375"/>
     <use xlink:href="#DejaVuSans-28" x="958.146484"/>
     <use xlink:href="#DejaVuSans-55" x="997.160156"/>
     <use xlink:href="#DejaVuSans-6e" x="1070.353516"/>
     <use xlink:href="#DejaVuSans-6d" x="1133.732422"/>
     <use xlink:href="#DejaVuSans-61" x="1231.144531"/>
     <use xlink:href="#DejaVuSans-73" x="1292.423828"/>
     <use xlink:href="#DejaVuSans-6b" x="1344.523438"/>
     <use xlink:href="#DejaVuSans-65" x="1398.808594"/>
     <use xlink:href="#DejaVuSans-64" x="1460.332031"/>
     <use xlink:href="#DejaVuSans-29" x="1523.808594"/>
    </g>
   </g>
  </g>
 </g>
 <defs>
  <clipPath id="p1433339bfa">
   <rect x="113.385" y="55.677187" width="446.4" height="443.52"/>
  </clipPath>
 </defs>
</svg>
