<?xml version="1.0" encoding="utf-8" standalone="no"?>
<!DOCTYPE svg PUBLIC "-//W3C//DTD SVG 1.1//EN"
  "http://www.w3.org/Graphics/SVG/1.1/DTD/svg11.dtd">
<svg xmlns:xlink="http://www.w3.org/1999/xlink" width="595.785pt" height="577.167187pt" viewBox="0 0 595.785 577.167187" xmlns="http://www.w3.org/2000/svg" version="1.1">
 <metadata>
  <rdf:RDF xmlns:dc="http://purl.org/dc/elements/1.1/" xmlns:cc="http://creativecommons.org/ns#" xmlns:rdf="http://www.w3.org/1999/02/22-rdf-syntax-ns#">
   <cc:Work>
    <dc:type rdf:resource="http://purl.org/dc/dcmitype/StillImage"/>
    <dc:date>2024-03-26T11:20:18.153527</dc:date>
    <dc:format>image/svg+xml</dc:format>
    <dc:creator>
     <cc:Agent>
      <dc:title>Matplotlib v3.8.3, https://matplotlib.org/</dc:title>
     </cc:Agent>
    </dc:creator>
   </cc:Work>
  </rdf:RDF>
 </metadata>
 <defs>
  <style type="text/css">*{stroke-linejoin: round; stroke-linecap: butt}</style>
 </defs>
 <g id="figure_1">
  <g id="patch_1">
   <path d="M 0 577.167187 
L 595.785 577.167187 
L 595.785 0 
L 0 0 
z
" style="fill: #ffffff"/>
  </g>
  <g id="axes_1">
   <g id="patch_2">
    <path d="M 113.385 499.197187 
L 559.785 499.197187 
L 559.785 55.677187 
L 113.385 55.677187 
z
" style="fill: #ffffff"/>
   </g>
   <g id="patch_3">
    <path d="M 133.675909 499.197187 
L 135.705 499.197187 
L 135.705 499.1893 
L 133.675909 499.1893 
z
" clip-path="url(#p66cb2b04d8)" style="fill: #1f77b4"/>
   </g>
   <g id="patch_4">
    <path d="M 135.705 499.197187 
L 137.734091 499.197187 
L 137.734091 499.181412 
L 135.705 499.181412 
z
" clip-path="url(#p66cb2b04d8)" style="fill: #1f77b4"/>
   </g>
   <g id="patch_5">
    <path d="M 137.734091 499.197187 
L 139.763182 499.197187 
L 139.763182 499.1893 
L 137.734091 499.1893 
z
" clip-path="url(#p66cb2b04d8)" style="fill: #1f77b4"/>
   </g>
   <g id="patch_6">
    <path d="M 139.763182 499.197187 
L 141.792273 499.197187 
L 141.792273 499.1893 
L 139.763182 499.1893 
z
" clip-path="url(#p66cb2b04d8)" style="fill: #1f77b4"/>
   </g>
   <g id="patch_7">
    <path d="M 141.792273 499.197187 
L 143.821364 499.197187 
L 143.821364 499.181412 
L 141.792273 499.181412 
z
" clip-path="url(#p66cb2b04d8)" style="fill: #1f77b4"/>
   </g>
   <g id="patch_8">
    <path d="M 143.821364 499.197187 
L 145.850455 499.197187 
L 145.850455 499.157748 
L 143.821364 499.157748 
z
" clip-path="url(#p66cb2b04d8)" style="fill: #1f77b4"/>
   </g>
   <g id="patch_9">
    <path d="M 145.850455 499.197187 
L 147.879545 499.197187 
L 147.879545 499.07887 
L 145.850455 499.07887 
z
" clip-path="url(#p66cb2b04d8)" style="fill: #1f77b4"/>
   </g>
   <g id="patch_10">
    <path d="M 147.879545 499.197187 
L 149.908636 499.197187 
L 149.908636 499.07887 
L 147.879545 499.07887 
z
" clip-path="url(#p66cb2b04d8)" style="fill: #1f77b4"/>
   </g>
   <g id="patch_11">
    <path d="M 149.908636 499.197187 
L 151.937727 499.197187 
L 151.937727 498.999992 
L 149.908636 498.999992 
z
" clip-path="url(#p66cb2b04d8)" style="fill: #1f77b4"/>
   </g>
   <g id="patch_12">
    <path d="M 151.937727 499.197187 
L 153.966818 499.197187 
L 153.966818 498.787021 
L 151.937727 498.787021 
z
" clip-path="url(#p66cb2b04d8)" style="fill: #1f77b4"/>
   </g>
   <g id="patch_13">
    <path d="M 153.966818 499.197187 
L 155.995909 499.197187 
L 155.995909 498.495173 
L 153.966818 498.495173 
z
" clip-path="url(#p66cb2b04d8)" style="fill: #1f77b4"/>
   </g>
   <g id="patch_14">
    <path d="M 155.995909 499.197187 
L 158.025 499.197187 
L 158.025 498.155997 
L 155.995909 498.155997 
z
" clip-path="url(#p66cb2b04d8)" style="fill: #1f77b4"/>
   </g>
   <g id="patch_15">
    <path d="M 158.025 499.197187 
L 160.054091 499.197187 
L 160.054091 497.730055 
L 158.025 497.730055 
z
" clip-path="url(#p66cb2b04d8)" style="fill: #1f77b4"/>
   </g>
   <g id="patch_16">
    <path d="M 160.054091 499.197187 
L 162.083182 499.197187 
L 162.083182 496.933387 
L 160.054091 496.933387 
z
" clip-path="url(#p66cb2b04d8)" style="fill: #1f77b4"/>
   </g>
   <g id="patch_17">
    <path d="M 162.083182 499.197187 
L 164.112273 499.197187 
L 164.112273 495.907972 
L 162.083182 495.907972 
z
" clip-path="url(#p66cb2b04d8)" style="fill: #1f77b4"/>
   </g>
   <g id="patch_18">
    <path d="M 164.112273 499.197187 
L 166.141364 499.197187 
L 166.141364 494.716913 
L 164.112273 494.716913 
z
" clip-path="url(#p66cb2b04d8)" style="fill: #1f77b4"/>
   </g>
   <g id="patch_19">
    <path d="M 166.141364 499.197187 
L 168.170455 499.197187 
L 168.170455 492.902717 
L 166.141364 492.902717 
z
" clip-path="url(#p66cb2b04d8)" style="fill: #1f77b4"/>
   </g>
   <g id="patch_20">
    <path d="M 168.170455 499.197187 
L 170.199545 499.197187 
L 170.199545 490.425945 
L 168.170455 490.425945 
z
" clip-path="url(#p66cb2b04d8)" style="fill: #1f77b4"/>
   </g>
   <g id="patch_21">
    <path d="M 170.199545 499.197187 
L 172.228636 499.197187 
L 172.228636 487.042076 
L 170.199545 487.042076 
z
" clip-path="url(#p66cb2b04d8)" style="fill: #1f77b4"/>
   </g>
   <g id="patch_22">
    <path d="M 172.228636 499.197187 
L 174.257727 499.197187 
L 174.257727 483.121835 
L 172.228636 483.121835 
z
" clip-path="url(#p66cb2b04d8)" style="fill: #1f77b4"/>
   </g>
   <g id="patch_23">
    <path d="M 174.257727 499.197187 
L 176.286818 499.197187 
L 176.286818 478.57057 
L 174.257727 478.57057 
z
" clip-path="url(#p66cb2b04d8)" style="fill: #1f77b4"/>
   </g>
   <g id="patch_24">
    <path d="M 176.286818 499.197187 
L 178.315909 499.197187 
L 178.315909 472.844021 
L 176.286818 472.844021 
z
" clip-path="url(#p66cb2b04d8)" style="fill: #1f77b4"/>
   </g>
   <g id="patch_25">
    <path d="M 178.315909 499.197187 
L 180.345 499.197187 
L 180.345 465.547799 
L 178.315909 465.547799 
z
" clip-path="url(#p66cb2b04d8)" style="fill: #1f77b4"/>
   </g>
   <g id="patch_26">
    <path d="M 180.345 499.197187 
L 182.374091 499.197187 
L 182.374091 457.675767 
L 180.345 457.675767 
z
" clip-path="url(#p66cb2b04d8)" style="fill: #1f77b4"/>
   </g>
   <g id="patch_27">
    <path d="M 182.374091 499.197187 
L 184.403182 499.197187 
L 184.403182 447.563597 
L 182.374091 447.563597 
z
" clip-path="url(#p66cb2b04d8)" style="fill: #1f77b4"/>
   </g>
   <g id="patch_28">
    <path d="M 184.403182 499.197187 
L 186.432273 499.197187 
L 186.432273 434.24109 
L 184.403182 434.24109 
z
" clip-path="url(#p66cb2b04d8)" style="fill: #1f77b4"/>
   </g>
   <g id="patch_29">
    <path d="M 186.432273 499.197187 
L 188.461364 499.197187 
L 188.461364 421.344524 
L 186.432273 421.344524 
z
" clip-path="url(#p66cb2b04d8)" style="fill: #1f77b4"/>
   </g>
   <g id="patch_30">
    <path d="M 188.461364 499.197187 
L 190.490455 499.197187 
L 190.490455 403.652171 
L 188.461364 403.652171 
z
" clip-path="url(#p66cb2b04d8)" style="fill: #1f77b4"/>
   </g>
   <g id="patch_31">
    <path d="M 190.490455 499.197187 
L 192.519545 499.197187 
L 192.519545 381.384889 
L 190.490455 381.384889 
z
" clip-path="url(#p66cb2b04d8)" style="fill: #1f77b4"/>
   </g>
   <g id="patch_32">
    <path d="M 192.519545 499.197187 
L 194.548636 499.197187 
L 194.548636 361.010681 
L 192.519545 361.010681 
z
" clip-path="url(#p66cb2b04d8)" style="fill: #1f77b4"/>
   </g>
   <g id="patch_33">
    <path d="M 194.548636 499.197187 
L 196.577727 499.197187 
L 196.577727 335.146559 
L 194.548636 335.146559 
z
" clip-path="url(#p66cb2b04d8)" style="fill: #1f77b4"/>
   </g>
   <g id="patch_34">
    <path d="M 196.577727 499.197187 
L 198.606818 499.197187 
L 198.606818 302.893313 
L 196.577727 302.893313 
z
" clip-path="url(#p66cb2b04d8)" style="fill: #1f77b4"/>
   </g>
   <g id="patch_35">
    <path d="M 198.606818 499.197187 
L 200.635909 499.197187 
L 200.635909 273.416575 
L 198.606818 273.416575 
z
" clip-path="url(#p66cb2b04d8)" style="fill: #1f77b4"/>
   </g>
   <g id="patch_36">
    <path d="M 200.635909 499.197187 
L 202.665 499.197187 
L 202.665 241.029235 
L 200.635909 241.029235 
z
" clip-path="url(#p66cb2b04d8)" style="fill: #1f77b4"/>
   </g>
   <g id="patch_37">
    <path d="M 202.665 499.197187 
L 204.694091 499.197187 
L 204.694091 205.983705 
L 202.665 205.983705 
z
" clip-path="url(#p66cb2b04d8)" style="fill: #1f77b4"/>
   </g>
   <g id="patch_38">
    <path d="M 204.694091 499.197187 
L 206.723182 499.197187 
L 206.723182 175.88383 
L 204.694091 175.88383 
z
" clip-path="url(#p66cb2b04d8)" style="fill: #1f77b4"/>
   </g>
   <g id="patch_39">
    <path d="M 206.723182 499.197187 
L 208.752273 499.197187 
L 208.752273 148.331717 
L 206.723182 148.331717 
z
" clip-path="url(#p66cb2b04d8)" style="fill: #1f77b4"/>
   </g>
   <g id="patch_40">
    <path d="M 208.752273 499.197187 
L 210.781364 499.197187 
L 210.781364 123.784859 
L 208.752273 123.784859 
z
" clip-path="url(#p66cb2b04d8)" style="fill: #1f77b4"/>
   </g>
   <g id="patch_41">
    <path d="M 210.781364 499.197187 
L 212.810455 499.197187 
L 212.810455 101.25728 
L 210.781364 101.25728 
z
" clip-path="url(#p66cb2b04d8)" style="fill: #1f77b4"/>
   </g>
   <g id="patch_42">
    <path d="M 212.810455 499.197187 
L 214.839545 499.197187 
L 214.839545 85.505327 
L 212.810455 85.505327 
z
" clip-path="url(#p66cb2b04d8)" style="fill: #1f77b4"/>
   </g>
   <g id="patch_43">
    <path d="M 214.839545 499.197187 
L 216.868636 499.197187 
L 216.868636 76.797187 
L 214.839545 76.797187 
z
" clip-path="url(#p66cb2b04d8)" style="fill: #1f77b4"/>
   </g>
   <g id="patch_44">
    <path d="M 216.868636 499.197187 
L 218.897727 499.197187 
L 218.897727 87.264309 
L 216.868636 87.264309 
z
" clip-path="url(#p66cb2b04d8)" style="fill: #1f77b4"/>
   </g>
   <g id="patch_45">
    <path d="M 218.897727 499.197187 
L 220.926818 499.197187 
L 220.926818 98.315127 
L 218.897727 98.315127 
z
" clip-path="url(#p66cb2b04d8)" style="fill: #1f77b4"/>
   </g>
   <g id="patch_46">
    <path d="M 220.926818 499.197187 
L 222.955909 499.197187 
L 222.955909 117.301081 
L 220.926818 117.301081 
z
" clip-path="url(#p66cb2b04d8)" style="fill: #1f77b4"/>
   </g>
   <g id="patch_47">
    <path d="M 222.955909 499.197187 
L 224.985 499.197187 
L 224.985 148.868088 
L 222.955909 148.868088 
z
" clip-path="url(#p66cb2b04d8)" style="fill: #1f77b4"/>
   </g>
   <g id="patch_48">
    <path d="M 224.985 499.197187 
L 227.014091 499.197187 
L 227.014091 184.457877 
L 224.985 184.457877 
z
" clip-path="url(#p66cb2b04d8)" style="fill: #1f77b4"/>
   </g>
   <g id="patch_49">
    <path d="M 227.014091 499.197187 
L 229.043182 499.197187 
L 229.043182 218.296573 
L 227.014091 218.296573 
z
" clip-path="url(#p66cb2b04d8)" style="fill: #1f77b4"/>
   </g>
   <g id="patch_50">
    <path d="M 229.043182 499.197187 
L 231.072273 499.197187 
L 231.072273 256.394685 
L 229.043182 256.394685 
z
" clip-path="url(#p66cb2b04d8)" style="fill: #1f77b4"/>
   </g>
   <g id="patch_51">
    <path d="M 231.072273 499.197187 
L 233.101364 499.197187 
L 233.101364 294.910851 
L 231.072273 294.910851 
z
" clip-path="url(#p66cb2b04d8)" style="fill: #1f77b4"/>
   </g>
   <g id="patch_52">
    <path d="M 233.101364 499.197187 
L 235.130455 499.197187 
L 235.130455 328.110634 
L 233.101364 328.110634 
z
" clip-path="url(#p66cb2b04d8)" style="fill: #1f77b4"/>
   </g>
   <g id="patch_53">
    <path d="M 235.130455 499.197187 
L 237.159545 499.197187 
L 237.159545 360.411208 
L 235.130455 360.411208 
z
" clip-path="url(#p66cb2b04d8)" style="fill: #1f77b4"/>
   </g>
   <g id="patch_54">
    <path d="M 237.159545 499.197187 
L 239.188636 499.197187 
L 239.188636 388.042199 
L 237.159545 388.042199 
z
" clip-path="url(#p66cb2b04d8)" style="fill: #1f77b4"/>
   </g>
   <g id="patch_55">
    <path d="M 239.188636 499.197187 
L 241.217727 499.197187 
L 241.217727 409.804661 
L 239.188636 409.804661 
z
" clip-path="url(#p66cb2b04d8)" style="fill: #1f77b4"/>
   </g>
   <g id="patch_56">
    <path d="M 241.217727 499.197187 
L 243.246818 499.197187 
L 243.246818 428.033385 
L 241.217727 428.033385 
z
" clip-path="url(#p66cb2b04d8)" style="fill: #1f77b4"/>
   </g>
   <g id="patch_57">
    <path d="M 243.246818 499.197187 
L 245.275909 499.197187 
L 245.275909 442.26299 
L 243.246818 442.26299 
z
" clip-path="url(#p66cb2b04d8)" style="fill: #1f77b4"/>
   </g>
   <g id="patch_58">
    <path d="M 245.275909 499.197187 
L 247.305 499.197187 
L 247.305 453.913282 
L 245.275909 453.913282 
z
" clip-path="url(#p66cb2b04d8)" style="fill: #1f77b4"/>
   </g>
   <g id="patch_59">
    <path d="M 247.305 499.197187 
L 249.334091 499.197187 
L 249.334091 462.30591 
L 247.305 462.30591 
z
" clip-path="url(#p66cb2b04d8)" style="fill: #1f77b4"/>
   </g>
   <g id="patch_60">
    <path d="M 249.334091 499.197187 
L 251.363182 499.197187 
L 251.363182 469.499591 
L 249.334091 469.499591 
z
" clip-path="url(#p66cb2b04d8)" style="fill: #1f77b4"/>
   </g>
   <g id="patch_61">
    <path d="M 251.363182 499.197187 
L 253.392273 499.197187 
L 253.392273 473.396168 
L 251.363182 473.396168 
z
" clip-path="url(#p66cb2b04d8)" style="fill: #1f77b4"/>
   </g>
   <g id="patch_62">
    <path d="M 253.392273 499.197187 
L 255.421364 499.197187 
L 255.421364 476.787925 
L 253.392273 476.787925 
z
" clip-path="url(#p66cb2b04d8)" style="fill: #1f77b4"/>
   </g>
   <g id="patch_63">
    <path d="M 255.421364 499.197187 
L 257.450455 499.197187 
L 257.450455 478.751989 
L 255.421364 478.751989 
z
" clip-path="url(#p66cb2b04d8)" style="fill: #1f77b4"/>
   </g>
   <g id="patch_64">
    <path d="M 257.450455 499.197187 
L 259.479545 499.197187 
L 259.479545 480.629288 
L 257.450455 480.629288 
z
" clip-path="url(#p66cb2b04d8)" style="fill: #1f77b4"/>
   </g>
   <g id="patch_65">
    <path d="M 259.479545 499.197187 
L 261.508636 499.197187 
L 261.508636 482.806323 
L 259.479545 482.806323 
z
" clip-path="url(#p66cb2b04d8)" style="fill: #1f77b4"/>
   </g>
   <g id="patch_66">
    <path d="M 261.508636 499.197187 
L 263.537727 499.197187 
L 263.537727 484.021045 
L 261.508636 484.021045 
z
" clip-path="url(#p66cb2b04d8)" style="fill: #1f77b4"/>
   </g>
   <g id="patch_67">
    <path d="M 263.537727 499.197187 
L 265.566818 499.197187 
L 265.566818 485.11745 
L 263.537727 485.11745 
z
" clip-path="url(#p66cb2b04d8)" style="fill: #1f77b4"/>
   </g>
   <g id="patch_68">
    <path d="M 265.566818 499.197187 
L 267.595909 499.197187 
L 267.595909 486.458378 
L 265.566818 486.458378 
z
" clip-path="url(#p66cb2b04d8)" style="fill: #1f77b4"/>
   </g>
   <g id="patch_69">
    <path d="M 267.595909 499.197187 
L 269.625 499.197187 
L 269.625 486.166529 
L 267.595909 486.166529 
z
" clip-path="url(#p66cb2b04d8)" style="fill: #1f77b4"/>
   </g>
   <g id="patch_70">
    <path d="M 269.625 499.197187 
L 271.654091 499.197187 
L 271.654091 487.073627 
L 269.625 487.073627 
z
" clip-path="url(#p66cb2b04d8)" style="fill: #1f77b4"/>
   </g>
   <g id="patch_71">
    <path d="M 271.654091 499.197187 
L 273.683182 499.197187 
L 273.683182 487.483793 
L 271.654091 487.483793 
z
" clip-path="url(#p66cb2b04d8)" style="fill: #1f77b4"/>
   </g>
   <g id="patch_72">
    <path d="M 273.683182 499.197187 
L 275.712273 499.197187 
L 275.712273 487.53112 
L 273.683182 487.53112 
z
" clip-path="url(#p66cb2b04d8)" style="fill: #1f77b4"/>
   </g>
   <g id="patch_73">
    <path d="M 275.712273 499.197187 
L 277.741364 499.197187 
L 277.741364 487.191944 
L 275.712273 487.191944 
z
" clip-path="url(#p66cb2b04d8)" style="fill: #1f77b4"/>
   </g>
   <g id="patch_74">
    <path d="M 277.741364 499.197187 
L 279.770455 499.197187 
L 279.770455 487.633661 
L 277.741364 487.633661 
z
" clip-path="url(#p66cb2b04d8)" style="fill: #1f77b4"/>
   </g>
   <g id="patch_75">
    <path d="M 279.770455 499.197187 
L 281.799545 499.197187 
L 281.799545 488.122705 
L 279.770455 488.122705 
z
" clip-path="url(#p66cb2b04d8)" style="fill: #1f77b4"/>
   </g>
   <g id="patch_76">
    <path d="M 281.799545 499.197187 
L 283.828636 499.197187 
L 283.828636 487.586334 
L 281.799545 487.586334 
z
" clip-path="url(#p66cb2b04d8)" style="fill: #1f77b4"/>
   </g>
   <g id="patch_77">
    <path d="M 283.828636 499.197187 
L 285.857727 499.197187 
L 285.857727 488.327788 
L 283.828636 488.327788 
z
" clip-path="url(#p66cb2b04d8)" style="fill: #1f77b4"/>
   </g>
   <g id="patch_78">
    <path d="M 285.857727 499.197187 
L 287.886818 499.197187 
L 287.886818 488.185808 
L 285.857727 488.185808 
z
" clip-path="url(#p66cb2b04d8)" style="fill: #1f77b4"/>
   </g>
   <g id="patch_79">
    <path d="M 287.886818 499.197187 
L 289.915909 499.197187 
L 289.915909 488.114817 
L 287.886818 488.114817 
z
" clip-path="url(#p66cb2b04d8)" style="fill: #1f77b4"/>
   </g>
   <g id="patch_80">
    <path d="M 289.915909 499.197187 
L 291.945 499.197187 
L 291.945 488.288349 
L 289.915909 488.288349 
z
" clip-path="url(#p66cb2b04d8)" style="fill: #1f77b4"/>
   </g>
   <g id="patch_81">
    <path d="M 291.945 499.197187 
L 293.974091 499.197187 
L 293.974091 488.383003 
L 291.945 488.383003 
z
" clip-path="url(#p66cb2b04d8)" style="fill: #1f77b4"/>
   </g>
   <g id="patch_82">
    <path d="M 293.974091 499.197187 
L 296.003182 499.197187 
L 296.003182 487.862408 
L 293.974091 487.862408 
z
" clip-path="url(#p66cb2b04d8)" style="fill: #1f77b4"/>
   </g>
   <g id="patch_83">
    <path d="M 296.003182 499.197187 
L 298.032273 499.197187 
L 298.032273 487.665212 
L 296.003182 487.665212 
z
" clip-path="url(#p66cb2b04d8)" style="fill: #1f77b4"/>
   </g>
   <g id="patch_84">
    <path d="M 298.032273 499.197187 
L 300.061364 499.197187 
L 300.061364 487.460129 
L 298.032273 487.460129 
z
" clip-path="url(#p66cb2b04d8)" style="fill: #1f77b4"/>
   </g>
   <g id="patch_85">
    <path d="M 300.061364 499.197187 
L 302.090455 499.197187 
L 302.090455 487.113066 
L 300.061364 487.113066 
z
" clip-path="url(#p66cb2b04d8)" style="fill: #1f77b4"/>
   </g>
   <g id="patch_86">
    <path d="M 302.090455 499.197187 
L 304.119545 499.197187 
L 304.119545 487.444354 
L 302.090455 487.444354 
z
" clip-path="url(#p66cb2b04d8)" style="fill: #1f77b4"/>
   </g>
   <g id="patch_87">
    <path d="M 304.119545 499.197187 
L 306.148636 499.197187 
L 306.148636 486.971085 
L 304.119545 486.971085 
z
" clip-path="url(#p66cb2b04d8)" style="fill: #1f77b4"/>
   </g>
   <g id="patch_88">
    <path d="M 306.148636 499.197187 
L 308.177727 499.197187 
L 308.177727 486.821217 
L 306.148636 486.821217 
z
" clip-path="url(#p66cb2b04d8)" style="fill: #1f77b4"/>
   </g>
   <g id="patch_89">
    <path d="M 308.177727 499.197187 
L 310.206818 499.197187 
L 310.206818 486.166529 
L 308.177727 486.166529 
z
" clip-path="url(#p66cb2b04d8)" style="fill: #1f77b4"/>
   </g>
   <g id="patch_90">
    <path d="M 310.206818 499.197187 
L 312.235909 499.197187 
L 312.235909 485.937782 
L 310.206818 485.937782 
z
" clip-path="url(#p66cb2b04d8)" style="fill: #1f77b4"/>
   </g>
   <g id="patch_91">
    <path d="M 312.235909 499.197187 
L 314.265 499.197187 
L 314.265 484.849265 
L 312.235909 484.849265 
z
" clip-path="url(#p66cb2b04d8)" style="fill: #1f77b4"/>
   </g>
   <g id="patch_92">
    <path d="M 314.265 499.197187 
L 316.294091 499.197187 
L 316.294091 485.219992 
L 314.265 485.219992 
z
" clip-path="url(#p66cb2b04d8)" style="fill: #1f77b4"/>
   </g>
   <g id="patch_93">
    <path d="M 316.294091 499.197187 
L 318.323182 499.197187 
L 318.323182 483.634543 
L 316.294091 483.634543 
z
" clip-path="url(#p66cb2b04d8)" style="fill: #1f77b4"/>
   </g>
   <g id="patch_94">
    <path d="M 318.323182 499.197187 
L 320.352273 499.197187 
L 320.352273 482.964079 
L 318.323182 482.964079 
z
" clip-path="url(#p66cb2b04d8)" style="fill: #1f77b4"/>
   </g>
   <g id="patch_95">
    <path d="M 320.352273 499.197187 
L 322.381364 499.197187 
L 322.381364 483.169162 
L 320.352273 483.169162 
z
" clip-path="url(#p66cb2b04d8)" style="fill: #1f77b4"/>
   </g>
   <g id="patch_96">
    <path d="M 322.381364 499.197187 
L 324.410455 499.197187 
L 324.410455 481.836122 
L 322.381364 481.836122 
z
" clip-path="url(#p66cb2b04d8)" style="fill: #1f77b4"/>
   </g>
   <g id="patch_97">
    <path d="M 324.410455 499.197187 
L 326.439545 499.197187 
L 326.439545 481.709917 
L 324.410455 481.709917 
z
" clip-path="url(#p66cb2b04d8)" style="fill: #1f77b4"/>
   </g>
   <g id="patch_98">
    <path d="M 326.439545 499.197187 
L 328.468636 499.197187 
L 328.468636 481.354966 
L 326.439545 481.354966 
z
" clip-path="url(#p66cb2b04d8)" style="fill: #1f77b4"/>
   </g>
   <g id="patch_99">
    <path d="M 328.468636 499.197187 
L 330.497727 499.197187 
L 330.497727 480.282224 
L 328.468636 480.282224 
z
" clip-path="url(#p66cb2b04d8)" style="fill: #1f77b4"/>
   </g>
   <g id="patch_100">
    <path d="M 330.497727 499.197187 
L 332.526818 499.197187 
L 332.526818 480.487307 
L 330.497727 480.487307 
z
" clip-path="url(#p66cb2b04d8)" style="fill: #1f77b4"/>
   </g>
   <g id="patch_101">
    <path d="M 332.526818 499.197187 
L 334.555909 499.197187 
L 334.555909 479.927273 
L 332.526818 479.927273 
z
" clip-path="url(#p66cb2b04d8)" style="fill: #1f77b4"/>
   </g>
   <g id="patch_102">
    <path d="M 334.555909 499.197187 
L 336.585 499.197187 
L 336.585 479.635424 
L 334.555909 479.635424 
z
" clip-path="url(#p66cb2b04d8)" style="fill: #1f77b4"/>
   </g>
   <g id="patch_103">
    <path d="M 336.585 499.197187 
L 338.614091 499.197187 
L 338.614091 480.085029 
L 336.585 480.085029 
z
" clip-path="url(#p66cb2b04d8)" style="fill: #1f77b4"/>
   </g>
   <g id="patch_104">
    <path d="M 338.614091 499.197187 
L 340.643182 499.197187 
L 340.643182 480.921137 
L 338.614091 480.921137 
z
" clip-path="url(#p66cb2b04d8)" style="fill: #1f77b4"/>
   </g>
   <g id="patch_105">
    <path d="M 340.643182 499.197187 
L 342.672273 499.197187 
L 342.672273 481.686254 
L 340.643182 481.686254 
z
" clip-path="url(#p66cb2b04d8)" style="fill: #1f77b4"/>
   </g>
   <g id="patch_106">
    <path d="M 342.672273 499.197187 
L 344.701364 499.197187 
L 344.701364 482.632791 
L 342.672273 482.632791 
z
" clip-path="url(#p66cb2b04d8)" style="fill: #1f77b4"/>
   </g>
   <g id="patch_107">
    <path d="M 344.701364 499.197187 
L 346.730455 499.197187 
L 346.730455 484.265567 
L 344.701364 484.265567 
z
" clip-path="url(#p66cb2b04d8)" style="fill: #1f77b4"/>
   </g>
   <g id="patch_108">
    <path d="M 346.730455 499.197187 
L 348.759545 499.197187 
L 348.759545 485.503953 
L 346.730455 485.503953 
z
" clip-path="url(#p66cb2b04d8)" style="fill: #1f77b4"/>
   </g>
   <g id="patch_109">
    <path d="M 348.759545 499.197187 
L 350.788636 499.197187 
L 350.788636 486.553031 
L 348.759545 486.553031 
z
" clip-path="url(#p66cb2b04d8)" style="fill: #1f77b4"/>
   </g>
   <g id="patch_110">
    <path d="M 350.788636 499.197187 
L 352.817727 499.197187 
L 352.817727 489.07713 
L 350.788636 489.07713 
z
" clip-path="url(#p66cb2b04d8)" style="fill: #1f77b4"/>
   </g>
   <g id="patch_111">
    <path d="M 352.817727 499.197187 
L 354.846818 499.197187 
L 354.846818 490.22875 
L 352.817727 490.22875 
z
" clip-path="url(#p66cb2b04d8)" style="fill: #1f77b4"/>
   </g>
   <g id="patch_112">
    <path d="M 354.846818 499.197187 
L 356.875909 499.197187 
L 356.875909 491.719546 
L 354.846818 491.719546 
z
" clip-path="url(#p66cb2b04d8)" style="fill: #1f77b4"/>
   </g>
   <g id="patch_113">
    <path d="M 356.875909 499.197187 
L 358.905 499.197187 
L 358.905 493.052585 
L 356.875909 493.052585 
z
" clip-path="url(#p66cb2b04d8)" style="fill: #1f77b4"/>
   </g>
   <g id="patch_114">
    <path d="M 358.905 499.197187 
L 360.934091 499.197187 
L 360.934091 494.519717 
L 358.905 494.519717 
z
" clip-path="url(#p66cb2b04d8)" style="fill: #1f77b4"/>
   </g>
   <g id="patch_115">
    <path d="M 360.934091 499.197187 
L 362.963182 499.197187 
L 362.963182 495.308498 
L 360.934091 495.308498 
z
" clip-path="url(#p66cb2b04d8)" style="fill: #1f77b4"/>
   </g>
   <g id="patch_116">
    <path d="M 362.963182 499.197187 
L 364.992273 499.197187 
L 364.992273 496.120942 
L 362.963182 496.120942 
z
" clip-path="url(#p66cb2b04d8)" style="fill: #1f77b4"/>
   </g>
   <g id="patch_117">
    <path d="M 364.992273 499.197187 
L 367.021364 499.197187 
L 367.021364 496.665201 
L 364.992273 496.665201 
z
" clip-path="url(#p66cb2b04d8)" style="fill: #1f77b4"/>
   </g>
   <g id="patch_118">
    <path d="M 367.021364 499.197187 
L 369.050455 499.197187 
L 369.050455 497.446094 
L 367.021364 497.446094 
z
" clip-path="url(#p66cb2b04d8)" style="fill: #1f77b4"/>
   </g>
   <g id="patch_119">
    <path d="M 369.050455 499.197187 
L 371.079545 499.197187 
L 371.079545 497.745831 
L 369.050455 497.745831 
z
" clip-path="url(#p66cb2b04d8)" style="fill: #1f77b4"/>
   </g>
   <g id="patch_120">
    <path d="M 371.079545 499.197187 
L 373.108636 499.197187 
L 373.108636 498.014016 
L 371.079545 498.014016 
z
" clip-path="url(#p66cb2b04d8)" style="fill: #1f77b4"/>
   </g>
   <g id="patch_121">
    <path d="M 373.108636 499.197187 
L 375.137727 499.197187 
L 375.137727 498.297977 
L 373.108636 498.297977 
z
" clip-path="url(#p66cb2b04d8)" style="fill: #1f77b4"/>
   </g>
   <g id="patch_122">
    <path d="M 375.137727 499.197187 
L 377.166818 499.197187 
L 377.166818 498.479397 
L 375.137727 498.479397 
z
" clip-path="url(#p66cb2b04d8)" style="fill: #1f77b4"/>
   </g>
   <g id="patch_123">
    <path d="M 377.166818 499.197187 
L 379.195909 499.197187 
L 379.195909 498.723919 
L 377.166818 498.723919 
z
" clip-path="url(#p66cb2b04d8)" style="fill: #1f77b4"/>
   </g>
   <g id="patch_124">
    <path d="M 379.195909 499.197187 
L 381.225 499.197187 
L 381.225 498.731807 
L 379.195909 498.731807 
z
" clip-path="url(#p66cb2b04d8)" style="fill: #1f77b4"/>
   </g>
   <g id="patch_125">
    <path d="M 381.225 499.197187 
L 383.254091 499.197187 
L 383.254091 498.771246 
L 381.225 498.771246 
z
" clip-path="url(#p66cb2b04d8)" style="fill: #1f77b4"/>
   </g>
   <g id="patch_126">
    <path d="M 383.254091 499.197187 
L 385.283182 499.197187 
L 385.283182 498.842236 
L 383.254091 498.842236 
z
" clip-path="url(#p66cb2b04d8)" style="fill: #1f77b4"/>
   </g>
   <g id="patch_127">
    <path d="M 385.283182 499.197187 
L 387.312273 499.197187 
L 387.312273 498.921114 
L 385.283182 498.921114 
z
" clip-path="url(#p66cb2b04d8)" style="fill: #1f77b4"/>
   </g>
   <g id="patch_128">
    <path d="M 387.312273 499.197187 
L 389.341364 499.197187 
L 389.341364 498.952665 
L 387.312273 498.952665 
z
" clip-path="url(#p66cb2b04d8)" style="fill: #1f77b4"/>
   </g>
   <g id="patch_129">
    <path d="M 389.341364 499.197187 
L 391.370455 499.197187 
L 391.370455 499.023656 
L 389.341364 499.023656 
z
" clip-path="url(#p66cb2b04d8)" style="fill: #1f77b4"/>
   </g>
   <g id="patch_130">
    <path d="M 391.370455 499.197187 
L 393.399545 499.197187 
L 393.399545 498.881675 
L 391.370455 498.881675 
z
" clip-path="url(#p66cb2b04d8)" style="fill: #1f77b4"/>
   </g>
   <g id="patch_131">
    <path d="M 393.399545 499.197187 
L 395.428636 499.197187 
L 395.428636 498.913226 
L 393.399545 498.913226 
z
" clip-path="url(#p66cb2b04d8)" style="fill: #1f77b4"/>
   </g>
   <g id="patch_132">
    <path d="M 395.428636 499.197187 
L 397.457727 499.197187 
L 397.457727 498.850124 
L 395.428636 498.850124 
z
" clip-path="url(#p66cb2b04d8)" style="fill: #1f77b4"/>
   </g>
   <g id="patch_133">
    <path d="M 397.457727 499.197187 
L 399.486818 499.197187 
L 399.486818 498.976329 
L 397.457727 498.976329 
z
" clip-path="url(#p66cb2b04d8)" style="fill: #1f77b4"/>
   </g>
   <g id="patch_134">
    <path d="M 399.486818 499.197187 
L 401.515909 499.197187 
L 401.515909 498.960553 
L 399.486818 498.960553 
z
" clip-path="url(#p66cb2b04d8)" style="fill: #1f77b4"/>
   </g>
   <g id="patch_135">
    <path d="M 401.515909 499.197187 
L 403.545 499.197187 
L 403.545 498.889563 
L 401.515909 498.889563 
z
" clip-path="url(#p66cb2b04d8)" style="fill: #1f77b4"/>
   </g>
   <g id="patch_136">
    <path d="M 403.545 499.197187 
L 405.574091 499.197187 
L 405.574091 498.968441 
L 403.545 498.968441 
z
" clip-path="url(#p66cb2b04d8)" style="fill: #1f77b4"/>
   </g>
   <g id="patch_137">
    <path d="M 405.574091 499.197187 
L 407.603182 499.197187 
L 407.603182 499.039431 
L 405.574091 499.039431 
z
" clip-path="url(#p66cb2b04d8)" style="fill: #1f77b4"/>
   </g>
   <g id="patch_138">
    <path d="M 407.603182 499.197187 
L 409.632273 499.197187 
L 409.632273 498.944778 
L 407.603182 498.944778 
z
" clip-path="url(#p66cb2b04d8)" style="fill: #1f77b4"/>
   </g>
   <g id="patch_139">
    <path d="M 409.632273 499.197187 
L 411.661364 499.197187 
L 411.661364 499.031544 
L 409.632273 499.031544 
z
" clip-path="url(#p66cb2b04d8)" style="fill: #1f77b4"/>
   </g>
   <g id="patch_140">
    <path d="M 411.661364 499.197187 
L 413.690455 499.197187 
L 413.690455 499.031544 
L 411.661364 499.031544 
z
" clip-path="url(#p66cb2b04d8)" style="fill: #1f77b4"/>
   </g>
   <g id="patch_141">
    <path d="M 413.690455 499.197187 
L 415.719545 499.197187 
L 415.719545 498.992104 
L 413.690455 498.992104 
z
" clip-path="url(#p66cb2b04d8)" style="fill: #1f77b4"/>
   </g>
   <g id="patch_142">
    <path d="M 415.719545 499.197187 
L 417.748636 499.197187 
L 417.748636 498.93689 
L 415.719545 498.93689 
z
" clip-path="url(#p66cb2b04d8)" style="fill: #1f77b4"/>
   </g>
   <g id="patch_143">
    <path d="M 417.748636 499.197187 
L 419.777727 499.197187 
L 419.777727 498.999992 
L 417.748636 498.999992 
z
" clip-path="url(#p66cb2b04d8)" style="fill: #1f77b4"/>
   </g>
   <g id="patch_144">
    <path d="M 419.777727 499.197187 
L 421.806818 499.197187 
L 421.806818 499.055207 
L 419.777727 499.055207 
z
" clip-path="url(#p66cb2b04d8)" style="fill: #1f77b4"/>
   </g>
   <g id="patch_145">
    <path d="M 421.806818 499.197187 
L 423.835909 499.197187 
L 423.835909 499.023656 
L 421.806818 499.023656 
z
" clip-path="url(#p66cb2b04d8)" style="fill: #1f77b4"/>
   </g>
   <g id="patch_146">
    <path d="M 423.835909 499.197187 
L 425.865 499.197187 
L 425.865 498.984217 
L 423.835909 498.984217 
z
" clip-path="url(#p66cb2b04d8)" style="fill: #1f77b4"/>
   </g>
   <g id="patch_147">
    <path d="M 425.865 499.197187 
L 427.894091 499.197187 
L 427.894091 498.976329 
L 425.865 498.976329 
z
" clip-path="url(#p66cb2b04d8)" style="fill: #1f77b4"/>
   </g>
   <g id="patch_148">
    <path d="M 427.894091 499.197187 
L 429.923182 499.197187 
L 429.923182 498.984217 
L 427.894091 498.984217 
z
" clip-path="url(#p66cb2b04d8)" style="fill: #1f77b4"/>
   </g>
   <g id="patch_149">
    <path d="M 429.923182 499.197187 
L 431.952273 499.197187 
L 431.952273 499.00788 
L 429.923182 499.00788 
z
" clip-path="url(#p66cb2b04d8)" style="fill: #1f77b4"/>
   </g>
   <g id="patch_150">
    <path d="M 431.952273 499.197187 
L 433.981364 499.197187 
L 433.981364 499.015768 
L 431.952273 499.015768 
z
" clip-path="url(#p66cb2b04d8)" style="fill: #1f77b4"/>
   </g>
   <g id="patch_151">
    <path d="M 433.981364 499.197187 
L 436.010455 499.197187 
L 436.010455 499.055207 
L 433.981364 499.055207 
z
" clip-path="url(#p66cb2b04d8)" style="fill: #1f77b4"/>
   </g>
   <g id="patch_152">
    <path d="M 436.010455 499.197187 
L 438.039545 499.197187 
L 438.039545 499.07887 
L 436.010455 499.07887 
z
" clip-path="url(#p66cb2b04d8)" style="fill: #1f77b4"/>
   </g>
   <g id="patch_153">
    <path d="M 438.039545 499.197187 
L 440.068636 499.197187 
L 440.068636 499.015768 
L 438.039545 499.015768 
z
" clip-path="url(#p66cb2b04d8)" style="fill: #1f77b4"/>
   </g>
   <g id="patch_154">
    <path d="M 440.068636 499.197187 
L 442.097727 499.197187 
L 442.097727 499.047319 
L 440.068636 499.047319 
z
" clip-path="url(#p66cb2b04d8)" style="fill: #1f77b4"/>
   </g>
   <g id="patch_155">
    <path d="M 442.097727 499.197187 
L 444.126818 499.197187 
L 444.126818 499.015768 
L 442.097727 499.015768 
z
" clip-path="url(#p66cb2b04d8)" style="fill: #1f77b4"/>
   </g>
   <g id="patch_156">
    <path d="M 444.126818 499.197187 
L 446.155909 499.197187 
L 446.155909 499.086758 
L 444.126818 499.086758 
z
" clip-path="url(#p66cb2b04d8)" style="fill: #1f77b4"/>
   </g>
   <g id="patch_157">
    <path d="M 446.155909 499.197187 
L 448.185 499.197187 
L 448.185 498.999992 
L 446.155909 498.999992 
z
" clip-path="url(#p66cb2b04d8)" style="fill: #1f77b4"/>
   </g>
   <g id="patch_158">
    <path d="M 448.185 499.197187 
L 450.214091 499.197187 
L 450.214091 499.070983 
L 448.185 499.070983 
z
" clip-path="url(#p66cb2b04d8)" style="fill: #1f77b4"/>
   </g>
   <g id="patch_159">
    <path d="M 450.214091 499.197187 
L 452.243182 499.197187 
L 452.243182 498.960553 
L 450.214091 498.960553 
z
" clip-path="url(#p66cb2b04d8)" style="fill: #1f77b4"/>
   </g>
   <g id="patch_160">
    <path d="M 452.243182 499.197187 
L 454.272273 499.197187 
L 454.272273 499.126197 
L 452.243182 499.126197 
z
" clip-path="url(#p66cb2b04d8)" style="fill: #1f77b4"/>
   </g>
   <g id="patch_161">
    <path d="M 454.272273 499.197187 
L 456.301364 499.197187 
L 456.301364 499.086758 
L 454.272273 499.086758 
z
" clip-path="url(#p66cb2b04d8)" style="fill: #1f77b4"/>
   </g>
   <g id="patch_162">
    <path d="M 456.301364 499.197187 
L 458.330455 499.197187 
L 458.330455 499.00788 
L 456.301364 499.00788 
z
" clip-path="url(#p66cb2b04d8)" style="fill: #1f77b4"/>
   </g>
   <g id="patch_163">
    <path d="M 458.330455 499.197187 
L 460.359545 499.197187 
L 460.359545 499.07887 
L 458.330455 499.07887 
z
" clip-path="url(#p66cb2b04d8)" style="fill: #1f77b4"/>
   </g>
   <g id="patch_164">
    <path d="M 460.359545 499.197187 
L 462.388636 499.197187 
L 462.388636 499.07887 
L 460.359545 499.07887 
z
" clip-path="url(#p66cb2b04d8)" style="fill: #1f77b4"/>
   </g>
   <g id="patch_165">
    <path d="M 462.388636 499.197187 
L 464.417727 499.197187 
L 464.417727 499.055207 
L 462.388636 499.055207 
z
" clip-path="url(#p66cb2b04d8)" style="fill: #1f77b4"/>
   </g>
   <g id="patch_166">
    <path d="M 464.417727 499.197187 
L 466.446818 499.197187 
L 466.446818 499.102534 
L 464.417727 499.102534 
z
" clip-path="url(#p66cb2b04d8)" style="fill: #1f77b4"/>
   </g>
   <g id="patch_167">
    <path d="M 466.446818 499.197187 
L 468.475909 499.197187 
L 468.475909 499.110422 
L 466.446818 499.110422 
z
" clip-path="url(#p66cb2b04d8)" style="fill: #1f77b4"/>
   </g>
   <g id="patch_168">
    <path d="M 468.475909 499.197187 
L 470.505 499.197187 
L 470.505 499.157748 
L 468.475909 499.157748 
z
" clip-path="url(#p66cb2b04d8)" style="fill: #1f77b4"/>
   </g>
   <g id="patch_169">
    <path d="M 470.505 499.197187 
L 472.534091 499.197187 
L 472.534091 499.086758 
L 470.505 499.086758 
z
" clip-path="url(#p66cb2b04d8)" style="fill: #1f77b4"/>
   </g>
   <g id="patch_170">
    <path d="M 472.534091 499.197187 
L 474.563182 499.197187 
L 474.563182 499.070983 
L 472.534091 499.070983 
z
" clip-path="url(#p66cb2b04d8)" style="fill: #1f77b4"/>
   </g>
   <g id="patch_171">
    <path d="M 474.563182 499.197187 
L 476.592273 499.197187 
L 476.592273 499.118309 
L 474.563182 499.118309 
z
" clip-path="url(#p66cb2b04d8)" style="fill: #1f77b4"/>
   </g>
   <g id="patch_172">
    <path d="M 476.592273 499.197187 
L 478.621364 499.197187 
L 478.621364 499.094646 
L 476.592273 499.094646 
z
" clip-path="url(#p66cb2b04d8)" style="fill: #1f77b4"/>
   </g>
   <g id="patch_173">
    <path d="M 478.621364 499.197187 
L 480.650455 499.197187 
L 480.650455 499.149861 
L 478.621364 499.149861 
z
" clip-path="url(#p66cb2b04d8)" style="fill: #1f77b4"/>
   </g>
   <g id="patch_174">
    <path d="M 480.650455 499.197187 
L 482.679545 499.197187 
L 482.679545 499.141973 
L 480.650455 499.141973 
z
" clip-path="url(#p66cb2b04d8)" style="fill: #1f77b4"/>
   </g>
   <g id="patch_175">
    <path d="M 482.679545 499.197187 
L 484.708636 499.197187 
L 484.708636 499.141973 
L 482.679545 499.141973 
z
" clip-path="url(#p66cb2b04d8)" style="fill: #1f77b4"/>
   </g>
   <g id="patch_176">
    <path d="M 484.708636 499.197187 
L 486.737727 499.197187 
L 486.737727 499.157748 
L 484.708636 499.157748 
z
" clip-path="url(#p66cb2b04d8)" style="fill: #1f77b4"/>
   </g>
   <g id="patch_177">
    <path d="M 486.737727 499.197187 
L 488.766818 499.197187 
L 488.766818 499.157748 
L 486.737727 499.157748 
z
" clip-path="url(#p66cb2b04d8)" style="fill: #1f77b4"/>
   </g>
   <g id="patch_178">
    <path d="M 488.766818 499.197187 
L 490.795909 499.197187 
L 490.795909 499.134085 
L 488.766818 499.134085 
z
" clip-path="url(#p66cb2b04d8)" style="fill: #1f77b4"/>
   </g>
   <g id="patch_179">
    <path d="M 490.795909 499.197187 
L 492.825 499.197187 
L 492.825 499.173524 
L 490.795909 499.173524 
z
" clip-path="url(#p66cb2b04d8)" style="fill: #1f77b4"/>
   </g>
   <g id="patch_180">
    <path d="M 492.825 499.197187 
L 494.854091 499.197187 
L 494.854091 499.110422 
L 492.825 499.110422 
z
" clip-path="url(#p66cb2b04d8)" style="fill: #1f77b4"/>
   </g>
   <g id="patch_181">
    <path d="M 494.854091 499.197187 
L 496.883182 499.197187 
L 496.883182 499.149861 
L 494.854091 499.149861 
z
" clip-path="url(#p66cb2b04d8)" style="fill: #1f77b4"/>
   </g>
   <g id="patch_182">
    <path d="M 496.883182 499.197187 
L 498.912273 499.197187 
L 498.912273 499.157748 
L 496.883182 499.157748 
z
" clip-path="url(#p66cb2b04d8)" style="fill: #1f77b4"/>
   </g>
   <g id="patch_183">
    <path d="M 498.912273 499.197187 
L 500.941364 499.197187 
L 500.941364 499.173524 
L 498.912273 499.173524 
z
" clip-path="url(#p66cb2b04d8)" style="fill: #1f77b4"/>
   </g>
   <g id="patch_184">
    <path d="M 500.941364 499.197187 
L 502.970455 499.197187 
L 502.970455 499.165636 
L 500.941364 499.165636 
z
" clip-path="url(#p66cb2b04d8)" style="fill: #1f77b4"/>
   </g>
   <g id="patch_185">
    <path d="M 502.970455 499.197187 
L 504.999545 499.197187 
L 504.999545 499.181412 
L 502.970455 499.181412 
z
" clip-path="url(#p66cb2b04d8)" style="fill: #1f77b4"/>
   </g>
   <g id="patch_186">
    <path d="M 504.999545 499.197187 
L 507.028636 499.197187 
L 507.028636 499.149861 
L 504.999545 499.149861 
z
" clip-path="url(#p66cb2b04d8)" style="fill: #1f77b4"/>
   </g>
   <g id="patch_187">
    <path d="M 507.028636 499.197187 
L 509.057727 499.197187 
L 509.057727 499.173524 
L 507.028636 499.173524 
z
" clip-path="url(#p66cb2b04d8)" style="fill: #1f77b4"/>
   </g>
   <g id="patch_188">
    <path d="M 509.057727 499.197187 
L 511.086818 499.197187 
L 511.086818 499.173524 
L 509.057727 499.173524 
z
" clip-path="url(#p66cb2b04d8)" style="fill: #1f77b4"/>
   </g>
   <g id="patch_189">
    <path d="M 511.086818 499.197187 
L 513.115909 499.197187 
L 513.115909 499.197187 
L 511.086818 499.197187 
z
" clip-path="url(#p66cb2b04d8)" style="fill: #1f77b4"/>
   </g>
   <g id="patch_190">
    <path d="M 513.115909 499.197187 
L 515.145 499.197187 
L 515.145 499.181412 
L 513.115909 499.181412 
z
" clip-path="url(#p66cb2b04d8)" style="fill: #1f77b4"/>
   </g>
   <g id="patch_191">
    <path d="M 515.145 499.197187 
L 517.174091 499.197187 
L 517.174091 499.165636 
L 515.145 499.165636 
z
" clip-path="url(#p66cb2b04d8)" style="fill: #1f77b4"/>
   </g>
   <g id="patch_192">
    <path d="M 517.174091 499.197187 
L 519.203182 499.197187 
L 519.203182 499.1893 
L 517.174091 499.1893 
z
" clip-path="url(#p66cb2b04d8)" style="fill: #1f77b4"/>
   </g>
   <g id="patch_193">
    <path d="M 519.203182 499.197187 
L 521.232273 499.197187 
L 521.232273 499.197187 
L 519.203182 499.197187 
z
" clip-path="url(#p66cb2b04d8)" style="fill: #1f77b4"/>
   </g>
   <g id="patch_194">
    <path d="M 521.232273 499.197187 
L 523.261364 499.197187 
L 523.261364 499.165636 
L 521.232273 499.165636 
z
" clip-path="url(#p66cb2b04d8)" style="fill: #1f77b4"/>
   </g>
   <g id="patch_195">
    <path d="M 523.261364 499.197187 
L 525.290455 499.197187 
L 525.290455 499.181412 
L 523.261364 499.181412 
z
" clip-path="url(#p66cb2b04d8)" style="fill: #1f77b4"/>
   </g>
   <g id="patch_196">
    <path d="M 525.290455 499.197187 
L 527.319545 499.197187 
L 527.319545 499.197187 
L 525.290455 499.197187 
z
" clip-path="url(#p66cb2b04d8)" style="fill: #1f77b4"/>
   </g>
   <g id="patch_197">
    <path d="M 527.319545 499.197187 
L 529.348636 499.197187 
L 529.348636 499.197187 
L 527.319545 499.197187 
z
" clip-path="url(#p66cb2b04d8)" style="fill: #1f77b4"/>
   </g>
   <g id="patch_198">
    <path d="M 529.348636 499.197187 
L 531.377727 499.197187 
L 531.377727 499.1893 
L 529.348636 499.1893 
z
" clip-path="url(#p66cb2b04d8)" style="fill: #1f77b4"/>
   </g>
   <g id="patch_199">
    <path d="M 531.377727 499.197187 
L 533.406818 499.197187 
L 533.406818 499.197187 
L 531.377727 499.197187 
z
" clip-path="url(#p66cb2b04d8)" style="fill: #1f77b4"/>
   </g>
   <g id="patch_200">
    <path d="M 533.406818 499.197187 
L 535.435909 499.197187 
L 535.435909 499.181412 
L 533.406818 499.181412 
z
" clip-path="url(#p66cb2b04d8)" style="fill: #1f77b4"/>
   </g>
   <g id="patch_201">
    <path d="M 535.435909 499.197187 
L 537.465 499.197187 
L 537.465 499.197187 
L 535.435909 499.197187 
z
" clip-path="url(#p66cb2b04d8)" style="fill: #1f77b4"/>
   </g>
   <g id="patch_202">
    <path d="M 537.465 499.197187 
L 539.494091 499.197187 
L 539.494091 499.1893 
L 537.465 499.1893 
z
" clip-path="url(#p66cb2b04d8)" style="fill: #1f77b4"/>
   </g>
   <g id="matplotlib.axis_1">
    <g id="xtick_1">
     <g id="line2d_1">
      <defs>
       <path id="m07a73e6232" d="M 0 0 
L 0 3.5 
" style="stroke: #000000; stroke-width: 0.8"/>
      </defs>
      <g>
       <use xlink:href="#m07a73e6232" x="117.04991" y="499.197187" style="stroke: #000000; stroke-width: 0.8"/>
      </g>
     </g>
     <g id="text_1">
      <!-- −2 -->
      <g transform="translate(105.25616 518.354687) scale(0.16 -0.16)">
       <defs>
        <path id="DejaVuSans-2212" d="M 678 2272 
L 4684 2272 
L 4684 1741 
L 678 1741 
L 678 2272 
z
" transform="scale(0.015625)"/>
        <path id="DejaVuSans-32" d="M 1228 531 
L 3431 531 
L 3431 0 
L 469 0 
L 469 531 
Q 828 903 1448 1529 
Q 2069 2156 2228 2338 
Q 2531 2678 2651 2914 
Q 2772 3150 2772 3378 
Q 2772 3750 2511 3984 
Q 2250 4219 1831 4219 
Q 1534 4219 1204 4116 
Q 875 4013 500 3803 
L 500 4441 
Q 881 4594 1212 4672 
Q 1544 4750 1819 4750 
Q 2544 4750 2975 4387 
Q 3406 4025 3406 3419 
Q 3406 3131 3298 2873 
Q 3191 2616 2906 2266 
Q 2828 2175 2409 1742 
Q 1991 1309 1228 531 
z
" transform="scale(0.015625)"/>
       </defs>
       <use xlink:href="#DejaVuSans-2212"/>
       <use xlink:href="#DejaVuSans-32" x="83.789062"/>
      </g>
     </g>
    </g>
    <g id="xtick_2">
     <g id="line2d_2">
      <g>
       <use xlink:href="#m07a73e6232" x="214.592712" y="499.197187" style="stroke: #000000; stroke-width: 0.8"/>
      </g>
     </g>
     <g id="text_2">
      <!-- 0 -->
      <g transform="translate(209.502712 518.354687) scale(0.16 -0.16)">
       <defs>
        <path id="DejaVuSans-30" d="M 2034 4250 
Q 1547 4250 1301 3770 
Q 1056 3291 1056 2328 
Q 1056 1369 1301 889 
Q 1547 409 2034 409 
Q 2525 409 2770 889 
Q 3016 1369 3016 2328 
Q 3016 3291 2770 3770 
Q 2525 4250 2034 4250 
z
M 2034 4750 
Q 2819 4750 3233 4129 
Q 3647 3509 3647 2328 
Q 3647 1150 3233 529 
Q 2819 -91 2034 -91 
Q 1250 -91 836 529 
Q 422 1150 422 2328 
Q 422 3509 836 4129 
Q 1250 4750 2034 4750 
z
" transform="scale(0.015625)"/>
       </defs>
       <use xlink:href="#DejaVuSans-30"/>
      </g>
     </g>
    </g>
    <g id="xtick_3">
     <g id="line2d_3">
      <g>
       <use xlink:href="#m07a73e6232" x="312.135514" y="499.197187" style="stroke: #000000; stroke-width: 0.8"/>
      </g>
     </g>
     <g id="text_3">
      <!-- 2 -->
      <g transform="translate(307.045514 518.354687) scale(0.16 -0.16)">
       <use xlink:href="#DejaVuSans-32"/>
      </g>
     </g>
    </g>
    <g id="xtick_4">
     <g id="line2d_4">
      <g>
       <use xlink:href="#m07a73e6232" x="409.678317" y="499.197187" style="stroke: #000000; stroke-width: 0.8"/>
      </g>
     </g>
     <g id="text_4">
      <!-- 4 -->
      <g transform="translate(404.588317 518.354687) scale(0.16 -0.16)">
       <defs>
        <path id="DejaVuSans-34" d="M 2419 4116 
L 825 1625 
L 2419 1625 
L 2419 4116 
z
M 2253 4666 
L 3047 4666 
L 3047 1625 
L 3713 1625 
L 3713 1100 
L 3047 1100 
L 3047 0 
L 2419 0 
L 2419 1100 
L 313 1100 
L 313 1709 
L 2253 4666 
z
" transform="scale(0.015625)"/>
       </defs>
       <use xlink:href="#DejaVuSans-34"/>
      </g>
     </g>
    </g>
    <g id="xtick_5">
     <g id="line2d_5">
      <g>
       <use xlink:href="#m07a73e6232" x="507.221119" y="499.197187" style="stroke: #000000; stroke-width: 0.8"/>
      </g>
     </g>
     <g id="text_5">
      <!-- 6 -->
      <g transform="translate(502.131119 518.354687) scale(0.16 -0.16)">
       <defs>
        <path id="DejaVuSans-36" d="M 2113 2584 
Q 1688 2584 1439 2293 
Q 1191 2003 1191 1497 
Q 1191 994 1439 701 
Q 1688 409 2113 409 
Q 2538 409 2786 701 
Q 3034 994 3034 1497 
Q 3034 2003 2786 2293 
Q 2538 2584 2113 2584 
z
M 3366 4563 
L 3366 3988 
Q 3128 4100 2886 4159 
Q 2644 4219 2406 4219 
Q 1781 4219 1451 3797 
Q 1122 3375 1075 2522 
Q 1259 2794 1537 2939 
Q 1816 3084 2150 3084 
Q 2853 3084 3261 2657 
Q 3669 2231 3669 1497 
Q 3669 778 3244 343 
Q 2819 -91 2113 -91 
Q 1303 -91 875 529 
Q 447 1150 447 2328 
Q 447 3434 972 4092 
Q 1497 4750 2381 4750 
Q 2619 4750 2861 4703 
Q 3103 4656 3366 4563 
z
" transform="scale(0.015625)"/>
       </defs>
       <use xlink:href="#DejaVuSans-36"/>
      </g>
     </g>
    </g>
    <g id="text_6">
     <!-- pixel height -->
     <g transform="translate(289.61125 537.839687) scale(0.16 -0.16)">
      <defs>
       <path id="DejaVuSans-70" d="M 1159 525 
L 1159 -1331 
L 581 -1331 
L 581 3500 
L 1159 3500 
L 1159 2969 
Q 1341 3281 1617 3432 
Q 1894 3584 2278 3584 
Q 2916 3584 3314 3078 
Q 3713 2572 3713 1747 
Q 3713 922 3314 415 
Q 2916 -91 2278 -91 
Q 1894 -91 1617 61 
Q 1341 213 1159 525 
z
M 3116 1747 
Q 3116 2381 2855 2742 
Q 2594 3103 2138 3103 
Q 1681 3103 1420 2742 
Q 1159 2381 1159 1747 
Q 1159 1113 1420 752 
Q 1681 391 2138 391 
Q 2594 391 2855 752 
Q 3116 1113 3116 1747 
z
" transform="scale(0.015625)"/>
       <path id="DejaVuSans-69" d="M 603 3500 
L 1178 3500 
L 1178 0 
L 603 0 
L 603 3500 
z
M 603 4863 
L 1178 4863 
L 1178 4134 
L 603 4134 
L 603 4863 
z
" transform="scale(0.015625)"/>
       <path id="DejaVuSans-78" d="M 3513 3500 
L 2247 1797 
L 3578 0 
L 2900 0 
L 1881 1375 
L 863 0 
L 184 0 
L 1544 1831 
L 300 3500 
L 978 3500 
L 1906 2253 
L 2834 3500 
L 3513 3500 
z
" transform="scale(0.015625)"/>
       <path id="DejaVuSans-65" d="M 3597 1894 
L 3597 1613 
L 953 1613 
Q 991 1019 1311 708 
Q 1631 397 2203 397 
Q 2534 397 2845 478 
Q 3156 559 3463 722 
L 3463 178 
Q 3153 47 2828 -22 
Q 2503 -91 2169 -91 
Q 1331 -91 842 396 
Q 353 884 353 1716 
Q 353 2575 817 3079 
Q 1281 3584 2069 3584 
Q 2775 3584 3186 3129 
Q 3597 2675 3597 1894 
z
M 3022 2063 
Q 3016 2534 2758 2815 
Q 2500 3097 2075 3097 
Q 1594 3097 1305 2825 
Q 1016 2553 972 2059 
L 3022 2063 
z
" transform="scale(0.015625)"/>
       <path id="DejaVuSans-6c" d="M 603 4863 
L 1178 4863 
L 1178 0 
L 603 0 
L 603 4863 
z
" transform="scale(0.015625)"/>
       <path id="DejaVuSans-20" transform="scale(0.015625)"/>
       <path id="DejaVuSans-68" d="M 3513 2113 
L 3513 0 
L 2938 0 
L 2938 2094 
Q 2938 2591 2744 2837 
Q 2550 3084 2163 3084 
Q 1697 3084 1428 2787 
Q 1159 2491 1159 1978 
L 1159 0 
L 581 0 
L 581 4863 
L 1159 4863 
L 1159 2956 
Q 1366 3272 1645 3428 
Q 1925 3584 2291 3584 
Q 2894 3584 3203 3211 
Q 3513 2838 3513 2113 
z
" transform="scale(0.015625)"/>
       <path id="DejaVuSans-67" d="M 2906 1791 
Q 2906 2416 2648 2759 
Q 2391 3103 1925 3103 
Q 1463 3103 1205 2759 
Q 947 2416 947 1791 
Q 947 1169 1205 825 
Q 1463 481 1925 481 
Q 2391 481 2648 825 
Q 2906 1169 2906 1791 
z
M 3481 434 
Q 3481 -459 3084 -895 
Q 2688 -1331 1869 -1331 
Q 1566 -1331 1297 -1286 
Q 1028 -1241 775 -1147 
L 775 -588 
Q 1028 -725 1275 -790 
Q 1522 -856 1778 -856 
Q 2344 -856 2625 -561 
Q 2906 -266 2906 331 
L 2906 616 
Q 2728 306 2450 153 
Q 2172 0 1784 0 
Q 1141 0 747 490 
Q 353 981 353 1791 
Q 353 2603 747 3093 
Q 1141 3584 1784 3584 
Q 2172 3584 2450 3431 
Q 2728 3278 2906 2969 
L 2906 3500 
L 3481 3500 
L 3481 434 
z
" transform="scale(0.015625)"/>
       <path id="DejaVuSans-74" d="M 1172 4494 
L 1172 3500 
L 2356 3500 
L 2356 3053 
L 1172 3053 
L 1172 1153 
Q 1172 725 1289 603 
Q 1406 481 1766 481 
L 2356 481 
L 2356 0 
L 1766 0 
Q 1100 0 847 248 
Q 594 497 594 1153 
L 594 3053 
L 172 3053 
L 172 3500 
L 594 3500 
L 594 4494 
L 1172 4494 
z
" transform="scale(0.015625)"/>
      </defs>
      <use xlink:href="#DejaVuSans-70"/>
      <use xlink:href="#DejaVuSans-69" x="63.476562"/>
      <use xlink:href="#DejaVuSans-78" x="91.259766"/>
      <use xlink:href="#DejaVuSans-65" x="147.314453"/>
      <use xlink:href="#DejaVuSans-6c" x="208.837891"/>
      <use xlink:href="#DejaVuSans-20" x="236.621094"/>
      <use xlink:href="#DejaVuSans-68" x="268.408203"/>
      <use xlink:href="#DejaVuSans-65" x="331.787109"/>
      <use xlink:href="#DejaVuSans-69" x="393.310547"/>
      <use xlink:href="#DejaVuSans-67" x="421.09375"/>
      <use xlink:href="#DejaVuSans-68" x="484.570312"/>
      <use xlink:href="#DejaVuSans-74" x="547.949219"/>
     </g>
    </g>
   </g>
   <g id="matplotlib.axis_2">
    <g id="ytick_1">
     <g id="line2d_6">
      <defs>
       <path id="m06ab6d4c64" d="M 0 0 
L -3.5 0 
" style="stroke: #000000; stroke-width: 0.8"/>
      </defs>
      <g>
       <use xlink:href="#m06ab6d4c64" x="113.385" y="499.197187" style="stroke: #000000; stroke-width: 0.8"/>
      </g>
     </g>
     <g id="text_7">
      <!-- 0 -->
      <g transform="translate(96.205 505.275937) scale(0.16 -0.16)">
       <use xlink:href="#DejaVuSans-30"/>
      </g>
     </g>
    </g>
    <g id="ytick_2">
     <g id="line2d_7">
      <g>
       <use xlink:href="#m06ab6d4c64" x="113.385" y="420.319109" style="stroke: #000000; stroke-width: 0.8"/>
      </g>
     </g>
     <g id="text_8">
      <!-- 10000 -->
      <g transform="translate(55.485 426.397859) scale(0.16 -0.16)">
       <defs>
        <path id="DejaVuSans-31" d="M 794 531 
L 1825 531 
L 1825 4091 
L 703 3866 
L 703 4441 
L 1819 4666 
L 2450 4666 
L 2450 531 
L 3481 531 
L 3481 0 
L 794 0 
L 794 531 
z
" transform="scale(0.015625)"/>
       </defs>
       <use xlink:href="#DejaVuSans-31"/>
       <use xlink:href="#DejaVuSans-30" x="63.623047"/>
       <use xlink:href="#DejaVuSans-30" x="127.246094"/>
       <use xlink:href="#DejaVuSans-30" x="190.869141"/>
       <use xlink:href="#DejaVuSans-30" x="254.492188"/>
      </g>
     </g>
    </g>
    <g id="ytick_3">
     <g id="line2d_8">
      <g>
       <use xlink:href="#m06ab6d4c64" x="113.385" y="341.44103" style="stroke: #000000; stroke-width: 0.8"/>
      </g>
     </g>
     <g id="text_9">
      <!-- 20000 -->
      <g transform="translate(55.485 347.51978) scale(0.16 -0.16)">
       <use xlink:href="#DejaVuSans-32"/>
       <use xlink:href="#DejaVuSans-30" x="63.623047"/>
       <use xlink:href="#DejaVuSans-30" x="127.246094"/>
       <use xlink:href="#DejaVuSans-30" x="190.869141"/>
       <use xlink:href="#DejaVuSans-30" x="254.492188"/>
      </g>
     </g>
    </g>
    <g id="ytick_4">
     <g id="line2d_9">
      <g>
       <use xlink:href="#m06ab6d4c64" x="113.385" y="262.562951" style="stroke: #000000; stroke-width: 0.8"/>
      </g>
     </g>
     <g id="text_10">
      <!-- 30000 -->
      <g transform="translate(55.485 268.641701) scale(0.16 -0.16)">
       <defs>
        <path id="DejaVuSans-33" d="M 2597 2516 
Q 3050 2419 3304 2112 
Q 3559 1806 3559 1356 
Q 3559 666 3084 287 
Q 2609 -91 1734 -91 
Q 1441 -91 1130 -33 
Q 819 25 488 141 
L 488 750 
Q 750 597 1062 519 
Q 1375 441 1716 441 
Q 2309 441 2620 675 
Q 2931 909 2931 1356 
Q 2931 1769 2642 2001 
Q 2353 2234 1838 2234 
L 1294 2234 
L 1294 2753 
L 1863 2753 
Q 2328 2753 2575 2939 
Q 2822 3125 2822 3475 
Q 2822 3834 2567 4026 
Q 2313 4219 1838 4219 
Q 1578 4219 1281 4162 
Q 984 4106 628 3988 
L 628 4550 
Q 988 4650 1302 4700 
Q 1616 4750 1894 4750 
Q 2613 4750 3031 4423 
Q 3450 4097 3450 3541 
Q 3450 3153 3228 2886 
Q 3006 2619 2597 2516 
z
" transform="scale(0.015625)"/>
       </defs>
       <use xlink:href="#DejaVuSans-33"/>
       <use xlink:href="#DejaVuSans-30" x="63.623047"/>
       <use xlink:href="#DejaVuSans-30" x="127.246094"/>
       <use xlink:href="#DejaVuSans-30" x="190.869141"/>
       <use xlink:href="#DejaVuSans-30" x="254.492188"/>
      </g>
     </g>
    </g>
    <g id="ytick_5">
     <g id="line2d_10">
      <g>
       <use xlink:href="#m06ab6d4c64" x="113.385" y="183.684872" style="stroke: #000000; stroke-width: 0.8"/>
      </g>
     </g>
     <g id="text_11">
      <!-- 40000 -->
      <g transform="translate(55.485 189.763622) scale(0.16 -0.16)">
       <use xlink:href="#DejaVuSans-34"/>
       <use xlink:href="#DejaVuSans-30" x="63.623047"/>
       <use xlink:href="#DejaVuSans-30" x="127.246094"/>
       <use xlink:href="#DejaVuSans-30" x="190.869141"/>
       <use xlink:href="#DejaVuSans-30" x="254.492188"/>
      </g>
     </g>
    </g>
    <g id="ytick_6">
     <g id="line2d_11">
      <g>
       <use xlink:href="#m06ab6d4c64" x="113.385" y="104.806793" style="stroke: #000000; stroke-width: 0.8"/>
      </g>
     </g>
     <g id="text_12">
      <!-- 50000 -->
      <g transform="translate(55.485 110.885543) scale(0.16 -0.16)">
       <defs>
        <path id="DejaVuSans-35" d="M 691 4666 
L 3169 4666 
L 3169 4134 
L 1269 4134 
L 1269 2991 
Q 1406 3038 1543 3061 
Q 1681 3084 1819 3084 
Q 2600 3084 3056 2656 
Q 3513 2228 3513 1497 
Q 3513 744 3044 326 
Q 2575 -91 1722 -91 
Q 1428 -91 1123 -41 
Q 819 9 494 109 
L 494 744 
Q 775 591 1075 516 
Q 1375 441 1709 441 
Q 2250 441 2565 725 
Q 2881 1009 2881 1497 
Q 2881 1984 2565 2268 
Q 2250 2553 1709 2553 
Q 1456 2553 1204 2497 
Q 953 2441 691 2322 
L 691 4666 
z
" transform="scale(0.015625)"/>
       </defs>
       <use xlink:href="#DejaVuSans-35"/>
       <use xlink:href="#DejaVuSans-30" x="63.623047"/>
       <use xlink:href="#DejaVuSans-30" x="127.246094"/>
       <use xlink:href="#DejaVuSans-30" x="190.869141"/>
       <use xlink:href="#DejaVuSans-30" x="254.492188"/>
      </g>
     </g>
    </g>
    <g id="text_13">
     <!-- frequency in image -->
     <g transform="translate(48.1575 354.855937) rotate(-90) scale(0.16 -0.16)">
      <defs>
       <path id="DejaVuSans-66" d="M 2375 4863 
L 2375 4384 
L 1825 4384 
Q 1516 4384 1395 4259 
Q 1275 4134 1275 3809 
L 1275 3500 
L 2222 3500 
L 2222 3053 
L 1275 3053 
L 1275 0 
L 697 0 
L 697 3053 
L 147 3053 
L 147 3500 
L 697 3500 
L 697 3744 
Q 697 4328 969 4595 
Q 1241 4863 1831 4863 
L 2375 4863 
z
" transform="scale(0.015625)"/>
       <path id="DejaVuSans-72" d="M 2631 2963 
Q 2534 3019 2420 3045 
Q 2306 3072 2169 3072 
Q 1681 3072 1420 2755 
Q 1159 2438 1159 1844 
L 1159 0 
L 581 0 
L 581 3500 
L 1159 3500 
L 1159 2956 
Q 1341 3275 1631 3429 
Q 1922 3584 2338 3584 
Q 2397 3584 2469 3576 
Q 2541 3569 2628 3553 
L 2631 2963 
z
" transform="scale(0.015625)"/>
       <path id="DejaVuSans-71" d="M 947 1747 
Q 947 1113 1208 752 
Q 1469 391 1925 391 
Q 2381 391 2643 752 
Q 2906 1113 2906 1747 
Q 2906 2381 2643 2742 
Q 2381 3103 1925 3103 
Q 1469 3103 1208 2742 
Q 947 2381 947 1747 
z
M 2906 525 
Q 2725 213 2448 61 
Q 2172 -91 1784 -91 
Q 1150 -91 751 415 
Q 353 922 353 1747 
Q 353 2572 751 3078 
Q 1150 3584 1784 3584 
Q 2172 3584 2448 3432 
Q 2725 3281 2906 2969 
L 2906 3500 
L 3481 3500 
L 3481 -1331 
L 2906 -1331 
L 2906 525 
z
" transform="scale(0.015625)"/>
       <path id="DejaVuSans-75" d="M 544 1381 
L 544 3500 
L 1119 3500 
L 1119 1403 
Q 1119 906 1312 657 
Q 1506 409 1894 409 
Q 2359 409 2629 706 
Q 2900 1003 2900 1516 
L 2900 3500 
L 3475 3500 
L 3475 0 
L 2900 0 
L 2900 538 
Q 2691 219 2414 64 
Q 2138 -91 1772 -91 
Q 1169 -91 856 284 
Q 544 659 544 1381 
z
M 1991 3584 
L 1991 3584 
z
" transform="scale(0.015625)"/>
       <path id="DejaVuSans-6e" d="M 3513 2113 
L 3513 0 
L 2938 0 
L 2938 2094 
Q 2938 2591 2744 2837 
Q 2550 3084 2163 3084 
Q 1697 3084 1428 2787 
Q 1159 2491 1159 1978 
L 1159 0 
L 581 0 
L 581 3500 
L 1159 3500 
L 1159 2956 
Q 1366 3272 1645 3428 
Q 1925 3584 2291 3584 
Q 2894 3584 3203 3211 
Q 3513 2838 3513 2113 
z
" transform="scale(0.015625)"/>
       <path id="DejaVuSans-63" d="M 3122 3366 
L 3122 2828 
Q 2878 2963 2633 3030 
Q 2388 3097 2138 3097 
Q 1578 3097 1268 2742 
Q 959 2388 959 1747 
Q 959 1106 1268 751 
Q 1578 397 2138 397 
Q 2388 397 2633 464 
Q 2878 531 3122 666 
L 3122 134 
Q 2881 22 2623 -34 
Q 2366 -91 2075 -91 
Q 1284 -91 818 406 
Q 353 903 353 1747 
Q 353 2603 823 3093 
Q 1294 3584 2113 3584 
Q 2378 3584 2631 3529 
Q 2884 3475 3122 3366 
z
" transform="scale(0.015625)"/>
       <path id="DejaVuSans-79" d="M 2059 -325 
Q 1816 -950 1584 -1140 
Q 1353 -1331 966 -1331 
L 506 -1331 
L 506 -850 
L 844 -850 
Q 1081 -850 1212 -737 
Q 1344 -625 1503 -206 
L 1606 56 
L 191 3500 
L 800 3500 
L 1894 763 
L 2988 3500 
L 3597 3500 
L 2059 -325 
z
" transform="scale(0.015625)"/>
       <path id="DejaVuSans-6d" d="M 3328 2828 
Q 3544 3216 3844 3400 
Q 4144 3584 4550 3584 
Q 5097 3584 5394 3201 
Q 5691 2819 5691 2113 
L 5691 0 
L 5113 0 
L 5113 2094 
Q 5113 2597 4934 2840 
Q 4756 3084 4391 3084 
Q 3944 3084 3684 2787 
Q 3425 2491 3425 1978 
L 3425 0 
L 2847 0 
L 2847 2094 
Q 2847 2600 2669 2842 
Q 2491 3084 2119 3084 
Q 1678 3084 1418 2786 
Q 1159 2488 1159 1978 
L 1159 0 
L 581 0 
L 581 3500 
L 1159 3500 
L 1159 2956 
Q 1356 3278 1631 3431 
Q 1906 3584 2284 3584 
Q 2666 3584 2933 3390 
Q 3200 3197 3328 2828 
z
" transform="scale(0.015625)"/>
       <path id="DejaVuSans-61" d="M 2194 1759 
Q 1497 1759 1228 1600 
Q 959 1441 959 1056 
Q 959 750 1161 570 
Q 1363 391 1709 391 
Q 2188 391 2477 730 
Q 2766 1069 2766 1631 
L 2766 1759 
L 2194 1759 
z
M 3341 1997 
L 3341 0 
L 2766 0 
L 2766 531 
Q 2569 213 2275 61 
Q 1981 -91 1556 -91 
Q 1019 -91 701 211 
Q 384 513 384 1019 
Q 384 1609 779 1909 
Q 1175 2209 1959 2209 
L 2766 2209 
L 2766 2266 
Q 2766 2663 2505 2880 
Q 2244 3097 1772 3097 
Q 1472 3097 1187 3025 
Q 903 2953 641 2809 
L 641 3341 
Q 956 3463 1253 3523 
Q 1550 3584 1831 3584 
Q 2591 3584 2966 3190 
Q 3341 2797 3341 1997 
z
" transform="scale(0.015625)"/>
      </defs>
      <use xlink:href="#DejaVuSans-66"/>
      <use xlink:href="#DejaVuSans-72" x="35.205078"/>
      <use xlink:href="#DejaVuSans-65" x="74.068359"/>
      <use xlink:href="#DejaVuSans-71" x="135.591797"/>
      <use xlink:href="#DejaVuSans-75" x="199.068359"/>
      <use xlink:href="#DejaVuSans-65" x="262.447266"/>
      <use xlink:href="#DejaVuSans-6e" x="323.970703"/>
      <use xlink:href="#DejaVuSans-63" x="387.349609"/>
      <use xlink:href="#DejaVuSans-79" x="442.330078"/>
      <use xlink:href="#DejaVuSans-20" x="501.509766"/>
      <use xlink:href="#DejaVuSans-69" x="533.296875"/>
      <use xlink:href="#DejaVuSans-6e" x="561.080078"/>
      <use xlink:href="#DejaVuSans-20" x="624.458984"/>
      <use xlink:href="#DejaVuSans-69" x="656.246094"/>
      <use xlink:href="#DejaVuSans-6d" x="684.029297"/>
      <use xlink:href="#DejaVuSans-61" x="781.441406"/>
      <use xlink:href="#DejaVuSans-67" x="842.720703"/>
      <use xlink:href="#DejaVuSans-65" x="906.197266"/>
     </g>
    </g>
   </g>
   <g id="patch_203">
    <path d="M 113.385 499.197187 
L 113.385 55.677187 
" style="fill: none; stroke: #000000; stroke-width: 0.8; stroke-linejoin: miter; stroke-linecap: square"/>
   </g>
   <g id="patch_204">
    <path d="M 559.785 499.197187 
L 559.785 55.677187 
" style="fill: none; stroke: #000000; stroke-width: 0.8; stroke-linejoin: miter; stroke-linecap: square"/>
   </g>
   <g id="patch_205">
    <path d="M 113.385 499.197187 
L 559.785 499.197187 
" style="fill: none; stroke: #000000; stroke-width: 0.8; stroke-linejoin: miter; stroke-linecap: square"/>
   </g>
   <g id="patch_206">
    <path d="M 113.385 55.677187 
L 559.785 55.677187 
" style="fill: none; stroke: #000000; stroke-width: 0.8; stroke-linejoin: miter; stroke-linecap: square"/>
   </g>
   <g id="text_14">
    <!-- Secondary scar removal -->
    <g transform="translate(227.694844 49.677187) scale(0.18 -0.18)">
     <defs>
      <path id="DejaVuSans-53" d="M 3425 4513 
L 3425 3897 
Q 3066 4069 2747 4153 
Q 2428 4238 2131 4238 
Q 1616 4238 1336 4038 
Q 1056 3838 1056 3469 
Q 1056 3159 1242 3001 
Q 1428 2844 1947 2747 
L 2328 2669 
Q 3034 2534 3370 2195 
Q 3706 1856 3706 1288 
Q 3706 609 3251 259 
Q 2797 -91 1919 -91 
Q 1588 -91 1214 -16 
Q 841 59 441 206 
L 441 856 
Q 825 641 1194 531 
Q 1563 422 1919 422 
Q 2459 422 2753 634 
Q 3047 847 3047 1241 
Q 3047 1584 2836 1778 
Q 2625 1972 2144 2069 
L 1759 2144 
Q 1053 2284 737 2584 
Q 422 2884 422 3419 
Q 422 4038 858 4394 
Q 1294 4750 2059 4750 
Q 2388 4750 2728 4690 
Q 3069 4631 3425 4513 
z
" transform="scale(0.015625)"/>
      <path id="DejaVuSans-6f" d="M 1959 3097 
Q 1497 3097 1228 2736 
Q 959 2375 959 1747 
Q 959 1119 1226 758 
Q 1494 397 1959 397 
Q 2419 397 2687 759 
Q 2956 1122 2956 1747 
Q 2956 2369 2687 2733 
Q 2419 3097 1959 3097 
z
M 1959 3584 
Q 2709 3584 3137 3096 
Q 3566 2609 3566 1747 
Q 3566 888 3137 398 
Q 2709 -91 1959 -91 
Q 1206 -91 779 398 
Q 353 888 353 1747 
Q 353 2609 779 3096 
Q 1206 3584 1959 3584 
z
" transform="scale(0.015625)"/>
      <path id="DejaVuSans-64" d="M 2906 2969 
L 2906 4863 
L 3481 4863 
L 3481 0 
L 2906 0 
L 2906 525 
Q 2725 213 2448 61 
Q 2172 -91 1784 -91 
Q 1150 -91 751 415 
Q 353 922 353 1747 
Q 353 2572 751 3078 
Q 1150 3584 1784 3584 
Q 2172 3584 2448 3432 
Q 2725 3281 2906 2969 
z
M 947 1747 
Q 947 1113 1208 752 
Q 1469 391 1925 391 
Q 2381 391 2643 752 
Q 2906 1113 2906 1747 
Q 2906 2381 2643 2742 
Q 2381 3103 1925 3103 
Q 1469 3103 1208 2742 
Q 947 2381 947 1747 
z
" transform="scale(0.015625)"/>
      <path id="DejaVuSans-73" d="M 2834 3397 
L 2834 2853 
Q 2591 2978 2328 3040 
Q 2066 3103 1784 3103 
Q 1356 3103 1142 2972 
Q 928 2841 928 2578 
Q 928 2378 1081 2264 
Q 1234 2150 1697 2047 
L 1894 2003 
Q 2506 1872 2764 1633 
Q 3022 1394 3022 966 
Q 3022 478 2636 193 
Q 2250 -91 1575 -91 
Q 1294 -91 989 -36 
Q 684 19 347 128 
L 347 722 
Q 666 556 975 473 
Q 1284 391 1588 391 
Q 1994 391 2212 530 
Q 2431 669 2431 922 
Q 2431 1156 2273 1281 
Q 2116 1406 1581 1522 
L 1381 1569 
Q 847 1681 609 1914 
Q 372 2147 372 2553 
Q 372 3047 722 3315 
Q 1072 3584 1716 3584 
Q 2034 3584 2315 3537 
Q 2597 3491 2834 3397 
z
" transform="scale(0.015625)"/>
      <path id="DejaVuSans-76" d="M 191 3500 
L 800 3500 
L 1894 563 
L 2988 3500 
L 3597 3500 
L 2284 0 
L 1503 0 
L 191 3500 
z
" transform="scale(0.015625)"/>
     </defs>
     <use xlink:href="#DejaVuSans-53"/>
     <use xlink:href="#DejaVuSans-65" x="63.476562"/>
     <use xlink:href="#DejaVuSans-63" x="125"/>
     <use xlink:href="#DejaVuSans-6f" x="179.980469"/>
     <use xlink:href="#DejaVuSans-6e" x="241.162109"/>
     <use xlink:href="#DejaVuSans-64" x="304.541016"/>
     <use xlink:href="#DejaVuSans-61" x="368.017578"/>
     <use xlink:href="#DejaVuSans-72" x="429.296875"/>
     <use xlink:href="#DejaVuSans-79" x="470.410156"/>
     <use xlink:href="#DejaVuSans-20" x="529.589844"/>
     <use xlink:href="#DejaVuSans-73" x="561.376953"/>
     <use xlink:href="#DejaVuSans-63" x="613.476562"/>
     <use xlink:href="#DejaVuSans-61" x="668.457031"/>
     <use xlink:href="#DejaVuSans-72" x="729.736328"/>
     <use xlink:href="#DejaVuSans-20" x="770.849609"/>
     <use xlink:href="#DejaVuSans-72" x="802.636719"/>
     <use xlink:href="#DejaVuSans-65" x="841.5"/>
     <use xlink:href="#DejaVuSans-6d" x="903.023438"/>
     <use xlink:href="#DejaVuSans-6f" x="1000.435547"/>
     <use xlink:href="#DejaVuSans-76" x="1061.617188"/>
     <use xlink:href="#DejaVuSans-61" x="1120.796875"/>
     <use xlink:href="#DejaVuSans-6c" x="1182.076172"/>
    </g>
   </g>
  </g>
 </g>
 <defs>
  <clipPath id="p66cb2b04d8">
   <rect x="113.385" y="55.677187" width="446.4" height="443.52"/>
  </clipPath>
 </defs>
</svg>
